<?xml version="1.0" standalone="no"?>
<!DOCTYPE svg PUBLIC "-//W3C//DTD SVG 1.1//EN" "http://www.w3.org/Graphics/SVG/1.1/DTD/svg11.dtd" >
<svg xmlns="http://www.w3.org/2000/svg">
<metadata></metadata>
<defs>
<font id="corporate_e_w10_bold_italicRg" horiz-adv-x="1064" >
<font-face units-per-em="2048" ascent="1509" descent="-539" />
<missing-glyph horiz-adv-x="512" />
<glyph unicode=" "  horiz-adv-x="512" />
<glyph unicode="&#x09;" horiz-adv-x="512" />
<glyph unicode="&#xa0;" horiz-adv-x="512" />
<glyph unicode="!" horiz-adv-x="462" d="M-18 0l65 260h254l-65 -260h-254zM102 418l203 913h262l-254 -913h-211z" />
<glyph unicode="&#x22;" horiz-adv-x="729" d="M303 1366h205l-35 -459h-135zM575 1366h205l-35 -459h-135z" />
<glyph unicode="#" horiz-adv-x="1024" d="M51 426l29 184h174l27 178h-172l28 185h174l62 393h207l-62 -393h166l61 393h222l-62 -393h172l-28 -185h-172l-29 -178h172l-31 -184h-170l-67 -426h-224l68 426h-164l-67 -426h-209l67 426h-172zM461 610h166l26 178h-164z" />
<glyph unicode="$" d="M-20 0l114 457h144q-7 -52 -7 -55q-2 -26 -2 -35q0 -177 174 -211l99 458q-80 45 -123 77q-41 30 -70 61q-84 96 -84 229q0 89 33 162q34 75 91 128q61 56 139 85q81 30 180 30l32 158h111l-37 -168q110 -24 172 -98l23 88h137l-100 -395h-136q2 24 2 28v23 q0 149 -133 188l-84 -387l63 -39l44 -28q17 -11 32 -23q5 -4 14 -11.5t13 -10.5q69 -58 99 -124t30 -159q0 -99 -34 -179q-35 -82 -96 -139q-64 -60 -150 -93q-83 -32 -195 -37l-41 -187h-108l41 195q-72 11 -125 44q-57 35 -90 83l-29 -115h-143zM461 1034q0 -49 20 -79 q21 -31 78 -72l70 329q-82 -16 -125 -61q-43 -44 -43 -117zM512 154q94 15 144 73q53 61 53 150q0 57 -24 95q-25 38 -87 83z" />
<glyph unicode="%" horiz-adv-x="1417" d="M117 0l1112 1366h164l-1112 -1366h-164zM170 971q0 83 28 159q27 74 75 128q50 57 114 87q65 31 139 31q113 0 176 -67q64 -69 64 -185q0 -83 -28 -159q-27 -72 -74 -129q-46 -55 -113 -87t-139 -32q-114 0 -178 67t-64 187zM328 981q0 -60 26 -93q27 -34 74 -34 q35 0 70 22q33 21 57 57t39 83q14 43 14 100q0 60 -24 91q-24 32 -70 32q-36 0 -71 -21q-31 -19 -59 -57q-26 -35 -41 -82t-15 -98zM745 244q0 80 30 159t83 140q99 106 244 106q113 0 176 -66t63 -186q0 -85 -27 -159q-26 -71 -76 -129q-48 -55 -114 -87q-67 -32 -139 -32 q-111 0 -175 67q-65 68 -65 187zM903 254q0 -58 27 -93q27 -34 74 -34q36 0 69 21q32 20 57 58q24 36 39 83t15 100q0 58 -25 91q-24 32 -69 32q-35 0 -71 -22q-34 -21 -60 -56q-24 -33 -40 -82q-16 -50 -16 -98z" />
<glyph unicode="&#x26;" horiz-adv-x="1138" d="M2 305q0 138 77 244q77 105 249 201q-39 78 -54 132q-14 50 -14 117q0 79 27 143t74 110t115 72q67 26 149 26q132 0 212 -68q78 -66 78 -184q0 -60 -16 -108q-17 -51 -51 -97q-34 -47 -93 -93q-53 -42 -141 -95l156 -291q32 39 70 114q33 65 65 154h269l-37 -154h-119 q-25 -61 -75 -149q-43 -77 -87 -123l53 -96h135l-40 -160h-279l-47 90q-83 -59 -156 -85q-71 -25 -168 -25q-164 0 -258 87t-94 238zM236 322q0 -78 43 -121t118 -43q56 0 101 19q49 20 100 63l-186 350q-176 -119 -176 -268zM485 1034q0 -37 11 -76q12 -42 36 -92 q98 67 136 114q37 46 37 99q0 43 -25 68q-24 24 -70 24q-54 0 -89 -38q-36 -39 -36 -99z" />
<glyph unicode="'" horiz-adv-x="454" d="M303 1366h205l-35 -459h-135z" />
<glyph unicode="(" horiz-adv-x="579" d="M51 70q0 176 36 354q37 182 101 347q65 167 161 324q93 152 216 281h199q-121 -139 -214 -299q-97 -166 -163 -335t-103 -352q-36 -178 -36 -349q0 -118 13 -221t44 -230h-184q-35 127 -53 246q-17 114 -17 234z" />
<glyph unicode=")" horiz-adv-x="579" d="M-188 -410q47 53 100 124q46 61 83 122q35 57 72 125q25 46 66 137q97 214 146 421q49 208 49 409q0 116 -15 224q-15 110 -43 224h185q33 -120 52 -239q17 -108 17 -238q0 -180 -34 -353q-35 -178 -100 -342q-64 -161 -162 -323q-94 -154 -218 -291h-198z" />
<glyph unicode="*" horiz-adv-x="1024" d="M328 1130l71 115l201 -125l57 230l129 -33l-55 -230l236 17l8 -135l-236 -17l88 -219l-125 -49l-88 219l-180 -153l-88 104l182 152z" />
<glyph unicode="+" d="M133 582v184h346v342h195v-342h346v-184h-346v-349h-195v349h-346z" />
<glyph unicode="," horiz-adv-x="464" d="M-152 -270l275 270h-162l76 301h293l-76 -301l-242 -270h-164z" />
<glyph unicode="-" horiz-adv-x="452" d="M-6 465l29 119h452l-29 -119h-452z" />
<glyph unicode="." horiz-adv-x="464" d="M-37 0l76 301h293l-76 -301h-293z" />
<glyph unicode="/" horiz-adv-x="927" d="M-127 -250l983 1616h172l-985 -1616h-170z" />
<glyph unicode="0" d="M74 393q0 94 13 185q13 89 38 184q24 90 60 174q38 90 79 154q162 260 434 260q173 0 276 -112q101 -110 101 -304q0 -88 -13 -176q-13 -91 -38 -183q-23 -87 -59 -174q-34 -83 -78 -151q-164 -266 -438 -266q-177 0 -276 108t-99 301zM315 373q0 -219 146 -219 q121 0 217 184q33 63 60 144q30 91 49 167q23 95 34 168q13 89 13 150q0 98 -38 156q-38 57 -104 57q-124 0 -225 -197q-34 -68 -60 -143q-31 -90 -49 -160q-16 -65 -31 -161q-12 -79 -12 -146z" />
<glyph unicode="1" d="M127 0l41 166h170l197 788h-224l35 133q118 -2 206 61q91 65 157 195h176l-295 -1177h205l-41 -166h-627z" />
<glyph unicode="2" d="M-14 0l53 209q195 151 346 281q134 115 230 218q87 93 129 169q40 73 40 135q0 65 -40 102t-105 37q-170 0 -236 -231h-174q79 430 455 430q161 0 255 -82q95 -83 95 -221q0 -60 -16 -111q-17 -55 -52 -110q-33 -52 -96 -120q-66 -71 -145 -143l-221 -191 q-114 -94 -205 -161h414l53 172h166l-105 -383h-841z" />
<glyph unicode="3" d="M47 307q0 13 2 35q2 17 6 41h185q-2 -14 -2 -18v-13q0 -90 49 -138t137 -48q54 0 101 21q43 20 80 61q33 38 52 92q19 55 19 117q0 131 -125 161q-30 8 -52 9q-40 2 -106 2l53 184q84 1 135 11q46 9 89 34q110 65 110 178q0 66 -41 105t-110 39q-169 0 -209 -207h-184 q28 184 138 280q111 97 290 97q76 0 144 -22q63 -21 111 -59q45 -36 71 -92q26 -55 26 -120q0 -111 -69 -200q-71 -91 -185 -136q164 -62 164 -252q0 -104 -38 -194q-36 -86 -105 -153q-66 -65 -157 -102q-88 -36 -198 -36q-174 0 -277 88q-104 89 -104 235z" />
<glyph unicode="4" d="M39 354l47 185l690 804h238l-201 -808h201l-45 -181h-203l-47 -190h164l-41 -164h-537l41 164h150l47 190h-504zM276 522h310l47 191q18 78 33 132l27 100q16 54 28 91q28 84 35 103q-37 -53 -138 -188l-184 -232z" />
<glyph unicode="5" d="M39 295q0 21 1 38q2 34 5 50h186q-2 -20 -2 -28v-19q0 -84 47 -128t138 -44q62 0 118 27q53 26 96 75q38 43 63 113q24 66 24 139q0 96 -45 149q-45 52 -129 52q-60 0 -119 -31q-55 -29 -123 -100l-156 30l279 713h690l-90 -211h-496l-125 -305q70 49 123 66 q57 18 127 18q143 0 229 -89q85 -88 85 -243q0 -119 -52 -240q-51 -118 -141 -202q-147 -141 -371 -141q-83 0 -148 22q-68 23 -115 63q-48 40 -73 97q-26 58 -26 129z" />
<glyph unicode="6" d="M68 371q0 153 74 301q73 147 243 327q107 113 193 194q99 93 174 155h235l-106 -101l-81 -80l-92 -97l-141 -150q24 4 40 4h30q73 0 135 -27q64 -28 106 -76q43 -49 67 -116t24 -150q0 -124 -49 -241q-47 -114 -136 -199q-68 -65 -152 -98q-83 -33 -183 -33 q-87 0 -157 27q-69 26 -120 79q-50 52 -77 123q-27 72 -27 158zM317 340q0 -88 37 -137t103 -49q53 0 98 35q46 36 84 95q37 57 58 135q22 80 22 159q0 86 -36 134t-101 48q-52 0 -99 -35t-84 -93q-36 -56 -59 -134t-23 -158z" />
<glyph unicode="7" d="M57 0l865 1120h-480l-51 -202h-164l95 413h833l-47 -217l-801 -1114h-250z" />
<glyph unicode="8" d="M68 322q0 149 83 252q82 102 236 141q-147 63 -147 241q0 89 33 158q34 71 96 124q61 52 145 82t182 30q175 0 274 -84t99 -232q0 -122 -69 -208t-201 -130q147 -66 147 -258q0 -102 -37 -183q-39 -85 -101 -143q-65 -61 -156 -95q-88 -33 -197 -33q-182 0 -285 89 q-102 89 -102 249zM303 330q0 -86 45 -134q46 -49 123 -49q49 0 93 23q46 24 76 62q31 40 51 94t20 112q0 82 -43 128t-121 46q-50 0 -94 -22t-78 -62q-32 -38 -52 -90t-20 -108zM475 932q0 -78 39 -121t109 -43q44 0 80 20q38 22 68 57q29 35 46 84t17 101q0 74 -38 115 t-108 41q-43 0 -82 -21q-40 -21 -68 -54q-29 -34 -46 -81q-17 -48 -17 -98z" />
<glyph unicode="9" d="M164 -16l97 91l87 85l101 104l135 148q-24 -4 -40 -4h-30q-76 0 -135 26q-64 28 -106 76q-43 49 -67 117q-24 67 -24 151q0 124 49 240q49 115 136 201q66 63 152 97t183 34q84 0 157 -28q69 -26 120 -79q50 -52 77 -123q27 -72 27 -159q0 -157 -75 -303 q-77 -149 -242 -326q-100 -106 -200 -201q-92 -88 -167 -147h-235zM432 754q0 -86 36 -134q37 -49 101 -49q107 0 187 138q36 62 56 136q22 80 22 148q0 88 -37 137q-38 50 -103 50q-52 0 -98 -36q-47 -36 -84 -94q-36 -57 -58 -137q-22 -82 -22 -159z" />
<glyph unicode=":" horiz-adv-x="464" d="M-37 0l76 301h293l-76 -301h-293zM113 598l73 301h295l-75 -301h-293z" />
<glyph unicode=";" horiz-adv-x="464" d="M-152 -270l275 270h-162l76 301h293l-76 -301l-242 -270h-164zM111 598l75 301h293l-76 -301h-292z" />
<glyph unicode="&#x3c;" horiz-adv-x="1024" d="M115 590v213l886 448v-252l-620 -303l620 -305v-250z" />
<glyph unicode="=" d="M133 422v170h887v-170h-887zM133 752v170h887v-170h-887z" />
<glyph unicode="&#x3e;" horiz-adv-x="1024" d="M117 141v250l620 305l-620 305v248l887 -448v-213z" />
<glyph unicode="?" horiz-adv-x="886" d="M174 0l66 260h254l-66 -260h-254zM199 973q61 387 430 387q160 0 251 -75t91 -204q0 -134 -103 -237l-26 -26q-4 -3 -26 -21l-41 -32q-4 -3 -73 -52q-51 -39 -81 -66q-36 -33 -51 -53q-18 -25 -31 -62q-14 -41 -25 -88h-229q22 83 41 143q16 53 45 93q30 43 78 82 q63 52 137 108q67 52 93 89t26 77q0 48 -33 75q-34 28 -92 28q-146 0 -189 -166h-192z" />
<glyph unicode="@" horiz-adv-x="1366" d="M63 672q0 147 56 279q57 134 152 226q97 94 229 150q129 55 282 55q136 0 255 -45q118 -45 204 -125q85 -79 135 -188q49 -107 49 -238q0 -92 -27 -177q-25 -80 -75 -149q-46 -64 -108 -104q-60 -39 -128 -39q-52 0 -98 29q-44 28 -61 74q-41 -53 -109 -86 q-67 -33 -141 -33q-60 0 -115 25q-54 25 -92 67q-38 43 -61 103q-23 61 -23 127q0 81 30 155q30 75 79 129q50 56 114 88q66 33 138 33q61 0 110 -23q50 -24 84 -65l12 68h189l-76 -390q-7 -45 -9 -59q-3 -18 -3 -29q0 -57 41 -57q27 0 57 28q27 25 52 71q22 40 38 101 q14 53 14 113q0 95 -34 173q-33 77 -97 136q-62 57 -147 87q-86 30 -188 30q-115 0 -214 -42q-102 -43 -173 -114t-114 -172q-42 -99 -42 -214q0 -106 39 -205t110 -170q72 -71 166 -106q90 -33 225 -33q103 0 186 14q94 16 187 47l43 -172q-96 -32 -197 -46 q-108 -15 -227 -15q-304 0 -501 180q-102 96 -159 229t-57 279zM600 627q0 -60 35 -98q34 -37 92 -37q35 0 64 16q30 17 53 44q22 26 37 63q14 34 14 77q0 60 -35 98q-34 37 -88 37q-36 0 -65 -16q-31 -17 -55 -44q-22 -25 -38 -65q-14 -35 -14 -75z" />
<glyph unicode="A" horiz-adv-x="1349" d="M-109 0l48 170h143l678 1196h270l76 -1196h158l-47 -170h-572l45 170h164l-12 244h-426l-135 -244h178l-45 -170h-523zM508 582h328l-13 276q0 35 -1 57l-2 66q0 10 -0.5 30.5t-1.5 29.5q-1 18 -1 44v41q0 6 2 58l-29 -69q-9 -21 -32 -67l-42 -81l-57 -109z" />
<glyph unicode="B" horiz-adv-x="1241" d="M-59 0l47 170h155l258 1030h-178l47 166h432q76 0 133 -3q55 -3 98 -9q39 -6 75 -17q39 -12 61 -24q154 -83 154 -258q0 -78 -30 -144t-85 -112q-40 -30 -76 -47q-43 -20 -104 -35q105 -34 154 -101q48 -66 48 -176q0 -143 -78 -249q-79 -107 -216 -152q-43 -14 -73 -20 q-36 -8 -85 -12q-50 -5 -117 -6q-45 -1 -168 -1h-452zM399 170h97q98 0 151 10q54 10 96 35q60 34 94 100q33 63 33 138q0 117 -98 157q-27 11 -61 15q-31 4 -101 4h-96zM555 797h84q94 0 146 13q56 14 94 46t61 83t23 108q0 84 -49 119q-47 34 -166 34h-93z" />
<glyph unicode="C" horiz-adv-x="1251" d="M88 492q0 109 24 217q25 110 67 207q43 98 106 184q61 83 137 143q193 152 428 152q107 0 186 -31q74 -29 135 -102l27 104h178l-112 -446h-177l4 44q1 10 1 31q0 101 -61 159q-59 56 -169 56q-208 0 -344 -206q-76 -111 -121 -252q-43 -135 -43 -269q0 -156 69 -242 q69 -85 195 -85q130 0 224 87q94 86 151 257h215q-135 -529 -614 -529q-116 0 -211 36q-93 35 -160 104q-65 67 -100 163q-35 97 -35 218z" />
<glyph unicode="D" horiz-adv-x="1304" d="M-59 0l47 170h155l258 1030h-178l47 166h418q62 0 140 -2q55 -1 101 -8q39 -6 75 -17q41 -13 65 -24q115 -52 176 -169q60 -116 60 -282q0 -110 -25 -224q-23 -105 -70 -207q-46 -99 -109 -177q-66 -81 -143 -133q-49 -36 -105 -61q-48 -21 -125 -36q-74 -14 -163 -20 q-91 -6 -219 -6h-405zM399 170h66q71 0 123 6q48 6 96 22q39 13 77 40q33 23 68 61q45 49 84 117q42 72 67 144q29 82 43 159q15 83 15 162q0 110 -31 182q-32 74 -92 104q-36 19 -80 26q-43 7 -124 7h-56z" />
<glyph unicode="E" horiz-adv-x="1114" d="M-59 0l47 170h155l258 1030h-178l47 166h979l-86 -348h-170l45 182h-383l-98 -395h401l-45 -182h-401l-113 -453h410l57 233h178l-100 -403h-1003z" />
<glyph unicode="F" horiz-adv-x="1056" d="M-59 0l47 170h155l258 1030h-178l47 166h979l-86 -348h-170l45 182h-383l-98 -395h410l-45 -182h-410l-113 -453h211l-45 -170h-624z" />
<glyph unicode="G" horiz-adv-x="1337" d="M90 485q0 93 18 187q19 102 51 183q38 97 80 169q50 85 105 143q202 228 502 228q111 0 190 -32q77 -31 138 -101l26 104h178l-112 -446h-176q3 14 5 38q1 10 1 31q0 104 -65 163q-64 58 -175 58q-112 0 -196 -56t-156 -173q-36 -61 -61 -120q-29 -68 -47 -132 q-18 -61 -29 -136q-11 -72 -11 -132q0 -147 75 -227q74 -78 214 -78q62 0 114 13q53 13 115 42l82 303h-163l45 168h534l-45 -168h-129l-104 -393q-76 -45 -132 -70q-62 -28 -122 -46q-58 -17 -121 -25q-74 -9 -129 -9q-240 0 -365 129q-65 66 -100 167q-35 100 -35 218z " />
<glyph unicode="H" horiz-adv-x="1431" d="M-59 0l47 170h155l258 1030h-178l47 166h574l-45 -166h-156l-100 -397h497l101 397h-178l45 166h577l-47 -166h-156l-258 -1030h179l-48 -170h-573l45 170h156l116 465h-497l-117 -465h178l-45 -170h-577z" />
<glyph unicode="I" horiz-adv-x="718" d="M-59 0l47 170h164l256 1030h-185l47 166h604l-47 -166h-163l-258 -1030h184l-45 -170h-604z" />
<glyph unicode="J" horiz-adv-x="733" d="M-150 -244l44 178q14 -2 18 -2h12q98 0 154 33q55 33 88 111l12 29q6 15 12 39l16 60l23 91l226 905h-179l48 166h581l-45 -166h-151l-226 -905q-25 -103 -45 -170q-24 -79 -41 -119q-21 -49 -43 -83q-20 -31 -51 -60q-123 -115 -340 -115q-16 0 -48 2q-25 2 -65 6z" />
<glyph unicode="K" horiz-adv-x="1343" d="M-59 0l47 170h155l258 1030h-178l47 166h559l-43 -166h-143l-121 -485l541 485h-156l43 166h535l-45 -166h-123l-416 -352l199 -678h157l-47 -170h-548l45 170h143l-137 524l-246 -200l-82 -324h164l-45 -170h-563z" />
<glyph unicode="L" d="M-59 0l47 170h155l258 1030h-178l47 166h604l-47 -166h-172l-256 -1030h394l57 233h178l-100 -403h-987z" />
<glyph unicode="M" horiz-adv-x="1783" d="M-59 0l47 170h155l258 1030h-178l47 166h533l24 -483q1 -21 3.5 -51.5t4 -52t2.5 -37.5q2 -28 4 -94q0 -13 0.5 -37.5t1.5 -36.5q1 -23 1 -78v-78q0 -39 -4 -84q15 38 46 101l71 143l84 160l85 157l267 471h544l-47 -166h-155l-258 -1030h178l-47 -170h-568l45 170h144 l121 487l31 127l28 110l32 127l46 181l-42 -79l-32 -59l-39 -70l-59 -107l-176 -314l-324 -573h-180l-33 561q-8 209 -13 325q-5 106 -11 316q-10 -32 -18 -65l-13 -52l-20 -85q-11 -50 -19 -82l-68 -271l-118 -477h163l-45 -170h-499z" />
<glyph unicode="N" horiz-adv-x="1415" d="M-59 0l47 170h155l258 1030h-178l47 166h439l145 -483l54 -184l37 -129q17 -63 27 -106l25 -114l57 224l56 225l100 401h-178l45 166h514l-47 -166h-158l-299 -1200h-225l-153 526l-64 215l-42 145q-12 39 -29 106l-25 102l-59 -242l-58 -240l-110 -442h178l-45 -170 h-514z" />
<glyph unicode="O" horiz-adv-x="1339" d="M90 496q0 85 19 183q18 95 52 181q35 88 81 168q46 79 104 143q102 110 231 166q133 58 273 58q114 0 204 -37q91 -37 154 -106q66 -72 99 -167q34 -98 34 -219q0 -83 -15 -169q-14 -78 -43 -166q-24 -71 -69 -155q-40 -73 -90 -136q-215 -269 -544 -269q-114 0 -203 37 q-92 38 -154 105q-64 68 -98 165q-35 99 -35 218zM356 471q0 -144 65 -230q64 -85 175 -85q166 0 305 188q40 57 71 122q30 63 55 138q24 71 36 145q12 72 12 142q0 149 -63 234t-174 85q-191 0 -338 -237q-66 -111 -105 -245t-39 -257z" />
<glyph unicode="P" horiz-adv-x="1112" d="M-59 0l47 170h155l258 1030h-178l47 166h457q116 0 182 -10q69 -10 121 -35q88 -40 133 -120q45 -79 45 -187q0 -76 -19 -143q-20 -72 -56 -126q-37 -56 -90 -103q-52 -46 -115 -73q-21 -9 -70 -24q-38 -11 -78 -17q-48 -7 -99 -8q-76 -2 -130 -2h-66l-86 -348h211 l-45 -170h-624zM528 686h56q100 0 155 12q57 12 97 45q52 40 82 114q30 75 30 159q0 102 -51 143q-52 41 -176 41h-66z" />
<glyph unicode="Q" horiz-adv-x="1339" d="M90 496q0 85 19 183q18 92 51 181q32 86 80 168t106 143q99 107 231 165q133 59 273 59q114 0 204 -37q91 -37 154 -106q66 -72 99 -167q34 -98 34 -219q0 -168 -55 -329q-55 -162 -158 -293l162 -244h-311l-41 88q-79 -63 -161 -90q-81 -27 -189 -27q-116 0 -207 36 q-92 36 -157 104t-99 164q-35 99 -35 221zM356 471q0 -146 65 -231q65 -84 175 -84q166 0 305 188q40 57 71 122q30 63 55 138q24 72 36 146t12 143q0 148 -62 232q-63 85 -173 85q-194 0 -340 -237q-66 -111 -105 -245t-39 -257z" />
<glyph unicode="R" horiz-adv-x="1251" d="M-59 0l47 170h155l258 1030h-178l47 166h473q133 0 203 -10q73 -10 127 -35q87 -40 134 -120q46 -79 46 -187q0 -153 -83 -263q-82 -109 -230 -153l72 -428h157l-47 -170h-329l-78 573h-221l-101 -403h164l-45 -170h-571zM535 741h92q106 0 160 12q57 13 96 40 q54 39 82 97q28 59 28 132q0 121 -88 158q-27 11 -61 15q-38 5 -94 5h-101z" />
<glyph unicode="S" d="M-27 0l115 457h143q-4 -32 -6 -53q-2 -26 -2 -35q0 -99 63 -156t173 -57q113 0 181 61q69 61 69 160q0 82 -56 135q-16 16 -25 22q-14 9 -33 21l-48 30l-72 42q-71 39 -123 80t-80 80q-30 42 -44 90q-13 45 -13 104q0 91 34 166q34 76 95 131q63 57 146 86q88 31 186 31 q99 0 167 -28q67 -27 118 -89l22 88h137l-100 -395h-135q2 24 2 29v22q0 92 -51 140t-146 48q-98 0 -158 -48q-59 -47 -59 -128q0 -32 7 -53q7 -22 29 -45q20 -21 60 -49q29 -20 101 -64q35 -19 73 -44q42 -28 55 -37q36 -27 42 -32q12 -10 34 -32q95 -95 95 -250 q0 -101 -37 -184q-38 -85 -104 -145q-65 -59 -158 -94q-90 -34 -203 -34q-114 0 -192 35q-77 35 -130 109l-28 -115h-144z" />
<glyph unicode="T" horiz-adv-x="1157" d="M135 963l101 403h1124l-100 -403h-179l60 237h-258l-256 -1030h184l-47 -170h-602l47 170h164l256 1030h-256l-60 -237h-178z" />
<glyph unicode="U" horiz-adv-x="1357" d="M186 322q0 98 37 247l158 631h-178l47 166h586l-43 -166h-158l-162 -653q-19 -78 -26 -117q-7 -42 -7 -86q0 -188 211 -188q158 0 244 125q19 26 29 46q9 17 23 55q11 30 24 74q6 21 26 101l162 643h-178l43 166h516l-47 -166h-158l-164 -657q-22 -90 -41 -156 q-18 -63 -36 -108q-16 -41 -40 -78q-20 -31 -50 -66q-69 -82 -170 -123q-102 -41 -228 -41q-197 0 -309 92q-111 92 -111 259z" />
<glyph unicode="V" horiz-adv-x="1327" d="M182 1200l47 166h566l-43 -166h-164l45 -962l528 962h-178l43 166h510l-45 -166h-131l-676 -1200h-274l-70 1200h-158z" />
<glyph unicode="W" horiz-adv-x="1751" d="M182 1200l47 166h553l-45 -166h-155l-19 -407l-7 -149q-4 -77 -7 -116q-6 -70 -9 -104q-2 -19 -7 -60.5t-7 -58.5q28 73 64 159l59 140l60 134l65 139l238 489h227l-18 -489q-1 -60 -7 -150l-8 -138q-6 -92 -11 -138l-15 -146l41 94l36 83l53 117l89 194l186 407h-170 l43 166h502l-47 -166h-137l-568 -1200h-250l19 487q5 172 15 281q12 133 30 274l-149 -326l-103 -229l-227 -487h-246l43 1200h-158z" />
<glyph unicode="X" horiz-adv-x="1243" d="M-92 0l47 170h143l455 532l-158 498h-190l47 166h354l127 -477l250 311h-178l45 166h528l-47 -166h-129l-418 -487l174 -543h191l-47 -170h-354l-144 530l-287 -360h177l-45 -170h-541z" />
<glyph unicode="Y" horiz-adv-x="1175" d="M182 0l47 170h164l94 381l-141 649h-156l46 166h544l-43 -166h-143l92 -459l305 459h-157l45 166h499l-47 -166h-129l-459 -649l-96 -381h184l-45 -170h-604z" />
<glyph unicode="Z" horiz-adv-x="1017" d="M-59 0l43 170l813 1030h-367l-47 -182h-170l86 348h854l-41 -166l-811 -1030h420l57 233h176l-100 -403h-913z" />
<glyph unicode="[" horiz-adv-x="579" d="M-80 -397l440 1763h402l-49 -199h-187l-340 -1364h201l-51 -200h-416z" />
<glyph unicode="\" horiz-adv-x="927" d="M256 1366h164l389 -1616h-164z" />
<glyph unicode="]" horiz-adv-x="579" d="M-186 -397l49 198h186l342 1364h-201l50 201h415l-438 -1763h-403z" />
<glyph unicode="^" horiz-adv-x="1024" d="M61 692l332 680h332l332 -680h-264l-234 479l-233 -479h-265z" />
<glyph unicode="_" horiz-adv-x="1024" d="M47 -98h1024v-228h-1024v228z" />
<glyph unicode="`" horiz-adv-x="1024" d="M330 1413h274l170 -313h-172z" />
<glyph unicode="a" horiz-adv-x="1001" d="M8 219q0 105 78 191q79 87 219 133q35 12 69 21q3 1 30 8t42 11q39 9 87 18q66 12 114 20l10 41q11 47 11 75q0 84 -131 84q-91 0 -138 -38q-46 -37 -75 -134h-172l61 217q89 67 170 93q86 28 190 28q155 0 237 -61q83 -62 83 -172q0 -38 -6 -78q-5 -37 -23 -107 l-102 -409h139l-39 -160h-362l32 133q-56 -80 -118 -117q-60 -36 -148 -36q-58 0 -103 17q-49 18 -82 50t-53 76q-20 45 -20 96zM268 268q0 -50 32 -80t81 -30q50 0 91 25q42 25 69 71q11 18 13 22q8 18 11 28q10 29 13 43l16 67l22 84q-178 -39 -266 -95q-82 -52 -82 -135z " />
<glyph unicode="b" horiz-adv-x="1110" d="M27 0l303 1219h-154l37 147h377l-129 -518q111 139 270 139q68 0 129 -29t102 -80q40 -50 65 -125q24 -72 24 -159q0 -132 -52 -262q-51 -128 -141 -219q-129 -133 -303 -133q-100 0 -161 38q-62 38 -107 129l-47 -147h-213zM375 344q0 -92 40 -144q41 -53 107 -53 q109 0 193 140q42 74 65 160q25 92 25 174q0 93 -38 146q-37 52 -108 52q-120 0 -204 -157q-18 -35 -32 -74q-16 -44 -26 -83q-9 -37 -16 -84q-6 -42 -6 -77z" />
<glyph unicode="c" horiz-adv-x="946" d="M53 379q0 125 42 236q42 112 114 194q71 82 168 130q96 48 205 48q88 0 139 -26q54 -28 82 -87l24 93h164l-84 -332h-164q2 14 2 17v12q0 72 -37 113q-38 42 -104 42q-112 0 -196 -133q-44 -68 -69 -159q-26 -93 -26 -173q0 -101 40 -153q42 -54 116 -54q129 0 195 158 h202q-127 -325 -434 -325q-86 0 -157 27q-68 26 -119 80q-49 52 -76 126q-27 73 -27 166z" />
<glyph unicode="d" horiz-adv-x="1140" d="M51 375q0 134 52 262t143 219q66 63 144 97t165 34q97 0 164 -44q65 -43 94 -130l100 406h-153l37 147h377l-302 -1206h154l-39 -160h-377l31 121q-117 -141 -274 -141q-71 0 -128 29q-61 31 -100 82t-64 125q-24 72 -24 159zM297 344q0 -92 40 -144q41 -53 107 -53 q113 0 193 140q45 74 68 160q24 89 24 174q0 93 -38 146q-37 52 -107 52q-123 0 -207 -157q-36 -70 -58 -157t-22 -161z" />
<glyph unicode="e" horiz-adv-x="1013" d="M53 379q0 130 42 241q41 109 116 193q72 81 175 128q101 46 220 46q166 0 261 -96q96 -98 96 -268q0 -41 -7 -85q-7 -45 -22 -100h-621q-5 -30 -6 -48q-2 -24 -2 -40q0 -98 45 -150q45 -53 131 -53q75 0 128 37q57 40 108 121h194q-56 -161 -172 -243t-284 -82 q-189 0 -295 106q-107 107 -107 293zM352 592h355q7 32 8 47q2 24 2 37q0 68 -34 105q-35 38 -95 38q-152 0 -236 -227z" />
<glyph unicode="f" horiz-adv-x="722" d="M-61 0l38 160h138l151 653h-153l39 154h149l14 65q22 98 51 162q26 57 66 96q46 48 108 70t140 22q57 0 97 -10q43 -11 91 -37l-45 -190q-38 33 -64 45q-27 12 -61 12q-54 0 -84 -35t-51 -120l-18 -80h223l-39 -154h-219l-152 -653h174l-38 -160h-555z" />
<glyph unicode="g" horiz-adv-x="1001" d="M-129 -141q0 187 260 250q-40 22 -58 43t-18 53q0 52 50 87q45 31 174 66q-82 45 -121 108q-37 59 -37 150q0 80 31 150q30 68 87 117t134 76q81 28 170 28q62 0 106 -10q51 -11 101 -33h309l-39 -153h-160q23 -46 23 -115q0 -80 -36 -152q-36 -71 -102 -118 q-56 -43 -121 -60q-67 -17 -173 -22q-21 -7 -53 -19q-11 -4 -30 -16q-11 -7 -15 -17q-3 -8 -3 -20q0 -30 39 -45q7 -5 15 -6q2 -1 9 -2.5t12 -2.5q25 -6 36 -7l65 -9q295 -49 295 -264q0 -76 -36 -136q-36 -61 -102 -104q-62 -41 -161 -66q-95 -24 -211 -24q-98 0 -181 20 q-81 20 -138 54q-57 35 -89 86q-32 52 -32 113zM90 -115q0 -62 62 -97q61 -34 178 -34q121 0 197 41q75 41 75 107q0 61 -61 94t-174 33q-129 0 -203 -39t-74 -105zM340 633q0 -65 39 -102q38 -37 104 -37q78 0 129 53q52 54 52 133q0 65 -38 103t-104 38q-38 0 -70 -14 q-36 -16 -59 -40q-24 -25 -39 -60q-14 -32 -14 -74z" />
<glyph unicode="h" horiz-adv-x="1191" d="M-51 0l39 160h137l264 1059h-153l36 147h398l-131 -528q130 149 290 149q106 0 169 -62q65 -63 65 -167q0 -27 -1 -40q-2 -28 -5 -43q-7 -36 -11 -53l-18 -71l-96 -391h153l-41 -160h-493l41 160h96l96 393q19 78 19 109q0 53 -32 83q-33 31 -89 31q-47 0 -89 -21 t-71 -61q-18 -24 -30 -58q-15 -42 -29 -101l-94 -375h112l-39 -160h-493z" />
<glyph unicode="i" horiz-adv-x="636" d="M-51 0l39 160h137l164 653h-154l37 154h397l-200 -807h153l-39 -160h-534zM330 1130l59 236h266l-59 -236h-266z" />
<glyph unicode="j" horiz-adv-x="616" d="M-242 -420l41 168q83 2 127 13q47 12 80 54q34 43 59 123q25 81 60 222l164 653h-154l37 154h397l-200 -807l-44 -173q-19 -68 -33 -110q-15 -43 -32 -71q-25 -41 -37 -58q-61 -85 -158 -128q-100 -44 -225 -44q-20 0 -34 1q-21 1 -48 3zM330 1130l57 236h266l-57 -236 h-266z" />
<glyph unicode="k" horiz-adv-x="1171" d="M-51 0l39 160h137l264 1059h-153l36 147h392l-215 -862l358 309h-150l39 154h484l-39 -154h-109l-264 -219l176 -434h123l-39 -160h-276l-166 446l-191 -153l-33 -133h140l-39 -160h-514z" />
<glyph unicode="l" horiz-adv-x="636" d="M-53 0l39 160h137l244 1059h-154l37 147h395l-278 -1206h153l-39 -160h-534z" />
<glyph unicode="m" horiz-adv-x="1703" d="M-51 0l39 160h137l164 653h-154l37 154h383l-41 -160q41 52 73 84q39 39 67 56q38 23 70 31q36 9 77 9q185 0 229 -201q68 104 142 153q72 48 163 48q107 0 172 -64q66 -65 66 -171q0 -42 -9 -95q-6 -38 -34 -153l-86 -344h153l-41 -160h-491l39 160h96l103 413 q2 11 6 31.5t4 22.5q4 21 4 41q0 48 -33 78t-88 30q-91 0 -141 -80q-15 -21 -24 -49q-6 -20 -25 -88l-101 -399h113l-39 -160h-453l41 160h95l98 391l13 52q7 30 7 31q2 16 2 19v21q0 48 -30 75t-84 27q-96 0 -148 -78q-13 -18 -27 -56q-9 -25 -26 -91l-98 -391h112 l-39 -160h-493z" />
<glyph unicode="n" horiz-adv-x="1169" d="M-51 0l39 160h137l164 653h-154l37 154h383l-41 -160q67 93 136 137q68 43 155 43q105 0 170 -65t65 -170q0 -12 -2 -38q-2 -20 -6 -45q-9 -50 -11 -60q-5 -22 -20 -81l-92 -368h154l-41 -160h-492l39 160h97l100 407q16 60 16 105q0 48 -29 76t-81 28q-95 0 -152 -84 q-13 -22 -27 -56q-11 -28 -28 -89l-96 -387h112l-39 -160h-493z" />
<glyph unicode="o" horiz-adv-x="1054" d="M55 385q0 127 42 237q41 108 114 191q71 82 170 128q98 46 211 46q89 0 168 -28q76 -27 128 -79t81 -126q28 -72 28 -166q0 -130 -47 -256t-129 -205q-151 -147 -368 -147q-94 0 -165 28q-73 29 -125 81q-54 54 -80 128q-28 79 -28 168zM315 352q0 -98 38 -151 q39 -54 108 -54q120 0 203 160q30 62 53 154q20 81 20 160q0 97 -37 147q-38 51 -104 51q-116 0 -201 -153q-35 -66 -57 -154q-23 -90 -23 -160z" />
<glyph unicode="p" horiz-adv-x="1148" d="M-162 -403l39 159h137l265 1057h-154l39 154h368l-28 -119q114 139 272 139q66 0 126 -29q58 -28 100 -79t66 -123t24 -156q0 -128 -40 -241t-109 -197t-160 -133t-193 -49q-199 0 -254 167l-98 -391h168l-41 -159h-527zM416 342q0 -90 40 -142q41 -53 107 -53 q111 0 189 134q20 36 38 79q15 36 29 89q13 50 20 90q7 42 7 86q0 92 -40 144t-110 52q-110 0 -186 -133q-18 -33 -36 -78q-18 -44 -30 -92q-13 -50 -20 -94q-8 -50 -8 -82z" />
<glyph unicode="q" horiz-adv-x="1150" d="M53 373q0 126 40 236q41 113 108 196q68 84 158 133q91 49 194 49q95 0 159 -41q60 -39 105 -133l49 154h348l-38 -154h-136l-264 -1057h154l-39 -159h-529l41 159h150l90 363q-111 -139 -266 -139q-72 0 -131 28t-103 81q-41 49 -66 125q-24 72 -24 159zM299 344 q0 -92 39 -144q39 -53 108 -53q119 0 203 172q9 18 29 72q10 27 24 83q12 48 17 82q6 40 6 71q0 92 -38 142t-103 50q-113 0 -197 -141q-39 -67 -64 -161q-24 -91 -24 -173z" />
<glyph unicode="r" horiz-adv-x="880" d="M-49 0l39 160h135l164 653h-154l39 154h381l-49 -195q35 51 74 97q37 43 68 65q34 24 69 36q32 11 76 11q81 0 170 -53l-84 -271h-136v23q0 108 -75 108q-39 0 -72 -24q-30 -22 -62 -78q-31 -55 -59 -138q-31 -94 -59 -206l-47 -182h174l-37 -160h-555z" />
<glyph unicode="s" horiz-adv-x="892" d="M-43 0l86 346h158q-1 -5 -2 -14.5t-1 -14.5q-1 -10 -1 -22q0 -72 47 -114q46 -42 129 -42q71 0 115 36t44 93q0 49 -47 82q-7 5 -14 9q-2 1 -18 11q-4 3 -16.5 9t-18.5 9q-41 22 -62 34q-72 39 -117 68q-44 28 -73 59q-27 28 -36 59q-9 30 -9 72q0 65 27 122q26 55 76 97 q49 41 114 65q63 23 143 23q165 0 232 -104l22 84h156l-76 -303h-156q0 2 4 25q1 6 1 20q0 55 -38 87q-37 31 -106 31q-66 0 -110 -30q-43 -30 -43 -78q0 -42 36 -68q2 -2 5 -3.5t5.5 -3t3.5 -2.5q6 -4 16 -9l31 -18l56 -31q52 -27 101 -57q12 -7 61 -40q96 -67 96 -188 q0 -71 -28 -128q-27 -56 -80 -101q-49 -42 -121 -67q-66 -23 -152 -23q-189 0 -256 126l-26 -106h-158z" />
<glyph unicode="t" horiz-adv-x="657" d="M80 174q0 13 2 37q2 18 6 42q8 41 11 55q5 19 20 79l112 426h-137l39 154h137l76 284h244l-76 -284h221l-37 -154h-223l-96 -362q-21 -77 -25 -97q-8 -34 -12 -54q-2 -11 -5 -31q-1 -8 -1 -23q0 -78 76 -78q26 0 53 7q28 7 70 26l-50 -195q-46 -13 -96 -20q-43 -6 -90 -6 q-104 0 -162 50q-57 50 -57 144z" />
<glyph unicode="u" horiz-adv-x="1155" d="M84 813l39 154h397l-131 -525q-14 -51 -19 -86q-5 -33 -5 -53q0 -113 118 -113q107 0 168 93q17 25 29 59q14 41 29 100l92 371h-154l39 154h397l-200 -807h153l-41 -160h-370l41 162q-72 -98 -143 -141q-69 -41 -163 -41q-115 0 -182 68t-67 185q0 27 1 41q2 28 5 44 q8 40 11 54l17 70l93 371h-154z" />
<glyph unicode="v" horiz-adv-x="1007" d="M53 813l39 154h496l-39 -154h-123l27 -270q10 -95 15 -183q1 -24 3.5 -68t3.5 -59l36 76q15 33 33 66l40 72l55 96l158 270h-138l39 154h422l-39 -154h-108l-484 -819h-202l-97 819h-137z" />
<glyph unicode="w" horiz-adv-x="1492" d="M66 813l38 154h504l-39 -154h-135l-4 -260q0 -52 -1 -82q-2 -60 -3 -91q-1 -43 -3 -85t-3 -64l50 126l36 88q18 43 37 82l51 108l166 332h244l4 -349q0 -82 -1 -116q0 -16 -0.5 -48.5t-1.5 -47.5l-3 -90q-2 -44 -3 -93q16 31 19 40l18 42q16 33 19 43q7 21 18 39 q18 43 36 80l42 86l129 260h-150l37 154h437l-37 -154h-117l-412 -819h-260v338q0 83 5 196q4 84 16 207l-38 -99l-37 -89q-17 -40 -44 -95l-59 -120l-172 -338h-240l-6 819h-137z" />
<glyph unicode="x" horiz-adv-x="1028" d="M-109 0l39 160h123l344 334l-118 319h-173l39 154h324l106 -318l150 164h-129l39 154h438l-39 -154h-110l-299 -295l137 -358h170l-39 -160h-322l-125 362l-186 -202h150l-39 -160h-480z" />
<glyph unicode="y" horiz-adv-x="995" d="M-195 -422l43 182q20 -1 40 -3q12 -1 30 -1q115 0 191 40t131 128l34 53l-98 836h-137l39 154h495l-36 -154h-123l18 -205q10 -106 15 -192q6 -114 6 -137v-56q29 67 78 159q39 73 133 226l120 205h-137l39 154h422l-37 -154h-110l-480 -819l-70 -116q-32 -50 -57 -83 q-27 -35 -51 -60q-23 -24 -53 -48q-68 -59 -158 -85t-211 -26z" />
<glyph unicode="z" horiz-adv-x="897" d="M-61 0l38 154l615 659h-258l-55 -164h-164l94 318h713l-39 -154l-611 -653h328l57 186h170l-96 -346h-792z" />
<glyph unicode="{" horiz-adv-x="579" d="M0 -225q0 27 7 69q8 46 18 86l71 289q9 41 10 48q3 30 3 32q0 73 -84 94l43 170q66 7 101 45q33 36 56 129l86 344q21 83 48 138q26 54 73 88q44 32 109 46q61 13 153 13h34q4 0 40 -2l-43 -170q-20 2 -27 2h-16q-39 0 -71 -8q-29 -7 -51 -29q-23 -23 -38 -54 q-16 -33 -28 -85l-74 -297q-15 -60 -30 -103q-14 -40 -37 -71q-19 -26 -49 -46q-27 -18 -66 -30q40 -27 58 -58q17 -30 17 -79q0 -40 -18 -117l-72 -291q-8 -27 -11 -48q-3 -24 -3 -40q0 -41 34 -60q35 -20 107 -20h14q5 0 19 2l-43 -170q-30 -2 -45 -2h-29q-146 0 -206 42 t-60 143z" />
<glyph unicode="|" horiz-adv-x="1024" d="M432 -342v1708h252v-1708h-252z" />
<glyph unicode="}" horiz-adv-x="579" d="M-195 -408l43 170l43 -2q35 0 71 9q31 8 51 28q22 22 38 55q17 37 29 87l74 294q18 72 29 104q15 43 36 71q20 28 48 46q23 16 67 29q-41 29 -58 60q-16 29 -16 78q0 38 19 116l71 291q15 51 15 88q0 42 -34 61t-108 19h-13q-6 0 -20 -2l43 172h74q146 0 206 -42t60 -142 q0 -28 -7 -70q-10 -57 -17 -86l-72 -289q-9 -34 -10 -46q-2 -24 -2 -34q0 -73 84 -94l-43 -170q-67 -7 -102 -44q-33 -34 -56 -128l-86 -344q-21 -86 -49 -138q-27 -52 -73 -88q-42 -33 -107 -47t-154 -14h-33q-5 0 -41 2z" />
<glyph unicode="~" horiz-adv-x="1366" d="M233 494q5 5 6 11q1 7 5 11q1 5 6 10q12 29 34 73q17 35 29 51q18 25 30 37q17 17 36 32q67 53 162 53q37 0 86 -12q41 -10 127 -43q60 -22 72 -26q30 -10 46 -14q25 -6 32 -7q18 -2 30 -2q53 0 82 22t69 86l144 -84q-42 -89 -74 -135q-30 -44 -74 -74q-81 -59 -176 -59 q-29 0 -74 12q-35 9 -131 43l-74 27q-25 10 -46 15q-18 5 -30 6q-8 1 -26 1q-51 0 -81 -26t-70 -101z" />
<glyph unicode="&#xa4;" horiz-adv-x="1366" d="M131 1182l109 108l200 -203q73 52 144 77q69 24 149 24q79 0 146 -23q63 -21 141 -75l203 198l106 -106l-201 -199q55 -79 78 -146t23 -145q0 -77 -23 -144q-23 -68 -73 -140l200 -201l-106 -109l-201 201q-139 -100 -291 -100q-80 0 -145 23q-66 23 -150 77l-198 -201 l-107 107l199 201q-98 134 -98 288q0 80 22 145q22 64 76 140zM414 696q0 -67 24 -127q23 -57 68 -102q44 -44 101 -69t126 -25q67 0 123 25t100 69t69 101q26 60 26 124q0 66 -26 126q-25 58 -69 102q-42 42 -100 68t-123 26q-64 0 -124 -26q-59 -26 -101 -68 q-43 -43 -69 -101q-25 -56 -25 -123z" />
<glyph unicode="&#xa6;" horiz-adv-x="1024" d="M432 313h252v-655h-252v655zM432 659v707h252v-707h-252z" />
<glyph unicode="&#xa7;" horiz-adv-x="1024" d="M-18 -51q0 29 3 53q2 16 11 61h176q-5 -28 -6 -43q-2 -22 -2 -34q0 -73 46 -110q47 -38 132 -38q91 0 148 39t57 100q0 37 -24 69t-93 87l-98 76q-38 30 -65 53l-43 38q-6 5 -31 30q-42 45 -59 86t-17 96q0 203 250 281q-48 48 -66 91t-18 103q0 81 32 145q32 65 91 114 q59 50 135 76q81 28 170 28q147 0 230 -69t83 -191q0 -32 -5 -64q-4 -26 -20 -72h-168q2 9 4.5 21t4.5 20t3 13q3 18 3 36q0 59 -41 94q-39 33 -113 33q-79 0 -127 -36q-49 -37 -49 -97q0 -23 4 -36t23 -35q18 -21 54 -51l99 -78q10 -8 32 -26t31 -25l43 -33q12 -10 29 -27 l25 -25q70 -73 70 -170q0 -102 -60 -170t-192 -118q104 -95 104 -230q0 -78 -33 -142q-34 -67 -91 -112q-58 -46 -140 -73t-178 -27q-169 0 -261 76q-93 76 -93 213zM328 584q0 -17 5 -35q5 -17 19 -34q12 -14 42 -41q16 -15 71 -56q56 -41 113 -88q59 16 98 52t39 77 q0 16 -3 28t-15 27q-16 20 -30 33q-21 19 -53 47l-49 41l-37 29l-30 23l-31 24q-139 -40 -139 -127z" />
<glyph unicode="&#xa9;" horiz-adv-x="1566" d="M123 692q0 147 56 272q58 129 153 223t225 151q129 57 274 57q149 0 276 -57q130 -58 224 -152q97 -96 152 -227q55 -129 55 -277t-55 -276q-56 -130 -152 -226q-94 -94 -224 -152q-127 -57 -273 -57q-150 0 -279 57q-132 58 -225 153q-96 98 -152 229q-55 129 -55 282z M233 692q0 -127 47 -242q47 -116 128 -198q83 -84 190 -132q108 -48 236 -48q123 0 231 48t188 131q81 84 127 194q47 112 47 239q0 125 -47 237q-46 111 -128 194t-189 131q-108 48 -232 48q-123 0 -231 -48q-109 -48 -189 -130q-82 -83 -129 -191q-49 -112 -49 -233z M463 676q0 201 97 316q98 116 265 116q61 0 104 -15q44 -15 91 -53v52h119v-273h-117q-11 93 -51 133q-41 41 -123 41q-209 0 -209 -315q0 -148 51 -227q51 -80 148 -80q164 0 182 204h123q-1 -67 -13 -113q-11 -45 -38 -83q-40 -59 -107 -91t-147 -32q-178 0 -277 111 q-98 110 -98 309z" />
<glyph unicode="&#xab;" horiz-adv-x="841" d="M45 483l324 484h188l-303 -490l61 -477h-182zM393 483l324 484h188l-303 -490l62 -477h-183z" />
<glyph unicode="&#xac;" horiz-adv-x="1024" d="M115 311v236h886v-547h-251v311h-635z" />
<glyph unicode="&#xad;" horiz-adv-x="452" d="M-6 465l29 119h452l-29 -119h-452z" />
<glyph unicode="&#xae;" horiz-adv-x="1566" d="M123 692q0 147 56 272q58 129 153 223t225 151q129 57 274 57q149 0 276 -57q130 -58 224 -152q97 -96 152 -227q55 -129 55 -277t-55 -276q-56 -130 -152 -226q-94 -94 -224 -152q-127 -57 -273 -57q-150 0 -279 57q-132 58 -225 153q-96 98 -152 229q-55 129 -55 282z M233 690q0 -127 47 -241q48 -115 128 -197q83 -84 190 -132q108 -48 236 -48q123 0 231 48t188 131q82 85 127 193q47 112 47 238q0 127 -47 239q-46 111 -128 194t-189 131q-108 48 -232 48q-123 0 -231 -48t-190 -130q-83 -83 -129 -191q-48 -113 -48 -235zM483 272v109 h103v602h-103v109h291q91 0 149 -7q51 -6 87 -22q63 -27 99 -85q36 -59 36 -136q0 -146 -131 -209l108 -252h101v-109h-238l-115 336h-125v-227h86v-109h-348zM752 727h45q44 0 76 2q24 1 42 12q29 12 44 42q16 32 16 69q0 36 -14 64q-15 30 -39 42q-18 10 -42 15 q-21 4 -79 4h-49v-250z" />
<glyph unicode="&#xb0;" horiz-adv-x="1024" d="M344 1083q0 61 25 119q24 56 67 96q46 43 101 66q59 25 122 25q64 0 123 -25q56 -24 100 -66q42 -40 66 -98q25 -59 25 -121q0 -61 -25 -120q-24 -56 -67 -98t-101 -66q-59 -25 -121 -25q-63 0 -122 25q-58 24 -101 66q-42 41 -67 100t-25 122zM502 1081q0 -65 46 -111 t111 -46t112 45q46 45 46 110q0 66 -46 111q-47 45 -112 45t-111 -45t-46 -109z" />
<glyph unicode="&#xb1;" d="M92 113v182h887v-182h-887zM92 715v182h346v334h195v-334h346v-182h-346v-336h-195v336h-346z" />
<glyph unicode="&#xb5;" horiz-adv-x="1024" d="M104 -354v1337h252v-524q0 -97 15 -147q16 -52 51 -87q62 -57 141 -57q93 0 148 72q30 40 42 89q11 44 11 138v516h252v-983h-252v121q-39 -73 -87 -108q-46 -33 -120 -33q-67 0 -113 30q-48 31 -88 96v-460h-252z" />
<glyph unicode="&#xb6;" horiz-adv-x="1124" d="M92 913q0 58 17 117q18 61 46 109q31 52 70 93q38 40 90 68q62 34 148 50t192 16h691l-41 -166h-158l-354 -1423h-224l355 1423h-142l-354 -1423h-225l219 872h-31q-136 0 -218 71q-81 70 -81 193z" />
<glyph unicode="&#xb7;" horiz-adv-x="464" d="M49 346l76 301h293l-76 -301h-293z" />
<glyph unicode="&#xbb;" horiz-adv-x="841" d="M-68 0l304 489l-62 478h182l88 -484l-323 -483h-189zM281 0l303 489l-62 478h183l88 -484l-324 -483h-188z" />
<glyph unicode="&#x192;" horiz-adv-x="811" d="M-31 -166q78 -6 123 13q48 20 60 102l112 774h-196v143h217l51 355q17 120 76 182q56 60 144 78q90 18 212 2v-156q-126 11 -179 -16q-55 -28 -67 -115l-47 -330h242v-143h-262l-111 -789q-18 -128 -82 -192q-47 -47 -120 -59q-72 -12 -173 0v151z" />
<glyph unicode="&#x401;" horiz-adv-x="1114" d="M-59 0l47 170h155l258 1030h-178l47 166h979l-86 -348h-170l45 182h-383l-98 -395h401l-45 -182h-401l-113 -453h410l57 233h178l-100 -403h-1003zM479 1513l60 238h239l-59 -238h-240zM907 1513l60 238h239l-59 -238h-240z" />
<glyph unicode="&#x402;" horiz-adv-x="1425" d="M113 0l47 170h164l256 1030h-209l-60 -237h-178l100 403h1125l-101 -403h-178l60 237h-303l-99 -389q86 35 176 56q96 22 174 22q70 0 133 -22q59 -21 103 -60q43 -38 67 -93q23 -52 23 -118q0 -40 -4 -67q-6 -42 -18 -83l-72 -286q-24 -102 -42 -168q-20 -72 -34 -110 q-16 -42 -33 -73q-25 -45 -36 -61q-61 -85 -159 -128q-100 -44 -224 -44q-20 0 -34 1q-21 1 -48 3l41 166q78 2 126 15q46 13 81 56q35 42 60 124q24 77 58 223l66 258l12 48q5 19 6 29q2 16 2 20v24q0 75 -47 119q-46 43 -133 43q-62 0 -142 -22q-78 -21 -149 -60 l-112 -453h133l-47 -170h-551z" />
<glyph unicode="&#x403;" d="M-59 0l47 170h164l256 1030h-185l47 166h979l-86 -348h-170l45 182h-374l-258 -1030h184l-45 -170h-604zM666 1501l354 275h354l-491 -275h-217z" />
<glyph unicode="&#x404;" horiz-adv-x="1251" d="M88 492q0 109 24 217q25 110 67 207q43 98 106 184q61 83 137 143q193 152 428 152q107 0 186 -31q74 -29 135 -102l27 104h178l-112 -446h-177l4 44q1 10 1 31q0 101 -61 159q-59 56 -169 56q-154 0 -270 -113q-118 -115 -191 -333h457l-41 -168h-455q-4 -28 -6 -54 q-2 -34 -2 -55q0 -159 68 -245t196 -86q130 0 224 87q94 86 151 257h215q-135 -529 -614 -529q-116 0 -211 36q-93 35 -160 104q-65 67 -100 163q-35 97 -35 218z" />
<glyph unicode="&#x405;" d="M-27 0l115 457h143q-4 -32 -6 -53q-2 -26 -2 -35q0 -99 63 -156t173 -57q113 0 181 61q69 61 69 160q0 82 -56 135q-16 16 -25 22q-14 9 -33 21l-48 30l-72 42q-71 39 -123 80t-80 80q-30 42 -44 90q-13 45 -13 104q0 91 34 166q34 76 95 131q63 57 146 86q88 31 186 31 q99 0 167 -28q67 -27 118 -89l22 88h137l-100 -395h-135q2 24 2 29v22q0 92 -51 140t-146 48q-98 0 -158 -48q-59 -47 -59 -128q0 -32 7 -53q7 -22 29 -45q20 -21 60 -49q29 -20 101 -64q35 -19 73 -44q42 -28 55 -37q36 -27 42 -32q12 -10 34 -32q95 -95 95 -250 q0 -101 -37 -184q-38 -85 -104 -145q-65 -59 -158 -94q-90 -34 -203 -34q-114 0 -192 35q-77 35 -130 109l-28 -115h-144z" />
<glyph unicode="&#x406;" horiz-adv-x="718" d="M-59 0l47 170h164l256 1030h-185l47 166h604l-47 -166h-163l-258 -1030h184l-45 -170h-604z" />
<glyph unicode="&#x407;" horiz-adv-x="718" d="M-59 0l47 170h164l256 1030h-185l47 166h604l-47 -166h-163l-258 -1030h184l-45 -170h-604zM309 1513l60 238h239l-59 -238h-240zM670 1513l57 238h240l-60 -238h-237z" />
<glyph unicode="&#x408;" horiz-adv-x="733" d="M-150 -244l44 178q14 -2 18 -2h12q98 0 154 33q55 33 88 111l12 29q6 15 12 39l16 60l23 91l226 905h-179l48 166h581l-45 -166h-151l-226 -905q-25 -103 -45 -170q-24 -79 -41 -119q-21 -49 -43 -83q-20 -31 -51 -60q-123 -115 -340 -115q-16 0 -48 2q-25 2 -65 6z" />
<glyph unicode="&#x409;" horiz-adv-x="1765" d="M-82 -6l45 176q54 0 93 10q41 11 69 37q28 27 51 71q21 41 43 111l330 967h993l-45 -166h-172l-88 -354h31q114 0 181 -10q69 -10 120 -35q178 -84 178 -305q0 -72 -20 -143q-20 -72 -56 -126q-37 -57 -88 -103q-49 -45 -115 -73q-25 -11 -70 -24q-40 -12 -79 -17 q-48 -7 -99 -8q-76 -2 -130 -2h-482l47 170h158l256 1030h-350l-295 -864q-30 -89 -55 -134q-28 -51 -64 -89q-56 -61 -131 -90q-79 -31 -168 -31l-63 2h-25zM1067 170h55q100 0 156 12t96 45q52 40 82 114q31 78 31 157q0 102 -51 143q-52 41 -176 41h-64z" />
<glyph unicode="&#x40a;" horiz-adv-x="1810" d="M-59 0l47 170h155l258 1030h-178l47 166h574l-45 -166h-156l-92 -371h469l94 371h-178l47 166h602l-45 -166h-172l-92 -371h31q114 0 180 -10q71 -11 121 -33q89 -40 136 -117q46 -76 46 -182q0 -145 -75 -263q-74 -117 -204 -173q-23 -10 -69 -24q-37 -11 -79 -17 q-48 -7 -100 -8q-76 -2 -130 -2h-480l45 170h158l123 494h-471l-123 -494h178l-45 -170h-577zM1112 170h53q100 0 157 12q56 12 97 45q50 40 80 111q31 74 31 149q0 99 -52 138t-180 39h-63z" />
<glyph unicode="&#x40b;" horiz-adv-x="1568" d="M113 0l47 170h164l256 1030h-209l-60 -237h-178l100 403h1125l-101 -403h-178l60 237h-303l-99 -389q86 35 176 56q96 22 174 22q70 0 133 -22q59 -21 103 -60q43 -38 67 -93q23 -52 23 -118q0 -40 -4 -67q-6 -42 -18 -83l-68 -276h164l-43 -170h-586l43 170h166l63 252 q3 11 7.5 27t5.5 21q5 19 6 29q2 16 2 21v25q0 76 -46 118q-47 42 -130 42q-62 0 -140 -23q-82 -24 -145 -59l-112 -453h133l-47 -170h-551z" />
<glyph unicode="&#x40c;" horiz-adv-x="1343" d="M-59 0l47 170h155l258 1030h-178l47 166h559l-43 -166h-143l-121 -485l541 485h-156l43 166h535l-45 -166h-123l-416 -352l199 -678h157l-47 -170h-548l45 170h143l-137 524l-246 -200l-82 -324h164l-45 -170h-563zM768 1501l354 275h355l-492 -275h-217z" />
<glyph unicode="&#x40e;" horiz-adv-x="1230" d="M109 0l43 170h170l157 219l-151 811h-156l43 166h555l-41 -166h-141l78 -530l350 530h-142l41 166h533l-41 -166h-190l-693 -1030h170l-41 -170h-544zM596 1741v15q0 6 2 22h102q0 -64 37 -92q38 -29 121 -29q79 0 127 26t100 95h97q-86 -277 -338 -277q-115 0 -182 64 q-66 63 -66 176z" />
<glyph unicode="&#x40f;" horiz-adv-x="1431" d="M-59 0l47 170h157l258 1030h-178l45 166h576l-45 -166h-158l-256 -1030h498l258 1030h-178l43 166h577l-45 -166h-158l-256 -1030h179l-43 -170h-576l-51 -205h-184l51 205h-561z" />
<glyph unicode="&#x410;" horiz-adv-x="1349" d="M-109 0l48 170h143l678 1196h270l76 -1196h158l-47 -170h-572l45 170h164l-12 244h-426l-135 -244h178l-45 -170h-523zM508 582h328l-13 276q0 35 -1 57l-2 66q0 10 -0.5 30.5t-1.5 29.5q-1 18 -1 44v41q0 6 2 58l-29 -69q-9 -21 -32 -67l-42 -81l-57 -109z" />
<glyph unicode="&#x411;" horiz-adv-x="1142" d="M-59 0l47 170h155l258 1030h-178l47 166h940l-88 -348h-170l45 182h-342l-88 -354h58q116 0 182 -10q69 -10 121 -35q88 -40 133 -120q45 -79 45 -187q0 -73 -20 -142q-21 -71 -56 -125q-37 -57 -88 -103q-49 -45 -115 -73q-25 -11 -70 -24q-40 -12 -79 -17 q-48 -7 -99 -8q-76 -2 -130 -2h-508zM399 170h82q101 0 156 12t96 45q52 40 82 113q31 76 31 158q0 100 -51 141q-52 41 -177 41h-92z" />
<glyph unicode="&#x412;" horiz-adv-x="1241" d="M-59 0l47 170h155l258 1030h-178l47 166h432q76 0 133 -3q55 -3 98 -9q39 -6 75 -17q39 -12 61 -24q154 -83 154 -258q0 -78 -30 -144t-85 -112q-40 -30 -76 -47q-43 -20 -104 -35q105 -34 154 -101q48 -66 48 -176q0 -143 -78 -249q-79 -107 -216 -152q-43 -14 -73 -20 q-36 -8 -85 -12q-50 -5 -117 -6q-45 -1 -168 -1h-452zM399 170h97q98 0 151 10q54 10 96 35q60 34 94 100q33 63 33 138q0 117 -98 157q-27 11 -61 15q-31 4 -101 4h-96zM555 797h84q94 0 146 13q56 14 94 46t61 83t23 108q0 84 -49 119q-47 34 -166 34h-93z" />
<glyph unicode="&#x413;" d="M-59 0l47 170h164l256 1030h-185l47 166h979l-86 -348h-170l45 182h-374l-258 -1030h184l-45 -170h-604z" />
<glyph unicode="&#x414;" horiz-adv-x="1423" d="M-150 -205l95 375h24q197 0 281 250l323 946h844l-297 -1196h178l-94 -375h-184l51 205h-979l-51 -205h-191zM305 170h574l256 1030h-392l-264 -772q-15 -48 -37 -99q-17 -40 -38 -72q-17 -27 -44 -50q-21 -18 -55 -37z" />
<glyph unicode="&#x415;" horiz-adv-x="1114" d="M-59 0l47 170h155l258 1030h-178l47 166h979l-86 -348h-170l45 182h-383l-98 -395h401l-45 -182h-401l-113 -453h410l57 233h178l-100 -403h-1003z" />
<glyph unicode="&#x416;" horiz-adv-x="2070" d="M-109 0l43 170h162l539 604l-205 426h-176l41 166h514l-41 -166h-115l185 -397h166l100 397h-152l41 166h545l-43 -166h-149l-99 -397h166l373 397h-115l41 166h524l-41 -166h-176l-424 -432l236 -598h162l-43 -170h-547l43 170h121l-164 465h-199l-114 -465h149 l-43 -170h-543l43 170h150l117 465h-187l-377 -465h103l-43 -170h-568z" />
<glyph unicode="&#x417;" horiz-adv-x="1236" d="M82 451v20q0 7 2 29h219v-23q0 -154 76 -237q77 -84 213 -84q63 0 114 19q54 20 90 53q38 35 59 81q22 49 22 103q0 98 -66 141q-65 43 -209 43h-94l41 168h106q58 0 80 1q33 1 57 6q22 4 44 12q17 6 43 20q58 29 89 85t31 126q0 94 -61 145q-62 51 -174 51 q-131 0 -218 -71q-89 -73 -149 -219h-178l111 446h182l-27 -104q79 72 161 102q84 31 196 31q94 0 174 -26q77 -25 133 -72q57 -47 86 -112q31 -68 31 -147q0 -141 -85 -238q-86 -98 -235 -126q104 -37 151 -102q46 -64 46 -171q0 -97 -41 -181q-40 -81 -119 -142 q-145 -107 -387 -107q-150 0 -252 41q-100 40 -166 129q-49 64 -72 143q-24 81 -24 167z" />
<glyph unicode="&#x418;" horiz-adv-x="1425" d="M96 0l299 1200h-170l41 166h582l-41 -166h-170l-201 -805l740 971h411l-41 -166h-170l-256 -1030h170l-43 -170h-581l41 170h172l198 799l-739 -969h-242z" />
<glyph unicode="&#x419;" horiz-adv-x="1425" d="M96 0l299 1200h-170l41 166h582l-41 -166h-170l-201 -805l740 971h411l-41 -166h-170l-256 -1030h170l-43 -170h-581l41 170h172l198 799l-739 -969h-242zM750 1741v15q0 6 2 22h102q0 -64 37 -92q38 -29 121 -29q79 0 127 26t100 95h96q-86 -277 -338 -277 q-115 0 -182 64q-65 62 -65 176z" />
<glyph unicode="&#x41a;" horiz-adv-x="1343" d="M-59 0l47 170h155l258 1030h-178l47 166h559l-43 -166h-143l-121 -485l541 485h-156l43 166h535l-45 -166h-123l-416 -352l199 -678h157l-47 -170h-548l45 170h143l-137 524l-246 -200l-82 -324h164l-45 -170h-563z" />
<glyph unicode="&#x41b;" horiz-adv-x="1400" d="M-82 -6l45 176q54 0 93 10q41 11 69 37q28 27 51 71q22 42 43 109l330 969h844l-297 -1196h176l-45 -170h-576l45 170h158l256 1030h-391l-295 -864q-30 -89 -55 -134q-28 -51 -64 -89q-52 -59 -130 -90q-79 -31 -169 -31l-63 2h-25z" />
<glyph unicode="&#x41c;" horiz-adv-x="1783" d="M-59 0l47 170h155l258 1030h-178l47 166h533l24 -483q1 -21 3.5 -51.5t4 -52t2.5 -37.5q2 -28 4 -94q0 -13 0.5 -37.5t1.5 -36.5q1 -23 1 -78v-78q0 -39 -4 -84q15 38 46 101l71 143l84 160l85 157l267 471h544l-47 -166h-155l-258 -1030h178l-47 -170h-568l45 170h144 l121 487l31 127l28 110l32 127l46 181l-42 -79l-32 -59l-39 -70l-59 -107l-176 -314l-324 -573h-180l-33 561q-8 209 -13 325q-5 106 -11 316q-10 -32 -18 -65l-13 -52l-20 -85q-11 -50 -19 -82l-68 -271l-118 -477h163l-45 -170h-499z" />
<glyph unicode="&#x41d;" horiz-adv-x="1431" d="M-59 0l47 170h155l258 1030h-178l47 166h574l-45 -166h-156l-100 -397h497l101 397h-178l45 166h577l-47 -166h-156l-258 -1030h179l-48 -170h-573l45 170h156l116 465h-497l-117 -465h178l-45 -170h-577z" />
<glyph unicode="&#x41e;" horiz-adv-x="1339" d="M90 496q0 85 19 183q18 95 52 181q35 88 81 168q46 79 104 143q102 110 231 166q133 58 273 58q114 0 204 -37q91 -37 154 -106q66 -72 99 -167q34 -98 34 -219q0 -83 -15 -169q-14 -78 -43 -166q-24 -71 -69 -155q-40 -73 -90 -136q-215 -269 -544 -269q-114 0 -203 37 q-92 38 -154 105q-64 68 -98 165q-35 99 -35 218zM356 471q0 -144 65 -230q64 -85 175 -85q166 0 305 188q40 57 71 122q30 63 55 138q24 71 36 145q12 72 12 142q0 149 -63 234t-174 85q-191 0 -338 -237q-66 -111 -105 -245t-39 -257z" />
<glyph unicode="&#x41f;" horiz-adv-x="1431" d="M-59 0l47 170h155l258 1030h-178l47 166h1315l-47 -166h-156l-258 -1030h179l-48 -170h-573l45 170h156l258 1030h-498l-258 -1030h178l-45 -170h-577z" />
<glyph unicode="&#x420;" horiz-adv-x="1112" d="M-59 0l47 170h155l258 1030h-178l47 166h457q116 0 182 -10q69 -10 121 -35q88 -40 133 -120q45 -79 45 -187q0 -76 -19 -143q-20 -72 -56 -126q-37 -56 -90 -103q-52 -46 -115 -73q-21 -9 -70 -24q-38 -11 -78 -17q-48 -7 -99 -8q-76 -2 -130 -2h-66l-86 -348h211 l-45 -170h-624zM528 686h56q100 0 155 12q57 12 97 45q52 40 82 114q30 75 30 159q0 102 -51 143q-52 41 -176 41h-66z" />
<glyph unicode="&#x421;" horiz-adv-x="1251" d="M88 492q0 109 24 217q25 110 67 207q43 98 106 184q61 83 137 143q193 152 428 152q107 0 186 -31q74 -29 135 -102l27 104h178l-112 -446h-177l4 44q1 10 1 31q0 101 -61 159q-59 56 -169 56q-208 0 -344 -206q-76 -111 -121 -252q-43 -135 -43 -269q0 -156 69 -242 q69 -85 195 -85q130 0 224 87q94 86 151 257h215q-135 -529 -614 -529q-116 0 -211 36q-93 35 -160 104q-65 67 -100 163q-35 97 -35 218z" />
<glyph unicode="&#x422;" horiz-adv-x="1157" d="M135 963l101 403h1124l-100 -403h-179l60 237h-258l-256 -1030h184l-47 -170h-602l47 170h164l256 1030h-256l-60 -237h-178z" />
<glyph unicode="&#x423;" horiz-adv-x="1230" d="M109 0l43 170h170l157 219l-151 811h-156l43 166h555l-41 -166h-141l78 -530l350 530h-142l41 166h533l-41 -166h-190l-693 -1030h170l-41 -170h-544z" />
<glyph unicode="&#x424;" horiz-adv-x="1581" d="M55 653q0 123 89 230q87 105 243 166q38 14 98 32q43 13 103 25q41 8 115 17q63 7 141 12l18 73h-182l39 158h584l-39 -158h-168l-21 -82q50 -6 82 -12q38 -7 65 -12q20 -4 56 -16q27 -9 57 -21q141 -53 221 -146q80 -94 80 -208q0 -105 -53 -191q-52 -85 -155 -147 t-246 -99t-328 -43l-18 -67h182l-41 -164h-582l41 164h166l19 76q-267 30 -417 139q-149 108 -149 274zM317 651q0 -202 345 -241l139 553q-108 -6 -198 -32q-87 -25 -152 -67t-99 -95q-35 -55 -35 -118zM897 406q107 6 194 30q84 23 149 65q63 41 97 92q35 53 35 114 q0 101 -86 164q-85 62 -252 85z" />
<glyph unicode="&#x425;" horiz-adv-x="1243" d="M-92 0l47 170h143l455 532l-158 498h-190l47 166h354l127 -477l250 311h-178l45 166h528l-47 -166h-129l-418 -487l174 -543h191l-47 -170h-354l-144 530l-287 -360h177l-45 -170h-541z" />
<glyph unicode="&#x426;" horiz-adv-x="1431" d="M-59 0l47 170h157l258 1030h-178l45 166h576l-45 -166h-158l-256 -1030h498l258 1030h-178l43 166h577l-45 -166h-158l-256 -1030h179l-95 -375h-184l51 205h-1136z" />
<glyph unicode="&#x427;" horiz-adv-x="1413" d="M190 1200l48 166h585l-47 -166h-164l-63 -258q-15 -52 -18 -74q-3 -21 -3 -47q0 -78 46 -120q47 -42 131 -42q60 0 137 22q71 20 145 62l115 457h-184l47 166h602l-47 -166h-164l-256 -1030h184l-47 -170h-602l45 170h164l96 385q-80 -37 -176 -59q-90 -21 -172 -21 q-69 0 -132 22q-61 21 -104 60q-41 37 -66 93q-24 54 -24 120q0 31 5 69q3 24 16 81l71 280h-168z" />
<glyph unicode="&#x428;" horiz-adv-x="2035" d="M-59 0l47 170h157l258 1030h-178l45 166h576l-45 -166h-158l-256 -1030h430l258 1030h-157l45 166h555l-45 -166h-158l-256 -1030h430l258 1030h-158l43 166h557l-45 -166h-157l-256 -1030h178l-43 -170h-1925z" />
<glyph unicode="&#x429;" horiz-adv-x="2035" d="M-59 0l47 170h157l258 1030h-178l45 166h576l-45 -166h-158l-256 -1030h430l258 1030h-157l45 166h555l-45 -166h-158l-256 -1030h430l258 1030h-158l43 166h557l-45 -166h-157l-256 -1030h178l-94 -375h-185l51 205h-1740z" />
<glyph unicode="&#x42a;" horiz-adv-x="1351" d="M149 1018l87 348h864l-45 -166h-172l-88 -354h57q116 0 182 -10q68 -10 119 -35q180 -84 180 -307q0 -76 -19 -142q-20 -68 -57 -125q-38 -58 -89 -103q-52 -46 -115 -73q-21 -9 -70 -24q-37 -11 -79 -17q-48 -7 -100 -8q-76 -2 -130 -2h-508l47 170h158l256 1030h-260 l-48 -182h-170zM625 170h82q99 0 156 12q58 12 98 45q51 39 81 113q31 76 31 158q0 100 -51 141q-52 41 -178 41h-92z" />
<glyph unicode="&#x42b;" horiz-adv-x="1736" d="M-59 0l47 170h155l258 1030h-178l47 166h604l-47 -166h-172l-88 -354h31q116 0 182 -10q69 -10 121 -35q178 -84 178 -305q0 -76 -19 -143q-20 -72 -56 -126q-37 -56 -90 -103q-52 -46 -115 -73q-21 -9 -70 -24q-38 -11 -78 -17q-48 -7 -99 -8q-76 -2 -130 -2h-481z M399 170h54q99 0 156 12q58 12 98 45q51 39 81 114q31 77 31 157q0 102 -51 143q-52 41 -176 41h-66zM958 0l48 170h163l256 1030h-184l47 166h602l-45 -166h-164l-258 -1030h185l-47 -170h-603z" />
<glyph unicode="&#x42c;" horiz-adv-x="1124" d="M-59 0l47 170h155l258 1030h-178l47 166h604l-47 -166h-172l-88 -354h58q116 0 182 -10q69 -10 121 -35q88 -40 133 -120q45 -79 45 -187q0 -73 -20 -142q-21 -71 -56 -125q-37 -57 -88 -103q-49 -45 -115 -73q-25 -11 -70 -24q-40 -12 -79 -17q-48 -7 -99 -8 q-76 -2 -130 -2h-508zM399 170h82q101 0 156 12t96 45q52 40 82 113q31 76 31 158q0 100 -51 141q-52 41 -177 41h-92z" />
<glyph unicode="&#x42d;" horiz-adv-x="1302" d="M82 453v19q0 6 2 28h219v-23q0 -63 14 -116q15 -58 41 -95q73 -110 215 -110q144 0 252 111q109 112 176 329h-493l41 168h485q2 28 3 54q1 17 1 50q0 166 -70 254t-206 88q-253 0 -365 -290h-180l111 446h184l-27 -104q79 72 161 102q84 31 194 31q108 0 194 -36 q88 -37 147 -102q61 -67 92 -161q32 -98 32 -215q0 -103 -21 -206q-22 -108 -58 -199q-38 -94 -93 -180t-123 -153q-175 -172 -447 -172q-112 0 -199 34q-92 36 -152 96t-96 152q-34 87 -34 200z" />
<glyph unicode="&#x42e;" horiz-adv-x="2004" d="M-59 0l47 170h155l258 1030h-178l47 166h574l-45 -166h-156l-100 -397h264q44 137 113 247q68 109 161 186q93 78 203 118q112 41 232 41q113 0 203 -37q92 -38 155 -107q64 -70 98 -167q35 -99 35 -218q0 -83 -15 -169q-14 -78 -43 -166q-23 -69 -69 -156 q-39 -74 -90 -137q-105 -129 -242 -198q-136 -69 -297 -69q-113 0 -205 36q-91 36 -156 104t-99 163q-35 97 -35 218q0 25 2 69q1 29 8 74h-264l-117 -465h178l-45 -170h-577zM1022 471q0 -145 64 -230t176 -85q166 0 305 188q37 52 70 122q33 69 56 138q24 71 36 145 q12 72 12 142q0 145 -64 232q-63 85 -174 85q-193 0 -338 -237q-64 -108 -104 -244q-39 -134 -39 -256z" />
<glyph unicode="&#x42f;" horiz-adv-x="1251" d="M-109 0l43 170h168l308 440q-82 39 -127 114t-45 173q0 144 75 254q78 114 205 166q27 12 70 23q42 11 79 16q48 7 99 8q74 2 131 2h508l-45 -166h-158l-256 -1030h176l-47 -170h-604l47 170h172l98 395h-69h-53q-19 0 -43 2l-367 -567h-365zM498 899q0 -93 51 -130 q52 -38 178 -38h104l117 469h-84q-104 0 -155 -11q-58 -13 -97 -40q-55 -39 -84 -105q-30 -68 -30 -145z" />
<glyph unicode="&#x430;" horiz-adv-x="1001" d="M8 219q0 105 78 191q79 87 219 133q35 12 69 21q3 1 30 8t42 11q39 9 87 18q66 12 114 20l10 41q11 47 11 75q0 84 -131 84q-91 0 -138 -38q-46 -37 -75 -134h-172l61 217q89 67 170 93q86 28 190 28q155 0 237 -61q83 -62 83 -172q0 -38 -6 -78q-5 -37 -23 -107 l-102 -409h139l-39 -160h-362l32 133q-56 -80 -118 -117q-60 -36 -148 -36q-58 0 -103 17q-49 18 -82 50t-53 76q-20 45 -20 96zM268 268q0 -50 32 -80t81 -30q50 0 91 25q42 25 69 71q11 18 13 22q8 18 11 28q10 29 13 43l16 67l22 84q-178 -39 -266 -95q-82 -52 -82 -135z " />
<glyph unicode="&#x431;" horiz-adv-x="1054" d="M55 379q0 100 29 222q28 117 77 237q48 117 111 219q62 101 136 170q161 155 364 155q19 0 27 -1q12 -1 27 -3q8 -1 37 -7l57 -13q29 -8 67 -8q33 0 67 8q32 8 72 24l-41 -163q-36 -20 -59 -26q-25 -7 -61 -7q-13 0 -37 2q-11 1 -58 10q-29 6 -43 9q-11 2 -27 4 q-4 0 -11 0.5t-10 1.5q-6 1 -21 1q-108 0 -208 -92q-99 -92 -173 -262q62 66 127 96q68 31 149 31q77 0 142 -28q63 -27 108 -78q46 -52 70 -124t24 -161q0 -134 -41 -248q-40 -112 -112 -194q-71 -81 -171 -128q-98 -46 -218 -46q-185 0 -292 107q-108 108 -108 292z M315 352q0 -98 38 -151q39 -54 108 -54q120 0 203 160q30 62 53 154q20 81 20 160q0 97 -37 147q-38 51 -104 51q-116 0 -201 -153q-35 -66 -57 -154q-23 -90 -23 -160z" />
<glyph unicode="&#x432;" horiz-adv-x="1026" d="M-51 0l39 160h137l164 653h-154l37 154h530q68 0 117 -9q44 -8 82 -28q49 -27 76 -75t27 -110q0 -198 -224 -239q156 -55 156 -209q0 -79 -43 -147q-45 -71 -113 -105q-54 -25 -113 -35q-57 -10 -163 -10h-555zM369 156h94q217 0 217 155q0 58 -34 82q-36 25 -111 25 h-101zM471 569h90q89 0 138 38t49 106q0 51 -33 80q-10 8 -21 13q-5 2 -32 7q-13 0 -27 2h-103z" />
<glyph unicode="&#x433;" horiz-adv-x="892" d="M-51 0l39 160h137l164 653h-154l37 154h813l-80 -318h-176l41 164h-238l-163 -653h153l-39 -160h-534z" />
<glyph unicode="&#x434;" horiz-adv-x="1191" d="M-150 -205l91 365h39q79 0 129 43q51 43 81 135l213 629h705l-201 -807h154l-92 -365h-174l49 205h-766l-51 -205h-177zM276 160h388l161 653h-262l-151 -457q-28 -79 -59 -122q-28 -39 -77 -74z" />
<glyph unicode="&#x435;" horiz-adv-x="1013" d="M53 379q0 130 42 241q41 109 116 193q72 81 175 128q101 46 220 46q166 0 261 -96q96 -98 96 -268q0 -41 -7 -85q-7 -45 -22 -100h-621q-5 -30 -6 -48q-2 -24 -2 -40q0 -98 45 -150q45 -53 131 -53q75 0 128 37q57 40 108 121h194q-56 -161 -172 -243t-284 -82 q-189 0 -295 106q-107 107 -107 293zM352 592h355q7 32 8 47q2 24 2 37q0 68 -34 105q-35 38 -95 38q-152 0 -236 -227z" />
<glyph unicode="&#x436;" horiz-adv-x="1527" d="M-96 0l39 160h100l344 409l-135 244h-117l39 154h408l-37 -154h-115l119 -225h137l55 225h-116l39 154h469l-39 -154h-115l-57 -225h131l221 225h-98l38 154h408l-39 -154h-115l-276 -274l131 -379h111l-39 -160h-277l-135 434h-100l-68 -274h117l-41 -160h-469l41 160 h115l69 274h-104l-334 -434h-305z" />
<glyph unicode="&#x437;" horiz-adv-x="950" d="M41 305h195q5 -158 172 -158q82 0 131 40t49 106q0 54 -37 78t-119 24h-86l43 170h115q75 0 116 37q42 38 42 103q0 53 -35 83q-36 31 -97 31q-167 0 -233 -184h-164l84 332h164l-21 -95q50 60 114 87q67 28 157 28q135 0 213 -66t78 -180q0 -106 -64 -173t-180 -83 q170 -45 170 -196q0 -57 -28 -118q-26 -56 -75 -99q-106 -92 -319 -92q-126 0 -203 31t-125 102q-57 84 -57 192z" />
<glyph unicode="&#x438;" horiz-adv-x="1189" d="M55 0l203 813h-154l39 154h484l-39 -154h-94l-123 -489l495 643h375l-39 -154h-135l-164 -653h154l-39 -160h-486l39 160h97l120 483l-495 -643h-238z" />
<glyph unicode="&#x439;" horiz-adv-x="1189" d="M55 0l203 813h-154l39 154h484l-39 -154h-94l-123 -489l495 643h375l-39 -154h-135l-164 -653h154l-39 -160h-486l39 160h97l120 483l-495 -643h-238zM516 1358v17q0 6 2 28h103q0 -79 31 -113q32 -35 102 -35q66 0 109 32q42 32 89 116h95q-78 -293 -310 -293 q-105 0 -163 66q-58 65 -58 182z" />
<glyph unicode="&#x43a;" horiz-adv-x="1171" d="M-51 0l39 160h137l164 653h-154l37 154h391l-114 -463l358 309h-150l39 154h484l-39 -154h-109l-264 -219l176 -434h123l-39 -160h-276l-166 446l-191 -153l-33 -133h140l-39 -160h-514z" />
<glyph unicode="&#x43b;" horiz-adv-x="1138" d="M-96 -2l39 156q82 4 130 45t81 139l213 629h704l-203 -807h154l-39 -160h-494l41 160h95l163 653h-262l-151 -457q-29 -101 -70 -174q-39 -70 -94 -111q-57 -43 -130 -59q-71 -16 -177 -14z" />
<glyph unicode="&#x43c;" horiz-adv-x="1456" d="M-51 0l39 160h137l164 653h-154l37 154h461l47 -666l360 666h467l-39 -154h-135l-164 -653h154l-39 -160h-483l41 160h96l145 588l-417 -748h-170l-58 748l-147 -588h92l-41 -160h-393z" />
<glyph unicode="&#x43d;" horiz-adv-x="1196" d="M-51 0l39 160h137l164 653h-154l37 154h494l-39 -154h-95l-57 -225h297l55 225h-112l39 154h493l-39 -154h-137l-162 -653h154l-41 -160h-492l39 160h97l67 274h-295l-69 -274h112l-39 -160h-493z" />
<glyph unicode="&#x43e;" horiz-adv-x="1054" d="M55 385q0 127 42 237q41 108 114 191q71 82 170 128q98 46 211 46q89 0 168 -28q76 -27 128 -79t81 -126q28 -72 28 -166q0 -130 -47 -256t-129 -205q-151 -147 -368 -147q-94 0 -165 28q-73 29 -125 81q-54 54 -80 128q-28 79 -28 168zM315 352q0 -98 38 -151 q39 -54 108 -54q120 0 203 160q30 62 53 154q20 81 20 160q0 97 -37 147q-38 51 -104 51q-116 0 -201 -153q-35 -66 -57 -154q-23 -90 -23 -160z" />
<glyph unicode="&#x43f;" horiz-adv-x="1196" d="M-51 0l39 160h137l164 653h-154l37 154h1075l-39 -154h-137l-162 -653h154l-41 -160h-492l39 160h97l161 653h-295l-163 -653h112l-39 -160h-493z" />
<glyph unicode="&#x440;" horiz-adv-x="1148" d="M-162 -403l39 159h137l265 1057h-154l39 154h368l-28 -119q114 139 272 139q66 0 126 -29q58 -28 100 -79t66 -123t24 -156q0 -128 -40 -241t-109 -197t-160 -133t-193 -49q-199 0 -254 167l-98 -391h168l-41 -159h-527zM416 342q0 -90 40 -142q41 -53 107 -53 q111 0 189 134q20 36 38 79q15 36 29 89q13 50 20 90q7 42 7 86q0 92 -40 144t-110 52q-110 0 -186 -133q-18 -33 -36 -78q-18 -44 -30 -92q-13 -50 -20 -94q-8 -50 -8 -82z" />
<glyph unicode="&#x441;" horiz-adv-x="946" d="M53 379q0 125 42 236q42 112 114 194q71 82 168 130q96 48 205 48q88 0 139 -26q54 -28 82 -87l24 93h164l-84 -332h-164q2 14 2 17v12q0 72 -37 113q-38 42 -104 42q-112 0 -196 -133q-44 -68 -69 -159q-26 -93 -26 -173q0 -101 40 -153q42 -54 116 -54q129 0 195 158 h202q-127 -325 -434 -325q-86 0 -157 27q-68 26 -119 80q-49 52 -76 126q-27 73 -27 166z" />
<glyph unicode="&#x442;" horiz-adv-x="905" d="M82 0l39 160h143l164 653h-123l-41 -164h-174l78 318h840l-80 -318h-176l41 164h-121l-164 -653h147l-39 -160h-534z" />
<glyph unicode="&#x443;" horiz-adv-x="995" d="M-195 -422l43 182q20 -1 40 -3q12 -1 30 -1q115 0 191 40t131 128l34 53l-98 836h-137l39 154h495l-36 -154h-123l18 -205q10 -106 15 -192q6 -114 6 -137v-56q29 67 78 159q39 73 133 226l120 205h-137l39 154h422l-37 -154h-110l-480 -819l-70 -116q-32 -50 -57 -83 q-27 -35 -51 -60q-23 -24 -53 -48q-68 -59 -158 -85t-211 -26z" />
<glyph unicode="&#x444;" horiz-adv-x="1478" d="M39 338q0 65 12 134q12 67 36 134t55 124q32 60 71 106q133 151 305 151q73 0 125 -37q54 -39 76 -100l92 369h-152l37 147h381l-123 -494q41 54 99 84q59 31 123 31q120 0 191 -96q71 -97 71 -260q0 -78 -17 -161q-17 -82 -45 -155q-30 -76 -68 -136q-40 -62 -89 -105 q-100 -94 -234 -94q-160 0 -217 143l-92 -367h153l-38 -159h-535l39 159h151l82 328q-89 -104 -211 -104q-130 0 -204 95t-74 263zM291 332q0 -185 108 -185q75 0 133 93q27 43 46 89q18 42 35 104q18 64 24 109q8 58 8 103q0 174 -108 174q-93 0 -166 -153q-19 -39 -33 -79 q-14 -38 -25 -87q-9 -40 -16 -88q-6 -44 -6 -80zM838 330q0 -183 110 -183q77 0 133 93q25 40 44 89q20 51 35 103q18 62 24 109q8 59 8 102q0 176 -107 176q-67 0 -124 -82q-28 -39 -50 -87q-23 -50 -39 -105q-15 -52 -25 -111q-9 -56 -9 -104z" />
<glyph unicode="&#x445;" horiz-adv-x="1028" d="M-109 0l39 160h123l344 334l-118 319h-173l39 154h324l106 -318l150 164h-129l39 154h438l-39 -154h-110l-299 -295l137 -358h170l-39 -160h-322l-125 362l-186 -202h150l-39 -160h-480z" />
<glyph unicode="&#x446;" horiz-adv-x="1196" d="M-51 0l39 158h137l164 655h-154l37 154h494l-39 -154h-95l-163 -655h297l161 655h-112l39 154h493l-39 -154h-137l-162 -655h154l-90 -363h-176l49 205h-897z" />
<glyph unicode="&#x447;" horiz-adv-x="1110" d="M82 813l39 154h438l-39 -154h-92l-43 -172q-3 -14 -7 -44q-3 -25 -3 -42q0 -38 24 -62t66 -24q105 0 203 82l65 262h-92l39 154h481l-39 -154h-137l-162 -653h154l-41 -160h-524l41 160h118l56 221q-145 -82 -277 -82q-106 0 -172 54q-65 53 -65 143q0 28 7 69 q11 62 17 90l41 158h-96z" />
<glyph unicode="&#x448;" horiz-adv-x="1681" d="M-51 0l39 160h137l164 653h-154l37 154h494l-39 -154h-95l-163 -653h268l164 653h-113l39 154h451l-37 -154h-97l-163 -653h270l162 653h-113l39 154h494l-39 -154h-138l-161 -653h153l-41 -160h-1558z" />
<glyph unicode="&#x449;" horiz-adv-x="1681" d="M-51 0l39 158h137l164 655h-154l37 154h494l-39 -154h-95l-163 -655h268l164 655h-113l39 154h451l-37 -154h-97l-163 -655h270l162 655h-113l39 154h494l-39 -154h-138l-161 -655h153l-92 -363h-174l49 205h-1382z" />
<glyph unicode="&#x44a;" horiz-adv-x="1101" d="M41 649l80 318h670l-39 -154h-95l-47 -190h113q73 0 126 -10q50 -9 89 -31q59 -34 91 -97q32 -62 32 -141q0 -90 -38 -164q-37 -74 -105 -117q-49 -33 -118 -49q-62 -14 -163 -14h-563l39 160h137l164 653h-156l-41 -164h-176zM494 160h108q52 0 79 5q24 5 48 21 q32 22 52 67t20 91q0 125 -144 125h-86z" />
<glyph unicode="&#x44b;" horiz-adv-x="1517" d="M-51 0l39 160h137l164 653h-154l37 154h494l-39 -154h-95l-49 -190h88q73 0 126 -10q50 -9 89 -31q59 -36 90 -98t31 -140q0 -90 -38 -164q-37 -74 -105 -117q-50 -34 -117 -49q-62 -14 -162 -14h-536zM369 160h80q51 0 78 5q24 5 48 21q33 23 53 67q19 42 19 91 q0 125 -143 125h-58zM852 0l39 160h96l162 653h-113l39 154h494l-39 -154h-135l-164 -653h153l-38 -160h-494z" />
<glyph unicode="&#x44c;" horiz-adv-x="976" d="M-51 0l39 160h137l164 653h-154l37 154h494l-39 -154h-95l-49 -190h115q73 0 126 -10q50 -9 89 -31q59 -34 91 -97q32 -62 32 -141q0 -90 -38 -164t-105 -117q-49 -33 -118 -49q-62 -14 -163 -14h-563zM369 160h108q52 0 79 5q24 5 48 21q32 22 52 67t20 91 q0 125 -144 125h-86z" />
<glyph unicode="&#x44d;" horiz-adv-x="985" d="M41 305h195q2 -77 39 -117q38 -41 104 -41q84 0 142 60q61 62 106 188h-281l43 170h273q3 14 5 42q1 12 1 40q0 172 -144 172q-76 0 -136 -48q-62 -49 -91 -136h-164l84 332h164l-21 -95q50 60 111 87q64 28 145 28q148 0 229 -95t81 -269q0 -139 -45 -267 q-45 -127 -123 -217q-140 -159 -381 -159q-103 0 -167 32q-67 34 -114 103q-55 82 -55 190z" />
<glyph unicode="&#x44e;" horiz-adv-x="1611" d="M-51 0l39 160h137l164 653h-154l37 154h494l-39 -154h-95l-57 -225h168q60 186 194 293q133 106 312 106q188 0 295 -107q108 -108 108 -292q0 -129 -47 -255q-47 -125 -129 -204q-149 -149 -366 -149q-187 0 -292 108q-106 109 -106 301v20q0 3 2 25h-176l-69 -274h112 l-39 -160h-493zM872 352q0 -98 38 -151q39 -54 106 -54q62 0 112 38q51 38 91 122q30 62 53 154q20 81 20 160q0 97 -37 147q-37 51 -104 51q-117 0 -199 -153q-35 -66 -57 -154q-23 -90 -23 -160z" />
<glyph unicode="&#x44f;" horiz-adv-x="1077" d="M-82 0l39 160h143l162 239q-58 28 -89 86q-30 57 -30 138q0 89 38 163q37 73 106 117q50 34 116 49t162 15h563l-36 -154h-138l-163 -653h153l-39 -160h-493l41 160h94l47 184h-100h-20q-12 0 -32 4l-198 -348h-326zM403 623q0 -66 37 -96q36 -29 123 -29h70l78 315h-109 q-52 0 -79 -5q-21 -4 -46 -22q-35 -24 -54 -69q-20 -46 -20 -94z" />
<glyph unicode="&#x451;" horiz-adv-x="1013" d="M53 379q0 130 42 241q41 109 116 193q72 81 175 128q101 46 220 46q166 0 261 -96q96 -98 96 -268q0 -41 -7 -85q-7 -45 -22 -100h-621q-5 -30 -6 -48q-2 -24 -2 -40q0 -98 45 -150q45 -53 131 -53q75 0 128 37q57 40 108 121h194q-56 -161 -172 -243t-284 -82 q-189 0 -295 106q-107 107 -107 293zM324 1137l57 231h233l-57 -231h-233zM352 592h355q7 32 8 47q2 24 2 37q0 68 -34 105q-35 38 -95 38q-152 0 -236 -227zM731 1137l57 231h232l-57 -231h-232z" />
<glyph unicode="&#x452;" horiz-adv-x="1144" d="M-51 0l39 160h137l231 927h-143l37 148h143l33 131h244l-33 -131h270l-37 -148h-270l-61 -249q130 149 290 149q106 0 169 -62q65 -63 65 -167q0 -27 -1 -40q-2 -28 -5 -43q-7 -36 -11 -53l-18 -71l-199 -795h154l-39 -159h-493l41 159h94l198 797q19 78 19 109 q0 53 -32 83q-33 31 -89 31q-47 0 -89 -21t-71 -61q-18 -24 -30 -58q-15 -42 -29 -101l-94 -375h112l-39 -160h-493z" />
<glyph unicode="&#x453;" horiz-adv-x="892" d="M-51 0l39 160h137l164 653h-154l37 154h813l-80 -318h-176l41 164h-238l-163 -653h153l-39 -160h-534zM506 1106l321 301h316l-453 -301h-184z" />
<glyph unicode="&#x454;" horiz-adv-x="962" d="M53 379q0 125 42 236q42 112 114 194q71 82 168 130q96 48 205 48q88 0 139 -26q54 -28 82 -87l24 93h164l-84 -332h-164q2 14 2 17v12q0 72 -37 113q-38 42 -104 42q-78 0 -145 -66q-69 -67 -109 -188h287l-43 -170h-281v-6v-39q0 -97 41 -150t115 -53q129 0 195 158 h202q-127 -325 -434 -325q-86 0 -157 27q-68 26 -119 80q-49 52 -76 126q-27 73 -27 166z" />
<glyph unicode="&#x455;" horiz-adv-x="892" d="M-43 0l86 346h158q-1 -5 -2 -14.5t-1 -14.5q-1 -10 -1 -22q0 -72 47 -114q46 -42 129 -42q71 0 115 36t44 93q0 49 -47 82q-7 5 -14 9q-2 1 -18 11q-4 3 -16.5 9t-18.5 9q-41 22 -62 34q-72 39 -117 68q-44 28 -73 59q-27 28 -36 59q-9 30 -9 72q0 65 27 122q26 55 76 97 q49 41 114 65q63 23 143 23q165 0 232 -104l22 84h156l-76 -303h-156q0 2 4 25q1 6 1 20q0 55 -38 87q-37 31 -106 31q-66 0 -110 -30q-43 -30 -43 -78q0 -42 36 -68q2 -2 5 -3.5t5.5 -3t3.5 -2.5q6 -4 16 -9l31 -18l56 -31q52 -27 101 -57q12 -7 61 -40q96 -67 96 -188 q0 -71 -28 -128q-27 -56 -80 -101q-49 -42 -121 -67q-66 -23 -152 -23q-189 0 -256 126l-26 -106h-158z" />
<glyph unicode="&#x456;" horiz-adv-x="636" d="M-51 0l39 160h137l164 653h-154l37 154h397l-200 -807h153l-39 -160h-534zM330 1130l59 236h266l-59 -236h-266z" />
<glyph unicode="&#x457;" horiz-adv-x="636" d="M-51 0l39 160h137l164 653h-154l37 154h397l-200 -807h153l-39 -160h-534zM164 1137l57 231h234l-58 -231h-233zM516 1137l57 231h234l-57 -231h-234z" />
<glyph unicode="&#x458;" horiz-adv-x="616" d="M-242 -420l41 168q83 2 127 13q47 12 80 54q34 43 59 123q25 81 60 222l164 653h-154l37 154h397l-200 -807l-44 -173q-19 -68 -33 -110q-15 -43 -32 -71q-25 -41 -37 -58q-61 -85 -158 -128q-100 -44 -225 -44q-20 0 -34 1q-21 1 -48 3zM330 1130l57 236h266l-57 -236 h-266z" />
<glyph unicode="&#x459;" horiz-adv-x="1421" d="M-96 -2l39 156q82 4 130 45t81 139l213 629h772l-39 -154h-94l-50 -190h88q73 0 126 -10q52 -10 90 -31q57 -35 89 -98q31 -62 31 -140q0 -90 -38 -164t-105 -117q-50 -34 -117 -49q-62 -14 -162 -14h-536l39 160h137l164 653h-236l-151 -457q-29 -101 -70 -174 q-39 -70 -94 -111q-57 -43 -130 -59q-71 -16 -177 -14zM842 160h80q51 0 78 5q25 5 49 21q32 22 52 67q19 42 19 91q0 125 -143 125h-57z" />
<glyph unicode="&#x45a;" horiz-adv-x="1462" d="M-51 0l39 160h137l164 653h-154l37 154h494l-39 -154h-95l-53 -209h269l53 209h-101l39 154h439l-37 -154h-97l-51 -209h78q77 0 127 -9q46 -8 92 -32q58 -32 93 -94q34 -61 34 -139q0 -86 -38 -157q-39 -72 -103 -112q-49 -31 -117 -47q-62 -14 -162 -14h-495l41 160h94 l74 291h-269l-73 -291h94l-41 -160h-473zM881 160h82q57 0 78 4q25 5 46 20q36 23 54 64q18 40 18 88q0 115 -127 115h-78z" />
<glyph unicode="&#x45b;" horiz-adv-x="1191" d="M-51 0l39 160h137l231 927h-143l37 148h143l33 131h244l-33 -131h270l-37 -148h-270l-61 -249q130 149 290 149q106 0 169 -62q65 -63 65 -167q0 -27 -1 -40q-2 -28 -5 -43q-7 -36 -11 -53l-18 -71l-96 -391h153l-41 -160h-493l41 160h96l96 393q19 78 19 109 q0 53 -32 83q-33 31 -89 31q-47 0 -89 -21t-71 -61q-18 -24 -30 -58q-15 -42 -29 -101l-94 -375h112l-39 -160h-493z" />
<glyph unicode="&#x45c;" horiz-adv-x="1171" d="M-51 0l39 160h137l164 653h-154l37 154h391l-114 -463l358 309h-150l39 154h484l-39 -154h-109l-264 -219l176 -434h123l-39 -160h-276l-166 446l-191 -153l-33 -133h140l-39 -160h-514zM606 1106l322 301h315l-452 -301h-185z" />
<glyph unicode="&#x45e;" horiz-adv-x="995" d="M-195 -422l43 182q20 -1 40 -3q12 -1 30 -1q115 0 191 40t131 128l34 53l-98 836h-137l39 154h495l-36 -154h-123l18 -205q10 -106 15 -192q6 -114 6 -137v-56q29 67 78 159q39 73 133 226l120 205h-137l39 154h422l-37 -154h-110l-480 -819l-70 -116q-32 -50 -57 -83 q-27 -35 -51 -60q-23 -24 -53 -48q-68 -59 -158 -85t-211 -26zM410 1358v17q0 6 2 28h102q0 -78 32 -113t101 -35q67 0 110 32q42 32 89 116h94q-78 -293 -309 -293q-105 0 -163 66q-58 65 -58 182z" />
<glyph unicode="&#x45f;" horiz-adv-x="1196" d="M-51 0l39 160h137l164 653h-154l37 154h494l-39 -154h-95l-163 -653h297l161 653h-112l39 154h493l-39 -154h-137l-162 -653h154l-41 -160h-457l-51 -205h-176l51 205h-440z" />
<glyph unicode="&#x490;" d="M-59 0l47 170h164l256 1030h-185l47 166h809l41 166h172l-43 -166l-41 -166h-544l-258 -1030h184l-45 -170h-604z" />
<glyph unicode="&#x491;" horiz-adv-x="892" d="M-51 0l39 160h137l164 653h-154l37 154h637l37 147h176l-76 -301h-414l-163 -653h153l-39 -160h-534z" />
<glyph unicode="&#x2000;" horiz-adv-x="889" />
<glyph unicode="&#x2001;" horiz-adv-x="1778" />
<glyph unicode="&#x2002;" horiz-adv-x="889" />
<glyph unicode="&#x2003;" horiz-adv-x="1778" />
<glyph unicode="&#x2004;" horiz-adv-x="592" />
<glyph unicode="&#x2005;" horiz-adv-x="444" />
<glyph unicode="&#x2006;" horiz-adv-x="296" />
<glyph unicode="&#x2007;" horiz-adv-x="296" />
<glyph unicode="&#x2008;" horiz-adv-x="222" />
<glyph unicode="&#x2009;" horiz-adv-x="355" />
<glyph unicode="&#x200a;" horiz-adv-x="98" />
<glyph unicode="&#x2010;" horiz-adv-x="452" d="M-6 465l29 119h452l-29 -119h-452z" />
<glyph unicode="&#x2011;" horiz-adv-x="452" d="M-6 465l29 119h452l-29 -119h-452z" />
<glyph unicode="&#x2012;" horiz-adv-x="452" d="M-6 465l29 119h452l-29 -119h-452z" />
<glyph unicode="&#x2013;" horiz-adv-x="1024" d="M82 465l29 119h850l-31 -119h-848z" />
<glyph unicode="&#x2014;" horiz-adv-x="1366" d="M-6 465l29 119h1366l-29 -119h-1366z" />
<glyph unicode="&#x2018;" horiz-adv-x="395" d="M166 905l59 242l203 229h147l-233 -229h133l-61 -242h-248z" />
<glyph unicode="&#x2019;" horiz-adv-x="395" d="M139 895l236 229h-135l61 242h248l-60 -242l-200 -229h-150z" />
<glyph unicode="&#x201a;" horiz-adv-x="395" d="M-141 -229l235 229h-135l61 242h248l-59 -242l-201 -229h-149z" />
<glyph unicode="&#x201c;" horiz-adv-x="770" d="M166 905l59 242l203 229h147l-233 -229h133l-61 -242h-248zM541 905l61 242l201 229h149l-235 -229h133l-59 -242h-250z" />
<glyph unicode="&#x201d;" horiz-adv-x="770" d="M139 895l236 229h-135l61 242h248l-60 -242l-200 -229h-150zM514 895l236 229h-134l60 242h250l-62 -242l-200 -229h-150z" />
<glyph unicode="&#x201e;" horiz-adv-x="770" d="M-139 -229l235 229h-135l62 242h247l-59 -242l-201 -229h-149zM236 -229l235 229h-133l59 242h250l-61 -242l-201 -229h-149z" />
<glyph unicode="&#x2020;" horiz-adv-x="1024" d="M172 764l49 192h287l92 375h240l-92 -375h286l-49 -192h-287l-270 -1088h-240l271 1088h-287z" />
<glyph unicode="&#x2021;" horiz-adv-x="1024" d="M68 340l49 192h286l66 267h-287l47 192h287l86 340h240l-86 -340h286l-47 -192h-286l-66 -267h287l-49 -192h-287l-166 -664h-240l166 664h-286z" />
<glyph unicode="&#x2022;" horiz-adv-x="1366" d="M449 692q0 61 22 112q23 53 61 90q39 37 92 60q54 23 113 23q57 0 108 -23q52 -24 88 -61q37 -39 60 -90q23 -52 23 -109t-23 -111q-23 -53 -60 -90q-39 -39 -90 -61t-110 -22q-60 0 -110 22q-51 22 -91 61q-38 36 -61 89q-22 50 -22 110z" />
<glyph unicode="&#x2026;" horiz-adv-x="1392" d="M-37 0l76 301h293l-76 -301h-293zM428 0l74 301h295l-76 -301h-293zM893 0l74 301h293l-74 -301h-293z" />
<glyph unicode="&#x202f;" horiz-adv-x="355" />
<glyph unicode="&#x2030;" horiz-adv-x="2072" d="M117 0l1112 1366h164l-1112 -1366h-164zM170 971q0 84 28 160q27 74 75 128q49 55 114 86t139 31q113 0 176 -67q64 -69 64 -185q0 -83 -28 -159q-27 -72 -74 -129q-46 -55 -113 -87t-139 -32q-114 0 -178 67t-64 187zM328 981q0 -60 26 -93q27 -34 74 -34q35 0 70 22 q33 21 57 57t39 83q14 43 14 100q0 60 -24 91q-24 32 -70 32q-36 0 -71 -21q-31 -19 -59 -57q-26 -35 -41 -82t-15 -98zM745 244q0 80 30 159t83 140q99 106 244 106q113 0 176 -66t63 -186q0 -85 -27 -159q-26 -71 -76 -129q-48 -55 -114 -87q-67 -32 -139 -32 q-111 0 -175 67q-65 68 -65 187zM903 254q0 -58 27 -93q27 -34 74 -34q36 0 69 21q32 20 57 58q24 36 39 83t15 100q0 58 -25 91q-24 32 -69 32q-36 0 -71 -21q-32 -20 -60 -57q-24 -33 -40 -82q-16 -50 -16 -98zM1401 244q0 80 30 159q31 81 82 140q99 106 244 106 q113 0 176 -66q64 -67 64 -186q0 -83 -28 -159q-26 -71 -76 -129q-49 -56 -113 -87q-67 -32 -140 -32q-111 0 -175 67t-64 187zM1559 254q0 -60 26 -93q27 -34 74 -34q37 0 70 21q32 20 57 58q24 36 39 83q14 43 14 100q0 59 -24 91t-70 32q-35 0 -71 -22q-32 -19 -59 -56 q-26 -35 -41 -82t-15 -98z" />
<glyph unicode="&#x2039;" horiz-adv-x="493" d="M45 483l324 484h188l-303 -490l61 -477h-182z" />
<glyph unicode="&#x203a;" horiz-adv-x="493" d="M-68 0l304 489l-62 478h182l88 -484l-323 -483h-189z" />
<glyph unicode="&#x205f;" horiz-adv-x="444" />
<glyph unicode="&#x20ac;" d="M-76 444l92 140h78q5 31 12 64q2 8 15 59h-121l92 139h76q39 96 79 161t93 128q90 101 218 160q127 59 255 59q176 0 285 -103l18 74h178l-100 -401h-176l2 63q0 193 -199 193q-249 0 -385 -334h500l-92 -139h-455q-2 -6 -8 -28l-8 -36q-2 -9 -7 -35q-4 -22 -4 -24h402 l-92 -140h-324v-20q0 -138 46 -202t147 -64q99 0 181 58t144 171h195q-14 -35 -32 -75q-15 -34 -25 -51q-13 -22 -26 -40q-12 -16 -32 -41q-173 -209 -436 -209q-203 0 -317 116q-115 117 -115 321v18q0 4 2 18h-156z" />
<glyph unicode="&#x2116;" horiz-adv-x="1941" d="M-59 0l47 170h155l258 1030h-178l47 166h439l145 -483l54 -184l37 -129q17 -63 27 -106l25 -114l57 224l56 225l100 401h-178l45 166h514l-47 -166h-158l-299 -1200h-225l-153 526l-64 215l-42 145q-12 39 -29 106l-25 102l-59 -242l-58 -240l-110 -442h178l-45 -170 h-514zM1241 104l39 160h557l-39 -160h-557zM1374 580q0 73 25 142q24 66 68 116q42 47 104 77q61 29 127 29q113 0 178 -65q66 -66 66 -177q0 -77 -25 -146q-23 -64 -69 -116q-42 -48 -104 -76t-132 -28q-112 0 -174 65q-64 67 -64 179zM1565 584q0 -92 63 -92q26 0 47 17 q23 18 39 46t27 67q10 36 10 78q0 88 -63 88q-25 0 -46 -17q-20 -16 -39 -46q-17 -27 -28 -66q-10 -36 -10 -75z" />
<glyph unicode="&#x2122;" horiz-adv-x="1718" d="M162 1126l59 240h664l-60 -240h-114l32 136h-137l-139 -568h106l-30 -108h-361l29 108h94l141 568h-137l-33 -136h-114zM739 586l29 108h92l141 568h-104l31 104h319l17 -274q5 -50 6 -83q1 -13 2.5 -34t1.5 -26q2 -34 2 -46v-45v-19q0 -6 -2 -28q3 6 26 55l41 79l45 83 l39 70l154 268h328l-31 -104h-90l-141 -568h104l-31 -108h-342l29 108h84l65 269q16 54 30 116q14 60 38 146l-18 -33l-26 -44l-47 -84l-85 -151l-189 -327h-112l-23 321q0 5 -1.5 33.5t-2.5 46.5q-1 31 -5 93q-4 66 -5 86q-2 54 -2 59q-12 -45 -22 -89q-14 -61 -44 -180 l-65 -262h96l-29 -108h-303z" />
<glyph unicode="&#xe000;" horiz-adv-x="962" d="M0 0v963h963v-963h-963z" />
<glyph horiz-adv-x="0" />
<glyph horiz-adv-x="0" />
</font>
</defs>
</svg>
