<?xml version="1.0" standalone="no"?>
<!DOCTYPE svg PUBLIC "-//W3C//DTD SVG 1.1//EN" "http://www.w3.org/Graphics/SVG/1.1/DTD/svg11.dtd" >
<svg xmlns="http://www.w3.org/2000/svg">
<metadata></metadata>
<defs>
<font id="corporate_e_w10_mdregular" horiz-adv-x="1024" >
<font-face units-per-em="2048" ascent="1509" descent="-539" />
<missing-glyph horiz-adv-x="512" />
<glyph unicode=" "  horiz-adv-x="512" />
<glyph unicode="&#x09;" horiz-adv-x="512" />
<glyph unicode="&#xa0;" horiz-adv-x="512" />
<glyph unicode="!" horiz-adv-x="430" d="M115 0v201h202v-201h-202zM121 1331h188l-24 -960h-146z" />
<glyph unicode="&#x22;" horiz-adv-x="610" d="M94 1366h158l-25 -508h-108zM360 1366h156l-22 -508h-111z" />
<glyph unicode="#" d="M-16 434l20 135h207l41 256h-207l21 136h206l66 405h154l-66 -405h248l65 405h160l-65 -405h206l-22 -138h-205l-41 -254h207l-23 -135h-204l-70 -434h-160l70 434h-248l-70 -434h-153l69 434h-206zM365 569h247l41 254h-247z" />
<glyph unicode="$" horiz-adv-x="1034" d="M92 0v434h127q-1 -134 65 -217q65 -81 191 -104v528l-86 39l-61 30q-30 15 -45 25l-37 25q-135 100 -135 274q0 154 95 246q94 91 269 102v146h90v-146q125 -18 203 -108v96h119v-381h-113q-6 226 -209 264v-458l102 -46q42 -19 66 -32q30 -17 44 -26l36 -23 q135 -105 135 -297q0 -175 -100 -275q-99 -99 -283 -110v-166h-90v168q-82 10 -141 40q-61 30 -115 89v-117h-127zM270 1055q0 -103 84 -160q14 -10 44 -27q21 -12 77 -37v424q-98 -12 -151 -63q-54 -52 -54 -137zM565 113q103 15 154 75q53 62 53 164q0 122 -94 189 q-15 11 -40 25q-26 15 -73 36v-489z" />
<glyph unicode="%" horiz-adv-x="1226" d="M51 1051q0 65 22 126q21 58 57 103q37 46 85 71q49 25 104 25q56 0 105 -25q48 -25 85 -71q34 -43 56 -105q21 -60 21 -131q0 -69 -21 -129t-55 -103q-36 -46 -84 -69q-50 -24 -104 -24q-58 0 -107 24q-46 23 -86 70q-34 41 -57 106q-21 60 -21 132zM152 0l798 1366h127 l-801 -1366h-124zM180 1049q0 -98 40 -157q41 -61 102 -61q58 0 98 61q39 60 39 155q0 94 -40 155q-41 62 -100 62q-58 0 -99 -62q-40 -61 -40 -153zM643 322q0 64 22 125q21 59 57 104q37 46 85 71q49 25 104 25q56 0 105 -25q48 -25 85 -71q34 -42 56 -106q21 -60 21 -130 q0 -69 -21 -129t-55 -103q-36 -46 -84 -69q-50 -24 -105 -24q-59 0 -108 24q-47 23 -85 70q-34 43 -56 105q-21 60 -21 133zM770 319q0 -97 40 -156q41 -61 101 -61q61 0 101 61q39 60 39 154q0 95 -40 156q-41 62 -100 62q-60 0 -101 -62q-40 -61 -40 -154z" />
<glyph unicode="&#x26;" horiz-adv-x="1122" d="M33 342q0 116 59 212t191 202q-61 86 -75 110q-28 47 -44 80q-18 37 -22 65q-5 33 -5 64q0 61 23 112t62 87q38 35 94 57q54 21 120 21q127 0 208 -73q79 -72 79 -192q0 -91 -50 -174q-49 -81 -163 -174l266 -372q23 33 33 76q10 40 16 128h-104v121h346v-119h-119 q0 -216 -84 -323l86 -129h144v-121h-269l-75 113q-72 -73 -146 -101q-72 -28 -180 -28q-181 0 -286 96t-105 262zM209 350q0 -105 64 -168q65 -63 171 -63q68 0 122 24q52 23 104 78l-295 412q-166 -121 -166 -283zM307 1094q0 -43 23 -92q24 -51 88 -134q147 123 147 228 q0 54 -35 89q-34 34 -92 34t-95 -35q-36 -34 -36 -90z" />
<glyph unicode="'" horiz-adv-x="346" d="M94 1366h158l-25 -508h-108z" />
<glyph unicode="(" horiz-adv-x="530" d="M119 481q0 287 63 515q63 229 185 376h133q-114 -164 -166 -379q-53 -220 -53 -512q0 -288 53 -505q51 -209 166 -379h-133q-62 80 -98 147q-37 68 -66 160q-20 56 -36 127q-15 69 -27 144q-11 70 -16 153q-5 87 -5 153z" />
<glyph unicode=")" horiz-adv-x="530" d="M29 -403q114 166 166 379q53 218 53 511q0 289 -53 506q-52 214 -166 379h133q58 -76 97 -147q39 -72 67 -160q41 -119 62 -270q22 -160 22 -308q0 -287 -63 -513q-63 -227 -185 -377h-133z" />
<glyph unicode="*" d="M217 1079l31 99l213 -70v223h100v-223l213 70l31 -99l-213 -67l131 -183l-80 -59l-131 182l-133 -182l-82 59l133 183z" />
<glyph unicode="+" horiz-adv-x="1034" d="M74 608v140h370v378h148v-378h369v-140h-369v-379h-148v379h-370z" />
<glyph unicode="," horiz-adv-x="421" d="M49 -258l182 258h-133v229h236v-229l-162 -258h-123z" />
<glyph unicode="-" horiz-adv-x="409" d="M0 477v103h410v-103h-410z" />
<glyph unicode="." horiz-adv-x="432" d="M100 0v229h230v-229h-230z" />
<glyph unicode="/" horiz-adv-x="724" d="M-106 -332l679 1698h129l-682 -1698h-126z" />
<glyph unicode="0" horiz-adv-x="1034" d="M66 674q0 160 30 284t89 212q59 87 143 134q83 46 190 46q216 0 335 -179q118 -178 118 -503q0 -328 -118 -506t-335 -178q-216 0 -335 179q-117 176 -117 511zM246 672q0 -557 272 -557q273 0 273 549q0 555 -273 555q-272 0 -272 -547z" />
<glyph unicode="1" horiz-adv-x="1034" d="M221 1010v100q130 5 192 58q63 54 81 178h135v-1219h184v-127h-551v127h191v883h-232z" />
<glyph unicode="2" horiz-adv-x="1034" d="M106 0v139q126 130 201 218q102 120 170 212q119 163 165 259q50 105 50 186q0 86 -57 139q-58 53 -150 53q-104 0 -167 -67q-62 -67 -70 -193h-129q5 192 107 297q104 107 284 107q80 0 147 -24q71 -25 115 -65q47 -43 74 -102q26 -58 26 -131q0 -99 -52 -209 q-52 -111 -177 -270q-81 -107 -165 -205q-78 -91 -179 -192h487v172h132v-324h-812z" />
<glyph unicode="3" horiz-adv-x="1034" d="M90 348v29h146q5 -125 69 -189q65 -65 180 -65q117 0 189 76q71 75 71 198q0 124 -74 189t-220 65q-11 0 -23 -1q-6 0 -18.5 -1t-18.5 -2v141q22 -2 29 -2h18q123 0 192 60q68 59 68 166q0 92 -55 147t-147 55q-100 0 -156 -59q-58 -61 -68 -170h-141q1 80 31 150 q28 67 78 115q51 49 118 74q70 26 156 26q79 0 145 -24q69 -25 113 -66q48 -45 73 -104t25 -134q0 -212 -192 -297q248 -74 248 -328q0 -90 -32 -168q-31 -75 -89 -130t-137 -85q-80 -30 -176 -30q-93 0 -164 26q-74 27 -126 75q-51 47 -82 116q-30 67 -30 147z" />
<glyph unicode="4" horiz-adv-x="1034" d="M49 365v131l535 850h157v-846h201v-135h-201v-238h131v-127h-444v127h143v238h-522zM199 500h372v311q1 42 2.5 109.5t1.5 89.5q1 33 3 84t2 69q-12 -18 -20 -35q-10 -19 -19 -34q-23 -45 -39 -75l-32 -57l-35 -63l-50 -88z" />
<glyph unicode="5" horiz-adv-x="1034" d="M125 338h135q10 -104 71 -162q60 -57 156 -57q59 0 109 24q49 24 84 71t54 109q20 65 20 140q0 147 -69 233t-185 86q-138 0 -246 -145l-117 18l103 676h630l-26 -151h-492l-53 -344q60 45 115 63q59 19 127 19q87 0 160 -32q74 -32 124 -90q52 -59 80 -141 q29 -84 29 -180q0 -107 -32 -200q-31 -89 -89 -155q-58 -65 -138 -101q-79 -35 -177 -35q-85 0 -153 25t-118 72q-47 45 -75 112q-27 66 -27 145z" />
<glyph unicode="6" horiz-adv-x="1034" d="M107 455q0 189 120 411q124 230 371 508h180q-110 -119 -195 -232t-155 -231q51 12 54 12q21 3 53 3q85 0 154 -34q74 -36 121 -93q52 -63 78 -144q27 -84 27 -184q0 -107 -30 -196q-29 -85 -84 -153q-53 -64 -129 -102q-73 -36 -164 -36q-88 0 -160 34t-128 99 q-54 63 -84 149q-29 83 -29 189zM285 461q0 -165 59 -255q60 -91 168 -91q106 0 166 91q59 90 59 251q0 163 -59 252q-60 90 -166 90q-107 0 -167 -89q-60 -88 -60 -249z" />
<glyph unicode="7" horiz-adv-x="1034" d="M123 995v336h817v-135l-594 -1196h-182l610 1167h-520v-172h-131z" />
<glyph unicode="8" horiz-adv-x="1034" d="M106 387q0 233 197 313q-168 76 -168 289q0 83 27 149t77 113q51 48 120 73q72 26 157 26t157 -26q70 -25 120 -74q49 -47 76 -114q28 -68 28 -149q0 -211 -166 -287q197 -83 197 -313q0 -90 -30 -165q-30 -76 -84 -128q-56 -54 -130 -82q-75 -28 -168 -28t-168 28 t-129 82q-53 53 -83 128t-30 165zM289 377q0 -123 60 -194q60 -70 169 -70q107 0 167 69t60 191q0 123 -60 190q-60 68 -165 68q-108 0 -170 -69q-61 -68 -61 -185zM317 991q0 -113 52 -176q51 -61 149 -61q92 0 145 60q52 59 52 171q0 113 -52 174q-53 62 -147 62 q-93 0 -146 -61t-53 -169z" />
<glyph unicode="9" horiz-adv-x="1034" d="M119 862q0 108 30 196q29 85 84 153q52 64 128 102q74 37 165 37q85 0 160 -35q74 -35 128 -98q53 -62 84 -150q30 -86 30 -188q0 -131 -51 -264q-50 -130 -166 -306q-67 -102 -128 -179q-72 -91 -147 -173h-178q112 123 193 231q85 113 155 232q-34 -8 -53 -11 q-22 -3 -53 -3q-88 0 -155 33q-74 36 -121 93q-52 63 -78 144q-27 84 -27 186zM297 874q0 -162 59 -251q61 -91 166 -91q106 0 167 90t61 248q0 166 -60 257q-60 92 -168 92q-106 0 -166 -92q-59 -90 -59 -253z" />
<glyph unicode=":" horiz-adv-x="432" d="M100 0v229h230v-229h-230zM100 612v230h230v-230h-230z" />
<glyph unicode=";" horiz-adv-x="421" d="M49 -258l182 258h-133v229h236v-229l-162 -258h-123zM100 612v230h238v-230h-238z" />
<glyph unicode="&#x3c;" d="M68 621v141l886 420v-164l-712 -328l712 -328v-161z" />
<glyph unicode="=" horiz-adv-x="1034" d="M74 457v131h887v-131h-887zM74 768v131h887v-131h-887z" />
<glyph unicode="&#x3e;" d="M70 199v163l712 328l-712 328v164l886 -422v-142z" />
<glyph unicode="?" horiz-adv-x="806" d="M53 997q5 88 25 143q21 57 67 103q53 55 122 81q73 28 153 28q146 0 235 -80q88 -79 88 -213q0 -51 -15 -101q-15 -48 -44 -90l-24 -30q-16 -20 -27 -30l-40 -37l-58 -52q-40 -35 -64 -64q-25 -30 -39 -62q-14 -33 -19 -74q-5 -45 -5 -95v-21q0 -4 2 -26h-160v61 q0 71 8 124q7 47 25 91q15 35 20 43q10 18 29 41q20 25 49 54l80 77q54 52 76 95t22 92q0 64 -44 105q-43 40 -116 40q-87 0 -139 -52q-53 -53 -63 -151h-144zM248 0v201h201v-201h-201z" />
<glyph unicode="@" horiz-adv-x="1366" d="M6 678q0 148 55 276q56 130 151 225t225 149t280 54q139 0 257 -45t204 -126t135 -190q49 -108 49 -239q0 -93 -28 -183q-27 -88 -73 -153q-45 -64 -108 -104q-61 -39 -129 -39q-57 0 -100 34q-45 35 -52 85q-43 -61 -108 -95t-141 -34q-63 0 -115 24q-51 23 -92 69 q-40 44 -61 105q-21 60 -21 132q0 84 28 158q28 73 78 131q48 56 115 89q66 33 139 33q75 0 131 -34q59 -36 82 -93l21 103h135l-82 -420q-6 -28 -9 -54t-3 -38q0 -39 17 -59q18 -21 48 -21q38 0 73 29q36 30 63 80t44 115q17 66 17 134q0 102 -38 190q-37 86 -104 150 q-65 62 -159 99q-91 36 -199 36q-121 0 -229 -44q-106 -43 -185 -121q-77 -76 -121 -183q-44 -108 -44 -229q0 -124 48 -235q48 -112 138 -191q150 -135 391 -135q49 0 105 6q59 6 110 16q50 10 108 26q41 12 95 34l35 -123q-118 -49 -219 -69q-108 -21 -226 -21 q-329 0 -524 192q-99 99 -153 229q-54 131 -54 275zM485 625q0 -90 46 -143q47 -54 122 -54q42 0 82 23t68 60q29 37 45 90q16 51 16 112q0 84 -42 132t-115 48q-43 0 -85 -22t-71 -58q-30 -38 -48 -85q-18 -48 -18 -103z" />
<glyph unicode="A" horiz-adv-x="1355" d="M14 0v133h164l416 1245h180l393 -1245h174v-133h-514v133h152l-90 293h-471l-94 -293h149v-133h-459zM459 561h391l-88 291q-4 12 -22 72l-23 88l-26 96l-25 96l-30 -101q-19 -63 -23 -76l-24 -76l-32 -99z" />
<glyph unicode="B" horiz-adv-x="1159" d="M57 0v133h170v1100h-170v133h379q124 0 167 -1q65 -2 107 -6q35 -4 70 -13q22 -6 58 -21q88 -40 135 -118q47 -77 47 -179q0 -113 -51 -182t-164 -113q137 -33 209 -119q71 -84 71 -221q0 -116 -56 -206q-58 -93 -154 -138q-24 -12 -64 -23t-78 -16q-50 -7 -108 -8 q-84 -2 -152 -2h-416zM408 137h102q44 0 102 2q33 1 76 7q22 3 55 14q19 6 43 20q107 63 107 211q0 77 -32 136q-31 58 -89 87q-19 11 -40 17q-17 5 -51 10q-21 3 -72 5q-28 1 -103 1h-98v-510zM408 784h96q90 0 143 8t84 27q100 60 100 189q0 74 -30 125q-29 50 -88 73 q-33 12 -78 16q-52 5 -137 5h-90v-443z" />
<glyph unicode="C" horiz-adv-x="1196" d="M76 676q0 166 39 298q39 133 112 225q74 93 179 143q108 51 235 51q103 0 183 -30q81 -30 151 -95v100h137v-401h-139q-7 52 -19 95q-10 36 -28 68q-35 57 -105 91q-67 32 -155 32q-190 0 -292 -148q-102 -149 -102 -429q0 -270 98 -418q98 -147 275 -147q148 0 231 92 q82 91 97 268h145q-2 -236 -129 -368t-352 -132q-133 0 -237 48q-103 48 -176 139t-110 221q-38 132 -38 297z" />
<glyph unicode="D" horiz-adv-x="1286" d="M57 0v133h170v1100h-170v133h420q96 0 162 -3q65 -3 115 -12t87 -24q41 -16 79 -39q137 -84 213 -241q75 -154 75 -363q0 -115 -23 -210q-23 -96 -68 -181q-42 -80 -108 -143t-145 -97q-35 -15 -70 -26q-38 -12 -76 -17q-46 -7 -100 -8q-76 -2 -141 -2h-420zM410 137h102 q45 0 101 2q39 1 75 8q26 5 58 16q34 12 55 23q105 60 162 189t57 309q0 189 -63 321q-63 133 -177 185q-20 10 -49 19q-23 7 -55 12q-30 4 -70 6q-52 2 -94 2h-102v-1092z" />
<glyph unicode="E" horiz-adv-x="1067" d="M57 0v133h170v1100h-170v133h930v-322h-137v185h-440v-447h460v-137h-460v-508h458v221h136v-358h-947z" />
<glyph unicode="F" horiz-adv-x="1017" d="M57 0v133h170v1100h-170v133h930v-322h-137v185h-440v-447h460v-137h-460v-512h206v-133h-559z" />
<glyph unicode="G" horiz-adv-x="1286" d="M76 682q0 164 39 295q40 133 112 223q74 93 179 142q108 51 233 51q106 0 184 -30q80 -31 150 -95v100h135v-401h-137q-11 137 -91 213q-79 75 -221 75q-189 0 -290 -150q-101 -151 -101 -435q0 -268 102 -414q102 -145 292 -145q92 0 158 24t132 84v287h-166v131h484 v-131h-142v-342q-101 -101 -212 -146q-115 -47 -254 -47q-280 0 -434 187q-152 185 -152 524z" />
<glyph unicode="H" horiz-adv-x="1388" d="M57 0v133h170v1100h-170v133h518v-133h-172v-447h580v447h-170v133h518v-133h-172v-1100h172v-133h-518v133h170v520h-580v-520h172v-133h-518z" />
<glyph unicode="I" horiz-adv-x="641" d="M57 0v133h170v1100h-170v133h527v-133h-172v-1100h172v-133h-527z" />
<glyph unicode="J" horiz-adv-x="667" d="M6 -49q94 1 147 21q51 19 76 61q11 18 17 35q6 18 9 49q2 23 4 80q1 33 1 127v909h-170v133h526v-133h-172v-909q0 -152 -12 -232t-45 -131q-42 -70 -123 -108q-78 -37 -188 -37h-31q-7 0 -39 2v133z" />
<glyph unicode="K" horiz-adv-x="1320" d="M57 0v133h170v1100h-170v133h508v-133h-166v-522l508 522h-137v133h479v-133h-166l-399 -420l442 -680h170v-133h-520v133h133l-340 572l-174 -179v-393h164v-133h-502z" />
<glyph unicode="L" horiz-adv-x="1036" d="M57 0v133h170v1100h-170v133h523v-133h-170v-1096h462v221h140v-358h-955z" />
<glyph unicode="M" horiz-adv-x="1691" d="M57 0v133h170v1100h-170v133h441l168 -537q13 -42 44 -147l34 -120l37 -128l48 -172l22 70q5 17 13 45l54 172q1 7 14 46l27 80l30 88q20 59 25 71l186 532h432v-133h-170v-1100h170v-133h-520v133h170v535v133q0 37 1 68t1 104q0 79 1 122t1 126l-100 -298l-99 -296 l-200 -572h-162l-178 572l-180 583v-546v-531h170v-133h-480z" />
<glyph unicode="N" horiz-adv-x="1384" d="M57 0v133h170v1100h-170v133h383l293 -524l97 -185l72 -136l61 -114l63 -122q-2 90 -2 132v124q0 89 -1 118t-1 65v32v22v455h-170v133h479v-133h-170v-1233h-162l-315 569l-322 602l5 -278v-129q2 -62 2 -81v-48v-502h170v-133h-482z" />
<glyph unicode="O" horiz-adv-x="1294" d="M76 692q0 158 41 289t115 221q77 94 181 143q106 50 234 50q131 0 237 -50q103 -49 180 -144q74 -92 115 -224q40 -129 40 -293q0 -166 -40 -295q-41 -132 -115 -224q-76 -94 -180 -143q-108 -51 -235 -51q-129 0 -239 51q-107 50 -181 143q-72 91 -113 227 q-40 132 -40 300zM270 690q0 -279 98 -430q97 -149 279 -149q181 0 279 149q98 148 98 424t-98 423q-99 148 -279 148q-179 0 -278 -148q-99 -149 -99 -417z" />
<glyph unicode="P" horiz-adv-x="1089" d="M57 0v133h170v1100h-170v133h441q61 0 135 -2q50 -1 95 -8q37 -6 70 -17q37 -13 58 -24q92 -47 143 -138q52 -93 52 -206q0 -124 -59 -221t-163 -140q-25 -11 -55 -19q-28 -7 -63 -12q-55 -7 -80 -8q-60 -2 -105 -2h-116v-436h186v-133h-539zM410 707h108q63 0 86 1 q43 2 62 5q31 5 46 11q26 10 38 17q110 62 110 228q0 86 -33 146q-34 61 -92 89q-20 7 -35 11q-29 7 -44 9q-19 2 -59 4q-23 1 -83 1h-104v-522z" />
<glyph unicode="Q" horiz-adv-x="1294" d="M76 684q0 164 40 293q42 134 114 224q76 95 181 144q106 50 236 50q131 0 237 -50q103 -49 180 -144q74 -92 115 -224q40 -129 40 -293q0 -235 -86 -416l245 -268h-227l-113 133q-93 -87 -184 -124q-93 -38 -207 -38q-128 0 -236 51q-105 50 -181 142q-72 88 -114 224 q-40 130 -40 296zM270 690q0 -279 98 -430q97 -149 279 -149q181 0 279 149q98 148 98 424t-98 423q-99 148 -279 148q-179 0 -278 -148q-99 -149 -99 -417z" />
<glyph unicode="R" horiz-adv-x="1241" d="M57 0v133h170v1100h-170v133h441q74 0 160 -2q53 -1 109 -7q42 -4 75 -16q43 -15 61 -24q95 -47 145 -130t50 -194q0 -136 -73 -233q-72 -96 -198 -125l240 -502h158v-133h-303l-267 612h-252v-479h164v-133h-510zM410 752h147q70 0 95 1q39 2 66 6q27 5 48 12 q16 6 41 20q100 60 100 202q0 158 -125 211q-20 7 -36 11q-32 7 -46 9q-21 2 -63 4q-25 1 -88 1h-139v-477z" />
<glyph unicode="S" horiz-adv-x="991" d="M57 0v422h119q1 -143 87 -224q85 -81 235 -81q122 0 188 62q68 63 68 173q0 87 -46 139t-165 103l-144 62q-57 24 -99 46q-43 22 -67 37q-23 14 -47 33q-129 105 -129 264q0 79 29 146q28 65 81 112q54 48 126 73q75 26 162 26q187 0 295 -129v102h120v-377h-114 q-7 124 -81 194q-71 68 -196 68q-107 0 -171 -54t-64 -146q0 -84 61 -133q27 -20 35 -25q18 -12 48 -27l74 -35l111 -51q78 -35 101 -47q44 -23 71 -39q36 -21 53 -35q28 -22 42 -36q94 -94 94 -248q0 -90 -30 -165t-85 -127q-55 -53 -132 -81q-78 -29 -171 -29 q-110 0 -191 35q-80 35 -149 113v-121h-119z" />
<glyph unicode="T" horiz-adv-x="1071" d="M23 1020v346h1024v-346h-138v209h-284v-1096h170v-133h-521v133h170v1096h-284v-209h-137z" />
<glyph unicode="U" horiz-adv-x="1372" d="M49 1233v133h522v-133h-170v-668q0 -125 11 -200t32 -117q34 -66 103 -101q67 -34 160 -34q105 0 178 45q74 45 104 125q14 40 18 93q5 65 5 177v680h-168v133h481v-133h-172v-680q0 -80 -3 -137q-3 -59 -9 -100t-18 -73q-16 -42 -27 -61q-60 -102 -165 -156 q-107 -55 -241 -55q-150 0 -265 62q-114 61 -163 172q-14 27 -22 57q-11 42 -14 69q-5 41 -6 97q-1 38 -1 143v662h-170z" />
<glyph unicode="V" horiz-adv-x="1343" d="M8 1233v133h508v-133h-151l321 -1024l338 1024h-150v133h459v-133h-164l-417 -1245h-181l-397 1245h-166z" />
<glyph unicode="W" horiz-adv-x="1775" d="M8 1233v133h514v-133h-166l97 -469q16 -80 30 -162l23 -130l19 -118q1 -5 22 -127l21 100q3 12 6 25.5t7 29.5l6 24q13 55 17 74q7 33 20 85l26 111l36 153l137 537h166l127 -537q84 -381 129 -602l40 194l27 130l21 101l25 112l102 469h-157v133h464v-133h-168 l-280 -1239h-174l-129 547q-5 19 -12 53l-21 94l-46 221l-48 224l-34 -150l-34 -147l-43 -188q-20 -87 -26 -107l-134 -547h-174l-264 1239h-172z" />
<glyph unicode="X" horiz-adv-x="1253" d="M16 0v133h174l345 578l-273 522h-178v133h319l246 -516l213 383h-141v133h477v-133h-168l-309 -508l317 -592h181v-133h-332l-279 588l-252 -455h156v-133h-496z" />
<glyph unicode="Y" horiz-adv-x="1191" d="M0 1233v133h526v-133h-149l237 -500l244 500h-151v133h483v-133h-178l-330 -658v-442h170v-133h-522v133h170v438l-328 662h-172z" />
<glyph unicode="Z" horiz-adv-x="978" d="M41 0v113l651 1116h-475v-182h-139v319h835v-115l-649 -1114h524v217h140v-354h-887z" />
<glyph unicode="[" horiz-adv-x="530" d="M162 -397v1763h334v-139h-179v-1483h179v-141h-334z" />
<glyph unicode="\" horiz-adv-x="724" d="M23 1366h127l681 -1698h-129z" />
<glyph unicode="]" horiz-adv-x="530" d="M37 -258h178v1483h-178v141h334v-1763h-334v139z" />
<glyph unicode="^" d="M47 739l359 631h215l358 -631h-178l-289 502l-289 -502h-176z" />
<glyph unicode="_" d="M0 -129h1024v-150h-1024v150z" />
<glyph unicode="`" d="M190 1368h211l242 -244h-172z" />
<glyph unicode="a" horiz-adv-x="974" d="M61 258q0 97 55 172t158 119q13 6 34 14t28 11q30 13 65 21q20 5 87 19l126 25v35q0 58 -6 86q-6 31 -20 47q-41 53 -146 53q-61 0 -105 -17q-47 -18 -69 -52q-14 -20 -19 -43q-10 -50 -16 -86h-124l24 202q133 123 324 123q93 0 166 -30q74 -30 114 -85q15 -21 25 -41 q10 -21 15 -51q6 -38 7 -77q2 -62 2 -113v-469h144v-121h-299v141q-53 -86 -118 -124q-64 -37 -157 -37q-68 0 -118 20q-57 23 -94 57q-40 37 -61 88q-22 53 -22 113zM238 274q0 -70 44 -114q43 -43 117 -43q63 0 116 33t77 86q13 30 17 71q5 48 5 133v88q-65 -14 -97 -22 t-71 -20q-34 -10 -53 -19l-47 -23q-108 -57 -108 -170z" />
<glyph unicode="b" horiz-adv-x="1073" d="M35 1249v121h311v-551q92 168 266 168q82 0 153 -38q71 -37 123 -105q52 -67 81 -160q28 -90 28 -201q0 -110 -28 -200q-29 -93 -81 -160q-54 -69 -123 -106q-70 -37 -153 -37q-172 0 -266 167l-4 -147h-160v1249h-147zM352 489q0 -183 61 -284q60 -99 175 -99 q110 0 172 99q61 98 61 278q0 181 -61 279t-172 98q-113 0 -174 -97q-62 -98 -62 -274z" />
<glyph unicode="c" horiz-adv-x="901" d="M74 469q0 116 29 207q30 95 84 164t128 108q73 39 160 39q135 0 215 -102v86h129v-326h-129q-11 103 -60 157q-50 54 -136 54q-112 0 -175 -99t-63 -280q0 -174 60 -270t171 -96q165 0 199 206h150q-15 -160 -109 -248q-95 -89 -248 -89q-93 0 -167 34t-128 100 q-54 67 -82 154q-28 88 -28 201z" />
<glyph unicode="d" horiz-adv-x="1085" d="M74 483q0 113 29 201q31 93 81 160q51 67 122 105t153 38q177 0 268 -168v430h-147v121h311v-1249h145v-121h-309v147q-91 -167 -268 -167q-83 0 -153 37t-122 106q-50 67 -81 160q-29 88 -29 200zM250 489q0 -185 60 -284t175 -99q113 0 174 99q62 100 62 278 q0 179 -62 279q-61 98 -174 98t-174 -97t-61 -274z" />
<glyph unicode="e" horiz-adv-x="964" d="M74 475q0 113 30 207t86 162q55 67 134 105t170 38q86 0 161 -35t125 -97q52 -64 80 -152q29 -90 29 -197v-19q0 -2 -2 -22h-631q1 -80 10 -139q8 -52 29 -93q61 -127 201 -127q182 0 217 193h161q-5 -75 -33 -130q-30 -58 -81 -100t-119 -66q-65 -23 -147 -23 q-99 0 -173 35q-77 36 -133 101q-55 64 -85 155q-29 88 -29 204zM260 584h440q-6 276 -204 276q-98 0 -160 -73q-61 -71 -76 -203z" />
<glyph unicode="f" horiz-adv-x="649" d="M57 0v121h148v719h-142v127h142v88q0 38 2 88q1 34 8 64q6 27 15 48q7 17 26 41q75 93 219 93q93 0 172 -35v-148q-45 27 -81 40q-32 11 -68 11q-89 0 -111 -79q-1 -4 -2.5 -11t-1.5 -8l-3 -21q-1 -9 -1 -35v-56v-80h229v-127h-229v-719h178v-121h-500z" />
<glyph unicode="g" horiz-adv-x="964" d="M33 -133q0 91 54 148t173 87q-71 22 -98 46t-27 65q0 53 49 90t156 64q-117 41 -168 109q-53 70 -53 175q0 92 48 167t132 114q78 35 225 35h86q38 -2 48 -2h28h246v-111h-213q100 -76 100 -209q0 -60 -19 -108q-19 -49 -59 -84q-35 -35 -85 -58q-45 -20 -142 -49 q-62 -16 -99 -30q-49 -18 -60 -24q-22 -12 -29 -24q-9 -14 -9 -26q0 -28 26 -42t85 -18q142 -12 214 -28q80 -17 130 -43q131 -66 131 -215q0 -153 -110 -233q-111 -81 -318 -81q-211 0 -327 75q-115 75 -115 210zM182 -121q0 -84 76 -129t217 -45q131 0 202 46 q73 47 73 128t-72 125q-71 43 -207 43q-131 0 -210 -46t-79 -122zM283 659q0 -89 52 -141q53 -53 138 -53q82 0 133 54t51 140t-50 138q-49 51 -132 51q-87 0 -139 -52q-53 -53 -53 -137z" />
<glyph unicode="h" horiz-adv-x="1136" d="M57 0v121h148v1128h-148v121h322v-541q90 158 270 158q87 0 156 -36q71 -37 104 -95q17 -33 21 -42q8 -21 11 -50q2 -23 4 -80q1 -33 1 -135v-428h148v-121h-457v121h135v448q0 83 -3 117q-3 33 -11 59q-17 46 -59 70q-44 25 -101 25q-60 0 -111 -31q-48 -29 -77 -86 q-19 -37 -25 -79q-6 -44 -6 -126v-397h135v-121h-457z" />
<glyph unicode="i" horiz-adv-x="573" d="M57 0v121h148v725h-148v121h322v-846h147v-121h-469zM172 1165v185h209v-185h-209z" />
<glyph unicode="j" horiz-adv-x="593" d="M-2 -315q75 6 121 27t74 63q14 25 22 46q8 20 12 52q3 24 5 90q1 38 1 160v723h-147v121h324v-844v-113q0 -32 -2 -66q-1 -10 -3 -24t-2 -16q0 -4 -1.5 -15t-2.5 -18q-23 -136 -119 -210q-98 -75 -251 -75h-13q-4 0 -18 2v97zM203 1165v185h209v-185h-209z" />
<glyph unicode="k" horiz-adv-x="1114" d="M57 0v121h148v1128h-148v121h320v-866l340 342h-131v121h438v-121h-137l-236 -244l299 -481h140v-121h-453v121h106l-217 377l-153 -162v-215h133v-121h-449z" />
<glyph unicode="l" horiz-adv-x="577" d="M57 0v121h148v1128h-148v121h326v-1249h145v-121h-471z" />
<glyph unicode="m" horiz-adv-x="1628" d="M57 0v121h148v725h-148v121h310v-148q57 95 114 130q61 38 152 38q193 0 256 -166q44 86 107 126q64 40 161 40t165 -43q69 -43 97 -119q7 -18 9 -29q5 -23 6 -38q1 -23 3 -68q1 -29 1 -117v-452h145v-121h-440v121h121v446q0 68 -1 90q-2 35 -3 52q-1 10 -6 28 q-3 12 -9 23q-41 80 -147 80q-119 0 -170 -107q-4 -10 -10 -30q-6 -19 -7 -36l-3 -51q-1 -19 -1 -71v-424h121v-121h-416v121h121v422q0 77 -1 102q-1 34 -3 57q-1 17 -5 32q-3 12 -9 24q-34 82 -142 82q-55 0 -102 -28q-45 -27 -68 -79q-14 -32 -19 -75q-5 -47 -5 -119 v-418h121v-121h-443z" />
<glyph unicode="n" horiz-adv-x="1114" d="M57 0v121h148v725h-148v121h314v-158q47 92 112 135t160 43q90 0 159 -42t99 -116q8 -19 12 -37q6 -25 7 -49q2 -30 3 -74q1 -31 1 -120v-428h147v-121h-442v121h121v448q0 80 -4 128q-3 39 -13 61q-17 41 -53 61q-38 21 -86 21q-54 0 -100 -27q-48 -28 -76 -74 q-13 -19 -20 -38q-5 -14 -11 -44q-5 -24 -6 -57q-2 -44 -2 -78v-401h121v-121h-443z" />
<glyph unicode="o" horiz-adv-x="997" d="M74 492q0 120 32 213q32 94 95 161q55 58 134 92q76 33 163 33q86 0 162 -33q81 -35 135 -92q127 -133 127 -383t-127 -383q-54 -59 -133 -92q-78 -33 -164 -33t-164 33q-79 33 -133 92q-127 133 -127 392zM258 489q0 -189 60 -287t180 -98q116 0 178 98q61 97 61 283 q0 188 -61 283q-62 96 -178 96q-118 0 -179 -96q-61 -95 -61 -279z" />
<glyph unicode="p" horiz-adv-x="1095" d="M57 -283h148v1129h-148v121h312v-148q91 168 268 168q82 0 153 -38q69 -37 122 -105q52 -67 81 -160t29 -201q0 -109 -30 -200q-31 -93 -81 -160q-53 -70 -121 -106q-70 -37 -153 -37q-177 0 -268 167v-430h153v-120h-465v120zM375 489q0 -185 60 -284t175 -99 q112 0 174 99q62 100 62 278q0 179 -62 279q-61 98 -174 98q-110 0 -173 -97q-62 -96 -62 -274z" />
<glyph unicode="q" horiz-adv-x="1095" d="M74 483q0 113 29 201q31 93 81 160q51 67 122 105t153 38q173 0 268 -168v148h309v-121h-145v-1129h145v-120h-463v120h154v430q-91 -167 -268 -167q-83 0 -153 37t-122 106q-50 67 -81 160q-29 88 -29 200zM250 489q0 -185 60 -284t175 -99q113 0 174 99q62 100 62 278 q0 179 -62 279q-61 98 -174 98t-174 -97t-61 -274z" />
<glyph unicode="r" horiz-adv-x="778" d="M57 0v121h148v725h-148v121h310v-150q53 90 104 125q52 35 129 35q51 0 93 -20q39 -19 83 -66v-215h-127q-7 94 -31 130q-22 34 -75 34q-47 0 -87 -37q-41 -38 -57 -96q-11 -41 -16 -106q-4 -56 -4 -181v-299h168v-121h-490z" />
<glyph unicode="s" horiz-adv-x="827" d="M63 -4v332h113q16 -104 83 -166t163 -62q76 0 122 39t46 105q0 28 -7 46q-7 19 -27 37q-17 16 -53 33q-30 14 -85 37q-93 34 -173 72q-62 30 -91 57q-80 74 -80 183q0 61 23 110q25 53 64 89q44 41 95 60q56 21 121 21q142 0 233 -106l8 90h113v-316h-117q-5 101 -57 155 q-53 54 -147 54q-73 0 -117 -37q-45 -37 -45 -96q0 -48 35 -78q33 -29 131 -67q59 -22 95 -37q35 -14 70 -30q34 -15 51 -25q21 -12 42 -27q45 -33 69 -83q25 -52 25 -112q0 -63 -25 -119t-67 -95t-104 -61q-63 -22 -130 -22q-86 0 -146 33q-61 33 -110 105l-8 -119h-113z " />
<glyph unicode="t" horiz-adv-x="647" d="M43 842v125h139v284h174v-284h230v-125h-230v-443v-84q0 -25 2 -55q1 -9 3 -21.5t2 -15.5q1 -14 6 -26q10 -37 39 -58q27 -20 69 -20q28 0 58 8q27 7 63 29v-142q-39 -14 -83 -23q-34 -7 -79 -7q-175 0 -227 120q-11 23 -15 40q-7 28 -8 45l-3 75q-1 31 -1 129v449h-139z " />
<glyph unicode="u" horiz-adv-x="1122" d="M41 846v121h321v-521q0 -56 2 -108q0 -10 0.5 -31t1.5 -29q2 -26 5 -34q1 -2 4.5 -11.5t5.5 -15.5q41 -90 154 -90q56 0 105 26t77 72q20 32 29 84q10 55 10 140v397h-148v121h322v-846h147v-121h-307v162q-40 -88 -113 -135t-165 -47q-104 0 -180 51q-77 51 -105 139 q-6 18 -9 36q-4 23 -5 44l-1 26q-2 26 -3 43q-1 29 -1 113v414h-147z" />
<glyph unicode="v" horiz-adv-x="1058" d="M6 846v121h459v-121h-121l102 -326l28 -84l23 -70l23 -79l31 -111q42 141 111 344l108 326h-123v121h406v-121h-146l-299 -854h-149l-305 854h-148z" />
<glyph unicode="w" horiz-adv-x="1499" d="M6 846v121h434v-121h-118l67 -305l39 -182q24 -116 35 -173l52 203l54 213l107 365h180l102 -375l29 -119l23 -93l21 -91l28 -111l11 53l7 35q1 5 4 14t5 16.5t3 14.5l9 45q4 16 21 98q6 29 20 83l73 309h-116v121h397v-121h-150l-217 -854h-172l-104 381l-47 188 l-60 248l-12 -52l-8 -34l-31 -131l-28 -111q-21 -84 -29 -108l-109 -381h-168l-211 854h-141z" />
<glyph unicode="x" horiz-adv-x="1081" d="M18 0v121h164l271 391l-209 334h-160v121h295l178 -330l139 213h-96v117h422v-121h-170l-234 -322l261 -403h184v-121h-326l-219 399l-180 -282h117v-117h-437z" />
<glyph unicode="y" horiz-adv-x="1042" d="M0 846v121h461v-121h-123l102 -316l17 -50l10 -33q4 -12 7 -24t9 -30l11 -35l30 -104q17 -61 21 -68q17 64 24 87q12 39 25 87q2 5 5.5 17.5t5.5 18.5l16 48l15 49q6 21 13 37l107 316h-121v121h405v-121h-147l-299 -871l-44 -123q-19 -50 -33 -80q-15 -31 -32 -53 q-22 -28 -36 -43q-98 -94 -277 -94h-20q-9 0 -31 2v125q74 0 121 10q51 11 84 34q34 24 60 65q26 42 50 104l15 49l-297 875h-154z" />
<glyph unicode="z" horiz-adv-x="800" d="M25 0v100l495 740h-348v-142h-129v269h696v-101l-501 -739h397v168h131v-295h-741z" />
<glyph unicode="{" horiz-adv-x="530" d="M49 428v119q63 17 90 58q27 42 27 122v358q0 148 70 215q69 66 225 66h19q6 0 28 -2v-123q-56 0 -94 -9t-59 -30t-30 -55q-10 -38 -10 -86v-342q0 -98 -25 -149q-26 -53 -91 -87q65 -37 91 -90q25 -51 25 -151v-330q0 -55 10 -93q9 -35 29 -52q24 -24 59 -31q38 -8 95 -8 v-125q-96 0 -142 6q-48 6 -85 26q-59 30 -87 96q-28 67 -28 173v334q0 87 -26 131q-25 42 -91 59z" />
<glyph unicode="|" d="M430 -342v1708h164v-1708h-164z" />
<glyph unicode="}" horiz-adv-x="530" d="M23 -272q57 0 94 9q36 9 58 29q23 21 31 53q9 35 9 87v342q0 97 26 149q25 51 91 88q-65 37 -91 90q-26 54 -26 152v328q0 59 -9 94t-30 53q-24 24 -58 31q-38 8 -95 8v125h40q84 0 141 -16q58 -16 93 -53q35 -36 51 -93q17 -59 17 -141v-332q0 -89 25 -132 q26 -44 91 -60v-117q-63 -17 -90 -58q-26 -40 -26 -124v-357q0 -148 -70 -215q-68 -65 -225 -65h-47v125z" />
<glyph unicode="~" horiz-adv-x="1366" d="M190 498q30 61 64 114q32 50 64 75q37 29 72 40q37 12 85 12q41 0 92 -15q54 -16 135 -52l74 -33q18 -8 50 -19q24 -9 37 -10q20 -2 34 -2q56 0 96 29q40 30 86 106l97 -57q-26 -52 -58 -102q-23 -37 -59 -66q-36 -31 -86 -50q-44 -17 -94 -17q-25 0 -44 4q-34 7 -54 14 q-21 7 -76 29l-115 49q-78 35 -127 35q-53 0 -93 -34q-39 -33 -83 -112z" />
<glyph unicode="&#xa4;" horiz-adv-x="1366" d="M111 1126l82 84l194 -192q79 56 147 80q69 24 150 24q86 0 149 -23q66 -24 144 -81l192 192l82 -84l-192 -192q56 -79 80 -146t24 -145q0 -79 -24 -148q-23 -66 -78 -143l194 -192l-81 -84l-195 194q-135 -104 -293 -104q-78 0 -147 24q-71 25 -150 80l-192 -194l-82 84 l192 192q-104 134 -104 293q0 79 24 146q23 64 80 143zM338 647q0 -74 27 -137q29 -66 73 -111q46 -46 111 -74t135 -28q69 0 134 28q63 27 110 74q45 45 73 110q27 63 27 134q0 72 -27 135q-28 67 -73 111q-49 49 -110 75q-63 27 -134 27t-134 -27t-110 -74t-74 -110 q-28 -65 -28 -133z" />
<glyph unicode="&#xa6;" d="M430 313h164v-655h-164v655zM430 680v686h164v-686h-164z" />
<glyph unicode="&#xa7;" d="M119 -10v24h141q12 -223 234 -223q96 0 152 49t56 133q0 54 -26 89q-28 37 -98 81q-1 0 -11 6t-27.5 16t-36.5 22l-194 114q-96 60 -141 123q-43 61 -43 139q0 80 42 137q44 59 140 109q-71 51 -103 107q-32 55 -32 128q0 65 27 122q28 59 73 98q46 40 114 63 q67 23 144 23q174 0 266 -90q91 -90 93 -265v-20h-137q0 244 -215 244q-90 0 -145 -46q-54 -45 -54 -116t70 -127q3 -2 9.5 -8t10.5 -8q4 -3 15 -9.5t17 -10.5q18 -11 62 -36l113 -63l79 -46q26 -15 57 -36q15 -10 41 -32q12 -10 32 -30q61 -65 61 -162q0 -83 -41 -144 t-133 -112q79 -62 108 -116t29 -133q0 -73 -26 -131q-27 -60 -76 -103q-47 -41 -117 -66q-67 -24 -149 -24q-87 0 -156 24q-72 25 -120 67q-51 45 -78 105t-27 134zM281 582q0 -32 10 -55t45 -52q34 -29 102 -69q87 -53 185 -105q56 22 93 69q34 43 34 95q0 45 -24 75 q-23 29 -93 70q-12 5 -44 25l-60 35l-62 36l-53 29q-133 -52 -133 -153z" />
<glyph unicode="&#xa9;" horiz-adv-x="1566" d="M76 692q0 147 56 272q58 129 153 223q96 95 225 150q130 56 274 56q145 0 275 -56q132 -57 224 -152q96 -99 151 -227t55 -276q0 -146 -55 -274q-56 -130 -152 -226q-94 -94 -224 -152q-128 -57 -274 -57q-147 0 -277 57q-132 58 -225 152q-95 97 -151 228 q-55 129 -55 282zM164 690q0 -134 48 -249t132 -201q87 -89 198 -137q115 -50 242 -50q129 0 240 49q112 49 197 136q84 85 132 200q48 114 48 246q0 130 -48 244q-48 115 -132 200q-85 87 -197 136q-111 49 -240 49q-127 0 -240 -49q-114 -50 -198 -135q-84 -86 -133 -198 q-49 -113 -49 -241zM424 684q0 200 94 313q95 115 258 115q60 0 106 -15q45 -14 93 -55v56h96v-246h-96q-10 87 -54 128q-43 40 -130 40q-116 0 -176 -86t-60 -250q0 -156 60 -243t169 -87q174 0 191 213h100q-1 -146 -77 -226q-75 -79 -216 -79q-168 0 -263 112t-95 310z " />
<glyph unicode="&#xab;" horiz-adv-x="729" d="M70 483l209 484h120l-184 -484l184 -483h-120zM352 483l207 484h123l-184 -484l184 -483h-123z" />
<glyph unicode="&#xac;" d="M68 393v154h886v-547h-163v393h-723z" />
<glyph unicode="&#xad;" horiz-adv-x="409" d="M0 477v103h410v-103h-410z" />
<glyph unicode="&#xae;" horiz-adv-x="1566" d="M76 692q0 147 56 272q58 129 153 223q96 95 225 150q130 56 274 56q145 0 275 -56q131 -56 224 -151q96 -98 151 -225q55 -128 55 -277q0 -148 -55 -276q-56 -130 -152 -226q-95 -95 -224 -151t-274 -56q-147 0 -277 57q-132 58 -225 152q-95 97 -151 228 q-55 129 -55 280zM164 692q0 -133 48 -250q48 -116 132 -202q86 -87 198 -136q113 -49 242 -49t240 49q112 49 197 136q84 85 132 200q48 114 48 244q0 132 -48 246q-48 113 -132 199q-84 85 -197 135q-111 49 -240 49q-127 0 -240 -49q-114 -50 -198 -135t-133 -197 q-49 -111 -49 -240zM449 279v88h104v641h-104v88h276q77 0 104 -1q50 -2 70 -5q28 -4 49 -12q21 -7 41 -19q109 -61 109 -191q0 -168 -166 -213l145 -288h99v-88h-191l-170 362h-143v-274h98v-88h-321zM676 733h84q68 0 95 4q28 4 52 17q62 35 62 116q0 83 -64 117 q-19 9 -53 14q-33 5 -96 5h-80v-273z" />
<glyph unicode="&#xb0;" d="M215 1098q0 56 24 109q24 52 64 91q41 39 94 62q51 22 115 22t115 -22q52 -22 93 -62q37 -36 63 -92q24 -52 24 -112t-24 -113q-25 -55 -63 -93q-40 -40 -93 -63q-51 -22 -115 -22q-63 0 -116 22t-94 63q-38 38 -63 94q-24 54 -24 116zM340 1096q0 -72 50 -122t122 -50 t121 49t49 121q0 69 -49 118q-50 50 -121 50q-34 0 -67 -14q-31 -13 -55 -36q-23 -21 -37 -53q-13 -29 -13 -63z" />
<glyph unicode="&#xb1;" horiz-adv-x="1034" d="M74 98v138h887v-138h-887zM74 670v137h370v375h148v-375h369v-137h-369v-377h-148v377h-370z" />
<glyph unicode="&#xb5;" d="M90 -344v1327h164v-553q0 -57 4 -93q5 -44 13 -71q9 -30 24 -54q14 -23 37 -44q73 -68 174 -68q60 0 109 24q50 24 85 71q41 52 55 105q15 57 15 149v534h164v-983h-164v168q-45 -97 -111 -146q-64 -47 -157 -47q-81 0 -142 35q-59 34 -106 113v-467h-164z" />
<glyph unicode="&#xb6;" horiz-adv-x="987" d="M-47 999q0 103 45 185t127 127q43 25 120 41q67 14 158 14h566v-115h-142v-1454h-131v1454h-204v-1454h-132v848q-14 -2 -18 -2h-12q-85 0 -154 27q-71 28 -119 73t-76 113t-28 143z" />
<glyph unicode="&#xb7;" horiz-adv-x="432" d="M100 387v229h230v-229h-230z" />
<glyph unicode="&#xbb;" horiz-adv-x="729" d="M47 0l184 483l-184 484h121l209 -484l-209 -483h-121zM330 0l182 483l-182 484h121l208 -484l-208 -483h-121z" />
<glyph unicode="&#x192;" horiz-adv-x="811" d="M-31 -166q78 -6 123 13q48 20 60 102l112 774h-196v143h217l51 355q17 120 76 182q56 60 144 78q90 18 212 2v-156q-126 11 -179 -16q-55 -28 -67 -115l-47 -330h242v-143h-262l-111 -789q-18 -128 -82 -192q-47 -47 -120 -59q-72 -12 -173 0v151z" />
<glyph unicode="&#x401;" horiz-adv-x="1067" d="M57 0v133h170v1100h-170v133h930v-322h-137v185h-440v-447h460v-137h-460v-508h458v221h136v-358h-947zM264 1532v209h211v-209h-211zM639 1532v209h211v-209h-211z" />
<glyph unicode="&#x402;" horiz-adv-x="1404" d="M23 1020v346h1024v-346h-138v209h-336v-465q123 127 322 127q192 0 293 -119q40 -50 60 -114q20 -66 20 -158v-406q0 -77 -3 -134q-2 -44 -10 -98q-7 -47 -17 -73q-13 -32 -28 -57q-45 -71 -123 -108q-81 -38 -184 -38h-26q-7 0 -39 2v133q89 1 144 22q52 19 79 60 q9 19 14 35q6 18 9 49q4 37 5 80q1 33 1 127v420q0 110 -61 174t-167 64q-164 0 -289 -158v-461h170v-133h-516v133h170v1096h-237v-209h-137z" />
<glyph unicode="&#x403;" d="M57 0v133h170v1100h-170v133h934v-358h-139v221h-442v-1096h170v-133h-523zM397 1513l301 246h256l-348 -246h-209z" />
<glyph unicode="&#x404;" horiz-adv-x="1196" d="M78 676q0 168 40 298q41 134 113 225q74 93 179 143q108 51 233 51q105 0 184 -30q84 -32 150 -95v100h137v-401h-139q-7 52 -19 95q-10 36 -28 68q-35 57 -105 91q-67 32 -155 32q-178 0 -277 -127t-115 -374h506v-134h-506q10 -240 108 -374q97 -133 263 -133 q148 0 231 92q82 91 97 268h145q-2 -236 -129 -368q-128 -132 -352 -132q-133 0 -237 48q-103 48 -176 139t-110 221q-38 132 -38 297z" />
<glyph unicode="&#x405;" horiz-adv-x="991" d="M57 1036q0 78 30 144t82 112q53 47 125 74t161 27q187 0 295 -129v102h120v-377h-114q-7 124 -81 194q-71 68 -196 68q-107 0 -171 -54t-64 -146q0 -84 61 -133q27 -20 35 -25q18 -12 48 -27l74 -35l111 -51q78 -35 101 -47q37 -19 70 -39q29 -17 53 -35q26 -19 43 -36 q94 -94 94 -248q0 -91 -30 -164q-31 -76 -85 -127q-57 -54 -132 -82q-78 -29 -171 -29q-108 0 -189 35q-80 35 -149 113v-121h-119v422h119q1 -143 87 -224q85 -81 233 -81q122 0 188 62q68 63 68 173q0 41 -11 77q-11 35 -34 61q-26 30 -65 54q-45 29 -99 50l-144 61 q-71 32 -100 47q-49 26 -68 37q-23 14 -47 33q-129 106 -129 264z" />
<glyph unicode="&#x406;" horiz-adv-x="641" d="M57 0v133h170v1100h-170v133h527v-133h-172v-1100h172v-133h-527z" />
<glyph unicode="&#x407;" horiz-adv-x="641" d="M57 1532v209h211v-209h-211zM59 0v133h170v1100h-170v133h527v-133h-172v-1100h172v-133h-527zM375 1532v209h211v-209h-211z" />
<glyph unicode="&#x408;" horiz-adv-x="667" d="M6 -49q94 1 147 21q51 19 76 61q11 18 17 35q6 18 9 49q2 23 4 80q1 33 1 127v909h-170v133h526v-133h-172v-909q0 -152 -12 -232t-45 -131q-42 -70 -123 -108q-78 -37 -188 -37h-31q-7 0 -39 2v133z" />
<glyph unicode="&#x409;" horiz-adv-x="1742" d="M20 -6v139q108 2 160 64q12 19 18 33q6 15 13 49q6 30 12 78q9 69 13 126l77 883h918v-133h-170v-436h115q68 0 117 -3q40 -2 89 -10q43 -7 70 -16q31 -11 59 -27q91 -51 139 -140q50 -92 50 -206q0 -123 -61 -221q-60 -96 -166 -139q-42 -17 -106 -26q-65 -9 -136 -9 h-518v133h172v1100h-410l-67 -766q-3 -45 -15 -132q-7 -56 -18 -97q-12 -46 -25 -72q-16 -33 -33 -55q-89 -119 -276 -119q-11 0 -21 2zM1061 137h104q66 0 91 1q46 2 65 5q26 4 46 12q26 10 38 17q104 62 104 225q0 175 -118 232q-28 14 -91 22q-64 8 -131 8h-108v-522z " />
<glyph unicode="&#x40a;" horiz-adv-x="1839" d="M57 0v133h170v1100h-170v133h518v-133h-172v-447h580v447h-170v133h518v-133h-172v-447h117q68 0 118 -3t89 -9q42 -6 69 -16q34 -12 60 -27q88 -47 138 -138q50 -92 50 -202q0 -123 -60 -219t-167 -137q-22 -10 -52 -18q-20 -6 -65 -11q-26 -3 -87 -5q-33 -1 -122 -1 h-434v133h170v520h-580v-520h172v-133h-518zM1159 133h105q68 0 93 1q45 2 64 5q26 4 46 12q26 10 38 17q105 60 105 221q0 89 -34 150q-35 62 -97 90q-33 14 -77 19q-47 5 -132 5h-111v-520z" />
<glyph unicode="&#x40b;" horiz-adv-x="1452" d="M23 1020v346h1024v-346h-138v209h-336v-465q123 127 322 127q191 0 293 -119q40 -50 60 -114q20 -66 20 -158v-367h170v-133h-516v133h168v381q0 110 -61 174t-167 64q-165 0 -289 -154v-465h170v-133h-516v133h170v1096h-237v-209h-137z" />
<glyph unicode="&#x40c;" horiz-adv-x="1320" d="M57 0v133h170v1100h-170v133h508v-133h-166v-522l508 522h-137v133h479v-133h-166l-399 -420l442 -680h170v-133h-520v133h133l-340 572l-174 -179v-393h164v-133h-502zM539 1513l301 246h256l-348 -246h-209z" />
<glyph unicode="&#x40e;" horiz-adv-x="1191" d="M0 1233v133h526v-133h-149l231 -610l250 610h-151v133h483v-133h-178l-461 -1100h190v-133h-514v133h170l115 285l-340 815h-172zM256 1765h104q67 -145 234 -145q166 0 235 145h105q-18 -119 -110 -188q-93 -70 -228 -70q-137 0 -230 70q-92 69 -110 188z" />
<glyph unicode="&#x40f;" horiz-adv-x="1388" d="M57 0v133h170v1100h-170v133h518v-133h-172v-1100h580v1100h-170v133h518v-133h-172v-1100h172v-133h-547v-205h-182v205h-545z" />
<glyph unicode="&#x410;" horiz-adv-x="1355" d="M14 0v133h164l416 1245h180l393 -1245h174v-133h-514v133h152l-90 293h-471l-94 -293h149v-133h-459zM459 561h391l-88 291q-4 12 -22 72l-23 88l-26 96l-25 96l-30 -101q-19 -63 -23 -76l-24 -76l-32 -99z" />
<glyph unicode="&#x411;" horiz-adv-x="1118" d="M57 0v133h170v1100h-170v133h885v-358h-139v225h-393v-436h116q68 0 118 -3q40 -2 89 -10q43 -7 70 -16q31 -11 59 -27q89 -50 138 -140q51 -94 51 -206q0 -123 -61 -221q-59 -95 -167 -139q-31 -12 -53 -17q-24 -5 -63 -10q-37 -4 -87 -6q-66 -2 -122 -2h-441zM410 137 h104q67 0 92 1q46 2 65 5q28 5 47 12q26 10 38 17q104 62 104 225q0 182 -131 238q-20 7 -35 11q-22 6 -42 8q-18 2 -56 4q-22 1 -78 1h-108v-522z" />
<glyph unicode="&#x412;" horiz-adv-x="1159" d="M57 0v133h170v1100h-170v133h484q78 0 125 -4q57 -5 95 -13q42 -9 75 -24q35 -16 63 -37q60 -40 90 -108q31 -70 31 -152q0 -110 -51 -181q-51 -70 -164 -114q137 -33 209 -119q71 -84 71 -221q0 -116 -56 -206q-58 -93 -154 -138q-24 -12 -64 -23t-78 -16 q-50 -7 -108 -8q-84 -2 -152 -2h-416zM408 137h102q44 0 102 2q33 1 76 7q22 3 55 14q19 6 43 20q53 29 80 84q27 56 27 127q0 77 -32 136q-31 58 -89 87q-19 11 -40 17q-17 5 -51 10q-21 3 -72 5q-28 1 -103 1h-98v-510zM408 784h96q90 0 143 8t84 27q100 60 100 191 q0 74 -30 125q-29 50 -88 73q-33 12 -78 16q-52 5 -137 5h-90v-445z" />
<glyph unicode="&#x413;" d="M57 0v133h170v1100h-170v133h934v-358h-139v221h-442v-1096h170v-133h-523z" />
<glyph unicode="&#x414;" horiz-adv-x="1314" d="M14 133h29q69 0 115 35q44 34 61 96q5 22 13 84q11 80 16 135l78 883h761v-1233h170v-338h-182v205h-878v-205h-183v338zM330 133h581v1100h-426l-69 -764q-5 -69 -14 -130q-8 -58 -17 -89q-10 -36 -24 -64q-13 -26 -31 -53z" />
<glyph unicode="&#x415;" horiz-adv-x="1067" d="M57 0v133h170v1100h-170v133h930v-322h-137v185h-440v-447h460v-137h-460v-508h458v221h136v-358h-947z" />
<glyph unicode="&#x416;" horiz-adv-x="1898" d="M23 0v133h174l417 596l-383 504h-176v133h480v-133h-138l340 -447h125v447h-170v133h508v-133h-166v-447h125l342 447h-137v133h479v-133h-176l-381 -500l420 -600h170v-133h-522v133h135l-346 520h-109v-520h160v-133h-502v133h170v520h-112l-344 -520h137v-133h-520z " />
<glyph unicode="&#x417;" horiz-adv-x="1105" d="M76 471h145q5 -63 13 -101q9 -40 30 -81q37 -83 111 -130q73 -46 170 -46q125 0 200 71q76 72 76 189t-78 180t-219 63h-102v138h102q66 0 109 12t78 41q88 72 88 201q0 116 -71 182q-69 65 -196 65q-92 0 -159 -32q-71 -34 -105 -93q-20 -31 -29 -68q-12 -49 -18 -95 h-139v401h137v-100q71 66 152 97q79 30 190 30q99 0 178 -27q80 -27 137 -75t88 -116t31 -153q0 -129 -70 -217q-71 -89 -194 -113q154 -38 221 -117q70 -82 70 -217q0 -87 -33 -159t-93 -123q-61 -52 -144 -80q-85 -29 -187 -29q-147 0 -260 62q-112 61 -172 174 q-31 62 -44 120t-13 146z" />
<glyph unicode="&#x418;" horiz-adv-x="1384" d="M53 1233v133h518v-133h-170l-8 -942l135 270l136 266l282 539h381v-133h-172v-1100h172v-133h-518v133h170l4 1045l-305 -603l-301 -575h-154v1233h-170z" />
<glyph unicode="&#x419;" horiz-adv-x="1382" d="M53 1233v133h518v-133h-170l-8 -942l135 270l136 266l282 539h381v-133h-172v-1100h172v-133h-518v133h170l4 1045l-305 -603l-301 -575h-154v1233h-170zM352 1765h105q67 -145 233 -145q167 0 236 145h104q-18 -119 -109 -188q-93 -70 -229 -70q-137 0 -230 70 q-92 69 -110 188z" />
<glyph unicode="&#x41a;" horiz-adv-x="1320" d="M57 0v133h170v1100h-170v133h508v-133h-166v-522l508 522h-137v133h479v-133h-166l-399 -420l442 -680h170v-133h-520v133h133l-340 572l-174 -179v-393h164v-133h-502z" />
<glyph unicode="&#x41b;" horiz-adv-x="1304" d="M23 -6v141q111 0 157 64q15 18 20 31q6 15 13 49q6 30 12 78q9 69 13 126l77 883h766v-1233h170v-133h-518v133h172v1100h-428l-67 -764q-4 -51 -15 -133q-7 -54 -18 -97q-11 -44 -25 -72q-15 -30 -33 -54q-44 -61 -113 -90q-73 -31 -163 -31q-10 0 -20 2z" />
<glyph unicode="&#x41c;" horiz-adv-x="1691" d="M57 0v133h170v1100h-170v133h441l168 -537q13 -42 44 -147l34 -120l37 -128l48 -172l22 70q5 17 13 45l54 172q1 7 14 46l27 80l30 88q20 59 25 71l186 532h432v-133h-170v-1100h170v-133h-520v133h170v535v133q0 37 1 68t1 104q0 79 1 122t1 126l-100 -298l-99 -296 l-200 -572h-162l-178 572l-180 583v-546v-531h170v-133h-480z" />
<glyph unicode="&#x41d;" horiz-adv-x="1388" d="M57 0v133h170v1100h-170v133h518v-133h-172v-447h580v447h-170v133h518v-133h-172v-1100h172v-133h-518v133h170v520h-580v-520h172v-133h-518z" />
<glyph unicode="&#x41e;" horiz-adv-x="1294" d="M76 692q0 158 41 289t115 221q77 94 181 143q106 50 234 50q131 0 237 -50q103 -49 180 -144q74 -92 115 -224q40 -129 40 -293q0 -166 -40 -295q-41 -132 -115 -224q-76 -94 -180 -143q-108 -51 -235 -51q-129 0 -239 51q-107 50 -181 143q-72 91 -113 227 q-40 132 -40 300zM270 690q0 -279 98 -430q97 -149 279 -149q181 0 279 149q98 148 98 424t-98 423q-99 148 -279 148q-179 0 -278 -148q-99 -149 -99 -417z" />
<glyph unicode="&#x41f;" horiz-adv-x="1388" d="M57 0v133h170v1100h-170v133h1274v-133h-172v-1100h172v-133h-518v133h170v1100h-580v-1100h172v-133h-518z" />
<glyph unicode="&#x420;" horiz-adv-x="1089" d="M57 0v133h170v1100h-170v133h441q61 0 135 -2q50 -1 95 -8q37 -6 70 -17q37 -13 58 -24q92 -47 143 -138q52 -93 52 -206q0 -124 -59 -221t-163 -140q-25 -11 -55 -19q-28 -7 -63 -12q-55 -7 -80 -8q-60 -2 -105 -2h-116v-436h186v-133h-539zM410 707h108q63 0 86 1 q43 2 62 5q31 5 46 11q26 10 38 17q110 62 110 228q0 86 -33 146q-34 61 -92 89q-20 7 -35 11q-29 7 -44 9q-19 2 -59 4q-23 1 -83 1h-104v-522z" />
<glyph unicode="&#x421;" horiz-adv-x="1196" d="M76 676q0 166 39 298q39 133 112 225q74 93 179 143q108 51 235 51q103 0 183 -30q81 -30 151 -95v100h137v-401h-139q-7 52 -19 95q-10 36 -28 68q-35 57 -105 91q-67 32 -155 32q-190 0 -292 -148q-102 -149 -102 -429q0 -270 98 -418q98 -147 275 -147q148 0 231 92 q82 91 97 268h145q-2 -236 -129 -368t-352 -132q-133 0 -237 48q-103 48 -176 139t-110 221q-38 132 -38 297z" />
<glyph unicode="&#x422;" horiz-adv-x="1071" d="M23 1020v346h1024v-346h-138v209h-284v-1096h170v-133h-521v133h170v1096h-284v-209h-137z" />
<glyph unicode="&#x423;" horiz-adv-x="1191" d="M0 1233v133h526v-133h-149l231 -610l250 610h-151v133h483v-133h-178l-461 -1100h190v-133h-514v133h170l115 285l-340 815h-172z" />
<glyph unicode="&#x424;" horiz-adv-x="1529" d="M55 684q0 162 115 282q111 116 317 160q44 11 86 15q10 1 103 8v94h-170v123h520v-123h-170v-94q90 -7 102 -8q42 -4 86 -15q207 -44 318 -160q115 -120 115 -282q0 -164 -115 -284q-111 -116 -318 -160q-44 -11 -86 -15q-12 -1 -102 -8v-94h170v-123h-520v123h170v94 q-93 7 -103 8q-42 4 -86 15q-206 44 -317 160q-115 120 -115 284zM252 684q0 -74 30 -135q31 -64 85 -106q55 -43 134 -70q78 -26 175 -31v682q-196 -11 -309 -101q-115 -92 -115 -239zM856 342q97 5 175 31q79 27 134 70q54 42 85 106q30 61 30 135q0 147 -115 239 q-113 90 -309 101v-682z" />
<glyph unicode="&#x425;" horiz-adv-x="1253" d="M16 0v133h174l345 578l-273 522h-178v133h319l246 -516l213 383h-141v133h477v-133h-168l-309 -508l317 -592h181v-133h-332l-279 588l-252 -455h156v-133h-496z" />
<glyph unicode="&#x426;" horiz-adv-x="1388" d="M57 0v131h170v1102h-170v133h518v-133h-172v-1102h580v1102h-170v133h518v-133h-172v-1102h172v-336h-182v205h-1092z" />
<glyph unicode="&#x427;" horiz-adv-x="1282" d="M14 1233v133h516v-133h-168v-381q0 -109 61 -173q60 -63 167 -63q164 0 289 152v465h-170v133h516v-133h-170v-1100h170v-133h-516v133h170v469q-125 -125 -324 -125q-92 0 -167 30q-74 30 -124 87q-40 50 -60 114q-20 66 -20 158v367h-170z" />
<glyph unicode="&#x428;" horiz-adv-x="1984" d="M57 0v133h170v1100h-170v133h518v-133h-172v-1100h500v1100h-170v133h518v-133h-172v-1100h500v1100h-170v133h518v-133h-172v-1100h172v-133h-1870z" />
<glyph unicode="&#x429;" horiz-adv-x="1984" d="M57 0v133h170v1100h-170v133h518v-133h-172v-1100h500v1100h-170v133h518v-133h-172v-1100h500v1100h-170v133h518v-133h-172v-1100h172v-338h-182v205h-1688z" />
<glyph unicode="&#x42a;" horiz-adv-x="1290" d="M14 1024v342h770v-133h-170v-436h115q69 0 118 -3q40 -2 89 -10q43 -7 70 -16q31 -11 59 -27q90 -50 139 -140q49 -91 49 -206q0 -125 -60 -221q-59 -95 -167 -139q-31 -12 -53 -17q-23 -5 -64 -10q-37 -4 -87 -6q-66 -2 -122 -2h-440v133h172v1100h-278v-209h-140z M614 137h105q66 0 91 1q45 2 64 5q28 5 47 12q23 9 37 17q105 63 105 225q0 89 -33 149q-34 61 -98 89q-33 14 -77 19q-47 5 -132 5h-109v-522z" />
<glyph unicode="&#x42b;" horiz-adv-x="1601" d="M57 0v133h170v1100h-170v133h523v-133h-172v-436h116q69 0 118 -3q40 -2 89 -10q43 -7 70 -16q31 -11 59 -27q90 -50 139 -140q50 -92 50 -206q0 -123 -61 -221q-59 -95 -167 -139q-30 -11 -53 -18q-22 -6 -63 -11q-26 -3 -88 -5q-33 -1 -121 -1h-439zM408 137h104 q68 0 93 1q46 2 65 5q26 4 46 12q26 10 38 17q104 62 104 225q0 89 -33 149q-34 61 -98 89q-33 14 -77 19q-47 5 -132 5h-110v-522zM1022 1233v133h520v-133h-170v-1100h170v-133h-504v133h154v1100h-170z" />
<glyph unicode="&#x42c;" horiz-adv-x="1089" d="M57 0v133h170v1100h-170v133h523v-133h-170v-436h114q69 0 118 -3q40 -2 89 -10q43 -7 70 -16q31 -11 59 -27q90 -50 139 -140q50 -92 50 -206q0 -123 -61 -221q-59 -95 -167 -139q-31 -12 -53 -17q-24 -5 -63 -10q-37 -4 -88 -6q-66 -2 -121 -2h-439zM410 137h104 q66 0 91 1q46 2 65 5q26 4 46 12q26 10 38 17q104 62 104 225q0 89 -33 149q-34 61 -98 89q-33 14 -77 19q-47 5 -132 5h-108v-522z" />
<glyph unicode="&#x42d;" horiz-adv-x="1196" d="M76 471h145q15 -177 97 -268q83 -92 231 -92q166 0 263 133q98 134 108 374h-506v134h506q-16 247 -115 374t-277 127q-88 0 -155 -32q-70 -34 -105 -91q-18 -32 -28 -68q-12 -43 -19 -95h-139v401h137v-100q66 63 150 95q79 30 184 30q125 0 233 -51q105 -50 179 -143 q72 -91 113 -225q40 -130 40 -298q0 -165 -38 -297q-37 -130 -110 -221q-73 -92 -177 -139q-105 -48 -236 -48q-225 0 -352 132t-129 368z" />
<glyph unicode="&#x42e;" horiz-adv-x="1835" d="M57 0v133h170v1100h-170v133h518v-133h-172v-447h220q28 289 176 449t389 160q130 0 236 -50q105 -49 181 -144q73 -90 114 -225q40 -130 40 -294t-40 -293q-42 -134 -114 -224q-75 -93 -181 -143q-108 -51 -236 -51q-127 0 -232 48q-102 47 -178 138q-72 87 -115 215 t-47 281h-213v-520h172v-133h-518zM813 690q0 -281 97 -430t280 -149q180 0 277 148q98 149 98 423t-99 424q-98 149 -278 149q-178 0 -277 -148q-98 -147 -98 -417z" />
<glyph unicode="&#x42f;" horiz-adv-x="1241" d="M14 0v133h162l240 502q-125 24 -200 122q-75 97 -75 236q0 119 60 208q61 90 168 130q29 11 56 18q22 6 71 11q29 3 99 5q39 1 146 1h441v-133h-170v-1100h170v-133h-510v133h164v479h-252l-267 -612h-303zM332 993q0 -78 30 -132q30 -53 91 -81q33 -16 81 -22 q46 -6 148 -6h147v477h-139q-72 0 -99 -1q-49 -2 -69 -5q-28 -4 -49 -12q-25 -9 -39 -17q-102 -60 -102 -201z" />
<glyph unicode="&#x430;" horiz-adv-x="974" d="M61 258q0 97 55 172t158 119q13 6 34 14t28 11q30 13 65 21q20 5 87 19l126 25v35q0 58 -6 86q-6 31 -20 47q-41 53 -146 53q-61 0 -105 -17q-47 -18 -69 -52q-14 -20 -19 -43q-10 -50 -16 -86h-124l24 202q133 123 324 123q93 0 166 -30q74 -30 114 -85q15 -21 25 -41 q10 -21 15 -51q6 -38 7 -77q2 -62 2 -113v-469h144v-121h-299v141q-53 -86 -118 -124q-64 -37 -157 -37q-68 0 -118 20q-57 23 -94 57q-40 37 -61 88q-22 53 -22 113zM238 274q0 -70 44 -114q43 -43 117 -43q63 0 116 33t77 86q13 30 17 71q5 48 5 133v88q-65 -14 -97 -22 t-71 -20q-34 -10 -53 -19l-47 -23q-108 -57 -108 -170z" />
<glyph unicode="&#x431;" horiz-adv-x="1001" d="M74 578q0 264 61 454q62 194 172 283q84 71 223 71h23q5 0 27 -2q16 -2 42 -6q15 -3 70 -10q38 -6 68 -6t53 6q19 5 55 23v-136q-28 -20 -58 -28q-32 -8 -71 -8q-12 0 -28 2q-18 2 -43 6q-67 14 -121 14q-67 0 -109 -23q-44 -24 -78 -79q-27 -38 -49 -111 q-20 -66 -28 -143q44 50 109 78t140 28q79 0 151 -33q76 -35 126 -92q119 -136 119 -381q0 -252 -127 -385q-54 -59 -133 -92q-78 -33 -164 -33q-106 0 -202 51q-92 49 -148 138q-80 130 -80 414zM262 489q0 -189 62 -287t180 -98q116 0 178 98q61 97 61 283q0 188 -61 283 q-61 96 -178 96q-116 0 -179 -96t-63 -279z" />
<glyph unicode="&#x432;" horiz-adv-x="970" d="M57 0v121h148v725h-148v121h490q79 0 132 -12q56 -13 91 -33q107 -69 107 -201q0 -163 -154 -223q180 -51 180 -224q0 -73 -35 -134q-34 -60 -100 -97q-68 -43 -221 -43h-490zM375 123h131q112 0 162 37q51 38 51 119q0 91 -66 131q-26 14 -55 19q-32 5 -94 5h-129v-311z M375 559h119q198 0 198 143q0 142 -184 142h-133v-285z" />
<glyph unicode="&#x433;" horiz-adv-x="849" d="M57 0v121h148v725h-148v121h752v-314h-127v189h-303v-721h127v-121h-449z" />
<glyph unicode="&#x434;" horiz-adv-x="1079" d="M16 121h39q92 0 125 127l7 32q5 24 7 37l8 69q5 48 15 124l45 457h617v-846h145v-326h-170v205h-668v-205h-170v326zM281 125h424v717h-283l-45 -430q-11 -116 -33 -180q-22 -63 -63 -107z" />
<glyph unicode="&#x435;" horiz-adv-x="964" d="M74 475q0 113 30 207t86 162q55 67 133 105t171 38q103 0 188 -47q84 -46 135 -135q13 -21 28 -61q13 -35 22 -75q12 -54 16 -81q6 -40 6 -78v-18q0 -5 -2 -27h-631q1 -78 10 -138q8 -53 29 -94q61 -127 201 -127q182 0 217 193h161q-5 -75 -33 -130q-30 -58 -81 -100 t-119 -66q-65 -23 -147 -23q-99 0 -173 35q-77 36 -133 101q-55 64 -85 155q-29 88 -29 204zM260 584h440q-2 276 -202 276q-97 0 -161 -73q-62 -71 -77 -203z" />
<glyph unicode="&#x436;" horiz-adv-x="1550" d="M27 0v121h139l280 405l-249 320h-129v121h397v-121h-113l213 -275h127v275h-129v121h422v-121h-129v-275h127l213 275h-113v121h398v-121h-129l-250 -320l280 -405h140v-121h-428v121h98l-211 330h-125v-330h129v-121h-422v121h129v330h-123l-213 -330h99v-121h-428z" />
<glyph unicode="&#x437;" horiz-adv-x="835" d="M66 317h149q34 -206 193 -206q79 0 126 43q48 44 48 114q0 152 -174 152h-99v125h74q78 0 128 44t50 113t-44 113q-43 43 -114 43q-83 0 -133 -54q-48 -53 -59 -159h-129v326h129v-86q42 55 93 78q52 24 126 24q70 0 124 -20q55 -20 98 -57q42 -36 66 -86q23 -47 23 -109 q0 -168 -172 -228q193 -50 193 -231q0 -60 -25 -112q-24 -50 -69 -87q-42 -35 -107 -57q-59 -20 -135 -20q-157 0 -252 89q-93 87 -108 248z" />
<glyph unicode="&#x438;" horiz-adv-x="1140" d="M47 846v121h442v-119h-133v-342q-2 -209 -6 -281l426 742h307v-121h-147v-725h147v-121h-442v119h133v299q1 120 3 200q1 52 1 125l-426 -743h-157v846h-148z" />
<glyph unicode="&#x439;" horiz-adv-x="1140" d="M47 846v121h442v-119h-133v-342q-2 -209 -6 -281l426 742h307v-121h-147v-725h147v-121h-442v119h133v299q1 120 3 200q1 52 1 125l-426 -743h-157v846h-148zM270 1376h92q27 -70 79 -107q53 -38 124 -38q142 0 203 145h90q-16 -121 -95 -189q-79 -69 -200 -69 q-116 0 -197 70q-79 69 -96 188z" />
<glyph unicode="&#x43a;" horiz-adv-x="1114" d="M57 0v121h148v725h-148v121h320v-463l340 342h-131v121h438v-121h-137l-236 -244l299 -481h140v-121h-453v121h106l-217 377l-153 -162v-215h133v-121h-449z" />
<glyph unicode="&#x43b;" horiz-adv-x="1069" d="M14 -4v108q101 15 144 109q23 51 35 170q3 19 7 63q5 48 7 64l47 457h614v-846h146v-121h-449v121h129v721h-282l-37 -350q-10 -90 -18 -154q-8 -65 -17 -98q-11 -39 -26 -67q-12 -21 -40 -60q-91 -111 -260 -117z" />
<glyph unicode="&#x43c;" horiz-adv-x="1386" d="M57 0v121h148v725h-148v121h396l145 -430q4 -11 11 -39l26 -93q3 -4 11 -33l18 -61q3 -9 13 -42q2 -6 5 -17t6 -21l6 -20q3 3 99 326l143 430h391v-121h-145v-725h145v-121h-432v121h119v418q0 88 1 139q3 134 5 199l-45 -150q-6 -20 -10 -31q-10 -27 -13 -39 q-1 -4 -2.5 -8.5t-3.5 -10t-3 -8.5q-5 -14 -9 -30l-182 -545h-162l-195 580q0 1 -2.5 8.5t-4.5 14.5q-5 20 -15 47q0 1 -7 26l-14 43l-33 103q1 -22 2.5 -57.5t1.5 -44.5q0 -14 0.5 -42t1.5 -41q1 -26 1 -76v-77v-418h118v-121h-387z" />
<glyph unicode="&#x43d;" horiz-adv-x="1150" d="M57 0v121h148v725h-148v121h449v-121h-131v-273h401v273h-133v121h451v-121h-148v-725h148v-121h-451v121h133v328h-401v-328h131v-121h-449z" />
<glyph unicode="&#x43e;" horiz-adv-x="997" d="M74 492q0 120 32 213q32 94 95 161q55 58 134 92q76 33 163 33q86 0 162 -33q81 -35 135 -92q127 -133 127 -383t-127 -383q-54 -59 -133 -92q-78 -33 -164 -33t-164 33q-79 33 -133 92q-127 133 -127 392zM258 489q0 -189 60 -287t180 -98q116 0 178 98q61 97 61 283 q0 188 -61 283q-62 96 -178 96q-118 0 -179 -96q-61 -95 -61 -279z" />
<glyph unicode="&#x43f;" horiz-adv-x="1150" d="M57 0v121h148v725h-148v121h1037v-121h-148v-725h148v-121h-451v121h129v721h-393v-721h127v-121h-449z" />
<glyph unicode="&#x440;" horiz-adv-x="1095" d="M57 -283h148v1129h-148v121h312v-148q91 168 268 168q82 0 153 -38q69 -37 122 -105q52 -67 81 -160t29 -201q0 -109 -30 -200q-31 -93 -81 -160q-53 -70 -121 -106q-70 -37 -153 -37q-177 0 -268 167v-430h153v-120h-465v120zM375 489q0 -185 60 -284t175 -99 q112 0 174 99q62 100 62 278q0 179 -62 279q-61 98 -174 98q-110 0 -173 -97q-62 -96 -62 -274z" />
<glyph unicode="&#x441;" horiz-adv-x="901" d="M74 469q0 116 29 207q30 95 84 164t128 108q73 39 160 39q135 0 215 -102v86h129v-326h-129q-11 103 -60 157q-50 54 -136 54q-112 0 -175 -99t-63 -280q0 -174 60 -270t171 -96q165 0 199 206h150q-15 -160 -108 -248q-94 -89 -247 -89q-93 0 -167 34t-129 100t-83 154 t-28 201z" />
<glyph unicode="&#x442;" horiz-adv-x="813" d="M27 694v273h757v-273h-125v148h-167v-721h147v-121h-467v121h145v721h-165v-148h-125z" />
<glyph unicode="&#x443;" horiz-adv-x="1042" d="M0 846v121h461v-121h-123l102 -316l17 -50l10 -33q4 -12 7 -24t9 -30l11 -35l30 -104q17 -61 21 -68q17 64 24 87q12 39 25 87q2 5 5.5 17.5t5.5 18.5l16 48l15 49q6 21 13 37l107 316h-121v121h405v-121h-147l-299 -871l-44 -123q-19 -50 -33 -80q-15 -31 -32 -53 q-22 -28 -36 -43q-94 -94 -273 -94h-22q-9 0 -33 2v125q74 0 121 10q51 11 84 34q34 24 60 65q26 42 50 104l15 49l-297 875h-154z" />
<glyph unicode="&#x444;" horiz-adv-x="1341" d="M76 483q0 117 21 210q20 91 63 160q40 65 98 102q57 36 129 36q64 0 110 -28t87 -89v375h-146v121h320v-498q76 117 198 117q72 0 129 -36q59 -38 99 -102q41 -67 62 -160q22 -97 22 -210t-22 -210q-21 -92 -62 -159q-41 -66 -99 -103q-57 -36 -129 -36q-121 0 -198 119 v-375h147v-120h-467v120h146v375q-40 -59 -87 -88t-110 -29q-72 0 -129 36t-98 103q-43 70 -63 159q-21 93 -21 210zM250 483q0 -184 44 -283q44 -98 130 -98q98 0 139 142q21 68 21 207q0 188 -23 274q-41 137 -137 137q-86 0 -130 -96q-44 -97 -44 -283zM758 459 q0 -357 162 -357q86 0 130 98q44 99 44 283q0 183 -44 282q-43 97 -130 97q-103 0 -140 -145q-10 -42 -16 -110q-6 -63 -6 -148z" />
<glyph unicode="&#x445;" horiz-adv-x="1081" d="M18 0v121h164l271 391l-209 334h-160v121h295l178 -330l139 213h-96v117h422v-121h-170l-234 -322l261 -403h184v-121h-326l-219 399l-180 -282h117v-117h-437z" />
<glyph unicode="&#x446;" horiz-adv-x="1150" d="M57 0v121h148v725h-148v121h449v-121h-127v-721h393v721h-129v121h451v-121h-148v-725h148v-326h-170v205h-867z" />
<glyph unicode="&#x447;" horiz-adv-x="1105" d="M14 846v121h457v-121h-135v-160q0 -61 2 -101q1 -29 12 -50q17 -40 60 -61t100 -21q30 0 58 5q25 4 52 17q26 12 51 33q20 17 58 51v287h-135v121h457v-121h-148v-725h148v-121h-469v121h147v301q-108 -117 -264 -117q-91 0 -160 33q-68 33 -106 90q-14 24 -20 39 q-6 14 -11 45q-3 19 -5 67q-1 27 -1 105v162h-148z" />
<glyph unicode="&#x448;" horiz-adv-x="1648" d="M57 0v121h148v725h-148v121h449v-121h-127v-721h358v721h-127v121h430v-121h-129v-721h361v721h-129v121h448v-121h-145v-725h145v-121h-1534z" />
<glyph unicode="&#x449;" horiz-adv-x="1648" d="M57 0v121h148v725h-148v121h449v-121h-127v-721h358v721h-127v121h430v-121h-129v-721h361v721h-129v121h448v-121h-145v-725h145v-326h-170v205h-1364z" />
<glyph unicode="&#x44a;" horiz-adv-x="1062" d="M20 653v314h658v-121h-148v-281h142q90 0 142 -11q56 -12 97 -36q58 -35 89 -97q32 -64 32 -138q0 -81 -38 -148q-37 -65 -103 -98q-43 -20 -91 -28q-52 -9 -128 -9h-463v121h151v721h-215v-189h-125zM530 125h127q187 0 187 158q0 157 -187 157h-127v-315z" />
<glyph unicode="&#x44b;" horiz-adv-x="1388" d="M57 0v121h148v725h-148v121h478v-121h-160v-281h141q88 0 140 -11q58 -12 98 -36q58 -35 89 -97t31 -138q0 -83 -37 -148q-37 -64 -104 -98q-73 -37 -217 -37h-459zM375 125h127q184 0 184 158q0 157 -184 157h-127v-315zM868 846v121h463v-121h-147v-725h147v-121h-444 v121h127v725h-146z" />
<glyph unicode="&#x44c;" horiz-adv-x="919" d="M57 0v121h148v725h-148v121h482v-121h-160v-281h147q91 0 142 -11q56 -12 96 -36q58 -35 89 -97q32 -64 32 -138q0 -81 -38 -148q-37 -64 -104 -98q-41 -20 -89 -28q-52 -9 -128 -9h-469zM379 125h133q184 0 184 158q0 157 -184 157h-133v-315z" />
<glyph unicode="&#x44d;" horiz-adv-x="901" d="M66 317h149q34 -206 197 -206q101 0 160 80q62 83 69 229h-336v125h336q-33 311 -236 311q-172 0 -194 -211h-129v326h129v-86q78 102 213 102q88 0 162 -39q75 -40 127 -108q53 -70 83 -164q29 -91 29 -207q0 -113 -28 -201q-28 -87 -82 -154q-54 -66 -128 -100 t-167 -34q-153 0 -247 89q-92 87 -107 248z" />
<glyph unicode="&#x44e;" horiz-adv-x="1478" d="M57 0v121h148v725h-148v121h449v-121h-131v-273h184q18 142 74 232q56 87 148 137q91 49 198 49q86 0 164 -33q79 -33 133 -92q127 -133 127 -383t-127 -383q-54 -59 -133 -92q-78 -33 -164 -33q-116 0 -214 59q-99 59 -151 161q-53 103 -59 254h-180v-328h131v-121h-449 zM739 492q0 -191 61 -290q60 -98 179 -98q116 0 178 98t62 283q0 186 -62 283q-61 96 -178 96q-116 0 -178 -96q-62 -97 -62 -276z" />
<glyph unicode="&#x44f;" horiz-adv-x="978" d="M14 0v121h140l139 301q-91 24 -141 92t-50 170q0 82 37 146q39 66 103 100q38 18 89 27q58 10 126 10h465v-121h-148v-725h148v-121h-478v121h160v280h-149l-170 -401h-271zM287 684q0 -158 184 -158h133v316h-133q-184 0 -184 -158z" />
<glyph unicode="&#x451;" horiz-adv-x="964" d="M74 475q0 113 30 207t86 162q55 67 133 105t171 38q103 0 188 -47q84 -46 135 -135q13 -21 28 -61q13 -35 22 -75q12 -54 16 -81q6 -40 6 -78v-18q0 -5 -2 -27h-631q1 -78 10 -138q8 -53 29 -94q61 -127 201 -127q182 0 217 193h161q-5 -75 -33 -130q-30 -58 -81 -100 t-119 -66q-65 -23 -147 -23q-99 0 -173 35q-77 36 -133 101q-55 64 -85 155q-29 88 -29 204zM213 1141v209h203v-209h-203zM260 584h440q-2 276 -202 276q-97 0 -161 -73q-62 -71 -77 -203zM575 1141v209h203v-209h-203z" />
<glyph unicode="&#x452;" horiz-adv-x="1105" d="M57 0v121h148v936h-148v108h148v90h-148v115h322v-205h287v-108h-287v-228q92 158 270 158q87 0 156 -36q71 -37 104 -95q17 -33 21 -42q8 -21 11 -50q2 -23 4 -80q1 -33 1 -135v-832h148v-120h-457v120h135v852q0 83 -3 117q-3 33 -11 59q-17 46 -59 70q-44 25 -101 25 q-60 0 -111 -31q-48 -29 -77 -86q-19 -37 -25 -79q-6 -44 -6 -126v-397h135v-121h-457z" />
<glyph unicode="&#x453;" horiz-adv-x="849" d="M57 0v121h148v725h-148v121h752v-314h-127v189h-303v-721h127v-121h-449zM338 1124l242 244h211l-283 -244h-170z" />
<glyph unicode="&#x454;" horiz-adv-x="901" d="M74 469q0 116 29 207q30 94 83 164q52 68 127 108q73 39 162 39q135 0 215 -102v86h129v-326h-129q-11 103 -60 157q-50 54 -136 54q-203 0 -236 -311h336v-125h-336q7 -146 69 -229q59 -80 160 -80q162 0 199 206h150q-15 -160 -109 -248q-95 -89 -248 -89 q-93 0 -167 34t-128 100q-54 67 -82 154q-28 88 -28 201z" />
<glyph unicode="&#x455;" horiz-adv-x="827" d="M63 -4v332h113q16 -104 83 -166t163 -62q76 0 122 39t46 103q0 27 -7 47t-27 38q-17 16 -53 33q-30 14 -85 37q-93 34 -173 72q-62 30 -91 57q-80 74 -80 183q0 61 23 110q25 53 64 89q44 41 95 60q56 21 121 21q142 0 233 -106l8 90h113v-316h-117q-5 101 -57 155 q-53 54 -147 54q-73 0 -117 -37q-45 -37 -45 -96q0 -48 35 -78q33 -29 131 -67q59 -22 95 -37q35 -14 70 -30q34 -15 51 -25q21 -12 42 -27q45 -33 69 -83q25 -52 25 -112q0 -63 -25 -119t-67 -95t-104 -61q-63 -22 -130 -22q-86 0 -146 33q-61 33 -110 105l-8 -119h-113z " />
<glyph unicode="&#x456;" horiz-adv-x="573" d="M57 0v121h148v725h-148v121h322v-846h147v-121h-469zM172 1165v185h209v-185h-209z" />
<glyph unicode="&#x457;" horiz-adv-x="573" d="M20 1141v209h203v-209h-203zM57 0v121h146v725h-146v121h320v-846h147v-121h-467zM315 1141v209h203v-209h-203z" />
<glyph unicode="&#x458;" horiz-adv-x="593" d="M-2 -315q115 7 172 61q21 21 33 42q11 20 19 54q8 33 9 81q2 64 2 122v801h-147v121h324v-926q0 -57 -6 -131q-4 -53 -17 -96q-13 -42 -33 -73q-21 -31 -51 -60q-51 -47 -120 -70q-73 -25 -152 -25h-14q-5 0 -19 2v97zM203 1165v185h209v-185h-209z" />
<glyph unicode="&#x459;" horiz-adv-x="1394" d="M14 -4v108q43 7 77 28q32 20 53 57q22 40 34 97q15 72 21 146l55 535h756v-121h-148v-281h142q90 0 142 -11q56 -12 97 -36q58 -35 89 -97q32 -64 32 -138q0 -81 -38 -148q-37 -65 -103 -98q-73 -37 -213 -37h-445h-14v121h141v721h-280l-45 -430q-15 -208 -98 -308 q-81 -97 -255 -108zM862 125h127q187 0 187 158q0 157 -187 157h-127v-315z" />
<glyph unicode="&#x45a;" horiz-adv-x="1462" d="M57 0v121h148v725h-148v121h449v-121h-131v-281h379v281h-131v121h460v-121h-159v-281h147q90 0 141 -11q57 -12 97 -36q58 -35 89 -97q32 -64 32 -138q0 -81 -38 -148q-37 -64 -104 -98q-41 -20 -89 -28q-53 -9 -128 -9h-448v121h131v323h-379v-323h131v-121h-449z M924 125h133q184 0 184 160q0 159 -184 159h-133v-319z" />
<glyph unicode="&#x45b;" horiz-adv-x="1136" d="M57 0v121h148v936h-148v108h148v90h-148v115h322v-205h287v-108h-287v-228q92 158 270 158q72 0 134 -25t102 -71q34 -40 48 -94q13 -51 13 -150v-526h148v-121h-457v121h135v448q0 83 -3 117q-3 33 -11 59q-17 46 -59 70q-44 25 -101 25q-60 0 -111 -31q-48 -29 -77 -86 q-19 -37 -25 -79q-6 -44 -6 -126v-397h135v-121h-457z" />
<glyph unicode="&#x45c;" horiz-adv-x="1114" d="M57 0v121h148v725h-148v121h320v-463l340 342h-131v121h438v-121h-137l-236 -244l299 -481h140v-121h-453v121h106l-217 377l-153 -162v-215h133v-121h-449zM418 1124l241 244h211l-282 -244h-170z" />
<glyph unicode="&#x45e;" horiz-adv-x="1042" d="M0 846v121h461v-121h-123l102 -316l17 -50l10 -33q4 -12 7 -24t9 -30l11 -35l30 -104q17 -61 21 -68q17 64 24 87q12 39 25 87q2 5 5.5 17.5t5.5 18.5l16 48l15 49q6 21 13 37l107 316h-121v121h405v-121h-147l-299 -871l-44 -123q-19 -50 -33 -80q-15 -31 -32 -53 q-22 -28 -36 -43q-94 -94 -273 -94h-22q-9 0 -33 2v125q74 0 121 10q51 11 84 34q34 24 60 65q26 42 50 104l15 49l-297 875h-154zM225 1376h92q27 -70 79 -107q53 -38 124 -38q142 0 203 145h90q-16 -121 -95 -189q-80 -69 -200 -69q-116 0 -197 70q-79 69 -96 188z" />
<glyph unicode="&#x45f;" horiz-adv-x="1150" d="M57 0v121h148v725h-148v121h449v-121h-127v-721h393v721h-129v121h451v-121h-148v-725h148v-121h-435v-205h-170v205h-432z" />
<glyph unicode="&#x490;" d="M57 0v133h170v1100h-170v133h795v184h139v-321h-581v-1096h170v-133h-523z" />
<glyph unicode="&#x491;" horiz-adv-x="819" d="M57 0v121h148v725h-148v121h607v127h127v-252h-412v-721h127v-121h-449z" />
<glyph unicode="&#x2000;" horiz-adv-x="882" />
<glyph unicode="&#x2001;" horiz-adv-x="1765" />
<glyph unicode="&#x2002;" horiz-adv-x="882" />
<glyph unicode="&#x2003;" horiz-adv-x="1765" />
<glyph unicode="&#x2004;" horiz-adv-x="588" />
<glyph unicode="&#x2005;" horiz-adv-x="441" />
<glyph unicode="&#x2006;" horiz-adv-x="294" />
<glyph unicode="&#x2007;" horiz-adv-x="294" />
<glyph unicode="&#x2008;" horiz-adv-x="220" />
<glyph unicode="&#x2009;" horiz-adv-x="353" />
<glyph unicode="&#x200a;" horiz-adv-x="98" />
<glyph unicode="&#x2010;" horiz-adv-x="409" d="M0 477v103h410v-103h-410z" />
<glyph unicode="&#x2011;" horiz-adv-x="409" d="M0 477v103h410v-103h-410z" />
<glyph unicode="&#x2012;" horiz-adv-x="409" d="M0 477v103h410v-103h-410z" />
<glyph unicode="&#x2013;" d="M143 477v103h740v-103h-740z" />
<glyph unicode="&#x2014;" horiz-adv-x="1214" d="M0 473v111h1214v-111h-1214z" />
<glyph unicode="&#x2018;" horiz-adv-x="419" d="M88 889v229l162 258h119l-179 -258h134v-229h-236z" />
<glyph unicode="&#x2019;" horiz-adv-x="397" d="M45 924l176 239h-121v203h213v-203l-157 -239h-111z" />
<glyph unicode="&#x201a;" horiz-adv-x="397" d="M45 -240l176 240h-121v203h213v-203l-157 -240h-111z" />
<glyph unicode="&#x201c;" horiz-adv-x="716" d="M78 934v203l143 239h113l-164 -239h121v-203h-213zM410 934v203l143 239h113l-164 -239h121v-203h-213z" />
<glyph unicode="&#x201d;" horiz-adv-x="716" d="M51 924l164 239h-121v203h213v-203l-143 -239h-113zM383 924l164 239h-121v203h213v-203l-143 -239h-113z" />
<glyph unicode="&#x201e;" horiz-adv-x="716" d="M51 -240l164 240h-121v203h213v-203l-143 -240h-113zM383 -240l164 240h-121v203h213v-203l-143 -240h-113z" />
<glyph unicode="&#x2020;" d="M139 817v139h289v375h166v-375h289v-139h-289v-1136h-166v1136h-289z" />
<glyph unicode="&#x2021;" d="M139 352v140h289v339h-289v140h289v360h166v-360h289v-140h-289v-339h289v-140h-289v-671h-166v671h-289z" />
<glyph unicode="&#x2022;" horiz-adv-x="1366" d="M401 692q0 58 23 112q23 53 61 90q39 37 92 60q54 23 113 23q57 0 108 -23q52 -24 88 -61q38 -39 60 -90q23 -52 23 -109t-23 -111q-22 -53 -60 -90q-39 -39 -90 -61t-110 -22q-61 0 -111 22q-49 22 -90 61q-38 36 -61 89q-23 52 -23 110z" />
<glyph unicode="&#x2026;" horiz-adv-x="1296" d="M100 0v229h230v-229h-230zM532 0v229h230v-229h-230zM965 0v229h229v-229h-229z" />
<glyph unicode="&#x202f;" horiz-adv-x="353" />
<glyph unicode="&#x2030;" horiz-adv-x="1853" d="M51 1051q0 65 22 126q21 58 57 103q37 46 85 71q49 25 104 25q56 0 105 -25q48 -25 85 -71q34 -43 56 -105q21 -60 21 -131q0 -69 -21 -129t-55 -103q-36 -46 -84 -69q-50 -24 -104 -24q-58 0 -107 24q-46 23 -86 70q-34 41 -57 106q-21 60 -21 132zM152 0l798 1366h127 l-801 -1366h-124zM180 1049q0 -98 40 -157q41 -61 102 -61q58 0 98 61q39 60 39 155q0 94 -40 155q-41 62 -100 62q-58 0 -99 -62q-40 -61 -40 -153zM643 322q0 64 22 125q21 59 57 104q37 46 85 71q49 25 104 25q56 0 105 -25q48 -25 85 -71q34 -42 56 -106q21 -60 21 -130 q0 -69 -21 -129t-55 -103q-36 -46 -84 -69q-50 -24 -105 -24q-59 0 -108 24q-47 23 -85 70q-34 43 -56 105q-21 60 -21 133zM770 319q0 -97 40 -156q41 -61 101 -61q61 0 101 61q39 60 39 154q0 95 -40 156q-41 62 -100 62q-60 0 -101 -62q-40 -61 -40 -154zM1272 322 q0 66 21 125q21 57 58 104q37 46 85 71q49 25 104 25q56 0 105 -25t84 -71q33 -43 55 -106q20 -57 20 -130q0 -71 -19 -129q-20 -60 -55 -103q-38 -46 -84 -69q-48 -24 -104 -24q-58 0 -108 24q-47 23 -85 70q-36 45 -57 105q-20 57 -20 133zM1401 319q0 -97 40 -156 q41 -61 99 -61t98 61q39 60 39 154q0 95 -39 156q-39 62 -98 62q-58 0 -99 -62q-40 -61 -40 -154z" />
<glyph unicode="&#x2039;" horiz-adv-x="446" d="M63 483l216 484h120l-182 -484l182 -483h-120z" />
<glyph unicode="&#x203a;" horiz-adv-x="446" d="M47 0l184 483l-184 484h121l215 -484l-215 -483h-121z" />
<glyph unicode="&#x205f;" horiz-adv-x="441" />
<glyph unicode="&#x20ac;" horiz-adv-x="1034" d="M-6 483l45 115h94v53v66h-133l45 117h100q15 94 33 152q16 51 49 112q135 243 391 243q91 0 158 -29q70 -30 129 -91v96h131v-385h-133q-5 52 -14 91q-7 31 -25 64q-29 57 -87 88t-130 31q-259 0 -315 -372h526l-43 -117h-493v-55v-64h444l-45 -115h-389 q27 -186 102 -278q76 -94 197 -94q109 0 176 71q67 72 90 209h141q-6 -92 -38 -170q-31 -76 -87 -130t-130 -84q-75 -30 -162 -30q-197 0 -322 133q-126 134 -156 373h-149z" />
<glyph unicode="&#x2116;" horiz-adv-x="1863" d="M57 0v133h170v1100h-170v133h383l293 -524l97 -185l72 -136l61 -114l63 -122q-2 90 -2 132v124q0 89 -1 118t-1 65v32v22v455h-170v133h479v-133h-170v-1233h-162l-315 569l-322 602l5 -278v-129q2 -62 2 -81v-48v-502h170v-133h-482zM1303 106v134h505v-134h-505z M1303 643q0 136 68 217q69 82 185 82q115 0 184 -82q68 -81 68 -221q0 -139 -67 -221t-185 -82q-116 0 -185 83q-68 81 -68 224zM1436 641q0 -190 120 -190q119 0 119 188q0 92 -30 140t-89 48q-120 0 -120 -186z" />
<glyph unicode="&#x2122;" horiz-adv-x="1767" d="M12 1161v205h650v-205h-99v119h-164v-604h105v-84h-336v84h106v604h-163v-119h-99zM741 1282v84h289l105 -303l48 -149l48 -150q5 18 18 55q17 48 29 86q0 4 7 22l18 45q7 17 19 51l15 42l117 301h281v-84h-107v-606h107v-84h-338v84h108v295v125q0 39 2 149l-112 -301 l-125 -321h-109l-112 321l-48 138l-53 155v-66v-55v-74v-73v-293h107v-84h-312v84h107v606h-109z" />
<glyph unicode="&#xe000;" horiz-adv-x="962" d="M0 0v963h963v-963h-963z" />
<glyph horiz-adv-x="0" />
<glyph horiz-adv-x="0" />
</font>
</defs>
</svg>
