<?xml version="1.0" standalone="no"?>
<!DOCTYPE svg PUBLIC "-//W3C//DTD SVG 1.1//EN" "http://www.w3.org/Graphics/SVG/1.1/DTD/svg11.dtd" >
<svg xmlns="http://www.w3.org/2000/svg">
<metadata></metadata>
<defs>
<font id="corporate_e_w10_boldregular" horiz-adv-x="1024" >
<font-face units-per-em="2048" ascent="1509" descent="-539" />
<missing-glyph horiz-adv-x="512" />
<glyph unicode=" "  horiz-adv-x="512" />
<glyph unicode="&#x09;" horiz-adv-x="512" />
<glyph unicode="&#xa0;" horiz-adv-x="512" />
<glyph unicode="!" horiz-adv-x="477" d="M104 1331h271l-29 -913h-217zM109 0v260h262v-260h-262z" />
<glyph unicode="&#x22;" horiz-adv-x="729" d="M125 1366h205l-35 -459h-135zM397 1366h205l-35 -459h-135z" />
<glyph unicode="#" d="M0 426l29 184h174l26 178h-172l29 185h174l62 393h206l-61 -393h166l61 393h221l-61 -393h172l-29 -185h-172l-28 -178h172l-31 -184h-170l-68 -426h-223l68 426h-164l-68 -426h-209l68 426h-172zM410 610h165l27 178h-164z" />
<glyph unicode="$" horiz-adv-x="1064" d="M72 0v459h164q-2 -113 64 -195q65 -82 179 -106v454l-102 44q-57 25 -69 32q-6 4 -16 9t-17.5 9t-13.5 8q-31 19 -38 25q-139 108 -139 287q0 161 101 252q102 92 294 102v164h117v-162q57 -11 102 -33q39 -19 86 -61v86h144v-403h-142q-6 97 -55 156q-50 61 -135 83 v-383l107 -46q62 -27 70 -31q36 -20 45 -26l36 -24q150 -111 150 -319q0 -183 -105 -283q-104 -99 -303 -110v-195h-117v199q-32 5 -70 14q-26 6 -61 21q-31 13 -55 29q-27 18 -57 42v-98h-164zM307 1053q0 -33 7 -53q7 -21 26 -41q17 -18 52 -38q39 -22 87 -44v340 q-172 -28 -172 -164zM596 156q80 15 123 66q45 52 45 130q0 103 -80 160q-16 11 -31 18l-57 29v-403z" />
<glyph unicode="%" horiz-adv-x="1374" d="M45 1053q0 66 23 127q22 59 62 102q41 44 92 69t114 25q64 0 116 -24q50 -23 90 -69q38 -44 59 -105q22 -64 22 -134q0 -69 -22 -132q-21 -60 -58 -103q-39 -45 -88 -68q-51 -24 -113 -24q-67 0 -120 25q-52 25 -93 70q-38 42 -61 106q-23 63 -23 135zM205 0l792 1366 h166l-790 -1366h-168zM205 1051q0 -90 37 -142q38 -53 96 -53q56 0 91 51q34 50 34 140q0 85 -35 138q-34 52 -94 52q-57 0 -93 -51t-36 -135zM750 326q0 68 22 127q22 57 63 102q41 44 92 69t113 25q64 0 116 -24q50 -23 90 -69t60 -105q21 -62 21 -134t-21 -132 q-20 -58 -59 -103t-88 -68q-51 -24 -112 -24q-67 0 -120 25q-52 25 -93 70q-40 44 -62 105q-22 60 -22 136zM909 324q0 -90 37 -142q38 -53 96 -53t92 52q33 50 33 138q0 87 -34 139t-95 52q-57 0 -93 -51t-36 -135z" />
<glyph unicode="&#x26;" horiz-adv-x="1173" d="M23 338q0 116 59 213q60 99 190 199q-30 37 -60 86q-25 40 -39 73q-15 34 -21 68q-7 38 -7 70q0 62 25 121q23 54 69 97q41 39 104 62q61 23 132 23q67 0 128 -22q58 -21 100 -60q43 -40 65 -94q23 -57 23 -121q0 -89 -48 -170q-46 -77 -147 -154l223 -299q61 83 68 252 h278v-154h-123q-6 -84 -30 -147q-24 -64 -68 -115l72 -106h147v-160h-327l-62 84q-39 -29 -77 -51q-37 -21 -73 -33q-40 -13 -80 -17q-56 -6 -95 -6q-200 0 -314 96q-112 94 -112 265zM270 360q0 -88 57 -141q58 -53 150 -53q54 0 96 16q43 16 89 56l-261 346 q-131 -86 -131 -224zM385 1071q0 -39 18 -77t62 -85q115 77 115 164q0 40 -28 68q-26 26 -69 26t-70 -27q-28 -28 -28 -69z" />
<glyph unicode="'" horiz-adv-x="454" d="M125 1366h205l-35 -459h-135z" />
<glyph unicode="(" horiz-adv-x="550" d="M102 483q0 144 23 296q24 155 65 274q17 54 31 86q7 18 35 75q16 34 42 74q29 45 52 78h191q-34 -54 -52 -86t-40 -82q-21 -48 -34 -86q-18 -55 -28 -96q-29 -114 -45 -255q-16 -137 -16 -274q0 -145 17 -282q18 -149 46 -258q27 -102 61 -178q35 -79 91 -166h-191 q-248 344 -248 880z" />
<glyph unicode=")" horiz-adv-x="550" d="M12 -397q59 91 92 168q35 82 62 182q28 112 45 254q16 137 16 274q0 146 -17 283q-18 149 -46 258q-27 102 -61 178q-35 79 -91 166h191q248 -344 248 -881q0 -147 -24 -296q-24 -145 -65 -273q-28 -79 -31 -87q-10 -27 -34 -77q-17 -36 -42 -73l-52 -76h-191z" />
<glyph unicode="*" d="M209 1067l37 115l205 -66v215h122v-215l205 66l37 -115l-205 -68l127 -174l-98 -71l-127 174l-127 -174l-98 71l127 174z" />
<glyph unicode="+" horiz-adv-x="1064" d="M88 582v184h346v342h195v-342h346v-184h-346v-349h-195v349h-346z" />
<glyph unicode="," horiz-adv-x="479" d="M39 -270l213 270h-162v301h295v-301l-178 -270h-168z" />
<glyph unicode="-" horiz-adv-x="452" d="M0 465v119h453v-119h-453z" />
<glyph unicode="." horiz-adv-x="473" d="M86 0v301h303v-301h-303z" />
<glyph unicode="/" horiz-adv-x="833" d="M-123 -250l787 1616h170l-785 -1616h-172z" />
<glyph unicode="0" horiz-adv-x="1064" d="M61 678q0 318 124 494q125 178 347 178q225 0 350 -179q124 -178 124 -501q0 -330 -123 -508t-351 -178q-227 0 -349 179t-122 515zM317 672q0 -271 52 -396q51 -122 166 -122q112 0 163 121q52 124 52 391q0 268 -52 392q-51 122 -163 122q-115 0 -166 -121 q-52 -124 -52 -387z" />
<glyph unicode="1" horiz-adv-x="1064" d="M201 950v137q240 -2 309 256h180v-1177h174v-166h-614v166h182v784h-231z" />
<glyph unicode="2" horiz-adv-x="1064" d="M82 0v209l143 139l83 84q37 39 54 58q18 21 56 67q121 145 174 245t53 177q0 76 -49 124q-50 48 -127 48q-193 0 -205 -231h-172q1 203 112 317q110 113 304 113q86 0 161 -25q72 -24 124 -70q50 -44 79 -108t29 -141q0 -52 -13 -100t-42 -106q-28 -55 -75 -121 q-47 -65 -114 -144l-76 -88l-73 -77l-77 -76l-89 -83h446v172h170v-383h-876z" />
<glyph unicode="3" horiz-adv-x="1064" d="M66 365v20h198q7 -103 62 -159q52 -54 151 -54t160 66q61 65 61 168q0 76 -35 128q-36 53 -102 76q-22 8 -34 10q-23 4 -41 5q-25 2 -58 3q-23 1 -86 1v180q55 0 74 1q28 2 48 3q15 1 34 5q12 2 30 9q57 21 90 68t33 109q0 70 -48 117q-47 46 -124 46q-160 0 -184 -194 h-191q11 176 121 276q112 101 291 101q82 0 154 -25q68 -24 121 -69q51 -43 78 -104q28 -62 28 -132q0 -97 -46 -170q-48 -76 -134 -121q237 -79 237 -328q0 -92 -34 -167t-97 -132q-62 -56 -146 -87t-185 -31q-95 0 -173 27q-75 26 -134 79q-55 50 -88 121q-31 68 -31 154z " />
<glyph unicode="4" horiz-adv-x="1064" d="M31 346v189l516 808h233v-808h209v-189h-209v-180h142v-166h-533v166h148v180h-506zM225 535h312v258q1 35 2.5 89t1.5 67q1 26 2.5 67t1.5 43l2 53q-12 -28 -32 -70q-27 -55 -43 -85l-47 -87l-44 -77z" />
<glyph unicode="5" horiz-adv-x="1064" d="M102 356v27h179q11 -105 66 -160q57 -57 149 -57q104 0 170 79q65 78 65 204q0 123 -60 195q-61 73 -159 73q-63 0 -122 -31q-54 -28 -111 -98l-168 30l104 713h713l-39 -211h-529l-36 -309q63 49 121 68q60 20 139 20q88 0 164 -31q73 -30 126 -86q54 -57 83 -133 q30 -78 30 -172q0 -108 -36 -198q-37 -92 -98 -156q-62 -65 -150 -103q-84 -36 -189 -36q-89 0 -164 28t-131 78q-57 51 -86 118q-31 71 -31 148z" />
<glyph unicode="6" horiz-adv-x="1064" d="M82 461q0 123 48 254t149 289q65 99 132 185q80 102 134 159h243l-100 -120q-35 -41 -82 -106l-70 -101q-27 -39 -67 -106q42 11 54 12q24 3 55 3q88 0 162 -34q77 -36 128 -95q55 -64 84 -146q31 -87 31 -184q0 -106 -34 -195q-35 -90 -94 -154q-60 -65 -142 -102 q-79 -36 -181 -36q-101 0 -181 35q-82 36 -142 99q-58 61 -93 150q-34 87 -34 193zM338 461q0 -149 51 -228t143 -79q94 0 144 80q51 81 51 223q0 141 -51 222t-144 81q-92 0 -143 -80t-51 -219z" />
<glyph unicode="7" horiz-adv-x="1064" d="M92 918v413h858v-217l-577 -1114h-252l616 1092h-473v-174h-172z" />
<glyph unicode="8" horiz-adv-x="1064" d="M80 401q0 221 201 299q-87 38 -130 108q-45 73 -45 169q0 81 31 152q30 68 87 118q57 49 134 76q78 27 174 27q94 0 174 -27q78 -26 135 -76t87 -118q30 -69 30 -150q0 -205 -174 -279q105 -40 153 -113q48 -72 48 -186q0 -95 -32 -173t-91 -131q-61 -55 -143 -84 q-81 -29 -187 -29q-202 0 -319 104q-64 58 -98 139q-35 84 -35 174zM338 381q0 -107 52 -169t145 -62q91 0 140 61q50 62 50 172q0 108 -49 167q-49 60 -139 60q-93 0 -146 -60q-53 -61 -53 -169zM362 979q0 -97 46 -155q44 -56 124 -56q78 0 122 54q44 55 44 151 q0 99 -44 155t-124 56q-76 0 -122 -55t-46 -150z" />
<glyph unicode="9" horiz-adv-x="1064" d="M82 862q0 106 34 195q35 90 94 154q60 65 142 102q81 37 180 37q100 0 182 -36q80 -35 142 -100q58 -61 93 -151q34 -87 34 -193q0 -123 -48 -255q-46 -126 -151 -287q-63 -99 -135 -192t-131 -152h-242q110 128 180 221q72 96 140 211q-42 -11 -53 -12q-23 -3 -56 -3 q-88 0 -162 34q-77 36 -128 95q-55 64 -84 147q-31 88 -31 185zM338 874q0 -141 51 -222t143 -81q93 0 144 80q51 79 51 219q0 148 -51 229t-144 81q-92 0 -143 -81t-51 -225z" />
<glyph unicode=":" horiz-adv-x="473" d="M86 0v301h303v-301h-303zM86 598v301h303v-301h-303z" />
<glyph unicode=";" horiz-adv-x="479" d="M39 -270l213 270h-162v301h295v-301l-178 -270h-168zM90 598v301h303v-301h-303z" />
<glyph unicode="&#x3c;" d="M68 590v213l886 448v-252l-620 -303l620 -305v-250z" />
<glyph unicode="=" horiz-adv-x="1064" d="M88 422v170h887v-170h-887zM88 752v170h887v-170h-887z" />
<glyph unicode="&#x3e;" d="M68 141v250l620 305l-620 305v248l886 -448v-213z" />
<glyph unicode="?" horiz-adv-x="845" d="M68 967q6 104 24 161q18 58 62 103q52 60 131 90q81 31 170 31q157 0 252 -83q94 -82 94 -222q0 -45 -8 -85q-7 -35 -33 -77q-20 -33 -69 -85l-113 -114q-40 -40 -53 -55q-18 -21 -28 -47q-10 -27 -13 -59q-3 -35 -3 -87v-26h-235v49q0 73 3 117t23 81t62 87 q40 48 119 128q45 46 63 81q19 36 19 71q0 45 -32 74q-31 28 -85 28q-136 0 -148 -161h-202zM246 0v260h262v-260h-262z" />
<glyph unicode="@" horiz-adv-x="1366" d="M2 672q0 150 55 279q56 132 153 226q98 95 228 150q129 55 283 55q137 0 255 -45t204 -125q85 -79 135 -188q49 -107 49 -238q0 -88 -28 -177q-26 -82 -74 -149q-46 -64 -108 -104q-60 -39 -128 -39q-52 0 -98 29q-45 29 -62 74q-41 -53 -108 -86q-68 -33 -142 -33 q-59 0 -114 25q-54 25 -92 67q-40 45 -62 103q-22 59 -22 127q0 82 29 153q30 74 79 130q48 55 114 89q64 33 136 33q64 0 113 -23q50 -24 84 -65l12 68h188l-75 -390q-2 -12 -4 -23.5t-3.5 -21.5t-2.5 -14q-3 -18 -3 -29q0 -57 41 -57q28 0 58 28q27 25 52 71q22 40 38 101 q14 53 14 113q0 92 -35 173q-34 79 -96 136q-61 56 -148 87q-86 30 -188 30q-115 0 -214 -42q-101 -43 -172 -114q-73 -73 -115 -172t-42 -214q0 -106 39 -205q38 -97 111 -170q72 -71 166 -106q90 -33 225 -33q102 0 185 14q96 16 188 47l43 -172q-95 -32 -198 -46 q-108 -15 -226 -15q-305 0 -502 180q-102 96 -159 229q-56 131 -56 279zM539 627q0 -61 34 -98t93 -37q34 0 63 16q30 17 53 44q22 26 37 63q15 36 15 77q0 60 -35 98q-34 37 -88 37q-37 0 -66 -16t-54 -44q-22 -25 -38 -65q-14 -35 -14 -75z" />
<glyph unicode="A" horiz-adv-x="1431" d="M12 0v170h174l396 1200h280l383 -1200h176v-170h-596v170h148l-76 242h-442l-78 -242h147v-170h-512zM506 590h340l-74 268l-24 87l-20 75l-18 75q-13 55 -20 87l-22 -87q-14 -50 -22 -74l-22 -74l-28 -89z" />
<glyph unicode="B" horiz-adv-x="1232" d="M51 0v170h170v1026h-170v170h449q86 0 182 -2q58 -1 118 -7q43 -4 77 -16q43 -15 61 -24q79 -40 123 -118q43 -76 43 -175q0 -111 -50 -181q-50 -69 -163 -110q138 -33 208 -118t70 -216q0 -122 -61 -214q-62 -94 -172 -140q-27 -14 -66 -22q-50 -11 -85 -14 q-64 -6 -120 -7q-94 -2 -173 -2h-441zM481 182h97q97 0 151 8q49 7 84 31q84 57 84 182q0 60 -24 107q-25 49 -64 76q-29 20 -81 28q-59 9 -144 9h-103v-441zM481 805h103q137 0 198 44q60 43 60 148q0 60 -24 102t-66 62q-31 14 -65 18q-42 5 -105 5h-101v-379z" />
<glyph unicode="C" horiz-adv-x="1267" d="M63 676q0 192 56 340t160 239q76 66 179 103q102 37 214 37q100 0 181 -26q78 -25 155 -81v78h182v-446h-178q-7 55 -19 99t-30 73q-34 57 -102 89q-65 31 -150 31q-369 0 -369 -530q0 -255 89 -392q88 -136 261 -136q134 0 217 90q82 89 97 256h192q-2 -105 -21 -177 q-20 -73 -61 -137q-67 -106 -178 -160q-113 -55 -258 -55t-259 48t-194 140q-81 93 -122 221q-42 130 -42 296z" />
<glyph unicode="D" horiz-adv-x="1312" d="M51 0v170h170v1026h-170v170h422q82 0 172 -2q54 -1 114 -7q40 -4 80 -16q35 -11 70 -26q81 -36 142 -97q65 -65 107 -145q45 -85 68 -181q23 -95 23 -210q0 -124 -28 -230q-28 -104 -82 -193q-50 -82 -128 -144q-73 -59 -169 -86q-39 -12 -61 -16q-32 -5 -65 -8 q-28 -2 -94 -4q-38 -1 -149 -1h-422zM483 182h68q89 0 135 7q47 7 88 26q102 47 158 170q55 122 55 297q0 183 -58 306t-167 167q-40 17 -83 23q-47 6 -128 6h-68v-1002z" />
<glyph unicode="E" horiz-adv-x="1130" d="M51 0v170h170v1026h-170v170h1004v-350h-176v168h-396v-379h420v-182h-420v-441h414v221h176v-403h-1022z" />
<glyph unicode="F" horiz-adv-x="1077" d="M51 0v170h170v1026h-170v170h1004v-350h-176v168h-396v-379h420v-182h-420v-453h217v-170h-649z" />
<glyph unicode="G" horiz-adv-x="1359" d="M63 672q0 400 220 585q78 66 178 102t211 36q198 0 332 -107v78h182v-446h-180q-6 142 -83 218q-75 74 -218 74q-183 0 -276 -135t-93 -401q0 -256 92 -390t268 -134q76 0 143 20q72 22 130 59v283h-152v168h533v-168h-133v-360q-231 -183 -523 -183q-301 0 -466 183 t-165 518z" />
<glyph unicode="H" horiz-adv-x="1460" d="M51 0v170h170v1026h-170v170h594v-170h-172v-387h514v387h-172v170h594v-170h-170v-1026h170v-170h-594v170h172v457h-514v-457h172v-170h-594z" />
<glyph unicode="I" horiz-adv-x="706" d="M51 0v170h170v1026h-170v170h604v-170h-172v-1026h172v-170h-604z" />
<glyph unicode="J" horiz-adv-x="724" d="M-6 -66q103 1 158 22q53 20 75 62q2 4 5.5 13t5.5 14q4 12 6 39q2 36 2 76v137v899h-170v170h604v-170h-172v-899q0 -124 -10 -197q-10 -74 -33 -135q-39 -104 -135 -160q-95 -55 -232 -55q-20 0 -48 2q-22 2 -56 6v176z" />
<glyph unicode="K" horiz-adv-x="1404" d="M51 0v170h170v1026h-170v170h563v-170h-149v-481l446 481h-114v170h516v-170h-176l-308 -348l385 -678h162v-170h-567v170h102l-245 526l-213 -227v-299h151v-170h-553z" />
<glyph unicode="L" horiz-adv-x="1091" d="M51 0v170h170v1026h-170v170h604v-170h-172v-1014h408v219h184v-401h-1024z" />
<glyph unicode="M" horiz-adv-x="1818" d="M51 0v170h170v1026h-170v170h545l158 -481q8 -24 11 -36l11 -39l15 -50l18 -68l51 -192q12 -40 16 -59l25 -107q27 113 38 154l35 128q16 55 39 127q13 41 52 152l168 471h534v-170h-170v-1026h170v-170h-598v170h170v489q0 45 1 106q2 92 3 259l3 145l-99 -298 l-100 -298l-186 -573h-187l-178 561l-94 293l-94 293v-141v-119v-121v-119v-477h170v-170h-527z" />
<glyph unicode="N" horiz-adv-x="1456" d="M51 0v170h170v1026h-170v170h461l272 -481q1 -2 25 -44l45 -83l135 -258q22 -46 34 -67l34 -64v125v102v102v101v397h-172v170h524v-170h-170v-1196h-248l-293 526q-2 5 -11 21t-15 28l-47 89l-109 205l-113 208v-133v-110v-111v-111v-442h172v-170h-524z" />
<glyph unicode="O" horiz-adv-x="1361" d="M63 694q0 156 45 289q44 130 123 221q80 92 195 142q113 49 256 49q145 0 258 -49q115 -50 195 -142q78 -89 122 -224q43 -130 43 -296t-43 -296q-44 -135 -122 -224q-80 -92 -195 -142q-117 -51 -256 -51q-147 0 -260 49q-116 51 -195 144q-80 95 -123 227t-43 303z M342 690q0 -265 86 -401q86 -135 254 -135q166 0 253 135t87 395q0 258 -87 393t-253 135t-253 -134q-87 -133 -87 -388z" />
<glyph unicode="P" horiz-adv-x="1140" d="M51 0v170h170v1026h-170v170h502q50 0 120 -2q47 -1 92 -8q38 -6 72 -17q39 -13 60 -24q101 -50 158 -147t57 -220q0 -71 -17 -129q-17 -60 -51 -113q-35 -55 -78 -93q-44 -38 -104 -62q-31 -13 -56 -20q-20 -5 -62 -11q-35 -5 -78 -6q-60 -2 -107 -2h-76v-342h195v-170 h-627zM483 694h68q38 0 82 2q26 1 57 7q17 3 43 14q20 8 35 22q76 63 76 201q0 162 -103 215q-31 17 -69 23q-39 6 -121 6h-68v-490z" />
<glyph unicode="Q" horiz-adv-x="1361" d="M63 684q0 166 43 296q44 133 123 224q80 92 195 142q113 49 258 49q143 0 256 -49q114 -50 196 -142q78 -88 123 -223q43 -129 43 -293q0 -232 -81 -401l260 -287h-308l-90 106q-101 -71 -192 -103t-205 -32q-145 0 -258 49q-114 50 -196 142q-80 90 -124 224 q-43 130 -43 298zM342 690q0 -265 86 -401q86 -135 254 -135q166 0 253 135t87 395q0 258 -87 393t-253 135t-253 -134q-87 -133 -87 -388z" />
<glyph unicode="R" horiz-adv-x="1290" d="M51 0v170h170v1026h-170v170h479q90 0 156 -3q67 -3 113 -9q47 -6 83 -18q43 -14 66 -27q98 -50 151 -143q52 -91 52 -214q0 -249 -221 -350l186 -432h168v-170h-385l-194 563h-232v-393h150v-170h-572zM483 752h88q39 0 87 2q36 2 63 6q31 5 45 11q18 7 35 20 q82 57 82 176q0 67 -28 120q-27 51 -81 74q-33 14 -72 18q-48 5 -122 5h-97v-432z" />
<glyph unicode="S" horiz-adv-x="1015" d="M39 1028q0 80 30 148t84 114q55 47 129 74q75 27 167 27t164 -27q76 -29 135 -86v88h141v-395h-139q-12 116 -78 176q-65 59 -180 59q-91 0 -144 -41t-53 -110q0 -29 8 -55q7 -23 32 -45q26 -23 63 -42q27 -14 104 -47q141 -61 227 -108q81 -44 125 -88 q111 -108 111 -287q0 -89 -31 -167q-30 -74 -86 -129q-57 -55 -134 -83q-81 -29 -175 -29q-106 0 -185 31q-72 28 -147 105v-111h-144v459h144q0 -68 23 -120q24 -53 65 -93q42 -41 97 -61q57 -21 124 -21q94 0 150 51q55 51 55 139q0 44 -16 80t-46 60q-19 15 -25 19 q-8 5 -36 19l-71 34l-130 59l-98 45q-42 19 -67 36l-48 32q-18 13 -41 36q-50 48 -77 115q-27 66 -27 139z" />
<glyph unicode="T" horiz-adv-x="1196" d="M16 961v405h1164v-405h-185v223h-264v-1014h170v-170h-604v170h172v1014h-268v-223h-185z" />
<glyph unicode="U" horiz-adv-x="1415" d="M43 1196v170h604v-170h-172v-627v-120q0 -35 2 -67q1 -21 5 -36q1 -4 10 -31q24 -73 90 -114q67 -41 157 -41q102 0 172 47q71 48 93 131q4 15 6 27l4 32q2 28 2 55v93v651h-172v170h528v-170h-170v-655q0 -220 -53 -328q-56 -115 -173 -179q-116 -63 -267 -63 q-164 0 -290 73q-123 71 -173 202q-11 29 -18 52t-10 61q-2 27 -4 87q-1 34 -1 132v618h-170z" />
<glyph unicode="V" horiz-adv-x="1425" d="M6 1196v170h598v-170h-147l301 -938l293 938h-146v170h516v-170h-178l-389 -1196h-283l-391 1196h-174z" />
<glyph unicode="W" horiz-adv-x="1830" d="M6 1196v170h588v-170h-166l88 -401l29 -147q13 -66 21 -118l18 -108l18 -117l50 249l69 327l119 485h207l114 -489l72 -335q41 -192 49 -237l34 171l23 114q11 50 21 93l24 108l93 405h-168v170h518v-170h-174l-277 -1196h-250l-108 489l-49 266l-51 267l-58 -266 l-29 -135l-30 -132l-111 -489h-248l-264 1196h-172z" />
<glyph unicode="X" horiz-adv-x="1337" d="M23 0v170h172l342 528l-271 498h-184v170h387l233 -473l179 303h-115v170h510v-170h-172l-307 -469l317 -557h189v-170h-418l-250 532l-217 -362h137v-170h-532z" />
<glyph unicode="Y" horiz-adv-x="1241" d="M-4 1196v170h612v-170h-141l192 -432l197 432h-141v170h532v-170h-190l-307 -641v-385h172v-170h-605v170h170v379l-315 647h-176z" />
<glyph unicode="Z" horiz-adv-x="1001" d="M37 0v170l590 1014h-389v-172h-185v354h883v-170l-588 -1014h418v205h184v-387h-913z" />
<glyph unicode="[" horiz-adv-x="550" d="M131 -397v1763h410v-199h-195v-1364h195v-200h-410z" />
<glyph unicode="\" horiz-adv-x="833" d="M0 1366h172l784 -1616h-170z" />
<glyph unicode="]" horiz-adv-x="550" d="M12 -199h195v1364h-195v201h410v-1763h-410v198z" />
<glyph unicode="^" d="M14 692l332 680h332l332 -680h-265l-233 479l-233 -479h-265z" />
<glyph unicode="_" d="M0 -98h1024v-228h-1024v228z" />
<glyph unicode="`" d="M104 1380h312l276 -266h-272z" />
<glyph unicode="a" horiz-adv-x="1028" d="M51 254q0 97 59 176q59 78 166 129q13 6 37 16t25 10q16 7 63 21q32 10 82 21q32 7 117 22v25q0 48 -5 75q-4 21 -20 39q-40 35 -122 35q-103 0 -150 -51q-14 -20 -23 -47q-7 -23 -12 -78h-178l16 189q133 151 365 151q198 0 299 -98q25 -22 42 -46t24 -56q9 -40 10 -85 q2 -68 2 -133v-409h139v-160h-371v133q-99 -153 -276 -153q-67 0 -117 20q-57 23 -91 57q-38 38 -59 87q-22 52 -22 110zM307 287q0 -53 33 -86t86 -33q49 0 94 25q42 23 64 65q12 24 15 54t3 102v96q-153 -39 -224 -92t-71 -131z" />
<glyph unicode="b" horiz-adv-x="1150" d="M23 1210v160h378v-551q91 168 275 168q86 0 164 -38q75 -37 130 -104t85 -159q30 -91 30 -203q0 -109 -30 -200t-85 -160q-56 -70 -130 -106q-75 -37 -164 -37q-184 0 -275 167l-12 -147h-217v1210h-149zM424 487q0 -342 203 -342q202 0 202 338t-202 338 q-203 0 -203 -334z" />
<glyph unicode="c" horiz-adv-x="954" d="M70 473q0 114 32 204q33 94 92 163q58 69 138 108t172 39q135 0 219 -92v80h168v-340h-168q-15 87 -63 133q-49 47 -119 47q-99 0 -151 -87q-52 -86 -52 -253q0 -323 197 -323q66 0 105 35t62 118h203q-23 -161 -120 -243t-261 -82q-104 0 -186 35t-143 101 q-61 65 -93 155q-32 89 -32 202z" />
<glyph unicode="d" horiz-adv-x="1169" d="M68 483q0 111 30 203t85 159t129 104q76 38 165 38q181 0 273 -168v391h-148v160h377v-1210h149v-160h-378v147q-91 -167 -273 -167q-91 0 -165 37t-129 106t-85 160t-30 200zM322 487q0 -342 204 -342q201 0 201 338t-203 338q-202 0 -202 -334z" />
<glyph unicode="e" horiz-adv-x="1046" d="M68 483q0 116 32 206q34 95 93 160q61 67 144 102q85 36 187 36t187 -35q82 -34 143 -99q58 -62 92 -154q33 -88 33 -199q0 -23 -1 -31q-3 -22 -5 -31h-631q1 -159 49 -226q47 -67 158 -67q161 0 188 164h232q0 -69 -32 -130q-32 -60 -89 -104q-59 -45 -134 -70t-165 -25 q-113 0 -198 36q-88 37 -151 103q-64 67 -98 159t-34 205zM344 592h356l2 31q0 198 -167 198q-176 0 -191 -229z" />
<glyph unicode="f" horiz-adv-x="696" d="M51 0v160h150v637h-150v170h150v65q0 52 3 89q3 42 10 67q8 31 20 51t32 45q85 98 242 98q57 0 98 -10q45 -11 90 -37v-190q-48 33 -78 46q-26 11 -61 11t-61 -19t-37 -55q-3 -11 -5 -31q-1 -12 -1 -65v-65h225v-170h-225v-637h172v-160h-574z" />
<glyph unicode="g" horiz-adv-x="995" d="M25 -121q0 85 47 137q47 51 155 86q-56 21 -80 48t-24 67q0 53 37 83q36 29 137 56q-207 96 -207 289q0 58 21 109q22 54 56 92q36 41 86 68q51 28 109 38l48 7q27 4 48 5q10 1 32.5 1.5t34.5 0.5q27 1 104 1h336v-142h-199q100 -79 100 -207q0 -125 -74 -190t-249 -92 q-56 -8 -65 -10q-6 -1 -37 -8q-11 -2 -20 -6q-7 -3 -15 -9q-25 -16 -25 -41q0 -29 35 -41q5 -3 15 -5l22 -3q6 -1 20 -2.5t19 -2.5q24 -3 69 -9q124 -16 179 -29q67 -16 110 -41q52 -29 79 -82q27 -52 27 -123q0 -165 -122 -251q-123 -87 -353 -87q-221 0 -339 76 q-117 76 -117 217zM233 -106q0 -66 67 -104t183 -38q121 0 189 38q67 37 67 104q0 66 -67 100q-68 35 -191 35q-116 0 -182 -36t-66 -99zM315 643q0 -69 45 -113q44 -43 119 -43q73 0 117 43q45 44 45 115q0 68 -44 110q-43 42 -116 42t-119 -43q-47 -44 -47 -111z" />
<glyph unicode="h" horiz-adv-x="1214" d="M51 0v160h150v1050h-150v160h402v-532q98 149 268 149q92 0 166 -38t108 -103q17 -34 21 -45q8 -23 11 -49q2 -21 4 -74q1 -30 1 -121v-397h150v-160h-525v160h123v389q0 47 -1 64q0 8 -0.5 22.5t-1.5 20.5q-2 20 -4 29q-3 11 -9 22q-34 69 -133 69q-108 0 -154 -88 q-15 -26 -19 -60q-5 -38 -5 -93v-375h122v-160h-524z" />
<glyph unicode="i" horiz-adv-x="643" d="M51 0v160h150v647h-150v160h402v-807h149v-160h-551zM168 1130v232h274v-232h-274z" />
<glyph unicode="j" horiz-adv-x="657" d="M-6 -266h9q145 0 190 65q12 18 18 33t9 48q3 34 3 97v181v649h-149v160h401v-807q0 -84 -2 -168q-1 -52 -7 -104q-4 -38 -14 -64q-9 -24 -26 -55q-51 -94 -146 -144q-94 -49 -229 -49h-28q-14 0 -29 4v154zM188 1130v232h275v-232h-275z" />
<glyph unicode="k" horiz-adv-x="1179" d="M51 0v160h150v1050h-150v160h393v-868l289 305h-112v160h479v-160h-139l-187 -213l268 -434h115v-160h-323l-244 434l-150 -170v-104h142v-160h-531z" />
<glyph unicode="l" horiz-adv-x="643" d="M51 0v160h150v1050h-150v160h402v-1210h149v-160h-551z" />
<glyph unicode="m" horiz-adv-x="1740" d="M51 0v160h150v647h-150v160h383v-164q56 99 122 142q64 42 165 42q97 0 164 -38q65 -37 106 -122q47 84 113 122q67 38 164 38t170 -44q72 -43 102 -122q6 -18 9 -28q4 -15 5 -36q0 -5 1 -16.5t2 -23.5t1 -24q1 -27 1 -109v-424h147v-160h-492v160h95v411q0 49 -1 64 q-1 21 -3 37q-1 8 -6 21q-3 7 -9 18q-18 29 -54 47t-81 18q-47 0 -84 -21q-36 -20 -53 -59q-4 -9 -7 -20q-4 -13 -5 -24q-2 -18 -2 -36v-57v-399h94v-160h-436v160h92v391v71q0 30 -1 40q-1 14 -3 22q-1 3 -7 18q-16 36 -49 55q-34 19 -82 19q-51 0 -88 -20q-39 -21 -55 -58 q-9 -19 -14 -54q-4 -28 -4 -95v-389h92v-160h-492z" />
<glyph unicode="n" horiz-adv-x="1191" d="M51 0v160h150v647h-150v160h385v-166q52 97 118 142q65 44 161 44q84 0 154 -41q69 -41 108 -112q8 -16 17 -41q8 -23 11 -50q2 -22 4 -73q1 -30 1 -115v-395h149v-160h-493v160h92v389q0 51 -1 69q0 7 -0.5 21.5t-1.5 20.5q-2 19 -4 25t-8 20q-30 71 -120 71 q-47 0 -87 -22q-39 -22 -61 -64q-13 -29 -17 -56q-5 -33 -5 -89v-385h92v-160h-494z" />
<glyph unicode="o" horiz-adv-x="1091" d="M68 492q0 118 37 214t110 160q66 60 152 90q88 31 180 31q90 0 178 -31q86 -30 152 -90q147 -135 147 -383q0 -124 -37 -220q-38 -98 -110 -163q-67 -58 -152 -89q-84 -31 -178 -31q-96 0 -180 31q-85 31 -152 89q-147 134 -147 392zM348 492q0 -178 47 -260 q46 -80 152 -80q103 0 149 80q47 82 47 255q0 171 -47 253q-46 81 -149 81q-199 0 -199 -329z" />
<glyph unicode="p" horiz-adv-x="1179" d="M51 -244h150v1051h-150v160h379v-148q92 168 275 168q86 0 162 -38q75 -37 129 -105q55 -69 85 -160q31 -95 31 -201q0 -107 -31 -202q-30 -92 -85 -159q-56 -69 -129 -105q-74 -37 -162 -37q-184 0 -275 167v-391h156v-159h-535v159zM453 487q0 -342 202 -342 q201 0 201 338t-203 338q-200 0 -200 -334z" />
<glyph unicode="q" horiz-adv-x="1179" d="M68 483q0 109 30 201q30 91 85 160q54 68 129 105q76 38 163 38q187 0 275 -168v148h378v-160h-149v-1051h149v-159h-534v159h156v391q-91 -167 -275 -167q-89 0 -163 37q-73 36 -129 105q-55 67 -85 159q-30 91 -30 202zM322 487q0 -342 202 -342q203 0 203 338 t-203 338q-202 0 -202 -334z" />
<glyph unicode="r" horiz-adv-x="858" d="M51 0v160h150v647h-150v160h385v-160q59 93 113 130q52 36 131 36q45 0 81 -10t97 -39v-267h-149q-17 73 -42 101t-69 28q-42 0 -78 -33q-37 -34 -49 -85q-9 -33 -14 -99q-4 -55 -4 -172v-237h172v-160h-574z" />
<glyph unicode="s" horiz-adv-x="876" d="M57 0v346h160q16 -96 76 -151q61 -56 145 -56q59 0 97 32q36 30 36 83q0 22 -7 37q-8 17 -25 30q-16 12 -53 25q-49 17 -87 29q-104 28 -172 58q-58 26 -90 59q-71 75 -71 188q0 65 24 122q22 53 69 98q43 42 104 66q58 23 130 23q76 0 129 -26q56 -27 101 -80v90h168 v-309h-168q-4 75 -49 120q-43 43 -121 43q-61 0 -99 -28q-39 -29 -39 -76q0 -15 7 -33q5 -14 24 -26q17 -12 50 -24q18 -7 83 -26l103 -31q42 -13 73 -27q36 -16 54 -27q27 -16 41 -29q33 -28 55 -80q20 -49 20 -113q0 -73 -25 -132q-24 -58 -73 -103q-47 -44 -112 -68 t-142 -24q-88 0 -147 31q-60 31 -105 104v-115h-164z" />
<glyph unicode="t" horiz-adv-x="698" d="M35 797v170h139v284h252v-284h227v-170h-227v-402v-76q0 -23 2 -47l4 -28q2 -12 6 -19q24 -57 92 -57q28 0 57 8q20 6 66 25v-195q-45 -13 -94 -20q-43 -6 -90 -6q-198 0 -264 139q-12 24 -17 39q-6 18 -9 45q-2 20 -4 64q-1 25 -1 100v430h-139z" />
<glyph unicode="u" horiz-adv-x="1206" d="M35 807v160h399v-521q0 -66 1 -86q1 -30 3 -48q1 -15 5 -26q2 -6 10 -22q17 -35 52 -54q37 -20 83 -20q53 0 94 23q40 23 63 63q12 25 16 62q5 43 5 108v361h-150v160h400v-807h149v-160h-372v166q-52 -97 -121 -142q-68 -44 -164 -44q-112 0 -195 56q-84 57 -112 152 q-3 11 -7 31q-4 19 -5 40q-1 9 -1.5 32.5t-0.5 35.5q-2 43 -3 113v367h-149z" />
<glyph unicode="v" horiz-adv-x="1126" d="M0 807v160h543v-160h-117l90 -264q28 -79 54 -165q27 -92 38 -145l19 74q7 31 24 82l25 76l24 78l93 264h-115v160h448v-160h-153l-297 -813h-211l-315 813h-150z" />
<glyph unicode="w" horiz-adv-x="1601" d="M0 807v160h516v-160h-108l57 -254l70 -320l36 160l29 126q11 49 18 83l7 31l86 334h252l84 -351l43 -202l38 -191l39 164l39 162l66 258h-111v160h441v-160h-158l-217 -813h-260l-84 336l-7 27q0 2 -3 12.5t-5 18.5l-11 52l-19 92l-21 103l-20 100q-5 -32 -15 -79 q-20 -95 -23 -107l-27 -116l-23 -103l-88 -336h-254l-213 813h-154z" />
<glyph unicode="x" horiz-adv-x="1126" d="M6 0v160h182l267 334l-219 313h-166v160h370l164 -291l103 143h-91v148h476v-160h-174l-236 -291l264 -356h174v-160h-387l-196 340l-138 -193h117v-147h-510z" />
<glyph unicode="y" horiz-adv-x="1107" d="M-6 807v160h549v-160h-123l88 -256q8 -20 22 -68l26 -87q3 -12 25 -90q9 -32 17 -77q4 24 12 64q3 14 21 80q16 58 26 88q20 60 31 90l90 256h-116v160h450v-160h-151l-297 -813l-60 -153q-19 -47 -41 -90q-16 -31 -38 -53q-19 -19 -46 -40q-111 -84 -315 -84h-32 q-19 0 -44 4v170q22 -2 32 -2h19q72 0 123 9q49 9 88 29t62 53q26 37 41 83l10 33l-309 854h-160z" />
<glyph unicode="z" horiz-adv-x="862" d="M33 154l434 643h-246v-148h-176v318h733v-156l-448 -641h307v176h180v-346h-782z" />
<glyph unicode="{" horiz-adv-x="550" d="M29 410v159q60 16 88 56q26 38 26 116v340q0 152 73 219q72 66 245 66h31q13 0 45 -2v-168q-63 0 -100 -6q-38 -6 -59 -24q-22 -19 -29 -50t-7 -84v-303q0 -49 -6 -86q-6 -34 -20 -65q-16 -33 -36 -52q-22 -21 -57 -43q67 -40 93 -95t26 -152v-297q0 -51 6 -83 q6 -31 25 -50q16 -16 52 -24q35 -8 91 -9l21 -2v-168h-68q-90 0 -153 15q-62 15 -101 51t-55 92q-17 59 -17 139v323q0 89 -25 129q-26 42 -89 58z" />
<glyph unicode="|" d="M385 -342v1708h252v-1708h-252z" />
<glyph unicode="}" horiz-adv-x="550" d="M14 -227q58 0 100 5q37 4 59 23q21 18 29 51q7 29 7 85v303q0 48 6 86q6 34 20 65q14 30 35 51q20 20 58 43q-68 41 -94 95q-25 51 -25 153v295q0 55 -7 86q-8 34 -28 51q-23 19 -58 25q-38 6 -102 6v170h68q89 0 152 -15q62 -15 101 -52q37 -36 55 -92q18 -57 18 -138 v-326q0 -87 25 -128t89 -56v-162q-62 -15 -88 -54t-26 -118v-338q0 -154 -73 -221q-71 -65 -245 -65l-76 2v170z" />
<glyph unicode="~" horiz-adv-x="1366" d="M184 494q4 4 5 11q1 6 6 11q1 5 6 10q12 29 34 73q17 35 29 51q18 25 30 37q17 17 36 32q67 53 162 53q36 0 86 -12q41 -10 127 -43q60 -22 72 -26q30 -10 46 -14q25 -6 32 -7q18 -2 30 -2q53 0 82 22t69 86l144 -84q-42 -89 -74 -135q-30 -44 -74 -74q-81 -59 -176 -59 q-29 0 -74 12q-35 9 -131 43l-74 27q-23 9 -47 15q-19 5 -29 6q-8 1 -26 1q-51 0 -81 -26t-70 -101z" />
<glyph unicode="&#xa4;" horiz-adv-x="1366" d="M82 1182l108 106l201 -201q73 52 144 77q69 24 149 24q78 0 145 -23q65 -22 142 -75l203 198l106 -106l-201 -199q55 -79 78 -146t23 -145q0 -77 -23 -144q-22 -66 -74 -140l201 -201l-106 -109l-201 201q-139 -100 -291 -100q-80 0 -145 23q-66 23 -150 77l-198 -201 l-107 109l199 201q-99 129 -99 286q0 78 23 145q22 64 76 140zM365 696q0 -67 24 -127q23 -57 68 -102q44 -44 101 -69t126 -25q67 0 123 25t100 69t69 101t25 124q0 69 -25 126q-26 58 -69 102q-42 42 -100 68t-123 26q-64 0 -124 -26q-58 -26 -101 -68q-43 -43 -69 -101 q-25 -56 -25 -123z" />
<glyph unicode="&#xa6;" d="M385 313h252v-655h-252v655zM385 659v707h252v-707h-252z" />
<glyph unicode="&#xa7;" d="M86 18v21q0 8 2 24h182q6 -227 219 -227q87 0 134 35t47 98q0 40 -22 71q-19 27 -75 64q-1 1 -7.5 5t-10.5 6l-39 23l-83 48l-148 84q-104 61 -149 128q-46 68 -46 159q0 81 39 140t129 108q-60 49 -85 103q-26 55 -26 126q0 69 29 127q29 57 79 100q47 40 121 65 q70 24 154 24q89 0 168 -28q74 -26 127 -81q48 -48 67 -105t19 -147v-17q0 -10 -2 -26h-172v25q0 104 -46 153q-47 50 -144 50q-75 0 -118 -33q-44 -33 -44 -88q0 -58 74 -111q5 -4 15 -10q2 -1 11 -7t16 -10q20 -13 59 -34l112 -64l81 -47q27 -15 53 -34q24 -17 36 -28 q4 -3 30 -32q31 -36 49 -80q17 -42 17 -94q0 -87 -40 -149q-39 -61 -126 -111q74 -61 106 -117q29 -51 29 -131q0 -77 -28 -137q-29 -63 -81 -106q-53 -44 -125 -68q-75 -25 -163 -25q-94 0 -174 26q-78 26 -133 73q-56 48 -86 115q-31 68 -31 146zM305 594q0 -44 28 -78 q27 -33 99 -72l73 -42l128 -72q42 17 66 50q26 35 26 75q0 43 -30 73q-35 35 -117 78q-27 13 -61 33l-124 72q-88 -34 -88 -117z" />
<glyph unicode="&#xa9;" horiz-adv-x="1540" d="M63 692q0 144 57 272q59 131 152 223q94 93 226 151q129 57 274 57q148 0 276 -57q130 -58 224 -152q95 -95 151 -227t56 -277q0 -146 -56 -276q-57 -132 -151 -226t-224 -152q-128 -57 -274 -57q-149 0 -278 57q-133 59 -226 153q-94 96 -151 229q-56 132 -56 282z M174 692q0 -129 46 -242q47 -116 128 -198q82 -84 191 -132q108 -48 235 -48q124 0 232 48t188 131q81 84 127 194q47 112 47 239q0 125 -47 237q-46 111 -128 194t-189 131q-108 48 -232 48q-123 0 -231 -48q-111 -49 -190 -130q-82 -83 -129 -191q-48 -109 -48 -233z M395 678q0 198 98 314t265 116q58 0 102 -15q40 -14 92 -53v52h119v-273h-117q-11 93 -51 133q-41 41 -121 41q-211 0 -211 -313q0 -148 52 -229q51 -80 149 -80q162 0 180 204h123q-1 -71 -12 -113q-11 -43 -39 -83q-86 -123 -258 -123t-272 112q-99 111 -99 310z" />
<glyph unicode="&#xab;" horiz-adv-x="851" d="M63 483l211 484h187l-187 -484l187 -483h-187zM416 483l213 484h184l-184 -484l184 -483h-184z" />
<glyph unicode="&#xac;" d="M68 311v236h886v-547h-252v311h-634z" />
<glyph unicode="&#xad;" horiz-adv-x="452" d="M0 465v119h453v-119h-453z" />
<glyph unicode="&#xae;" horiz-adv-x="1540" d="M63 692q0 144 57 272q59 131 152 223q94 93 226 151q129 57 274 57q148 0 276 -57q130 -58 224 -152q95 -95 151 -227t56 -277q0 -146 -56 -276q-57 -132 -151 -226t-224 -152q-128 -57 -274 -57q-149 0 -278 57q-133 59 -226 153q-94 96 -151 229q-56 132 -56 282z M174 690q0 -130 46 -241q48 -115 128 -197q82 -84 191 -132q108 -48 235 -48q124 0 232 48t188 131q82 85 127 193q47 112 47 238q0 127 -47 239q-46 111 -128 194t-189 131q-108 48 -232 48q-123 0 -231 -48q-110 -49 -191 -130q-83 -83 -129 -191q-47 -111 -47 -235z M424 272v109h102v602h-102v109h291q42 0 94 -2q30 -1 69 -7q35 -5 52 -11q25 -8 41 -19q114 -66 114 -211q0 -146 -131 -209l109 -252h100v-109h-237l-115 336h-125v-227h86v-109h-348zM692 727h45q53 0 77 3t44 13q57 24 57 109q0 73 -51 106q-18 10 -44 15q-23 4 -79 4 h-49v-250z" />
<glyph unicode="&#xb0;" d="M197 1083q0 64 24 119t68 96q47 44 100 66q59 25 123 25t123 -25q54 -23 99 -66q43 -42 67 -98q24 -57 24 -121q0 -63 -24 -120q-23 -55 -68 -98q-44 -42 -100 -66q-59 -25 -121 -25q-64 0 -123 25q-56 24 -100 66t-68 100q-24 57 -24 122zM354 1081q0 -65 46 -111 t112 -46t112 45t46 110q0 66 -46 111t-112 45t-112 -45t-46 -109z" />
<glyph unicode="&#xb1;" horiz-adv-x="1064" d="M88 113v182h887v-182h-887zM88 715v182h346v334h195v-334h346v-182h-346v-336h-195v336h-346z" />
<glyph unicode="&#xb5;" d="M57 -354v1337h252v-524q0 -97 15 -147q16 -52 51 -87q61 -57 141 -57q92 0 148 72q30 40 42 89q11 44 11 138v516h252v-983h-252v121q-39 -73 -87 -108q-46 -33 -120 -33q-66 0 -113 30q-48 31 -88 96v-460h-252z" />
<glyph unicode="&#xb6;" horiz-adv-x="1048" d="M-49 1001q0 103 45 184t125 126q47 26 125 41q71 14 164 14h604v-152h-133v-1411h-179v1411h-170v-1411h-178v846h-28q-83 0 -153 26t-118 71q-51 48 -77 112q-27 66 -27 143z" />
<glyph unicode="&#xb7;" horiz-adv-x="473" d="M86 350v301h303v-301h-303z" />
<glyph unicode="&#xbb;" horiz-adv-x="851" d="M41 0l184 483l-184 484h184l213 -484l-213 -483h-184zM393 0l185 483l-185 484h185l213 -484l-213 -483h-185z" />
<glyph unicode="&#x192;" horiz-adv-x="811" d="M-31 -166q78 -6 123 13q48 20 60 102l112 774h-196v143h217l51 355q17 120 76 182q56 60 144 78q90 18 212 2v-156q-126 11 -179 -16q-55 -28 -67 -115l-47 -330h242v-143h-262l-111 -789q-18 -128 -82 -192q-47 -47 -120 -59q-72 -12 -173 0v151z" />
<glyph unicode="&#x401;" horiz-adv-x="1130" d="M51 0v170h170v1026h-170v170h1004v-350h-176v168h-396v-379h420v-182h-420v-441h414v221h176v-403h-1022zM233 1509v279h281v-279h-281zM653 1509v279h281v-279h-281z" />
<glyph unicode="&#x402;" horiz-adv-x="1507" d="M16 961v405h1164v-405h-185v223h-338v-381q79 53 158 77q76 23 180 23q119 0 210 -46q91 -47 141 -132q51 -89 51 -236v-413q0 -74 -3 -127q-3 -47 -13 -92t-23 -70q-18 -35 -37 -61q-113 -150 -348 -150h-29q-14 0 -29 4v154q80 2 124 13q48 12 71 45q25 36 31 94 q6 56 4 163v416q0 72 -7 104q-8 38 -28 66q-62 86 -197 86q-77 0 -138 -25q-58 -24 -118 -84v-442h170v-170h-594v170h173v1014h-205v-223h-185z" />
<glyph unicode="&#x403;" horiz-adv-x="1081" d="M51 0v170h170v1026h-170v170h1004v-350h-176v168h-396v-1014h172v-170h-604zM348 1518l322 264h360l-366 -264h-316z" />
<glyph unicode="&#x404;" horiz-adv-x="1277" d="M63 676q0 192 56 340t160 239q76 66 179 103q102 37 214 37q99 0 180 -26q80 -25 156 -81v78h182v-446h-178q-7 55 -19 99t-30 73q-34 57 -102 89q-65 31 -150 31q-269 0 -342 -284q-12 -39 -16 -66q-5 -34 -9 -92h444v-182h-442q12 -206 103 -321q89 -113 241 -113 q137 0 218 90q82 91 98 256h192q-5 -106 -22 -176q-17 -68 -60 -138q-67 -106 -178 -160q-113 -55 -258 -55t-259 48t-194 140q-81 93 -122 221q-42 130 -42 296z" />
<glyph unicode="&#x405;" horiz-adv-x="1015" d="M39 1028q0 80 30 148t84 114q55 47 129 74q75 27 167 27t164 -27q76 -29 135 -86v88h141v-395h-139q-12 116 -78 176q-65 59 -180 59q-91 0 -144 -41t-53 -112q0 -31 9 -54t32 -44q22 -21 63 -42q22 -12 103 -47q141 -61 227 -108q81 -44 125 -88q111 -108 111 -287 q0 -89 -31 -167q-30 -74 -86 -129q-57 -55 -134 -83q-81 -29 -175 -29q-106 0 -185 31q-72 28 -147 105v-111h-144v459h144q0 -68 23 -120q24 -53 65 -93q42 -40 98 -61q57 -21 125 -21q93 0 148 52t55 138q0 44 -16 80t-46 60q-19 15 -25 19q-8 5 -36 19l-71 34l-130 59 l-98 45q-42 19 -67 36l-48 32q-18 13 -41 36q-50 48 -77 115q-27 66 -27 139z" />
<glyph unicode="&#x406;" horiz-adv-x="706" d="M51 0v170h170v1026h-170v170h604v-170h-172v-1026h172v-170h-604z" />
<glyph unicode="&#x407;" horiz-adv-x="706" d="M29 1509v279h280v-279h-280zM51 0v170h172v1026h-172v170h604v-170h-170v-1026h170v-170h-604zM399 1509v279h281v-279h-281z" />
<glyph unicode="&#x408;" horiz-adv-x="724" d="M-6 -66q103 1 158 22q53 20 75 62q2 4 5.5 13t5.5 14q4 12 6 39q2 36 2 76v137v899h-170v170h604v-170h-172v-899q0 -124 -10 -197q-10 -74 -33 -135q-39 -104 -135 -160q-95 -55 -232 -55q-20 0 -48 2q-22 2 -56 6v176z" />
<glyph unicode="&#x409;" horiz-adv-x="1824" d="M41 -6v176q103 5 147 56q47 54 54 173l88 967h1026v-182h-172v-330h76q70 0 119 -3q51 -3 88 -9t70 -17q37 -12 62 -26q98 -52 156 -156q57 -102 57 -225q0 -135 -66 -237q-65 -100 -183 -144q-26 -10 -56 -18q-22 -6 -65 -11q-38 -5 -83 -6q-62 -2 -106 -2h-501v170h170 v1014h-383l-70 -756q-7 -119 -33 -208q-24 -81 -75 -134q-49 -51 -128 -72q-74 -20 -192 -20zM1184 182h67q34 0 78 2q32 1 55 6q22 4 40 12q21 9 34 17q86 62 86 207q0 153 -94 213q-15 9 -33 16q-20 7 -39 11q-16 3 -53 5q-20 1 -74 1h-67v-490z" />
<glyph unicode="&#x40a;" horiz-adv-x="1890" d="M51 0v170h170v1026h-170v170h594v-170h-172v-373h514v373h-172v170h629v-170h-195v-373h76q71 0 120 -3q51 -3 88 -9q42 -7 70 -16q36 -12 62 -25q100 -50 156 -146q57 -98 57 -216q0 -128 -67 -230q-65 -99 -183 -143q-50 -20 -121 -28q-63 -7 -188 -7h-504v170h172v471 h-514v-471h172v-170h-594zM1249 182h68q34 0 78 2q32 1 55 6q22 4 40 12q21 9 34 17q86 57 86 199t-94 194q-31 17 -72 23t-127 6h-68v-459z" />
<glyph unicode="&#x40b;" horiz-adv-x="1609" d="M16 961v405h1164v-405h-185v223h-338v-381q79 53 158 77q76 23 180 23q193 0 297 -107q105 -108 105 -307v-319h170v-170h-592v170h170v295q0 72 -7 104q-8 38 -28 66q-62 86 -195 86q-79 0 -140 -25q-58 -24 -118 -84v-442h170v-170h-594v170h173v1014h-205v-223h-185z " />
<glyph unicode="&#x40c;" horiz-adv-x="1404" d="M51 0v170h170v1026h-170v170h563v-170h-149v-481l446 481h-114v170h516v-170h-176l-308 -348l385 -678h162v-170h-567v170h102l-245 526l-213 -227v-299h151v-170h-553zM475 1518l322 264h360l-366 -264h-316z" />
<glyph unicode="&#x40e;" horiz-adv-x="1241" d="M12 1196v170h578v-170h-141l202 -510l203 510h-141v170h534v-170h-190l-436 -1026h170v-170h-543v170h170l102 219l-352 807h-156zM268 1796h138q85 -143 231 -143q75 0 131 35q56 34 102 108h138q-21 -136 -119 -213q-99 -78 -250 -78q-153 0 -252 78q-98 77 -119 213z " />
<glyph unicode="&#x40f;" horiz-adv-x="1460" d="M51 0v170h170v1026h-170v170h594v-170h-172v-1014h514v1014h-172v170h594v-170h-170v-1026h170v-170h-584v-205h-190v205h-584z" />
<glyph unicode="&#x410;" horiz-adv-x="1431" d="M12 0v170h174l396 1200h280l383 -1200h176v-170h-596v170h148l-76 242h-442l-78 -242h147v-170h-512zM506 590h340l-74 268l-24 87l-20 75l-18 75q-13 55 -20 87l-22 -87q-14 -50 -22 -74l-22 -74l-28 -89z" />
<glyph unicode="&#x411;" horiz-adv-x="1132" d="M51 0v170h170v1026h-170v170h942v-350h-176v168h-334v-330h76q69 0 119 -3q49 -3 88 -9q38 -6 70 -17q38 -13 61 -26q98 -52 156 -156q57 -102 57 -225q0 -132 -67 -236q-65 -101 -181 -145q-54 -22 -122 -29q-74 -8 -187 -8h-502zM483 182h68q35 0 77 2q31 1 55 6 q23 4 40 12q22 10 33 17q86 62 86 207q0 156 -94 213q-30 21 -71 27t-126 6h-68v-490z" />
<glyph unicode="&#x412;" horiz-adv-x="1232" d="M51 0v170h170v1026h-170v170h449q86 0 182 -2q58 -1 118 -7q43 -4 77 -16q43 -15 61 -24q79 -40 123 -118q43 -76 43 -177q0 -109 -50 -179q-50 -69 -163 -110q138 -33 208 -118t70 -216q0 -122 -61 -214q-62 -94 -172 -140q-27 -14 -66 -22q-50 -11 -85 -14 q-64 -6 -120 -7q-94 -2 -173 -2h-441zM481 182h97q97 0 151 8q49 7 84 31q84 57 84 182q0 60 -24 107q-25 49 -64 76q-29 20 -81 28q-59 9 -144 9h-103v-441zM481 805h103q137 0 198 44q60 43 60 148q0 60 -24 102t-66 62q-31 14 -65 18q-42 5 -105 5h-101v-379z" />
<glyph unicode="&#x413;" horiz-adv-x="1081" d="M51 0v170h170v1026h-170v170h1004v-350h-176v168h-396v-1014h172v-170h-604z" />
<glyph unicode="&#x414;" horiz-adv-x="1429" d="M41 170q63 0 103 10q43 11 68 36q24 24 40 71q14 43 22 112l91 967h843v-1196h170v-375h-190v205h-957v-205h-190v375zM436 182h520v1002h-383l-69 -756q-7 -88 -24 -155q-15 -57 -44 -91z" />
<glyph unicode="&#x415;" horiz-adv-x="1130" d="M51 0v170h170v1026h-170v170h1004v-350h-176v168h-396v-379h420v-182h-420v-441h414v221h176v-403h-1022z" />
<glyph unicode="&#x416;" horiz-adv-x="2121" d="M27 0v170h161l390 602l-312 424h-176v170h514v-170h-117l285 -387h166v387h-150v170h543v-170h-149v-387h166l284 387h-116v170h516v-170h-177l-313 -424l391 -602h160v-170h-567v170h102l-260 457h-186v-457h149v-170h-543v170h150v457h-186l-260 -457h102v-170h-567z " />
<glyph unicode="&#x417;" horiz-adv-x="1200" d="M82 500h192q30 -346 330 -346q110 0 172 62q64 64 64 171q0 96 -62 149q-61 52 -174 52h-112v182h112q99 0 153 55t54 154q0 110 -67 172q-65 61 -183 61q-79 0 -142 -33q-69 -36 -102 -89q-17 -28 -31 -72q-12 -38 -18 -98h-178v446h182v-78q80 58 158 82q83 25 188 25 q104 0 194 -28q86 -27 149 -79q60 -50 94 -125q32 -71 32 -164q0 -229 -217 -311q133 -40 191 -115q57 -74 57 -196q0 -95 -34 -169q-34 -75 -97 -127q-63 -53 -153 -81q-92 -29 -203 -29q-145 0 -246 36q-100 36 -172 114q-65 71 -97 162q-33 93 -34 217z" />
<glyph unicode="&#x418;" horiz-adv-x="1431" d="M23 1196v170h593v-170h-172v-537q-2 -44 -2 -77q0 -59 -1 -97t-1 -135l69 140l69 139l380 737h422v-170h-170v-1026h170v-170h-594v170h172v532l1 28q1 25 3 72q1 15 1.5 48.5t0.5 50.5q1 37 1 113l-140 -277l-381 -737h-251v1196h-170z" />
<glyph unicode="&#x419;" horiz-adv-x="1431" d="M23 1196v170h593v-170h-172v-537q-2 -44 -2 -77q0 -59 -1 -97t-1 -135l69 140l69 139l380 737h422v-170h-170v-1026h170v-170h-594v170h172v532l1 28q1 25 3 72q1 15 1.5 48.5t0.5 50.5q1 37 1 113l-140 -277l-381 -737h-251v1196h-170zM373 1796h137q85 -143 231 -143 q75 0 131 35q57 36 103 108h137q-21 -136 -119 -213q-99 -78 -250 -78q-152 0 -251 78q-98 77 -119 213z" />
<glyph unicode="&#x41a;" horiz-adv-x="1404" d="M51 0v170h170v1026h-170v170h563v-170h-149v-481l446 481h-114v170h516v-170h-176l-308 -348l385 -678h162v-170h-567v170h102l-245 526l-213 -227v-299h151v-170h-553z" />
<glyph unicode="&#x41b;" horiz-adv-x="1396" d="M41 -6v176q105 4 148 55q46 54 53 174l88 967h844v-1196h172v-170h-594v170h170v1014h-383l-70 -756q-7 -119 -33 -208q-24 -81 -75 -134q-49 -51 -128 -72q-74 -20 -192 -20z" />
<glyph unicode="&#x41c;" horiz-adv-x="1818" d="M51 0v170h170v1026h-170v170h545l158 -481q8 -24 11 -36l11 -39l15 -50l18 -68l51 -192q12 -40 16 -59l25 -107q27 113 38 154l35 128q16 55 39 127q13 41 52 152l168 471h534v-170h-170v-1026h170v-170h-598v170h170v489q0 45 1 106q2 92 3 259l3 145l-99 -298 l-100 -298l-186 -573h-187l-178 561l-94 293l-94 293v-141v-119v-121v-119v-477h170v-170h-527z" />
<glyph unicode="&#x41d;" horiz-adv-x="1460" d="M51 0v170h170v1026h-170v170h594v-170h-172v-387h514v387h-172v170h594v-170h-170v-1026h170v-170h-594v170h172v457h-514v-457h172v-170h-594z" />
<glyph unicode="&#x41e;" horiz-adv-x="1361" d="M63 694q0 156 45 289q44 130 123 221q80 92 195 142q113 49 256 49q145 0 258 -49q115 -50 195 -142q78 -89 122 -224q43 -130 43 -296t-43 -296q-44 -135 -122 -224q-80 -92 -195 -142q-117 -51 -256 -51q-147 0 -260 49q-116 51 -195 144q-80 95 -123 227t-43 303z M342 690q0 -265 86 -401q86 -135 254 -135q166 0 253 135t87 395q0 258 -87 393t-253 135t-253 -134q-87 -133 -87 -388z" />
<glyph unicode="&#x41f;" horiz-adv-x="1460" d="M51 0v170h170v1026h-170v170h1358v-170h-170v-1026h170v-170h-594v170h172v1014h-514v-1014h172v-170h-594z" />
<glyph unicode="&#x420;" horiz-adv-x="1140" d="M51 0v170h170v1026h-170v170h502q50 0 120 -2q47 -1 92 -8q38 -6 72 -17q39 -13 60 -24q101 -50 158 -147t57 -220q0 -71 -17 -129q-17 -60 -51 -113q-35 -55 -78 -93q-44 -38 -104 -62q-31 -13 -56 -20q-20 -5 -62 -11q-35 -5 -78 -6q-60 -2 -107 -2h-76v-342h195v-170 h-627zM483 694h68q38 0 82 2q26 1 57 7q17 3 43 14q20 8 35 22q76 63 76 201q0 162 -103 215q-31 17 -69 23q-39 6 -121 6h-68v-490z" />
<glyph unicode="&#x421;" horiz-adv-x="1269" d="M63 676q0 192 56 340t160 239q76 66 179 103q102 37 214 37q100 0 181 -26q78 -25 155 -81v78h182v-446h-178q-7 55 -19 99t-30 73q-34 57 -102 89q-65 31 -150 31q-369 0 -369 -528q0 -257 89 -394q88 -136 261 -136q135 0 216 90q82 91 98 256h192q-5 -106 -22 -176 q-17 -68 -60 -138q-67 -106 -178 -160q-113 -55 -258 -55t-259 48t-194 140q-81 93 -122 221q-42 130 -42 296z" />
<glyph unicode="&#x422;" horiz-adv-x="1198" d="M16 961v405h1164v-405h-185v223h-264v-1014h170v-170h-604v170h172v1014h-268v-223h-185z" />
<glyph unicode="&#x423;" horiz-adv-x="1241" d="M12 1196v170h578v-170h-141l202 -510l203 510h-141v170h534v-170h-190l-436 -1026h170v-170h-543v170h170l102 219l-352 807h-156z" />
<glyph unicode="&#x424;" horiz-adv-x="1599" d="M55 684q7 395 619 457v65h-170v160h592v-160h-170v-65q611 -62 618 -457q-8 -398 -618 -459v-65h170v-160h-592v160h170v65q-612 62 -619 459zM315 684q4 -139 92 -213t267 -92v608q-179 -18 -267 -92q-87 -74 -92 -211zM926 379q179 18 267 92q86 73 91 213 q-5 138 -91 211q-88 74 -267 92v-608z" />
<glyph unicode="&#x425;" horiz-adv-x="1337" d="M23 0v170h172l342 528l-271 498h-184v170h387l233 -473l179 303h-115v170h510v-170h-172l-307 -469l317 -557h189v-170h-418l-250 532l-217 -362h137v-170h-532z" />
<glyph unicode="&#x426;" horiz-adv-x="1460" d="M51 0v170h170v1026h-170v170h594v-170h-172v-1014h514v1014h-172v170h594v-170h-170v-1026h170v-375h-190v205h-1168z" />
<glyph unicode="&#x427;" horiz-adv-x="1411" d="M27 1196v170h594v-170h-172v-281q0 -72 7 -104q8 -37 27 -63q60 -89 197 -89q80 0 140 26q58 25 118 85v426h-170v170h592v-170h-170v-1026h170v-170h-592v170h170v408q-79 -53 -159 -77q-81 -24 -179 -24q-192 0 -298 109q-105 108 -105 307v303h-170z" />
<glyph unicode="&#x428;" horiz-adv-x="2007" d="M51 0v170h170v1026h-170v170h565v-170h-143v-1014h404v1014h-144v170h539v-170h-144v-1014h404v1014h-141v170h565v-170h-172v-1026h172v-170h-1905z" />
<glyph unicode="&#x429;" horiz-adv-x="2007" d="M51 0v170h170v1026h-170v170h565v-170h-143v-1014h404v1014h-144v170h539v-170h-144v-1014h404v1014h-141v170h565v-170h-172v-1026h172v-375h-191v205h-1714z" />
<glyph unicode="&#x42a;" horiz-adv-x="1351" d="M14 1016v350h893v-170h-194v-342h75q70 0 120 -3q51 -3 88 -9t70 -17q37 -12 62 -26q98 -52 156 -156q57 -102 57 -225q0 -135 -66 -237q-65 -100 -183 -144q-26 -10 -56 -18q-22 -6 -65 -11q-38 -5 -83 -6q-62 -2 -106 -2h-503v170h172v1014h-261v-168h-176zM713 182h67 q34 0 78 2q32 1 55 6q22 4 40 12q21 9 34 17q86 62 86 207q0 153 -94 213q-15 9 -33 16q-20 7 -39 11q-16 3 -53 5q-20 1 -74 1h-67v-490z" />
<glyph unicode="&#x42b;" horiz-adv-x="1779" d="M51 0v170h170v1026h-170v170h627v-170h-195v-342h76q71 0 120 -3q51 -3 88 -9t70 -17q37 -12 62 -26q98 -52 156 -156q57 -102 57 -225q0 -133 -67 -237q-65 -100 -183 -144q-28 -11 -55 -18q-22 -6 -66 -11q-38 -5 -83 -6q-62 -2 -105 -2h-502zM483 182h68q34 0 78 2 q32 1 55 6q22 4 40 12q21 9 34 17q86 62 86 207q0 153 -94 213q-15 9 -33 16q-20 7 -39 11q-16 3 -53 5q-20 1 -74 1h-68v-490zM1124 0v170h172v1026h-172v170h605v-170h-170v-1026h170v-170h-605z" />
<glyph unicode="&#x42c;" horiz-adv-x="1124" d="M51 0v170h170v1026h-170v170h627v-170h-195v-342h76q71 0 120 -3q51 -3 88 -9t70 -17q37 -12 62 -26q98 -52 156 -156q57 -102 57 -225q0 -133 -67 -237q-65 -100 -183 -144q-28 -11 -55 -18q-22 -6 -66 -11q-38 -5 -83 -6q-62 -2 -105 -2h-502zM483 182h68q34 0 78 2 q32 1 55 6q22 4 40 12q21 9 34 17q86 62 86 207q0 153 -94 213q-15 9 -33 16q-20 7 -39 11q-16 3 -53 5q-20 1 -74 1h-68v-490z" />
<glyph unicode="&#x42d;" horiz-adv-x="1277" d="M82 500h192q15 -167 97 -256q83 -90 219 -90q153 0 240 109q87 110 104 325h-442v182h442q-7 209 -104 327q-94 115 -261 115q-85 0 -150 -31q-68 -32 -102 -89q-20 -31 -32 -73q-11 -40 -17 -99h-178v446h182v-78q73 55 155 81q83 26 181 26q112 0 214 -37 q103 -37 179 -103q104 -91 160 -239t56 -340q0 -166 -42 -296q-41 -128 -122 -221q-79 -91 -195 -140q-114 -48 -258 -48q-241 0 -378 139q-135 137 -140 390z" />
<glyph unicode="&#x42e;" horiz-adv-x="2027" d="M51 0v170h170v1026h-170v170h594v-170h-172v-387h264q16 113 44 199q25 76 75 147q82 117 209 178q129 62 283 62q145 0 258 -49t194 -142q79 -91 123 -224q43 -130 43 -298q0 -166 -43 -296q-44 -133 -123 -224q-81 -93 -194 -142t-258 -49q-175 0 -310 75t-213 212 q-82 146 -94 369h-258v-457h172v-170h-594zM1008 690q0 -267 86 -403q86 -135 254 -135q166 0 253 135t87 395q0 262 -87 397t-253 135t-253 -134t-87 -390z" />
<glyph unicode="&#x42f;" horiz-adv-x="1290" d="M6 0v170h168l186 432q-221 101 -221 352q0 132 63 228q64 97 175 143q31 14 60 20q35 8 79 12q58 6 105 7q80 2 139 2h479v-170h-170v-1026h170v-170h-571v170h149v393h-231l-195 -563h-385zM408 967q0 -135 98 -187q28 -16 76 -22q45 -6 137 -6h88v432h-96 q-96 0 -137 -7t-76 -26q-43 -27 -67 -75q-23 -46 -23 -109z" />
<glyph unicode="&#x430;" horiz-adv-x="1028" d="M51 254q0 97 59 176q59 78 166 129q13 6 37 16t25 10q16 7 63 21q32 10 82 21q32 7 117 22v25q0 48 -5 75q-4 21 -20 39q-40 35 -122 35q-103 0 -150 -51q-18 -21 -24 -46q-7 -28 -11 -79h-178l16 189q133 151 365 151q198 0 299 -98q25 -22 42 -46t24 -56q9 -40 10 -85 q2 -68 2 -133v-409h139v-160h-371v133q-96 -153 -276 -153q-67 0 -117 20q-57 23 -91 57q-38 38 -59 87q-22 52 -22 110zM307 287q0 -52 32 -86q31 -33 85 -33q51 0 96 25q42 23 64 65q12 24 15 54t3 102v96q-153 -39 -224 -92t-71 -131z" />
<glyph unicode="&#x431;" horiz-adv-x="1083" d="M68 557q0 219 38 380q38 162 113 269q66 95 145 135q80 41 191 41q21 0 29 -1q4 -1 14 -1.5t15 -0.5q31 -3 43 -4q26 -3 69 -9q11 -3 36 -5q13 -1 34 -1q27 0 54 5q21 4 52 17v-180q-27 -14 -53 -19q-27 -5 -68 -5q-27 0 -35 1q-24 3 -47 7q-46 9 -72 11q-31 3 -55 3 q-192 0 -237 -297q105 84 237 84q83 0 165 -31q75 -28 138 -88q140 -140 140 -383q0 -250 -146 -385q-67 -61 -149 -90q-84 -30 -182 -30q-130 0 -233 55t-163 160q-38 65 -56 152q-17 81 -17 210zM342 492q0 -178 47 -260q46 -80 150 -80q103 0 149 80q47 82 47 255 q0 171 -47 253q-46 81 -149 81q-197 0 -197 -329z" />
<glyph unicode="&#x432;" horiz-adv-x="1060" d="M51 0v160h150v647h-150v160h586q162 0 231 -39q52 -28 83 -82q30 -53 30 -117q0 -79 -45 -138t-127 -87q102 -29 149 -86q48 -59 48 -150q0 -142 -115 -215q-24 -15 -50 -26t-53 -17q-32 -7 -67 -8q-52 -2 -94 -2h-576zM453 160h118q81 0 119 30q37 30 37 97 q0 127 -147 127h-127v-254zM453 573h92q155 0 155 119q0 61 -34 88t-117 27h-96v-234z" />
<glyph unicode="&#x433;" horiz-adv-x="892" d="M51 0v160h150v647h-150v160h815v-318h-176v148h-237v-637h149v-160h-551z" />
<glyph unicode="&#x434;" horiz-adv-x="1179" d="M20 160q97 -2 143 43q46 44 56 149l55 615h705v-807h149v-363h-182v203h-739v-203h-187v363zM369 170h358v627h-262l-39 -435q-5 -83 -17 -121q-14 -44 -40 -71z" />
<glyph unicode="&#x435;" horiz-adv-x="1046" d="M68 483q0 116 32 206q34 95 93 160q61 67 144 102q85 36 187 36t187 -35q82 -34 143 -99q58 -62 92 -154q33 -88 33 -199q0 -23 -1 -31q-3 -22 -5 -31h-631q5 -162 50 -227q46 -66 157 -66q161 0 188 164h232q0 -69 -32 -130q-32 -60 -89 -104q-59 -45 -134 -70t-165 -25 q-113 0 -198 36q-88 37 -151 103q-64 67 -98 159t-34 205zM344 592h356l2 33q0 97 -43 146q-44 50 -124 50q-176 0 -191 -229z" />
<glyph unicode="&#x436;" horiz-adv-x="1488" d="M20 0v160h101l237 379l-208 268h-115v160h407v-160h-110l172 -211h135v211h-115v160h441v-160h-117v-211h137l172 211h-110v160h407v-160h-115l-209 -268l238 -379h100v-160h-282l-248 426h-90v-266h117v-160h-441v160h115v266h-90l-246 -426h-283z" />
<glyph unicode="&#x437;" horiz-adv-x="940" d="M72 305h202q23 -85 63 -119t112 -34q74 0 114 31q41 32 41 91q0 121 -172 121h-57v170h57q70 0 111 35t41 94q0 57 -38 90t-104 33q-77 0 -126 -47q-47 -45 -62 -135h-168v340h168v-80q78 90 260 90q75 0 135 -19q61 -19 106 -55q44 -35 68 -84q25 -52 25 -106 q0 -184 -203 -234q223 -33 223 -225q0 -133 -103 -209t-286 -76q-363 0 -407 328z" />
<glyph unicode="&#x438;" horiz-adv-x="1185" d="M27 807v160h479v-160h-92v-217l-4 -94v-76q0 -23 -1 -43q-1 -28 -3 -68l36 74l31 62l29 59l33 63l213 400h387v-160h-150v-647h150v-160h-482v160h95v227v36q0 12 2 58q1 23 3 71l3 103l-29 -55q-6 -10 -11.5 -21.5t-6.5 -13.5q-14 -22 -19 -34q-6 -14 -18 -35l-27 -56 l-231 -440h-238v807h-149z" />
<glyph unicode="&#x439;" horiz-adv-x="1185" d="M27 807v160h479v-160h-92v-457l334 617h387v-160h-150v-647h150v-160h-482v160h95v456l-334 -616h-238v807h-149zM264 1401h127q34 -72 88 -108q56 -38 125 -38q141 0 215 146h127q-18 -138 -109 -215q-92 -78 -235 -78q-139 0 -229 78q-91 79 -109 215z" />
<glyph unicode="&#x43a;" horiz-adv-x="1179" d="M51 0v160h150v647h-150v160h393v-465l289 305h-112v160h479v-160h-139l-187 -213l268 -434h115v-160h-323l-244 434l-150 -170v-104h142v-160h-531z" />
<glyph unicode="&#x43b;" horiz-adv-x="1130" d="M6 -2v162q81 5 119 46q39 42 45 138l57 623h703v-807h149v-160h-493v160h92v637h-262l-37 -441q-12 -194 -99 -278q-88 -85 -274 -80z" />
<glyph unicode="&#x43c;" horiz-adv-x="1472" d="M51 0v160h150v647h-150v160h479l142 -484q9 -40 53 -196l29 108l24 92l140 480h503v-160h-149v-647h149v-160h-483v160h90v354q0 17 6 293l-38 -135l-38 -140l-157 -532h-205l-154 514l-28 101l-54 194q0 -18 4 -156q0 -14 0.5 -32.5t1 -30.5t0.5 -20q1 -18 1 -38v-22 v-350h92v-160h-408z" />
<glyph unicode="&#x43d;" horiz-adv-x="1210" d="M51 0v160h150v647h-150v160h494v-160h-92v-211h305v211h-92v160h493v-160h-149v-647h149v-160h-493v160h92v266h-305v-266h92v-160h-494z" />
<glyph unicode="&#x43e;" horiz-adv-x="1087" d="M68 492q0 118 37 214t110 160q66 60 151 90q88 31 177 31t177 -31q83 -29 150 -90q148 -134 148 -383q0 -252 -148 -383q-64 -58 -149 -89q-84 -31 -178 -31t-178 31q-87 32 -150 89q-147 134 -147 392zM346 492q0 -178 47 -260q46 -80 150 -80q103 0 149 80 q47 82 47 255q0 171 -47 253q-46 81 -149 81q-197 0 -197 -329z" />
<glyph unicode="&#x43f;" horiz-adv-x="1210" d="M51 0v160h150v647h-150v160h1108v-160h-149v-647h149v-160h-493v160h92v637h-305v-637h92v-160h-494z" />
<glyph unicode="&#x440;" horiz-adv-x="1179" d="M51 -244h150v1051h-150v160h379v-148q92 168 275 168q86 0 162 -38q75 -37 129 -105q55 -69 85 -160q31 -95 31 -201q0 -105 -31 -200q-30 -91 -85 -160t-129 -106t-162 -37q-184 0 -275 167v-391h156v-159h-535v159zM453 487q0 -342 202 -342q201 0 201 338t-203 338 q-200 0 -200 -334z" />
<glyph unicode="&#x441;" horiz-adv-x="954" d="M70 471q0 137 46 244q47 109 134 180q53 44 121 68t133 24q135 0 219 -92v80h168v-340h-168q-15 87 -63 133q-49 47 -119 47q-101 0 -152 -87t-51 -255q0 -321 197 -321q66 0 105 35t62 118h203q-23 -161 -120 -243t-261 -82q-103 0 -186 34q-81 33 -143 100 q-61 65 -93 155q-32 89 -32 202z" />
<glyph unicode="&#x442;" horiz-adv-x="903" d="M29 649v318h848v-318h-177v148h-122v-637h149v-160h-551v160h150v637h-121v-148h-176z" />
<glyph unicode="&#x443;" horiz-adv-x="1107" d="M-6 807v160h549v-160h-123l88 -256q8 -20 22 -68l26 -87q3 -12 25 -90q9 -32 17 -77q11 59 33 143q22 82 57 179l90 256h-116v160h450v-160h-151l-297 -813q-30 -82 -59 -151q-23 -54 -42 -91q-17 -33 -38 -54q-19 -19 -46 -40q-111 -84 -311 -84q-18 0 -32 1 q-21 1 -48 3v170q24 -2 35 -2h20q70 0 121 9t87 30q39 23 61 53q25 35 41 82l10 33l-309 854h-160z" />
<glyph unicode="&#x444;" horiz-adv-x="1439" d="M55 483q0 234 96 370q95 134 263 134q65 0 105 -17q44 -19 83 -61v301h-149v160h387v-461q39 42 83 61q40 17 107 17q166 0 261 -134t95 -370q0 -238 -95 -372t-265 -134q-59 0 -101 18q-43 18 -85 62v-301h149v-159h-536v159h149v301q-42 -44 -85 -62q-42 -18 -101 -18 q-170 0 -265 134q-96 136 -96 372zM324 487q0 -354 153 -354q72 0 101 86q14 42 19 97q5 60 5 165q0 68 -1 94q-2 49 -4 70q-3 26 -8 55q-4 23 -11 48q-15 41 -40 63q-26 23 -59 23q-155 0 -155 -347zM840 481q0 -105 5 -165q5 -55 19 -97q29 -86 101 -86q153 0 153 354 q0 347 -155 347q-70 0 -99 -86q-7 -25 -11 -48q-5 -29 -8 -55q-2 -21 -4 -70q-1 -26 -1 -94z" />
<glyph unicode="&#x445;" horiz-adv-x="1126" d="M6 0v160h182l267 334l-219 313h-166v160h370l164 -291l103 143h-91v148h476v-160h-174l-236 -291l264 -356h174v-160h-387l-196 340l-138 -193h117v-147h-510z" />
<glyph unicode="&#x446;" horiz-adv-x="1210" d="M51 0v160h150v647h-150v160h494v-160h-92v-637h305v637h-92v160h493v-160h-149v-647h149v-363h-182v203h-926z" />
<glyph unicode="&#x447;" horiz-adv-x="1138" d="M14 807v160h461v-160h-92v-156q0 -91 32 -131q31 -39 103 -39q49 0 88 21q41 22 82 69v236h-92v160h494v-160h-150v-647h150v-160h-551v160h149v229q-111 -90 -260 -90q-93 0 -160 37q-68 38 -102 104q-20 39 -28 86q-7 42 -7 127v154h-117z" />
<glyph unicode="&#x448;" horiz-adv-x="1683" d="M51 0v160h150v647h-150v160h494v-160h-92v-637h264v637h-92v160h436v-160h-92v-637h262v637h-90v160h491v-160h-149v-647h149v-160h-1581z" />
<glyph unicode="&#x449;" horiz-adv-x="1683" d="M51 0v160h150v647h-150v160h494v-160h-92v-637h264v637h-92v160h436v-160h-92v-637h262v637h-90v160h491v-160h-149v-647h149v-363h-182v203h-1399z" />
<glyph unicode="&#x44a;" horiz-adv-x="1153" d="M14 649v318h750v-160h-150v-186h201q155 0 240 -81q86 -81 86 -223q0 -71 -24 -130q-25 -60 -66 -100q-43 -41 -103 -64q-61 -23 -133 -23h-602v160h149v637h-172v-148h-176zM614 160h97q155 0 155 149q0 152 -155 152h-97v-301z" />
<glyph unicode="&#x44b;" horiz-adv-x="1587" d="M51 0v160h150v647h-150v160h551v-160h-149v-186h200q155 0 240 -81q86 -81 86 -223q0 -71 -24 -130q-25 -60 -66 -100q-43 -41 -103 -64q-61 -23 -133 -23h-602zM453 160h96q156 0 156 149q0 152 -156 152h-96v-301zM985 0v160h150v647h-150v160h551v-160h-150v-647h150 v-160h-551z" />
<glyph unicode="&#x44c;" horiz-adv-x="991" d="M51 0v160h150v647h-150v160h551v-160h-149v-186h200q155 0 240 -81q86 -81 86 -223q0 -71 -24 -130q-25 -60 -66 -100q-43 -41 -103 -64q-61 -23 -133 -23h-602zM453 160h96q156 0 156 149q0 152 -156 152h-96v-301z" />
<glyph unicode="&#x44d;" horiz-adv-x="974" d="M68 305h202q24 -81 65 -118q39 -35 105 -35q169 0 193 243h-273v170h273q-28 250 -199 250q-71 0 -121 -47q-47 -45 -63 -133h-168v340h168v-80q83 92 219 92q95 0 174 -40q82 -42 138 -108q57 -68 91 -164q33 -94 33 -206q0 -111 -33 -201q-33 -91 -92 -154 q-62 -67 -143 -100q-83 -34 -186 -34q-165 0 -263 83q-97 82 -120 242z" />
<glyph unicode="&#x44e;" horiz-adv-x="1646" d="M51 0v160h150v647h-150v160h494v-160h-92v-211h184q16 93 54 161q42 74 102 124q62 51 139 78q81 28 170 28q91 0 178 -32q89 -33 150 -91q147 -134 147 -381q0 -251 -147 -381q-61 -58 -150 -91q-84 -31 -178 -31q-99 0 -182 31q-85 32 -146 90q-60 57 -98 141 q-38 83 -45 184h-178v-266h92v-160h-494zM905 492q0 -178 47 -260q46 -80 150 -80q103 0 149 80q47 82 47 253q0 173 -47 255q-47 81 -149 81q-197 0 -197 -329z" />
<glyph unicode="&#x44f;" horiz-adv-x="1064" d="M20 0v160h142l96 213q-85 35 -128 106q-44 73 -44 170q0 71 24 130q25 62 66 101q43 41 103 64q61 23 133 23h602v-160h-150v-647h150v-160h-551v160h149v186h-149l-125 -346h-318zM360 657q0 -151 156 -151h96v301h-96q-156 0 -156 -150z" />
<glyph unicode="&#x451;" horiz-adv-x="1046" d="M68 483q0 116 32 206q34 95 93 160q61 67 144 102q85 36 187 36t187 -35q82 -34 143 -99q58 -62 92 -154q33 -88 33 -199q0 -23 -1 -31q-3 -22 -5 -31h-631q5 -162 50 -227q46 -66 157 -66q161 0 188 164h232q0 -69 -32 -130q-32 -60 -89 -104q-59 -45 -134 -70t-165 -25 q-113 0 -198 36q-88 37 -151 103q-64 67 -98 159t-34 205zM186 1114v279h281v-279h-281zM344 592h356l2 33q0 97 -43 146q-44 50 -124 50q-176 0 -191 -229zM606 1114v279h281v-279h-281z" />
<glyph unicode="&#x452;" horiz-adv-x="1181" d="M51 0v160h150v925h-150v150h150v135h252v-135h301v-150h-301v-247q98 149 270 149q91 0 164 -39q74 -39 108 -104q18 -35 21 -44q8 -21 11 -48q2 -21 4 -74q1 -30 1 -121v-801h150v-159h-525v159h123v793q0 47 -1 64q0 8 -0.5 22.5t-1.5 20.5q-2 20 -4 29q-3 11 -9 22 q-33 69 -133 69q-108 0 -154 -88q-15 -26 -19 -60q-5 -38 -5 -93v-375h122v-160h-524z" />
<glyph unicode="&#x453;" horiz-adv-x="892" d="M51 0v160h150v647h-150v160h815v-318h-176v148h-237v-637h149v-160h-551zM254 1114l278 266h310l-316 -266h-272z" />
<glyph unicode="&#x454;" horiz-adv-x="974" d="M68 469q0 137 46 245q47 110 134 181q56 44 122 68t134 24q133 0 219 -92v80h168v-340h-168q-15 87 -64 133q-50 47 -120 47q-169 0 -199 -250h272v-170h-272q18 -243 192 -243q66 0 106 34t64 119h203q-23 -161 -120 -243t-263 -82q-103 0 -186 34q-81 33 -143 100 q-60 65 -93 154q-32 87 -32 201z" />
<glyph unicode="&#x455;" horiz-adv-x="876" d="M57 0v346h160q16 -96 76 -151q61 -56 145 -56q59 0 97 32q36 30 36 83q0 22 -7 37q-8 17 -25 30q-16 12 -53 25q-49 17 -87 29q-104 28 -172 58q-58 26 -90 59q-71 75 -71 188q0 65 24 122q22 53 69 98q43 42 104 66q58 23 130 23q76 0 129 -26q56 -27 101 -80v90h168 v-309h-168q-4 75 -49 120q-43 43 -121 43q-61 0 -99 -28q-39 -29 -39 -76q0 -15 7 -33q5 -14 24 -26q17 -12 50 -24q18 -7 83 -26l103 -31q42 -13 73 -27q36 -16 54 -27q27 -16 41 -29q33 -28 55 -80q20 -49 20 -113q0 -73 -25 -132q-24 -58 -73 -103q-47 -44 -112 -68 t-142 -24q-88 0 -147 31q-60 31 -105 104v-115h-164z" />
<glyph unicode="&#x456;" horiz-adv-x="643" d="M51 0v160h150v647h-150v160h402v-807h149v-160h-551zM168 1130v232h274v-232h-274z" />
<glyph unicode="&#x457;" horiz-adv-x="643" d="M-18 1114v279h280v-279h-280zM51 0v160h150v647h-150v160h402v-807h147v-160h-549zM352 1114v279h281v-279h-281z" />
<glyph unicode="&#x458;" horiz-adv-x="657" d="M-6 -266q153 -2 199 65q12 18 18 33t9 48q3 34 3 97v181v649h-149v160h401v-807q0 -84 -2 -168q-1 -52 -7 -104q-4 -38 -14 -64q-9 -24 -26 -55q-51 -94 -146 -144q-94 -49 -229 -49h-28q-14 0 -29 4v154zM188 1130v232h275v-232h-275z" />
<glyph unicode="&#x459;" horiz-adv-x="1470" d="M6 -2v162q83 5 120 46q38 43 44 138l57 623h852v-160h-149v-186h200q154 0 240 -81t86 -223q0 -74 -23 -130q-24 -58 -67 -100q-44 -42 -102 -64q-61 -23 -134 -23h-602v160h150v637h-262l-37 -443q-12 -194 -99 -277q-88 -83 -274 -79zM930 160h96q156 0 156 149 q0 152 -156 152h-96v-301z" />
<glyph unicode="&#x45a;" horiz-adv-x="1548" d="M51 0v160h150v647h-150v160h494v-160h-92v-197h305v197h-150v160h551v-160h-149v-197h200q155 0 240 -79q86 -80 86 -220t-89 -226q-88 -85 -237 -85h-602v160h150v280h-305v-280h92v-160h-494zM1010 160h96q156 0 156 139q0 141 -156 141h-96v-280z" />
<glyph unicode="&#x45b;" horiz-adv-x="1214" d="M51 0v160h150v925h-150v150h150v135h252v-135h301v-150h-301v-247q98 149 270 149q91 0 164 -39q74 -39 108 -104q18 -35 21 -44q8 -21 11 -48q2 -21 4 -74q1 -30 1 -121v-397h150v-160h-525v160h123v389q0 47 -1 64q0 8 -0.5 22.5t-1.5 20.5q-2 20 -4 29q-3 11 -9 22 q-33 69 -133 69q-108 0 -154 -88q-15 -26 -19 -60q-5 -38 -5 -93v-375h122v-160h-524z" />
<glyph unicode="&#x45c;" horiz-adv-x="1179" d="M51 0v160h150v647h-150v160h393v-465l289 305h-112v160h479v-160h-139l-187 -213l268 -434h115v-160h-323l-244 434l-150 -170v-104h142v-160h-531zM410 1114l278 266h309l-315 -266h-272z" />
<glyph unicode="&#x45e;" horiz-adv-x="1107" d="M-6 807v160h549v-160h-123l88 -256q8 -20 22 -68l26 -87q3 -12 25 -90q9 -32 17 -77q11 59 33 143q22 82 57 179l90 256h-116v160h450v-160h-151l-297 -813q-30 -82 -59 -151q-23 -54 -42 -91q-17 -33 -38 -54q-19 -19 -46 -40q-111 -84 -311 -84q-18 0 -32 1 q-21 1 -48 3v170q24 -2 35 -2h20q70 0 121 9t87 30q39 23 61 53q25 35 41 82l10 33l-309 854h-160zM238 1401h127q34 -72 88 -108q56 -38 125 -38q141 0 215 146h127q-18 -137 -110 -215t-235 -78q-139 0 -229 78t-108 215z" />
<glyph unicode="&#x45f;" horiz-adv-x="1210" d="M51 0v160h150v647h-150v160h494v-160h-92v-637h305v637h-92v160h493v-160h-149v-647h149v-160h-463v-203h-182v203h-463z" />
<glyph unicode="&#x490;" horiz-adv-x="1081" d="M51 0v170h170v1026h-170v170h828v166h176v-348h-572v-1014h172v-170h-604z" />
<glyph unicode="&#x491;" horiz-adv-x="892" d="M51 0v160h150v647h-150v160h639v147h176v-317h-413v-637h149v-160h-551z" />
<glyph unicode="&#x2000;" horiz-adv-x="898" />
<glyph unicode="&#x2001;" horiz-adv-x="1796" />
<glyph unicode="&#x2002;" horiz-adv-x="898" />
<glyph unicode="&#x2003;" horiz-adv-x="1796" />
<glyph unicode="&#x2004;" horiz-adv-x="598" />
<glyph unicode="&#x2005;" horiz-adv-x="449" />
<glyph unicode="&#x2006;" horiz-adv-x="299" />
<glyph unicode="&#x2007;" horiz-adv-x="299" />
<glyph unicode="&#x2008;" horiz-adv-x="224" />
<glyph unicode="&#x2009;" horiz-adv-x="359" />
<glyph unicode="&#x200a;" horiz-adv-x="99" />
<glyph unicode="&#x2010;" horiz-adv-x="452" d="M0 465v119h453v-119h-453z" />
<glyph unicode="&#x2011;" horiz-adv-x="452" d="M0 465v119h453v-119h-453z" />
<glyph unicode="&#x2012;" horiz-adv-x="452" d="M0 465v119h453v-119h-453z" />
<glyph unicode="&#x2013;" d="M88 465v119h848v-119h-848z" />
<glyph unicode="&#x2014;" horiz-adv-x="1366" d="M0 465v119h1366v-119h-1366z" />
<glyph unicode="&#x2018;" horiz-adv-x="395" d="M63 905v242l144 229h149l-178 -229h133v-242h-248z" />
<glyph unicode="&#x2019;" horiz-adv-x="395" d="M39 895l180 229h-135v242h250v-242l-146 -229h-149z" />
<glyph unicode="&#x201a;" horiz-adv-x="395" d="M39 -229l180 229h-135v242h250v-242l-146 -229h-149z" />
<glyph unicode="&#x201c;" horiz-adv-x="770" d="M63 905v242l144 229h149l-178 -229h133v-242h-248zM440 905v242l144 229h149l-178 -229h133v-242h-248z" />
<glyph unicode="&#x201d;" horiz-adv-x="770" d="M39 895l180 229h-135v242h250v-242l-146 -229h-149zM412 895l180 229h-135v242h250v-242l-146 -229h-149z" />
<glyph unicode="&#x201e;" horiz-adv-x="770" d="M39 -229l180 229h-135v242h250v-242l-146 -229h-149zM412 -229l180 229h-135v242h250v-242l-146 -229h-149z" />
<glyph unicode="&#x2020;" d="M104 764v192h289v375h240v-375h287v-192h-287v-1077h-240v1077h-289z" />
<glyph unicode="&#x2021;" d="M104 340v192h289v267h-289v192h289v340h240v-340h287v-192h-287v-267h287v-192h-287v-653h-240v653h-289z" />
<glyph unicode="&#x2022;" horiz-adv-x="1366" d="M401 692q0 58 23 112q23 53 61 90q39 37 92 60q54 23 113 23q57 0 108 -23q52 -24 88 -61q38 -39 60 -90q23 -52 23 -109t-23 -111q-22 -53 -60 -90q-39 -39 -90 -61t-110 -22q-61 0 -111 22q-49 22 -90 61q-38 36 -61 89q-23 52 -23 110z" />
<glyph unicode="&#x2026;" horiz-adv-x="1419" d="M86 0v301h303v-301h-303zM559 0v301h303v-301h-303zM1032 0v301h303v-301h-303z" />
<glyph unicode="&#x202f;" horiz-adv-x="359" />
<glyph unicode="&#x2030;" horiz-adv-x="2058" d="M45 1053q0 66 23 127q22 59 62 102q41 44 92 69t114 25q64 0 116 -24q50 -23 90 -69q38 -44 59 -105q22 -64 22 -134q0 -69 -22 -132q-21 -60 -58 -103q-39 -45 -88 -68q-51 -24 -113 -24q-67 0 -120 25q-52 25 -93 70q-38 42 -61 106q-23 63 -23 135zM205 0l792 1366 h166l-790 -1366h-168zM205 1051q0 -90 37 -142q38 -53 96 -53q56 0 91 51q34 50 34 140q0 85 -35 138q-34 52 -94 52q-57 0 -93 -51t-36 -135zM750 326q0 68 22 127q22 57 63 102q41 44 92 69t113 25q64 0 116 -24q50 -23 90 -69t60 -105q21 -62 21 -134t-21 -132 q-20 -58 -59 -103t-88 -68q-51 -24 -112 -24q-67 0 -120 25q-52 25 -93 70q-40 44 -62 105q-22 60 -22 136zM909 324q0 -90 37 -142q38 -53 96 -53t92 52q33 50 33 138q0 87 -34 139t-95 52q-57 0 -93 -51t-36 -135zM1436 326q0 68 22 127q22 57 63 102q41 44 92 69t113 25 q64 0 116 -24q50 -23 90 -69t60 -105q21 -62 21 -134t-21 -132q-20 -58 -59 -103t-88 -68q-51 -24 -112 -24q-67 0 -120 25q-52 25 -93 70q-40 44 -62 105q-22 60 -22 136zM1595 324q0 -90 37 -142q38 -53 97 -53q57 0 91 52q33 50 33 138q0 87 -34 139t-95 52 q-60 0 -94 -51q-35 -52 -35 -135z" />
<glyph unicode="&#x2039;" horiz-adv-x="499" d="M63 483l211 484h187l-187 -484l187 -483h-187z" />
<glyph unicode="&#x203a;" horiz-adv-x="499" d="M41 0l184 483l-184 484h184l213 -484l-213 -483h-184z" />
<glyph unicode="&#x205f;" horiz-adv-x="449" />
<glyph unicode="&#x20ac;" horiz-adv-x="1064" d="M-74 444l58 140h77q-4 19 -4 40v42v22q0 5 2 19h-122l57 139h80q17 101 40 163q25 67 60 119q69 105 183 165q116 61 243 61q169 0 299 -103v74h178v-401h-178q-16 84 -35 125q-21 45 -55 73q-68 56 -164 56q-90 0 -161 -48q-69 -46 -99 -126q-12 -34 -21 -72 q-15 -63 -20 -86h494l-58 -139h-450q-2 -22 -2 -26v-20q0 -24 1 -38q1 -21 3 -39h399l-57 -140h-324q63 -288 279 -288q193 0 254 231h196q-5 -30 -14 -72q-7 -33 -13 -51q-6 -19 -17 -42q-11 -24 -23 -42q-62 -103 -163 -155q-105 -54 -235 -54q-104 0 -194 33t-159 93 t-116 149q-46 88 -67 198h-152z" />
<glyph unicode="&#x2116;" horiz-adv-x="2017" d="M51 0v170h170v1026h-170v170h461l272 -481q1 -2 25 -44l45 -83l135 -258q22 -46 34 -67l34 -64v125v102v102v101v397h-172v170h524v-170h-170v-1196h-248l-293 526q-2 5 -11 21t-15 28l-47 89l-109 205l-113 208v-133v-110v-111v-111v-442h172v-170h-524zM1372 94v170 h578v-170h-578zM1372 645q0 135 79 217t210 82q133 0 211 -82t78 -221q0 -141 -78 -223t-211 -82q-135 0 -212 83t-77 226zM1577 643q0 -145 84 -145t84 143t-84 143t-84 -141z" />
<glyph unicode="&#x2122;" horiz-adv-x="1947" d="M12 1133v233h731v-233h-125v124h-151v-561h106v-102h-387v102h107v561h-156v-124h-125zM821 594v102h107v568h-107v102h348l99 -272l44 -144l42 -143q16 63 20 75l22 67q2 6 10.5 31t13.5 39l30 81l104 266h342v-102h-106v-568h106v-102h-385v102h109v271v32q0 2 2 64v24 v26q0 24 1 40t1 68l-57 -155l-56 -148l-114 -324h-125l-111 317l-53 148l-53 149v-47v-67v-68v-65v-265h104v-102h-338z" />
<glyph unicode="&#xe000;" horiz-adv-x="962" d="M0 0v963h963v-963h-963z" />
<glyph horiz-adv-x="0" />
<glyph horiz-adv-x="0" />
</font>
</defs>
</svg>
