<?xml version="1.0" standalone="no"?>
<!DOCTYPE svg PUBLIC "-//W3C//DTD SVG 1.1//EN" "http://www.w3.org/Graphics/SVG/1.1/DTD/svg11.dtd" >
<svg xmlns="http://www.w3.org/2000/svg">
<metadata></metadata>
<defs>
<font id="corporate_e_w10_italicregular" horiz-adv-x="1024" >
<font-face units-per-em="2048" ascent="1509" descent="-539" />
<missing-glyph horiz-adv-x="512" />
<glyph unicode=" "  horiz-adv-x="512" />
<glyph unicode="&#x09;" horiz-adv-x="512" />
<glyph unicode="&#xa0;" horiz-adv-x="512" />
<glyph unicode="!" horiz-adv-x="417" d="M-2 0l45 184h180l-47 -184h-178zM111 362l225 973h166l-269 -973h-122z" />
<glyph unicode="&#x22;" horiz-adv-x="577" d="M248 1366h143l-20 -520h-103zM512 1366h143l-20 -520h-103z" />
<glyph unicode="#" d="M31 436l18 123h215l45 275h-215l19 122h215l65 410h139l-65 -410h270l66 410h143l-65 -410h215l-21 -125h-215l-43 -272h215l-18 -123h-215l-70 -436h-143l69 436h-270l-70 -436h-139l70 436h-215zM403 559h273l43 272h-273z" />
<glyph unicode="$" horiz-adv-x="1028" d="M-2 0l104 416h109q-7 -39 -8 -56q-2 -28 -2 -38q0 -182 188 -216l125 556q-79 48 -119 80q-48 38 -74 75q-27 37 -39 78t-12 94q0 116 62 214q63 99 166 145q46 19 84 26q47 9 96 10l31 132h79l-30 -138q131 -27 174 -131l31 119h106l-92 -375h-109l6 44q3 30 3 32 q0 155 -146 193l-108 -480q84 -52 132 -88q53 -40 81 -79q28 -40 40 -85q11 -41 11 -104q0 -96 -33 -177q-33 -82 -92 -139q-62 -60 -141 -92q-81 -32 -181 -34l-34 -158h-80l36 164q-77 11 -134 47q-60 39 -89 92l-30 -127h-111zM418 1016q0 -30 6 -54q6 -25 21 -47 q14 -21 41 -45q26 -23 65 -47l100 439q-105 -10 -169 -79q-64 -68 -64 -167zM469 104q124 12 196 92t72 199q0 39 -7 66q-8 32 -23 53q-17 25 -47 49q-37 29 -74 53z" />
<glyph unicode="%" horiz-adv-x="1273" d="M72 0l1110 1366h112l-1112 -1366h-110zM180 958q0 86 26 164q25 74 69 132q41 54 105 89q60 33 128 33q100 0 156 -65q57 -66 57 -178q0 -85 -26 -161t-68 -130q-43 -55 -103 -88t-127 -33q-102 0 -159 63q-58 64 -58 174zM297 965q0 -66 28 -105q27 -37 81 -37 q36 0 75 25q37 23 64 66q26 40 43 98q16 54 16 116q0 70 -27 109t-79 39q-40 0 -77 -25q-38 -25 -64 -67q-28 -45 -44 -100t-16 -119zM645 229q0 84 31 172q29 83 84 146q85 98 213 98q99 0 155 -65q58 -67 58 -179q0 -84 -26 -160q-25 -73 -69 -131q-43 -57 -103 -89 q-58 -31 -126 -31q-103 0 -160 63t-57 176zM762 233q0 -67 29 -105t79 -38q37 0 76 25q37 24 64 67q26 42 43 99q16 54 16 116q0 69 -28 109q-27 39 -78 39q-40 0 -77 -26q-39 -28 -64 -68q-28 -45 -44 -100t-16 -118z" />
<glyph unicode="&#x26;" horiz-adv-x="1085" d="M-6 299q0 97 44 179q44 83 142 161q28 23 69 52q53 38 101 67q-20 43 -42 92q-16 35 -26 75q-11 41 -14 63q-4 27 -4 61q0 62 25 120q24 56 68 97q42 40 105 63q61 23 132 23q115 0 187 -61q71 -60 71 -160q0 -103 -75 -197q-76 -96 -242 -207l180 -395q57 68 84 120 q33 62 59 134h-123l29 108h342l-29 -108h-104q-38 -118 -87 -206t-116 -161l51 -108h140l-27 -111h-236l-49 113q-147 -129 -319 -129q-76 0 -136 23q-63 24 -107 65q-46 43 -69 99q-24 59 -24 128zM145 309q0 -91 59 -148q58 -57 152 -57q66 0 124 27q59 27 118 86 l-195 430q-63 -41 -120 -89q-52 -44 -80 -82q-31 -42 -44 -81q-14 -42 -14 -86zM414 1063q0 -22 3 -43q2 -17 11 -46q5 -19 22 -59l33 -79q125 87 173 151q51 68 51 131q0 53 -33 83t-90 30q-72 0 -121 -48t-49 -120z" />
<glyph unicode="'" horiz-adv-x="315" d="M250 1366h143l-20 -520h-103z" />
<glyph unicode="(" horiz-adv-x="614" d="M121 70q0 187 38 379q37 189 106 360q69 172 166 317q97 144 216 250h119q-122 -130 -216 -283q-96 -157 -161 -327q-65 -171 -100 -356q-35 -187 -35 -371q0 -131 14 -229q16 -110 49 -220h-114q-43 110 -63 226q-19 111 -19 254z" />
<glyph unicode=")" horiz-adv-x="614" d="M-156 -410q59 65 103 121q45 57 84 114q37 54 71 116q39 72 64 127q92 207 141 425t49 437q0 131 -14 229q-15 107 -49 217h115q40 -104 61 -222q20 -110 20 -255q0 -198 -36 -377q-37 -185 -105 -355q-68 -171 -165 -317q-99 -149 -220 -260h-119z" />
<glyph unicode="*" d="M336 1145l51 84l221 -131l56 252l96 -23l-55 -250l256 25l8 -101l-256 -22l102 -238l-90 -39l-102 236l-193 -168l-65 74l192 170z" />
<glyph unicode="+" horiz-adv-x="1028" d="M117 616v127h377v387h135v-387h375v-127h-375v-389h-135v389h-377z" />
<glyph unicode="," horiz-adv-x="403" d="M-166 -254l252 254h-109l52 209h215l-54 -209l-223 -254h-133z" />
<glyph unicode="-" horiz-adv-x="399" d="M-4 479l24 99h400l-25 -99h-399z" />
<glyph unicode="." horiz-adv-x="407" d="M-25 0l54 209h211l-54 -209h-211z" />
<glyph unicode="/" horiz-adv-x="753" d="M-195 -354l977 1720h115l-977 -1720h-115z" />
<glyph unicode="0" horiz-adv-x="1028" d="M78 381q0 84 12 174q11 85 35 178q23 89 54 171q30 79 73 155q164 291 434 291q162 0 255 -108t93 -296q0 -84 -12 -172q-11 -83 -35 -175t-55 -170q-34 -84 -72 -155q-163 -292 -428 -292q-166 0 -260 105q-94 104 -94 294zM229 371q0 -129 55 -199t154 -70 q178 0 295 246q34 67 60 145q24 72 47 159q16 62 31 159q12 78 12 143q0 128 -54 202q-53 73 -149 73q-186 0 -307 -256q-34 -74 -58 -143q-25 -72 -46 -156q-17 -70 -29 -158q-11 -82 -11 -145z" />
<glyph unicode="1" horiz-adv-x="1028" d="M154 0l28 117h180l228 909h-223l20 90q128 5 199 56q70 51 114 174h119l-307 -1229h201l-29 -117h-530z" />
<glyph unicode="2" horiz-adv-x="1028" d="M4 0l29 121l135 124l142 133l134 130l113 115q66 69 128 143q49 59 85 116q32 50 47 95q14 41 14 84q0 73 -48 117q-47 43 -132 43q-108 0 -175 -65q-66 -64 -105 -204h-119q38 197 142 297q106 101 278 101q143 0 229 -74t86 -199q0 -55 -16 -107q-16 -53 -55 -115 q-40 -64 -99 -133q-70 -82 -151 -163l-238 -231q-122 -114 -219 -193h479l53 172h117l-86 -307h-768z" />
<glyph unicode="3" horiz-adv-x="1028" d="M57 281q0 18 2 44q1 8 9 50h122q-2 -14 -5 -45q-1 -11 -1 -33q0 -91 60 -141q61 -50 168 -50q67 0 125 26q56 25 99 71q42 45 64 107q23 64 23 136q0 102 -59 154q-61 53 -175 53h-51l35 131q17 -2 30 -3q9 -1 21 -1q61 0 118 22q54 21 95 59t65 88q23 47 23 108 q0 82 -49 127t-139 45q-197 0 -260 -242h-125q76 363 401 363q73 0 133 -21q61 -21 102 -58q40 -35 65 -91q24 -52 24 -117q0 -124 -74 -215q-73 -89 -209 -133q185 -63 185 -262q0 -102 -35 -189q-34 -84 -98 -148t-148 -98t-188 -34q-167 0 -259 77q-94 79 -94 220z" />
<glyph unicode="4" horiz-adv-x="1028" d="M51 371l29 114l733 861h135l-213 -857l193 5l-29 -123h-192l-64 -254h154l-29 -117h-436l28 117h142l63 254h-514zM223 483l371 2l51 205l33 123l38 139l37 129l27 93l-129 -165l-85 -109l-70 -88l-88 -105z" />
<glyph unicode="5" horiz-adv-x="1028" d="M86 266l2 60h125v-39q0 -86 50 -133q51 -48 143 -48q145 0 247 138q47 69 73 155q28 93 28 181q0 104 -47 162q-47 57 -140 57q-73 0 -139 -36t-135 -114l-98 15l266 667h590l-58 -135h-461l-145 -352q57 41 112 60q53 18 115 18q136 0 216 -86q79 -85 79 -238 q0 -65 -12 -131q-12 -65 -36 -127q-26 -67 -56 -116q-32 -52 -72 -97q-139 -143 -336 -143q-147 0 -228 75q-83 77 -83 207z" />
<glyph unicode="6" horiz-adv-x="1028" d="M96 328q0 313 320 657l103 106l109 105l106 96l95 80h158q-99 -81 -233 -214q-123 -122 -236 -251q37 12 52 14q20 3 46 3q63 0 118 -26q54 -26 92 -71q40 -48 60 -108q21 -63 21 -139q0 -114 -40 -227q-41 -116 -111 -199q-140 -170 -338 -170q-148 0 -235 93t-87 251z M252 317q0 -100 46 -156q46 -57 130 -57q128 0 225 148q45 72 72 161q27 88 27 173q0 107 -46 166t-128 59q-129 0 -224 -143q-47 -70 -74 -166q-28 -100 -28 -185z" />
<glyph unicode="7" horiz-adv-x="1028" d="M68 0l884 1198h-518l-51 -182h-117l84 315h783l-27 -114l-875 -1217h-163z" />
<glyph unicode="8" horiz-adv-x="1028" d="M94 305q0 152 83 261t226 143q-118 79 -118 235q0 86 31 158q32 74 87 129t129 87q75 32 160 32q142 0 222 -79q81 -79 81 -214q0 -131 -69 -226q-69 -94 -199 -141q67 -33 104 -98t37 -158q0 -99 -32 -179q-33 -82 -92 -143q-60 -61 -139 -95q-77 -33 -175 -33 q-158 0 -247 86t-89 235zM242 311q0 -98 52 -153q53 -56 146 -56q58 0 109 27t90 72t60 106q22 64 22 131q0 95 -50 148t-139 53q-58 0 -112 -26q-53 -26 -93 -70q-41 -45 -63 -105q-22 -59 -22 -127zM432 936q0 -86 44 -136t122 -50q51 0 96 24q43 23 79 67q32 39 54 97 q21 56 21 117q0 82 -44 129t-120 47q-51 0 -96 -24q-48 -26 -80 -63q-34 -40 -55 -94t-21 -114z" />
<glyph unicode="9" horiz-adv-x="1028" d="M123 -41q127 107 246 225q112 112 223 242q-23 -8 -51 -14q-19 -4 -47 -4q-68 0 -119 25q-53 26 -91 71q-40 48 -60 108q-21 63 -21 140q0 114 40 227q43 120 111 201q140 170 338 170q147 0 235 -94q87 -93 87 -250q0 -314 -320 -658l-99 -103l-107 -103l-107 -97 l-100 -86h-158zM358 748q0 -108 46 -167q47 -61 128 -61q128 0 224 144q48 71 74 166q28 101 28 186q0 100 -46 156q-46 57 -130 57q-130 0 -225 -148q-46 -73 -72 -161q-27 -90 -27 -172z" />
<glyph unicode=":" horiz-adv-x="407" d="M-25 0l54 209h211l-54 -209h-211zM129 618l53 209h211l-51 -209h-213z" />
<glyph unicode=";" horiz-adv-x="403" d="M-166 -254l252 254h-109l52 209h215l-54 -209l-223 -254h-133zM131 618l51 209h213l-53 -209h-211z" />
<glyph unicode="&#x3c;" d="M115 625v131l886 415v-149l-727 -332l727 -332v-149z" />
<glyph unicode="=" horiz-adv-x="1028" d="M117 467v119h887v-119h-887zM117 772v121h887v-121h-887z" />
<glyph unicode="&#x3e;" d="M117 209v149l727 332l-727 332v147l887 -415v-129z" />
<glyph unicode="?" horiz-adv-x="800" d="M158 0l47 184h178l-47 -184h-178zM199 1006q29 170 128 259q100 89 259 89q133 0 214 -70q79 -69 79 -190q0 -133 -107 -238q-20 -20 -27 -26q-19 -16 -26 -22q-23 -19 -45 -35l-80 -58q-44 -33 -80 -67q-31 -30 -56 -70q-21 -34 -41 -89q-16 -45 -32 -114h-133 q21 85 46 163q21 64 54 114q35 53 85 97q52 46 136 109q77 59 111 110q33 49 33 109q0 69 -42 106q-43 38 -116 38q-184 0 -237 -215h-123z" />
<glyph unicode="@" horiz-adv-x="1366" d="M61 680q0 146 56 275q57 131 150 224q94 94 225 149q129 54 278 54q140 0 257 -46q119 -46 204 -126q86 -80 135 -190t49 -240q0 -96 -27 -183q-27 -88 -74 -154q-46 -65 -107 -105q-60 -39 -128 -39q-58 0 -101 35q-42 35 -50 88q-44 -61 -109 -97q-62 -34 -139 -34 q-64 0 -117 24q-52 24 -91 69q-38 44 -59 104q-22 63 -22 133q0 84 29 160q27 72 77 131q47 56 113 89t140 33q159 0 219 -137l22 113h121l-84 -428l-8 -56q-4 -24 -4 -39q0 -41 18 -63q18 -23 53 -23q40 0 79 31q38 30 68 83q28 49 47 119q17 62 17 138q0 109 -38 197 t-109 156q-70 67 -164 104q-93 37 -207 37q-124 0 -232 -45t-188 -125q-78 -78 -124 -188t-46 -232q0 -134 57 -256q57 -121 161 -203q151 -119 380 -119q53 0 106 7q51 7 114 20q54 11 110 29q58 18 96 34l33 -108q-114 -51 -224 -75q-105 -23 -228 -23q-332 0 -529 196 q-97 94 -151 228t-54 274zM524 623q0 -94 50 -153q49 -58 131 -58q49 0 88 23q40 23 70 66q28 40 47 97q18 55 18 119q0 89 -44 141q-44 51 -122 51q-49 0 -92 -22t-75 -62q-32 -39 -51 -91q-20 -54 -20 -111z" />
<glyph unicode="A" horiz-adv-x="1265" d="M-115 0l31 123h150l725 1255h149l74 -1255h162l-33 -123h-488l31 123h168l-14 307h-457l-172 -307h182l-31 -123h-477zM455 551h381l-11 231q-3 49 -5 145q-1 60 -3 113q0 14 -1 20t-1 27q0 30 -1 50t-1 84l-55 -114l-49 -96l-57 -106l-77 -139z" />
<glyph unicode="B" horiz-adv-x="1140" d="M-55 0l30 123h162l281 1124h-176l30 119h385q52 0 116 -2q43 -1 85 -8q31 -5 66 -16q33 -10 53 -23q139 -78 139 -246q0 -135 -77 -227t-222 -129q207 -63 207 -283q0 -132 -72 -236q-73 -105 -194 -151q-34 -12 -72 -21q-48 -12 -84 -15q-60 -6 -109 -7q-84 -2 -151 -2 h-397zM293 123h102q123 0 194 12q69 12 122 43q70 39 110 109q39 67 39 149q0 144 -123 197q-35 13 -73 17q-45 5 -123 5h-115zM457 776h86q88 0 147 8q55 7 103 29q73 33 118 101q43 65 43 149q0 129 -108 166q-21 9 -67 14q-37 4 -111 4h-95z" />
<glyph unicode="C" horiz-adv-x="1159" d="M102 471q0 96 20 199q20 102 55 193t86 177q47 80 114 150q196 205 444 205q217 0 307 -146l29 117h125l-94 -385h-125q1 23 3 36q1 9 1 27q0 104 -65 163t-181 59q-224 0 -383 -240q-80 -119 -125 -269t-45 -300q0 -173 75 -264q76 -93 216 -93q143 0 237 88 q95 89 158 277h144q-137 -494 -551 -494q-211 0 -328 131q-117 130 -117 369z" />
<glyph unicode="D" horiz-adv-x="1257" d="M-55 0l30 123h162l281 1124h-176l30 119h418q136 0 217 -16q84 -16 144 -54q194 -122 194 -422q0 -119 -23 -224q-24 -107 -68 -207q-44 -97 -105 -177t-138 -135q-49 -37 -104 -61q-60 -26 -123 -40q-71 -16 -150 -23q-77 -7 -190 -7h-399zM293 123h110q85 0 145 7 q67 8 117 25q54 18 95 44q46 29 84 65q50 48 94 120q44 70 75 153q30 80 49 171q17 84 17 175q0 119 -42 204q-42 86 -115 123q-42 22 -101 29q-64 8 -151 8h-97z" />
<glyph unicode="E" horiz-adv-x="1042" d="M-55 0l30 123h162l281 1124h-176l30 119h895l-77 -313h-123l47 194h-441l-116 -471h456l-30 -125h-457l-133 -528h471l55 223h125l-86 -346h-913z" />
<glyph unicode="F" horiz-adv-x="972" d="M-55 0l30 123h162l281 1124h-176l30 119h897l-77 -313h-123l47 194h-443l-116 -471h461l-31 -125h-461l-133 -528h203l-33 -123h-518z" />
<glyph unicode="G" horiz-adv-x="1241" d="M102 469q0 96 18 195q19 103 50 191q33 92 80 176q46 82 104 149q186 215 457 215q111 0 189 -35t130 -111l29 117h125l-96 -385h-125q4 20 4 34v23q0 108 -68 168q-67 60 -188 60q-112 0 -204 -56q-91 -55 -169 -172q-77 -117 -124 -273q-46 -153 -46 -306 q0 -177 81 -268t241 -91q74 0 134 18q64 19 122 56l88 328h-178l32 121h463l-30 -121h-136l-104 -398q-48 -34 -103 -61q-51 -25 -100 -41q-50 -17 -101 -24q-49 -7 -110 -7q-227 0 -346 128t-119 370z" />
<glyph unicode="H" horiz-adv-x="1341" d="M-55 0l30 123h162l281 1124h-176l30 119h490l-31 -121h-162l-116 -465h579l117 467h-178l30 119h492l-31 -119h-162l-280 -1124h176l-31 -123h-489l31 123h161l136 541h-580l-135 -541h178l-31 -123h-491z" />
<glyph unicode="I" horiz-adv-x="622" d="M-55 0l30 123h164l281 1124h-178l30 119h502l-31 -119h-163l-281 -1124h180l-33 -123h-501z" />
<glyph unicode="J" horiz-adv-x="649" d="M-135 -166l31 123q86 0 135 14q53 15 90 55q36 39 62 112q27 78 55 192l229 917h-178l30 119h498l-31 -119h-159l-230 -915q-13 -52 -43 -162q-16 -58 -37 -111q-18 -46 -37 -73q-22 -32 -44 -54q-106 -100 -304 -100h-27q-10 0 -40 2z" />
<glyph unicode="K" horiz-adv-x="1249" d="M-55 0l30 123h162l281 1124h-176l30 119h486l-31 -119h-158l-131 -524l621 524h-168l31 119h477l-31 -119h-129l-528 -442l272 -682h158l-31 -123h-479l31 123h157l-227 592l-195 -158l-108 -434h174l-31 -123h-487z" />
<glyph unicode="L" horiz-adv-x="991" d="M-55 0l30 123h162l281 1124h-176l30 119h512l-30 -119h-176l-281 -1124h459l55 223h125l-86 -346h-905z" />
<glyph unicode="M" horiz-adv-x="1626" d="M-55 0l30 123h162l281 1124h-176l30 119h414l27 -551l10 -189q4 -72 6 -128q1 -56 3 -108q2 -55 3 -128q60 115 127 231l187 324l323 549h406l-33 -119h-162l-280 -1124h178l-31 -123h-489l32 123h158l135 547l38 143q24 89 38 148l39 145l43 158l-53 -95l-43 -76 l-39 -69l-41 -72l-90 -155l-91 -156l-335 -569h-146l-31 571q-12 190 -18 350q-7 183 -8 271l-45 -185l-74 -314q-31 -130 -45 -179l-115 -463h174l-32 -123h-467z" />
<glyph unicode="N" horiz-adv-x="1333" d="M-55 0l30 123h162l281 1124h-176l30 119h359l155 -535l57 -194l37 -134l28 -114l32 -133l33 136l27 122l29 122l34 138l119 473h-178l30 119h473l-30 -119h-162l-311 -1247h-136l-163 580l-46 159l-45 160l-21 77l-19 67l-19 71l-25 90l-66 -292q-27 -120 -65 -271 l-129 -518h179l-33 -123h-471z" />
<glyph unicode="O" horiz-adv-x="1243" d="M100 471q0 83 17 179q16 92 47 184q29 86 74 172q41 78 96 147q90 115 212 179q120 63 255 63q205 0 319 -133q115 -135 115 -367q0 -178 -60 -358q-61 -182 -165 -316q-192 -250 -473 -250q-100 0 -182 35q-79 34 -137 99q-57 64 -87 158q-31 96 -31 208zM266 457 q0 -167 75 -261q76 -96 206 -96q190 0 336 203q41 61 75 133q38 81 60 155q25 84 38 164q13 79 13 158q0 162 -74 257q-75 96 -200 96q-207 0 -359 -232q-35 -52 -68 -129q-36 -82 -55 -147q-22 -73 -34 -154q-13 -84 -13 -147z" />
<glyph unicode="P" horiz-adv-x="1052" d="M-55 0l30 123h162l281 1124h-176l30 119h410q133 0 200 -10q70 -10 117 -39q146 -80 146 -270q0 -127 -61 -234q-60 -106 -164 -162q-67 -35 -153 -50q-87 -15 -222 -15h-135l-117 -463h203l-33 -123h-518zM440 707h109q124 0 188 14q71 15 119 49q58 42 92 114 q33 70 33 156q0 114 -63 161q-62 46 -224 46h-119z" />
<glyph unicode="Q" horiz-adv-x="1243" d="M100 471q0 85 17 181q17 93 47 183q29 86 74 171q41 78 96 147q94 119 213 180q119 62 254 62q203 0 318 -133q116 -134 116 -367q0 -176 -55 -344q-55 -169 -158 -311l160 -240h-205l-68 123q-83 -77 -173 -115q-87 -37 -195 -37q-101 0 -185 35q-80 34 -138 99 q-56 64 -87 157q-31 95 -31 209zM266 459q0 -169 75 -263q76 -96 208 -96q189 0 334 205q41 57 75 132q38 84 60 155q25 82 38 163q13 79 13 158q0 159 -74 256t-198 97q-209 0 -361 -230q-35 -56 -68 -130q-34 -77 -55 -147q-21 -72 -34 -154q-13 -83 -13 -146z" />
<glyph unicode="R" horiz-adv-x="1179" d="M-55 0l30 123h162l281 1124h-176l30 119h428q58 0 128 -2q54 -2 91 -6q45 -5 65 -11q24 -7 54 -20q164 -72 164 -278q0 -107 -48 -197q-49 -91 -136 -143q-40 -27 -87 -42q-53 -17 -118 -28l117 -516h153l-32 -123h-258l-131 629h-244l-127 -506h174l-31 -123h-489z M449 750h151q127 0 190 10q67 11 113 39q67 38 101 103t34 147q0 140 -116 180q-26 9 -71 14q-36 4 -116 4h-164z" />
<glyph unicode="S" horiz-adv-x="1003" d="M-41 0l102 412h115q-7 -39 -8 -55q-2 -26 -2 -35q0 -101 70 -162q69 -60 190 -60q67 0 127 22q56 21 99 59q41 37 66 91q23 50 23 117q0 98 -67 158q-10 10 -22 20q-16 13 -25 19l-47 28l-86 50q-80 47 -123 80q-50 38 -80 77q-32 41 -43 82q-12 43 -12 96q0 87 32 157 q35 75 91 126q59 53 139 83q79 30 172 30q107 0 172 -34t104 -108l29 113h112l-92 -371h-112q2 12 5 42q1 10 1 30q0 92 -58 145q-59 54 -159 54q-58 0 -110 -19q-50 -18 -87 -52t-58 -79q-22 -47 -22 -96q0 -78 58 -131q20 -20 53 -43q26 -18 100 -60q91 -52 148 -92 q55 -39 90 -82q33 -40 45 -88q12 -46 12 -108q0 -97 -35 -179q-34 -80 -98 -141q-61 -58 -152 -92q-88 -33 -192 -33q-218 0 -320 150l-30 -121h-115z" />
<glyph unicode="T" horiz-adv-x="1005" d="M131 0l31 123h170l280 1124h-282l-54 -211h-124l81 330h967l-84 -330h-125l53 211h-278l-279 -1124h185l-33 -123h-508z" />
<glyph unicode="U" horiz-adv-x="1316" d="M188 291q0 44 11 105q14 77 32 151l175 700h-179l33 119h494l-31 -119h-162l-174 -698q-14 -53 -20 -82q-11 -49 -13 -63q-4 -27 -6 -50q-2 -30 -2 -43q0 -102 66 -156q67 -55 190 -55q176 0 270 121q37 48 63 115q30 76 58 196l178 715h-176l31 119h455l-31 -119h-154 l-172 -690q-19 -83 -30 -125q-9 -33 -22 -78q-11 -38 -16 -50q-8 -20 -18 -42q-128 -291 -458 -291q-180 0 -286 86t-106 234z" />
<glyph unicode="V" horiz-adv-x="1234" d="M180 1247l31 119h485l-28 -119h-170l47 -1063l602 1063h-182l30 119h461l-31 -119h-135l-727 -1263h-151l-70 1263h-162z" />
<glyph unicode="W" horiz-adv-x="1697" d="M199 1247l32 119h476l-31 -119h-162l-27 -493q-19 -280 -21 -307q-13 -168 -26 -261l66 156l62 144q22 50 70 152l85 177l270 551h170l-10 -547q0 -79 -3 -151q-4 -99 -7 -147q-6 -105 -10 -155q-2 -27 -7 -86.5t-8 -93.5l45 112l43 103l61 139l97 218l225 489h-176 l31 119h454l-30 -119h-142l-585 -1255h-156l10 563q5 144 12 295q9 186 19 338l-59 -134l-66 -143l-77 -162l-93 -194l-274 -563h-156l59 1255h-161z" />
<glyph unicode="X" horiz-adv-x="1161" d="M-94 0l31 123h139l487 592l-141 532h-176l30 119h275l129 -528l313 409h-182l31 119h473l-31 -119h-135l-436 -534l155 -590h183l-33 -123h-279l-143 592l-365 -469h183l-31 -123h-477z" />
<glyph unicode="Y" horiz-adv-x="1120" d="M197 0l30 123h170l113 455l-152 669h-157l30 119h471l-32 -119h-158l115 -536l381 536h-166l30 119h451l-31 -119h-135l-491 -667l-113 -457h184l-32 -123h-508z" />
<glyph unicode="Z" horiz-adv-x="978" d="M-70 0l25 98l924 1149h-469l-54 -194h-123l84 313h797l-24 -100l-922 -1143h547l63 223h125l-92 -346h-881z" />
<glyph unicode="[" horiz-adv-x="614" d="M-6 -397l440 1763h305l-30 -123h-166l-379 -1515h180l-31 -125h-319z" />
<glyph unicode="\" horiz-adv-x="755" d="M233 1366h109l315 -1720h-108z" />
<glyph unicode="]" horiz-adv-x="614" d="M-131 -397l31 123h168l376 1515h-180l31 125h319l-438 -1763h-307z" />
<glyph unicode="^" d="M98 748l363 622h196l363 -622h-164l-299 503l-297 -503h-162z" />
<glyph unicode="_" d="M47 -135h1024v-137h-1024v137z" />
<glyph unicode="`" d="M424 1391h184l137 -269h-116z" />
<glyph unicode="a" horiz-adv-x="942" d="M16 221q0 107 73 194q72 85 208 132q38 14 64 20l71 18q19 4 92 19l131 25l7 32q10 30 13 57q3 24 3 44q0 108 -141 108q-98 0 -154 -46q-58 -48 -98 -156h-103l72 235q80 46 147 65t152 19q127 0 199 -54q71 -53 71 -151q0 -34 -6 -67q-8 -44 -22 -105l-125 -499h143 l-27 -111h-276l37 143q-61 -87 -125 -125t-152 -38q-112 0 -183 66t-71 175zM174 242q0 -66 41 -104t107 -38q63 0 119 34q58 35 94 93q11 17 18 33q10 22 16 41q16 51 18 59l23 89l21 81q-75 -13 -112 -21q-35 -7 -76 -17q-3 -1 -55 -17q-17 -5 -50 -20q-78 -34 -121 -91 q-43 -56 -43 -122z" />
<glyph unicode="b" horiz-adv-x="1003" d="M37 0l315 1264h-147l26 106h289l-131 -528q112 145 266 145q134 0 213 -98q80 -100 80 -260q0 -132 -46 -260q-48 -132 -124 -226q-133 -163 -311 -163q-181 0 -250 167l-41 -147h-139zM276 319q0 -99 48 -161q46 -60 127 -60q149 0 249 174q42 76 70 179q27 101 27 186 q0 111 -45 171t-129 60q-139 0 -238 -157q-23 -39 -42 -85q-20 -49 -35 -102q-16 -55 -23 -106q-9 -63 -9 -99z" />
<glyph unicode="c" horiz-adv-x="878" d="M51 344q0 65 14 138q15 79 38 138q24 62 62 124q39 63 79 106q131 137 309 137q167 0 211 -123l27 103h110l-80 -322h-110q2 24 3 35q1 8 1 29q0 75 -42 117t-118 42q-142 0 -236 -149q-49 -77 -79 -183q-31 -108 -31 -202q0 -114 47 -175t139 -61q172 0 246 224h137 q-111 -342 -399 -342q-154 0 -241 97t-87 267z" />
<glyph unicode="d" horiz-adv-x="1032" d="M51 338q0 132 40 249t107 207q66 88 155 141q88 52 188 52q177 0 239 -170l113 447h-148l27 106h289l-313 -1259h147l-29 -111h-288l32 129q-121 -149 -270 -149q-67 0 -118 25t-91 74q-37 46 -59 114q-21 66 -21 145zM205 328q0 -110 45 -170t127 -60q144 0 246 178 q43 74 71 178q27 99 27 185q0 103 -47 167q-46 62 -127 62q-142 0 -242 -168q-47 -76 -73 -177q-27 -103 -27 -195z" />
<glyph unicode="e" horiz-adv-x="905" d="M51 340q0 136 48 269q49 135 128 225q136 153 332 153q138 0 218 -86q79 -85 79 -237q0 -44 -5 -89q-4 -34 -22 -100l-608 -6q-9 -54 -11 -76q-3 -29 -3 -63q0 -112 48 -172t140 -60q83 0 147 47q60 44 113 150h133q-118 -315 -405 -315q-158 0 -245 95t-87 265zM250 578 l448 6q10 56 10 58q3 24 3 46q0 86 -42 133t-118 47q-102 0 -177 -74q-78 -76 -124 -216z" />
<glyph unicode="f" horiz-adv-x="620" d="M-55 0l26 111h138l172 749h-136l27 107h133l23 96q24 102 47 157q22 54 53 89q78 82 213 82q47 0 88 -11q43 -12 80 -32l-31 -123q-65 49 -135 49q-36 0 -59 -10q-25 -11 -43 -36q-19 -26 -35 -68q-15 -39 -31 -105l-20 -88h225l-27 -107h-223l-172 -749h168l-29 -111 h-452z" />
<glyph unicode="g" horiz-adv-x="933" d="M-115 -156q0 188 252 260q-67 33 -67 93q0 54 55 94q57 41 180 80q-77 39 -115 99q-36 58 -36 153q0 81 28 146q29 66 79 115q48 47 120 75t154 28q44 0 77 -6q28 -5 86 -25h297l-26 -106h-189q22 -36 29 -69q8 -37 8 -76q0 -91 -41 -170q-40 -78 -112 -127 q-47 -33 -99 -47q-46 -12 -139 -17q-105 -39 -144 -65q-40 -27 -40 -60q0 -24 30 -39l18 -7q9 -4 21 -6q5 -1 18 -3.5t20 -3.5q9 -2 65 -10q72 -10 125 -26q46 -14 90 -40q45 -29 73 -82q27 -51 27 -111q0 -70 -33 -127q-34 -58 -91 -98q-59 -41 -140 -63q-84 -23 -182 -23 q-186 0 -292 71t-106 193zM23 -141q0 -79 70 -122q71 -44 200 -44q135 0 217 52t82 136q0 78 -69 120t-193 42q-142 0 -225 -50q-82 -49 -82 -134zM291 629q0 -82 45 -127t125 -45q93 0 156 70q63 71 63 178q0 82 -43 126q-44 46 -121 46q-46 0 -88 -20q-44 -21 -72 -52 q-30 -33 -48 -79q-17 -44 -17 -97z" />
<glyph unicode="h" horiz-adv-x="1079" d="M-53 0l26 111h138l288 1153h-147l24 106h297l-135 -543q67 85 133 122q68 38 152 38q106 0 168 -59q63 -60 63 -158q0 -13 -2 -41q-1 -20 -6 -46q-4 -22 -12 -61l-21 -87l-106 -424h147l-28 -111h-416l29 111h118l111 442q18 68 23 99q6 36 6 65q0 139 -142 139 q-114 0 -196 -100q-19 -26 -30 -43q-12 -19 -23 -47q-9 -22 -22 -64q-12 -39 -24 -88l-100 -403h129l-27 -111h-415z" />
<glyph unicode="i" horiz-adv-x="544" d="M-53 0l26 111h138l186 749h-147l26 107h297l-213 -856h148l-29 -111h-432zM340 1176l43 172h186l-43 -172h-186z" />
<glyph unicode="j" horiz-adv-x="552" d="M-248 -410l31 121q73 5 126 24q53 20 90 64q40 48 66 121q29 82 56 193l186 747h-147l26 107h295l-213 -854l-38 -144q-17 -65 -29 -96q-19 -48 -29 -67q-18 -32 -35 -54q-60 -78 -147 -121t-197 -43h-15q-6 0 -26 2zM348 1178l43 172h187l-43 -172h-187z" />
<glyph unicode="k" horiz-adv-x="1056" d="M-53 0l26 111h138l286 1153h-145l24 106h295l-213 -854l420 344h-145l26 107h422l-26 -107h-113l-315 -256l182 -493h133l-29 -111h-426l29 111h137l-141 405l-190 -149l-64 -256h137l-26 -111h-422z" />
<glyph unicode="l" horiz-adv-x="550" d="M-53 0l26 111h138l266 1153h-148l27 106h299l-291 -1259h148l-29 -111h-436z" />
<glyph unicode="m" horiz-adv-x="1546" d="M-53 0l26 111h138l186 749h-147l26 107h289l-35 -142q62 88 124 124q65 38 144 38q88 0 141 -46q54 -47 72 -132q63 91 132 135q68 43 155 43q104 0 164 -59q61 -60 61 -158q0 -38 -7 -80q-10 -62 -27 -125l-115 -454h147l-26 -111h-416l27 111h120l127 514q19 73 19 112 q0 55 -36 87q-37 32 -99 32q-115 0 -189 -108q-7 -11 -19 -33q-13 -24 -18 -40q-12 -39 -16 -55l-21 -77l-106 -432h129l-27 -111h-399l29 111h118l119 481q4 18 15 58q7 24 8 35q2 13 3 24q1 7 1 22q0 59 -36 92t-95 33q-53 0 -103 -30q-47 -29 -86 -83q-24 -36 -41 -81 q-18 -46 -36 -125l-107 -426h129l-27 -111h-415z" />
<glyph unicode="n" horiz-adv-x="1058" d="M-53 0l26 111h138l186 749h-147l26 107h293l-39 -154q130 174 293 174q100 0 156 -56q57 -57 57 -153q0 -13 -2 -41q-1 -19 -6 -47q-3 -15 -14 -63l-21 -88l-107 -428h148l-29 -111h-416l29 111h119l123 489q10 39 15 76q5 38 5 57q0 60 -34 91q-35 32 -93 32 q-112 0 -196 -106q-20 -26 -29 -40q-12 -20 -24 -45q-7 -15 -21 -61q-12 -40 -23 -86l-100 -407h129l-27 -111h-415z" />
<glyph unicode="o" horiz-adv-x="940" d="M51 346q0 66 11 127q12 65 33 127q19 55 52 118q28 53 68 101q67 81 155 124q90 44 183 44q76 0 135 -26q61 -27 105 -74q41 -43 66 -115q24 -68 24 -149q0 -57 -13 -129q-12 -64 -33 -128q-18 -53 -53 -120q-31 -60 -69 -103q-133 -163 -334 -163q-153 0 -241 99 q-89 100 -89 267zM207 332q0 -114 46 -173q47 -61 134 -61q67 0 123 35q55 34 102 113q50 79 81 185q32 110 32 204q0 111 -46 172t-132 61q-133 0 -232 -153q-47 -79 -77 -184q-31 -109 -31 -199z" />
<glyph unicode="p" horiz-adv-x="1034" d="M-166 -403l27 110h137l289 1153h-148l27 107h287l-31 -129q59 77 125 113t145 36q66 0 117 -25q53 -26 91 -74q37 -47 58 -114q21 -66 21 -145q0 -132 -46 -261q-47 -132 -124 -225q-139 -163 -313 -163q-189 0 -244 167l-111 -440h162l-29 -110h-440zM309 319 q0 -100 47 -161q46 -60 127 -60q150 0 246 172q43 83 69 181q27 102 27 188q0 112 -46 171q-47 60 -126 60q-137 0 -231 -149q-21 -35 -43 -87q-20 -48 -36 -106q-18 -66 -25 -109q-9 -54 -9 -100z" />
<glyph unicode="q" horiz-adv-x="1032" d="M49 336q0 130 47 263q46 130 125 226q67 78 149 120q81 42 169 42q85 0 144 -41q58 -40 97 -129l41 150h275l-27 -107h-135l-289 -1153h148l-27 -110h-432l28 110h142l102 418q-63 -77 -126 -111q-62 -34 -140 -34q-68 0 -119 25q-53 26 -91 73q-39 48 -59 112 q-22 69 -22 146zM201 324q0 -105 45 -165q46 -61 123 -61q150 0 249 195q21 37 37 83q19 54 29 92q10 41 19 90q8 46 8 81q0 111 -45 171t-125 60q-146 0 -244 -182q-46 -80 -71 -178q-25 -99 -25 -186z" />
<glyph unicode="r" horiz-adv-x="796" d="M-51 0l26 111h138l186 749h-147l26 107h287l-45 -176q67 102 133 149q63 45 141 45q48 0 83 -16t77 -58l-63 -229h-109q9 42 11 55q3 21 3 41q0 38 -19 60t-52 22q-53 0 -105 -47q-50 -45 -94 -137q-22 -50 -51 -135q-27 -80 -51 -179l-62 -251h162l-27 -111h-448z" />
<glyph unicode="s" horiz-adv-x="849" d="M-29 0l82 326h105q-2 -8 -5 -35q-1 -8 -1 -23q0 -79 56 -125q58 -47 150 -47q88 0 144 45q55 45 55 117q0 62 -49 102l-19 15q-10 8 -21 14l-38 23l-68 39q-70 40 -108 66q-45 31 -68 60q-24 30 -34 62q-11 35 -11 74q0 57 25 109q24 50 67 87t103 58q57 20 129 20 q168 0 231 -121l25 101h104l-77 -314h-105q2 10 5 38q1 9 1 28q0 71 -46 111t-128 40t-132 -41t-50 -106q0 -25 5 -45q4 -17 24 -37q19 -19 54 -41q33 -21 97 -55q65 -38 98 -59q35 -22 58 -42q80 -68 80 -174q0 -64 -27 -116q-29 -56 -73 -93q-47 -40 -108 -60 q-63 -21 -136 -21q-195 0 -261 133l-28 -113h-105z" />
<glyph unicode="t" horiz-adv-x="610" d="M104 154q0 29 8 74q10 59 27 120l129 512h-135l29 107h133l72 284h149l-72 -284h224l-27 -107h-223l-125 -491q-19 -71 -25 -108q-8 -50 -8 -66q0 -41 24 -64q23 -22 64 -22q28 0 58 8q26 7 69 26l-33 -127q-43 -18 -76 -25q-32 -7 -71 -7q-91 0 -140 45q-51 46 -51 125z " />
<glyph unicode="u" horiz-adv-x="1048" d="M102 201q0 34 8 79q10 57 23 113l117 467h-148l27 107h297l-141 -570q-17 -68 -24 -103t-7 -63q0 -55 36 -88q35 -32 99 -32q57 0 113 27q55 27 96 77q16 21 30 42q9 13 24 48q10 22 22 62q8 26 22 84l103 409h-148l27 107h297l-213 -856h147l-28 -111h-285l41 162 q-124 -182 -303 -182q-107 0 -169 59q-63 60 -63 162z" />
<glyph unicode="v" horiz-adv-x="968" d="M84 860l27 107h417l-26 -107h-135l22 -344q10 -112 15 -210q1 -29 4 -79t4 -69l41 75l43 82q10 23 22 43l30 53l31 55l27 50l199 344h-146l27 107h393l-26 -107h-119l-504 -868h-135l-74 868h-137z" />
<glyph unicode="w" horiz-adv-x="1392" d="M88 860l27 107h413l-26 -107h-137l-7 -323q-2 -67 -3 -120q-1 -47 -3 -95q-1 -31 -5 -80q-4 -51 -5 -72l53 121l40 85l44 88l66 130l203 373h151l16 -381q0 -31 1 -51l3 -64q1 -22 1 -62v-44q-2 -40 -2 -66v-133l48 116l35 85l34 76l42 92l154 325h-150l27 107h397 l-26 -107h-121l-422 -868h-148l-10 393q-2 67 -3 128q-1 46 -1 103v23v33q0 31 1 54q2 36 3 89l-40 -86l-24 -53l-16 -34l-12 -26l-30 -57l-33 -65l-32 -62l-26 -47l-213 -393h-139l6 868h-131z" />
<glyph unicode="x" horiz-adv-x="978" d="M-100 0l26 111h117l369 415l-111 334h-158l27 107h248l102 -340l191 233h-136l27 107h389l-26 -107h-111l-299 -336l137 -413h168l-26 -111h-259l-129 422l-256 -311h146l-29 -111h-407z" />
<glyph unicode="y" horiz-adv-x="952" d="M-131 -414l29 119h22q56 0 96 11q44 12 82 37q39 26 74 68q38 46 74 103l33 53l-68 883h-131l26 107h412l-26 -107h-134l13 -317q0 -1 2 -33l4 -64q4 -59 12 -185q4 -61 4 -109l40 77l52 98l60 107l61 109l180 317h-147l27 107h395l-27 -107h-119l-507 -889 q-24 -43 -64 -109q-20 -32 -53 -80q-18 -26 -46 -58q-25 -28 -42 -43q-57 -49 -125 -72q-69 -23 -160 -23h-49z" />
<glyph unicode="z" horiz-adv-x="833" d="M-72 0l21 84l690 776h-363l-45 -147h-110l72 254h667l-22 -84l-686 -772h421l50 170h112l-78 -281h-729z" />
<glyph unicode="{" horiz-adv-x="614" d="M61 -244q0 23 8 69q11 62 17 89l80 322q10 32 13 55q3 21 3 37q0 71 -84 98l27 106q66 16 103 59t59 128l92 362q23 86 47 136q26 54 68 88q39 32 97 47q53 14 134 14h45l-29 -115q-55 2 -91 -7q-38 -9 -65 -33q-30 -26 -46 -63q-19 -42 -33 -99l-84 -336 q-11 -50 -28 -93q-16 -39 -35 -66q-20 -28 -47 -46q-28 -18 -64 -33q39 -27 55 -56t16 -75q0 -25 -4 -45q-8 -39 -14 -63l-82 -332q-6 -27 -14 -67q-4 -21 -4 -40q0 -52 37 -73q38 -21 131 -21l-29 -113h-45q-123 0 -178 39q-56 39 -56 127z" />
<glyph unicode="|" d="M485 -342v1708h150v-1708h-150z" />
<glyph unicode="}" horiz-adv-x="614" d="M-164 -408l29 113q106 -4 157 40q49 43 78 163l84 338q12 54 27 92q15 40 35 65q23 29 48 46q24 16 64 32q-37 27 -55 58q-16 28 -16 73q0 23 3 50q3 29 13 61l82 330q10 43 16 69q5 23 5 37q0 53 -37 74q-36 20 -131 20l26 113h47q122 0 178 -39t56 -127q0 -27 -7 -65 q-7 -36 -20 -91l-80 -323q-14 -52 -14 -90q0 -75 84 -99l-27 -108q-66 -16 -104 -57q-37 -41 -60 -129l-90 -363q-21 -79 -48 -135q-27 -55 -67 -88q-39 -32 -97 -47q-57 -15 -134 -15h-18q-7 0 -27 2z" />
<glyph unicode="~" horiz-adv-x="1366" d="M238 500q31 62 63 110q30 45 64 73q36 29 69 40q38 12 84 12q40 0 93 -15q51 -15 137 -56l74 -34q30 -14 51 -21t38 -9q22 -2 35 -2q59 0 98 30q41 32 86 111l93 -53q-60 -124 -130 -177q-71 -54 -165 -54q-25 0 -44 4q-34 7 -53 14q-34 12 -75 31l-115 51 q-83 37 -135 37q-53 0 -94 -35q-40 -34 -86 -115z" />
<glyph unicode="&#xa4;" horiz-adv-x="1366" d="M152 1112l75 76l193 -191q81 59 145 82q70 25 152 25q78 0 150 -25q68 -24 143 -82l192 191l76 -76l-191 -190q57 -78 80 -145q25 -72 25 -148q0 -77 -25 -149q-23 -67 -80 -142l193 -193l-74 -75l-192 192q-135 -104 -295 -104q-79 0 -148 24t-149 80l-191 -192l-73 75 l188 193q-106 133 -106 293q0 79 24 148q23 67 82 141zM362 635q0 -73 28 -141q26 -63 75 -114q48 -49 113 -76q68 -28 139 -28q72 0 137 28q63 27 112 76q48 48 75 113q28 67 28 138t-28 138q-27 65 -75 113q-47 47 -112 75t-137 28q-71 0 -138 -28q-65 -27 -113 -75 q-49 -49 -76 -112q-28 -65 -28 -135z" />
<glyph unicode="&#xa6;" d="M485 313h150v-655h-150v655zM485 684v682h150v-682h-150z" />
<glyph unicode="&#xa7;" d="M6 -82q0 23 1 35q1 17 3 47h127q-2 -30 -2 -36v-25q0 -78 50 -119t149 -41q110 0 175 58q66 59 66 153q0 74 -49 123q-14 16 -17 19t-23 21q-5 4 -43 34l-78 61q-80 63 -105 86q-41 38 -64 68q-24 31 -33 62q-9 30 -9 64q0 177 262 277q-60 55 -82 101q-23 48 -23 110 q0 72 28 134q26 59 79 105q53 47 120 70q72 25 152 25q138 0 217 -67q78 -66 78 -187q0 -22 -2 -52q-1 -14 -10 -59h-123q7 34 8 49q2 24 2 37q0 158 -180 158q-98 0 -161 -54q-62 -53 -62 -141q0 -70 57 -121q12 -12 17 -16q2 -2 9 -7t12 -9l36 -28q29 -23 65 -48 q75 -55 111 -86q42 -36 67 -69t35 -61q11 -31 11 -63q0 -183 -254 -297q53 -55 75 -105q23 -51 23 -118q0 -77 -29 -141q-29 -63 -80 -110q-49 -44 -124 -71q-73 -26 -158 -26q-154 0 -239 69t-85 191zM293 559q0 -42 22 -73q20 -28 86 -80l83 -66q39 -31 69 -49 q84 34 135 88q49 52 49 113q0 36 -20 63q-22 30 -84 80q-34 29 -82 64l-66 49q-93 -35 -142 -84q-50 -50 -50 -105z" />
<glyph unicode="&#xa9;" horiz-adv-x="1591" d="M137 692q0 144 57 271q58 129 152 222q96 94 224 150q129 56 274 56q144 0 274 -56q131 -56 224 -151q96 -97 151 -226q55 -128 55 -276q0 -146 -55 -274q-55 -129 -151 -226q-93 -94 -223 -151q-129 -56 -273 -56q-148 0 -278 57q-132 58 -225 152q-93 95 -150 228 q-56 132 -56 280zM219 692q0 -136 49 -253q49 -118 133 -203q87 -88 199 -137q115 -50 246 -50q127 0 241 50q110 48 197 137q83 85 133 201q49 114 49 247t-49 246q-50 116 -133 200q-87 89 -198 137q-115 50 -242 50q-130 0 -243 -49q-115 -50 -199 -134t-134 -199 q-49 -113 -49 -243zM492 690q0 98 24 176q23 75 70 133q45 55 109 85t145 30q62 0 107 -16t93 -56v58h88v-240h-90q-6 48 -14 71q-6 18 -27 42q-49 55 -147 55q-114 0 -177 -88t-63 -254q0 -154 63 -244t169 -90q121 0 172 107q11 21 16 43q3 13 8 63h95q-1 -146 -75 -224 q-72 -77 -210 -77q-166 0 -261 113t-95 313z" />
<glyph unicode="&#xab;" horiz-adv-x="952" d="M178 498l299 469h113l-281 -480l31 -487h-102zM489 498l299 469h113l-280 -480l30 -487h-102z" />
<glyph unicode="&#xac;" d="M115 406v139h886v-545h-149v406h-737z" />
<glyph unicode="&#xad;" horiz-adv-x="399" d="M-4 479l24 99h400l-25 -99h-399z" />
<glyph unicode="&#xae;" horiz-adv-x="1591" d="M137 692q0 144 57 271q58 129 152 222q96 94 224 150q129 56 274 56q144 0 274 -56q131 -56 224 -151q96 -97 151 -226q55 -128 55 -276q0 -146 -55 -274q-55 -129 -151 -226q-93 -95 -224 -151q-130 -56 -274 -56q-148 0 -277 57q-132 58 -224 152q-93 95 -150 228 q-56 132 -56 280zM219 690q0 -135 48 -252t133 -202q89 -89 199 -137q115 -50 245 -50q127 0 242 50q111 48 198 137q83 84 133 200q49 113 49 246t-49 247q-50 116 -133 201q-87 89 -198 137q-115 50 -242 50q-130 0 -243 -49t-199 -135q-83 -83 -134 -200 q-49 -113 -49 -243zM512 281v82h106v653h-106v82h272q73 0 99 -1q45 -2 64 -4q12 -1 45 -9q10 -2 40 -13q57 -23 93 -76q34 -50 34 -120q0 -168 -176 -213l156 -299h96v-82h-178l-183 368h-147v-286h100v-82h-315zM729 735h96q41 0 56 1q7 0 20 0.5t19 1.5q19 2 28 5 q12 5 25 11q69 33 69 123q0 42 -17 72q-18 31 -50 46q-14 7 -26 11q-10 3 -29 5q-6 1 -20 1.5t-21 0.5q-16 1 -62 1h-88v-279z" />
<glyph unicode="&#xb0;" d="M385 1096q0 56 24 109q25 54 63 91q42 40 94 62q53 22 114 22q62 0 114 -21q50 -20 91 -61q38 -38 61 -90t23 -108q0 -60 -24 -113q-26 -56 -63 -92q-39 -37 -94 -61q-54 -23 -114 -23q-59 0 -114 22q-52 21 -91 60q-38 39 -61 91q-23 54 -23 112zM500 1098 q0 -74 50 -124t126 -50q38 0 69 14q35 16 57 38q23 23 38 55q14 29 14 69q0 36 -13 65q-15 33 -37 55t-55 36t-69 14t-70 -14q-36 -15 -57 -36q-24 -24 -39 -56q-14 -29 -14 -66z" />
<glyph unicode="&#xb1;" horiz-adv-x="1028" d="M57 94v125h887v-125h-887zM57 657v125h377v385h135v-385h375v-125h-375v-387h-135v387h-377z" />
<glyph unicode="&#xb5;" d="M143 -344v1327h150v-557q0 -110 16 -167q16 -56 64 -101q35 -35 82 -53q44 -17 98 -17q125 0 201 98q40 50 57 109q16 55 16 149v539h150v-983h-150v174q-47 -107 -113 -154q-67 -47 -165 -47q-86 0 -146 36q-58 35 -110 116v-469h-150z" />
<glyph unicode="&#xb6;" horiz-adv-x="993" d="M76 915q0 119 63 224q62 104 168 161q124 66 340 66h574l-31 -119h-162l-366 -1470h-146l367 1470h-178l-367 -1470h-145l215 866h-33q-138 1 -219 75q-80 72 -80 197z" />
<glyph unicode="&#xb7;" horiz-adv-x="407" d="M74 397l53 209h211l-53 -209h-211z" />
<glyph unicode="&#xbb;" horiz-adv-x="952" d="M47 0l281 479l-31 488h102l60 -498l-299 -469h-113zM358 0l281 479l-31 488h103l59 -498l-299 -469h-113z" />
<glyph unicode="&#x192;" horiz-adv-x="811" d="M-31 -166q78 -6 123 13q48 20 60 102l112 774h-196v143h217l51 355q17 120 76 182q56 60 144 78q90 18 212 2v-156q-126 11 -179 -16q-55 -28 -67 -115l-47 -330h242v-143h-262l-111 -789q-18 -128 -82 -192q-47 -47 -120 -59q-72 -12 -173 0v151z" />
<glyph unicode="&#x401;" horiz-adv-x="1042" d="M-55 0l30 123h162l281 1124h-176l30 119h895l-77 -313h-123l47 194h-441l-116 -471h456l-30 -125h-457l-133 -528h471l55 223h125l-86 -346h-913zM506 1540l45 178h178l-43 -178h-180zM870 1540l45 178h181l-45 -178h-181z" />
<glyph unicode="&#x402;" horiz-adv-x="1275" d="M92 0l31 123h170l280 1124h-243l-54 -211h-124l81 330h967l-84 -330h-125l53 211h-317l-113 -459q76 49 155 72q86 25 163 25q142 0 228 -76q87 -77 87 -201q0 -23 -1 -33q-2 -20 -4 -32q-4 -21 -9 -43q-7 -29 -14 -64l-82 -323l-36 -144q-15 -57 -30 -96 q-16 -42 -30 -67q-19 -35 -35 -56q-60 -78 -148 -120t-196 -42h-16q-5 0 -25 2l30 121q73 5 126 24q53 20 90 64q40 48 66 121q29 82 56 193l76 338l13 59q7 33 7 37q1 6 2.5 14t1.5 10q1 7 1 23q0 75 -52 119q-50 43 -143 43q-72 0 -157 -31q-83 -30 -163 -86l-126 -516 h157l-31 -123h-483z" />
<glyph unicode="&#x403;" horiz-adv-x="991" d="M-55 0l30 123h162l281 1124h-176l30 119h895l-77 -313h-123l47 194h-441l-280 -1124h180l-33 -123h-495zM653 1509l267 238h270l-387 -238h-150z" />
<glyph unicode="&#x404;" horiz-adv-x="1159" d="M102 471q0 96 20 199q20 102 55 193t86 177q47 80 114 150q196 205 444 205q217 0 307 -146l29 117h125l-94 -385h-125q1 23 3 36q1 9 1 27q0 104 -65 163t-181 59q-85 0 -161 -36q-75 -35 -142 -104q-68 -69 -119 -163q-54 -99 -88 -218h523l-29 -116h-520 q-11 -50 -14 -87q-3 -40 -3 -87q0 -171 76 -262q78 -93 215 -93q143 0 237 88q95 89 158 277h144q-137 -494 -551 -494q-211 0 -328 131q-117 130 -117 369z" />
<glyph unicode="&#x405;" horiz-adv-x="1003" d="M-41 0l102 412h115q-7 -39 -8 -55q-2 -26 -2 -35q0 -101 70 -162q69 -60 190 -60q67 0 127 22q56 21 99 59q41 37 66 91q23 50 23 117q0 98 -67 158q-10 10 -22 20q-16 13 -25 19l-47 28l-86 50q-80 47 -123 80q-50 38 -80 77q-32 41 -43 82q-12 43 -12 96q0 87 32 157 q35 75 91 126q59 53 139 83q79 30 172 30q107 0 172 -34t104 -108l29 113h112l-92 -371h-112q2 12 5 42q1 10 1 30q0 92 -58 145q-59 54 -159 54q-58 0 -110 -19q-50 -18 -87 -52t-58 -79q-22 -47 -22 -96q0 -78 58 -131q20 -20 53 -43q26 -18 100 -60q91 -52 148 -92 q55 -39 90 -82q33 -40 45 -88q12 -46 12 -108q0 -97 -35 -179q-34 -80 -98 -141q-61 -58 -152 -92q-88 -33 -192 -33q-218 0 -320 150l-30 -121h-115z" />
<glyph unicode="&#x406;" horiz-adv-x="622" d="M-55 0l30 123h164l281 1124h-178l30 119h502l-31 -119h-163l-281 -1124h180l-33 -123h-501z" />
<glyph unicode="&#x407;" horiz-adv-x="622" d="M-55 0l30 123h164l281 1124h-178l30 119h502l-31 -119h-163l-281 -1124h180l-33 -123h-501zM328 1540l45 178h178l-43 -178h-180zM633 1540l45 178h180l-45 -178h-180z" />
<glyph unicode="&#x408;" horiz-adv-x="649" d="M-135 -166l31 123q86 0 135 14q53 15 90 55q36 39 62 112q27 78 55 192l229 917h-178l30 119h498l-31 -119h-159l-230 -915q-13 -52 -43 -162q-16 -58 -37 -111q-18 -46 -37 -73q-22 -32 -44 -54q-106 -100 -304 -100h-27q-10 0 -40 2z" />
<glyph unicode="&#x409;" horiz-adv-x="1642" d="M-96 -8l30 127q64 2 104 16q44 16 75 51q33 38 60 100q31 72 58 163l304 917h862l-31 -119h-164l-117 -467h64q130 0 196 -11q75 -13 119 -38q152 -84 152 -276q0 -125 -62 -229q-61 -102 -170 -163q-65 -34 -155 -49q-84 -14 -230 -14h-426l31 123h158l278 1116h-397 l-309 -920q-28 -88 -66 -152q-37 -62 -88 -101t-120 -57q-65 -17 -156 -17zM922 121h82q227 0 317 63q60 40 96 111q35 70 35 154q0 118 -68 165q-70 48 -235 48h-92z" />
<glyph unicode="&#x40a;" horiz-adv-x="1720" d="M-55 0l30 123h162l281 1124h-176l30 119h490l-31 -121h-162l-116 -465h553l114 467h-178l31 119h502l-29 -119h-166l-117 -467h64q129 0 195 -11q75 -13 122 -38q150 -84 150 -276q0 -125 -62 -229q-61 -102 -170 -163q-65 -34 -155 -49q-84 -14 -230 -14h-426l31 123 h160l133 539h-551l-135 -539h178l-31 -123h-491zM999 121h82q228 0 318 63q60 40 96 111q35 70 35 154q0 118 -68 165q-70 48 -235 48h-92z" />
<glyph unicode="&#x40b;" horiz-adv-x="1425" d="M92 0l31 123h170l280 1124h-243l-54 -211h-124l81 330h967l-84 -330h-125l53 211h-317l-113 -459q76 49 155 72q86 25 163 25q142 0 228 -76q87 -77 87 -201q0 -23 -1 -33q-2 -20 -4 -32q-4 -21 -9 -43q-7 -29 -14 -64l-80 -317h178l-31 -119h-493l28 119h162l82 332 q14 49 19 86q6 44 6 57q0 75 -52 119q-50 43 -143 43q-72 0 -157 -31q-83 -30 -163 -86l-126 -516h157l-31 -123h-483z" />
<glyph unicode="&#x40c;" horiz-adv-x="1249" d="M-55 0l30 123h162l281 1124h-176l30 119h486l-31 -119h-158l-131 -524l621 524h-168l31 119h477l-31 -119h-129l-528 -442l272 -682h158l-31 -123h-479l31 123h157l-227 592l-195 -158l-108 -434h174l-31 -123h-487zM788 1509l267 238h270l-387 -238h-150z" />
<glyph unicode="&#x40e;" horiz-adv-x="1120" d="M82 0l31 123h168l192 303l-127 821h-156l31 119h469l-31 -119h-157l88 -657l407 657h-168l31 119h453l-33 -119h-133l-711 -1124h187l-33 -123h-508zM586 1714v19q0 2 2 24h84q0 -127 157 -127q77 0 129 29q53 30 93 98h82q-34 -123 -116 -190q-81 -66 -200 -66 q-109 0 -170 57t-61 156z" />
<glyph unicode="&#x40f;" horiz-adv-x="1341" d="M-55 0l30 119h162l281 1124h-176l30 123h490l-31 -123h-162l-280 -1122h579l281 1122h-178l30 123h492l-33 -123h-162l-280 -1124h178l-29 -119h-534l-51 -207h-152l51 207h-536z" />
<glyph unicode="&#x410;" horiz-adv-x="1265" d="M-115 0l31 123h150l725 1255h149l74 -1255h162l-33 -123h-488l31 123h168l-14 307h-457l-172 -307h182l-31 -123h-477zM455 551h381l-11 231q-3 49 -5 145q-1 60 -3 113q0 14 -1 20t-1 27q0 30 -1 50t-1 84l-55 -114l-49 -96l-57 -106l-77 -139z" />
<glyph unicode="&#x411;" horiz-adv-x="1058" d="M-49 0l31 123h157l281 1124h-176l30 119h869l-80 -313h-123l49 194h-409l-117 -467h92q130 0 196 -11q75 -13 119 -38q152 -84 152 -276q0 -126 -61 -229q-61 -102 -173 -163q-65 -34 -154 -49q-83 -14 -228 -14h-455zM299 121h109q224 0 319 63q60 40 96 111 q35 70 35 154q0 119 -67 165q-70 48 -236 48h-121z" />
<glyph unicode="&#x412;" horiz-adv-x="1140" d="M-55 0l30 123h162l281 1124h-176l30 119h385q52 0 116 -2q43 -1 85 -8q31 -5 66 -16q33 -10 53 -23q139 -78 139 -246q0 -135 -77 -227t-222 -129q207 -63 207 -283q0 -132 -72 -236q-73 -105 -194 -151q-34 -12 -72 -21q-48 -12 -84 -15q-60 -6 -109 -7q-84 -2 -151 -2 h-397zM293 123h102q123 0 194 12q69 12 122 43q70 39 110 109q39 67 39 149q0 144 -123 197q-35 13 -73 17q-45 5 -123 5h-115zM457 776h86q88 0 147 8q55 7 103 29q73 33 118 101q43 65 43 149q0 129 -108 166q-21 9 -67 14q-37 4 -111 4h-95z" />
<glyph unicode="&#x413;" horiz-adv-x="991" d="M-55 0l30 123h162l281 1124h-176l30 119h895l-77 -313h-123l47 194h-441l-280 -1124h180l-33 -123h-495z" />
<glyph unicode="&#x414;" horiz-adv-x="1320" d="M-150 -207l82 326h52q119 0 184 98q14 20 25 40l6.5 13t7.5 16.5t7 15.5q12 26 24 60q5 13 15 45.5t13 41.5l303 917h725l-311 -1247h178l-82 -326h-151l53 207h-928l-51 -207h-152zM242 121h585l279 1120h-428l-309 -922q-51 -146 -127 -198z" />
<glyph unicode="&#x415;" horiz-adv-x="1042" d="M-55 0l30 123h162l281 1124h-176l30 119h895l-77 -313h-123l47 194h-441l-116 -471h456l-30 -125h-457l-133 -528h471l55 223h125l-86 -346h-913z" />
<glyph unicode="&#x416;" horiz-adv-x="1875" d="M-96 0l30 123h127l603 639l-269 485h-145l29 119h477l-29 -119h-168l240 -467h133l117 467h-158l29 119h464l-30 -119h-158l-117 -467h146l458 467h-165l30 119h475l-28 -119h-129l-510 -504l254 -620h157l-30 -123h-482l31 123h158l-211 541h-182l-136 -541h158 l-31 -123h-462l30 123h158l135 541h-162l-497 -541h153l-30 -123h-463z" />
<glyph unicode="&#x417;" horiz-adv-x="1159" d="M106 406v23q0 5 1.5 17.5t1.5 18.5h149q-2 -22 -2 -29v-20q0 -117 55 -199q40 -61 101 -90t151 -29q69 0 132 25t105 67q44 44 68 104q25 63 25 132q0 203 -272 203h-115l29 116h114q365 0 365 285q0 109 -62 173q-62 63 -174 63q-128 0 -229 -74q-99 -72 -160 -211h-129 l96 385h125l-26 -104q79 70 166 101q90 32 200 32q168 0 264 -90q97 -91 97 -248q0 -170 -90 -266q-46 -50 -103 -75q-54 -23 -143 -34q113 -29 164 -93t51 -179q0 -100 -42 -188q-42 -89 -118 -150q-71 -55 -145 -78q-81 -25 -187 -25q-310 0 -417 224q-46 97 -46 213z" />
<glyph unicode="&#x418;" horiz-adv-x="1316" d="M82 0l311 1247h-178l31 119h489l-30 -121h-162l-238 -956l860 1077h301l-30 -119h-162l-281 -1124h178l-32 -123h-490l31 123h162l239 956l-862 -1079h-137z" />
<glyph unicode="&#x419;" horiz-adv-x="1316" d="M82 0l311 1247h-178l31 119h489l-30 -121h-162l-238 -956l860 1077h301l-30 -119h-162l-281 -1124h178l-32 -123h-490l31 123h162l239 956l-862 -1079h-137zM682 1714v19q0 2 2 24h84q0 -127 158 -127q77 0 129 29q51 29 92 98h82q-34 -123 -116 -190q-81 -66 -200 -66 q-109 0 -170 57t-61 156z" />
<glyph unicode="&#x41a;" horiz-adv-x="1249" d="M-55 0l30 123h162l281 1124h-176l30 119h486l-31 -119h-158l-131 -524l621 524h-168l31 119h477l-31 -119h-129l-528 -442l272 -682h158l-31 -123h-479l31 123h157l-227 592l-195 -158l-108 -434h174l-31 -123h-487z" />
<glyph unicode="&#x41b;" horiz-adv-x="1263" d="M-96 -8l30 129q64 2 104 16q43 15 75 50t60 100q30 70 58 164l304 915h725l-312 -1243h170l-31 -123h-495l31 123h170l278 1118h-428l-309 -919q-52 -178 -154 -256q-99 -76 -276 -74z" />
<glyph unicode="&#x41c;" horiz-adv-x="1626" d="M-55 0l30 123h162l281 1124h-176l30 119h414l27 -551l10 -189q4 -72 6 -128q1 -56 3 -108q2 -55 3 -128q60 115 127 231l187 324l323 549h406l-33 -119h-162l-280 -1124h178l-31 -123h-489l32 123h158l135 547l38 143q24 89 38 148l39 145l43 158l-53 -95l-43 -76 l-39 -69l-41 -72l-90 -155l-91 -156l-335 -569h-146l-31 571q-12 190 -18 350q-7 183 -8 271l-45 -185l-74 -314q-31 -130 -45 -179l-115 -463h174l-32 -123h-467z" />
<glyph unicode="&#x41d;" horiz-adv-x="1341" d="M-55 0l30 123h162l281 1124h-176l30 119h490l-31 -121h-162l-116 -465h579l117 467h-178l30 119h492l-31 -119h-162l-280 -1124h176l-31 -123h-489l31 123h161l136 541h-580l-135 -541h178l-31 -123h-491z" />
<glyph unicode="&#x41e;" horiz-adv-x="1243" d="M100 471q0 83 17 179q16 92 47 184q29 86 74 172q41 78 96 147q90 115 212 179q120 63 255 63q205 0 319 -133q115 -135 115 -367q0 -178 -60 -358q-61 -182 -165 -316q-192 -250 -473 -250q-100 0 -182 35q-79 34 -137 99q-57 64 -87 158q-31 96 -31 208zM266 457 q0 -167 75 -261q76 -96 206 -96q190 0 336 203q41 61 75 133q38 81 60 155q25 84 38 164q13 79 13 158q0 162 -74 257q-75 96 -200 96q-207 0 -359 -232q-35 -52 -68 -129q-36 -82 -55 -147q-22 -73 -34 -154q-13 -84 -13 -147z" />
<glyph unicode="&#x41f;" horiz-adv-x="1341" d="M-55 0l30 123h162l281 1124h-176l30 119h1221l-31 -119h-162l-280 -1124h176l-31 -123h-489l31 123h161l281 1122h-580l-280 -1122h178l-31 -123h-491z" />
<glyph unicode="&#x420;" horiz-adv-x="1052" d="M-55 0l30 123h162l281 1124h-176l30 119h410q133 0 200 -10q70 -10 117 -39q146 -80 146 -270q0 -127 -61 -234q-60 -106 -164 -162q-67 -35 -153 -50q-87 -15 -222 -15h-135l-117 -463h203l-33 -123h-518zM440 707h109q124 0 188 14q71 15 119 49q58 42 92 114 q33 70 33 156q0 114 -63 161q-62 46 -224 46h-119z" />
<glyph unicode="&#x421;" horiz-adv-x="1159" d="M102 471q0 96 20 199q20 102 55 193t86 177q47 80 114 150q196 205 444 205q217 0 307 -146l29 117h125l-94 -385h-125q1 23 3 36q1 9 1 27q0 104 -65 163t-181 59q-224 0 -383 -240q-80 -119 -125 -269t-45 -300q0 -173 75 -264q76 -93 216 -93q143 0 237 88 q95 89 158 277h144q-137 -494 -551 -494q-211 0 -328 131q-117 130 -117 369z" />
<glyph unicode="&#x422;" horiz-adv-x="1005" d="M131 0l31 123h170l280 1124h-282l-54 -211h-124l81 330h967l-84 -330h-125l53 211h-278l-279 -1124h185l-33 -123h-508z" />
<glyph unicode="&#x423;" horiz-adv-x="1120" d="M82 0l31 123h168l192 303l-127 821h-156l31 119h469l-31 -119h-157l88 -657l407 657h-168l31 119h453l-33 -119h-133l-711 -1124h187l-33 -123h-508z" />
<glyph unicode="&#x424;" horiz-adv-x="1431" d="M55 637q0 116 54 216q53 98 150 167q99 70 234 107q138 38 304 38h18l23 84h-176l28 117h492l-31 -117h-164l-22 -88q31 0 68 -6q41 -6 76 -15q35 -8 74 -23q48 -18 66 -27q238 -114 238 -349q0 -71 -21 -139q-22 -69 -59 -127q-37 -56 -92 -107q-54 -49 -121 -79 q-88 -42 -208 -64q-122 -22 -259 -22l-22 -84h180l-31 -119h-504l31 119h174l20 84q-245 16 -382 131q-138 115 -138 303zM211 629q0 -137 104 -219q105 -82 291 -93l180 730q-270 -4 -422 -115q-153 -111 -153 -303zM756 317q108 0 202 21q96 21 170 59q92 47 148 138 q55 89 55 192q0 142 -104 225q-106 85 -291 95z" />
<glyph unicode="&#x425;" horiz-adv-x="1161" d="M-94 0l31 123h139l487 592l-141 532h-176l30 119h275l129 -528l313 409h-182l31 119h473l-31 -119h-135l-436 -534l155 -590h183l-33 -123h-279l-143 592l-365 -469h183l-31 -123h-477z" />
<glyph unicode="&#x426;" horiz-adv-x="1355" d="M-55 0l30 119h162l281 1124h-176l30 123h490l-31 -123h-162l-280 -1122h579l281 1122h-178l30 123h492l-33 -123h-162l-280 -1124h178l-80 -326h-151l51 207h-1071z" />
<glyph unicode="&#x427;" horiz-adv-x="1280" d="M207 1247l29 119h495l-31 -119h-159l-84 -332q-17 -61 -21 -88q-4 -25 -4 -55q0 -76 51 -118t144 -42q70 0 158 31q82 29 161 86l129 518h-168l31 119h498l-29 -119h-172l-281 -1124h172l-30 -123h-498l31 123h166l114 455q-158 -95 -319 -95q-143 0 -229 76 q-87 77 -87 199q0 23 1 33q1 5 5 32q3 20 9 44q10 44 16 65l78 315h-176z" />
<glyph unicode="&#x428;" horiz-adv-x="1959" d="M-55 0l30 119h162l281 1124h-176l30 123h490l-31 -123h-162l-280 -1122h524l279 1122h-177l31 123h490l-31 -123h-162l-280 -1122h524l278 1122h-176l31 123h491l-32 -123h-162l-281 -1124h179l-31 -119h-1839z" />
<glyph unicode="&#x429;" horiz-adv-x="1974" d="M-55 0l30 119h162l281 1124h-176l30 123h490l-31 -123h-162l-280 -1122h524l279 1122h-177l31 123h490l-31 -123h-162l-280 -1122h524l278 1122h-176l31 123h491l-32 -123h-162l-281 -1124h179l-82 -326h-152l53 207h-1689z" />
<glyph unicode="&#x42a;" horiz-adv-x="1261" d="M164 0l31 123h157l281 1124h-275l-47 -194h-125l78 313h723l-29 -119h-165l-117 -467h92q130 0 196 -11q75 -13 119 -38q152 -84 152 -276q0 -126 -61 -229q-61 -102 -173 -163q-65 -34 -154 -49q-83 -14 -229 -14h-454zM512 121h109q225 0 319 63q60 40 96 111 q35 70 35 154q0 119 -67 165q-70 48 -236 48h-121z" />
<glyph unicode="&#x42b;" horiz-adv-x="1611" d="M-49 0l31 123h157l281 1124h-178l28 119h504l-29 -119h-165l-117 -467h92q130 0 196 -11q75 -13 119 -38q152 -84 152 -276q0 -126 -61 -229q-61 -102 -173 -163q-65 -34 -154 -49q-83 -14 -228 -14h-455zM299 121h109q224 0 319 63q60 40 96 111q35 70 35 154 q0 119 -67 165q-70 48 -236 48h-121zM932 0l33 123h163l281 1124h-180l31 119h503l-32 -119h-164l-281 -1124h180l-30 -123h-504z" />
<glyph unicode="&#x42c;" horiz-adv-x="1048" d="M-49 0l31 123h157l281 1124h-178l28 119h504l-29 -119h-165l-117 -467h92q130 0 196 -11q75 -13 119 -38q152 -84 152 -276q0 -126 -61 -229q-61 -102 -173 -163q-65 -34 -154 -49q-83 -14 -228 -14h-455zM299 121h109q224 0 319 63q60 40 96 111q35 70 35 154 q0 119 -67 165q-70 48 -236 48h-121z" />
<glyph unicode="&#x42d;" horiz-adv-x="1241" d="M106 406v23q0 5 1.5 17.5t1.5 18.5h149q-2 -22 -2 -28v-19q0 -146 80 -232t215 -86q156 0 280 139q124 140 193 390h-518l29 116h514q10 55 13 96q3 36 3 74q0 351 -283 351q-129 0 -232 -73q-100 -71 -161 -212h-129l96 385h125l-26 -104q79 70 163 101q87 32 195 32 q203 0 312 -126q110 -127 110 -356q0 -131 -36 -275q-36 -145 -99 -269q-99 -195 -242 -296q-144 -102 -321 -102q-95 0 -176 32q-78 31 -136 89t-88 137q-31 82 -31 177z" />
<glyph unicode="&#x42e;" horiz-adv-x="1796" d="M-55 0l30 123h162l281 1124h-176l30 119h490l-31 -121h-162l-116 -465h249q43 144 109 257q67 115 150 194q85 81 184 122q101 42 211 42q203 0 318 -133q116 -134 116 -367q0 -88 -15 -179t-45 -178t-72 -168q-43 -83 -93 -149q-195 -250 -471 -250q-102 0 -184 35 q-79 34 -137 99q-57 64 -87 158q-31 96 -31 208q0 82 19 193h-250l-135 -541h178l-31 -123h-491zM823 459q0 -166 75 -262q76 -97 206 -97q190 0 334 205q40 57 75 132q38 84 60 155q25 82 38 163q13 79 13 158q0 162 -74 257q-75 96 -198 96q-211 0 -359 -232 q-35 -52 -68 -129q-36 -82 -55 -147q-21 -73 -34 -153q-13 -83 -13 -146z" />
<glyph unicode="&#x42f;" horiz-adv-x="1196" d="M-82 0l31 123h153l359 493q-191 77 -191 295q0 125 62 229q61 103 172 163q65 34 154 49q83 14 229 14h454l-30 -123h-160l-281 -1124h181l-31 -119h-502l29 119h166l114 467h-90q-47 0 -72 1l-63 3l-416 -590h-268zM434 918q0 -119 68 -166t235 -47h121l133 540h-106 q-230 0 -320 -63q-60 -40 -96 -111q-35 -70 -35 -153z" />
<glyph unicode="&#x430;" horiz-adv-x="942" d="M16 221q0 107 73 194q72 85 208 132q38 14 64 20l71 18q19 4 92 19l131 25l7 32q10 30 13 57q3 24 3 44q0 108 -141 108q-98 0 -154 -46q-58 -48 -98 -156h-103l72 235q80 46 147 65t152 19q127 0 199 -54q71 -53 71 -151q0 -34 -6 -67q-8 -44 -22 -105l-125 -499h143 l-27 -111h-276l37 143q-61 -87 -125 -125t-152 -38q-112 0 -183 66t-71 175zM174 242q0 -66 41 -104t107 -38q63 0 119 34q58 35 94 93q11 17 18 33q10 22 16 41q16 51 18 59l23 89l21 81q-75 -13 -112 -21q-35 -7 -76 -17q-3 -1 -55 -17q-17 -5 -50 -20q-78 -34 -121 -91 q-43 -56 -43 -122z" />
<glyph unicode="&#x431;" horiz-adv-x="929" d="M51 342q0 97 28 229q26 124 74 252q50 135 105 236q59 110 123 178q75 81 156 119q78 37 180 37q18 0 27 -1q5 -1 15.5 -1.5t15.5 -0.5q17 -1 43 -6q13 -2 69 -10q39 -6 63 -6q28 0 49 6q20 6 50 23l-31 -129q-25 -16 -48 -20q-27 -5 -55 -5q-13 0 -41 2q-20 1 -65 12 q-32 6 -46 8q-21 3 -38 3q-63 0 -116 -21q-54 -22 -100 -66q-48 -47 -94 -122q-48 -80 -98 -189q111 117 263 117q141 0 222 -96t81 -264q0 -129 -45 -259t-123 -225q-135 -163 -332 -163q-153 0 -242 98q-90 99 -90 264zM209 334q0 -116 46 -175q47 -61 132 -61 q67 0 123 35q55 34 102 113q53 81 82 186q31 112 31 205q0 111 -46 172t-132 61q-135 0 -230 -153q-47 -80 -77 -183q-31 -109 -31 -200z" />
<glyph unicode="&#x432;" horiz-adv-x="931" d="M-53 0l26 111h138l186 745h-137l28 111h476q122 0 188 -57t66 -165q0 -211 -211 -251q147 -53 147 -205q0 -81 -42 -150q-42 -70 -114 -104q-21 -11 -39 -18q-14 -6 -42 -11q-17 -3 -53 -5q-20 -1 -72 -1h-545zM260 111h178q43 0 58 1q7 0 20.5 0.5t19.5 1.5q20 2 29 5 q2 1 11.5 4.5t15.5 5.5q49 21 78 68q28 46 28 106q0 95 -75 123q-22 10 -44 12q-28 2 -77 2h-160zM369 547h112q49 0 67 1q33 2 48 4q24 3 36 7q19 6 34 12q41 20 69 66q27 45 27 98q0 81 -57 105q-21 10 -51 13q-27 3 -95 3h-113z" />
<glyph unicode="&#x433;" horiz-adv-x="823" d="M-53 0l26 111h138l186 745h-137l28 111h732l-78 -312h-127l51 201h-320l-186 -745h129l-27 -111h-415z" />
<glyph unicode="&#x434;" horiz-adv-x="1054" d="M-150 -207l80 318q104 -4 169 47t102 168l219 641h563l-215 -856h143l-80 -318h-124l51 207h-729l-54 -207h-125zM205 111h416l184 745h-285l-176 -516l-10 -31q-22 -74 -56 -124q-35 -53 -73 -74z" />
<glyph unicode="&#x435;" horiz-adv-x="905" d="M51 340q0 136 48 269q49 135 128 225q136 153 332 153q138 0 218 -86q79 -85 79 -237q0 -44 -5 -89q-4 -34 -22 -100l-608 -6q-9 -54 -11 -76q-3 -29 -3 -63q0 -112 48 -172t140 -60q83 0 147 47q60 44 113 150h133q-118 -315 -405 -315q-158 0 -245 95t-87 265zM250 578 l448 6q10 56 10 58q3 24 3 46q0 86 -42 133t-118 47q-102 0 -177 -74q-78 -76 -124 -216z" />
<glyph unicode="&#x436;" horiz-adv-x="1554" d="M-88 0l27 111h133l415 436l-176 313h-112l26 107h387l-26 -107h-119l151 -297h117l74 297h-133l26 107h410l-27 -107h-133l-73 -297h110l297 297h-119l27 107h395l-26 -107h-111l-332 -325l197 -424h133l-29 -111h-424l27 111h139l-164 346h-147l-86 -346h125l-29 -111 h-391l27 111h125l86 346h-144l-329 -346h129l-27 -111h-426z" />
<glyph unicode="&#x437;" horiz-adv-x="866" d="M41 297v25h141v-17q0 -207 187 -207q100 0 163 58q62 57 62 151q0 119 -139 119h-136l27 106h129q98 0 153 50q54 50 54 139q0 71 -41 109t-117 38q-97 0 -159 -53q-61 -52 -99 -170h-110l80 322h110l-20 -86q51 58 110 83q55 23 142 23q124 0 192 -64q70 -65 70 -182 q0 -217 -228 -260q140 -44 140 -194q0 -142 -103 -225q-101 -82 -276 -82q-86 0 -137 16q-56 18 -97 53q-98 88 -98 248z" />
<glyph unicode="&#x438;" horiz-adv-x="1112" d="M68 0l213 856h-136l27 111h416l-27 -111h-131l-160 -641l611 752h299l-27 -111h-147l-185 -745h148l-29 -111h-416l29 111h119l155 626l-600 -737h-159z" />
<glyph unicode="&#x439;" horiz-adv-x="1112" d="M68 0l213 856h-136l27 111h416l-27 -111h-131l-160 -641l611 752h299l-27 -111h-147l-185 -745h148l-29 -111h-416l29 111h119l155 626l-600 -737h-159zM512 1346v19q0 11 4 26h84q-2 -8 -2 -15q-6 -62 31 -99q38 -38 102 -38q67 0 111 33q42 32 82 119h82 q-30 -128 -105 -199q-75 -70 -182 -70q-99 0 -153 60t-54 164z" />
<glyph unicode="&#x43a;" horiz-adv-x="1056" d="M-53 0l26 111h138l186 749h-147l26 107h295l-113 -451l420 344h-145l26 107h422l-26 -107h-113l-315 -256l182 -493h133l-29 -111h-426l29 111h137l-141 405l-190 -149l-64 -256h137l-26 -111h-422z" />
<glyph unicode="&#x43b;" horiz-adv-x="1038" d="M-78 -4l29 115q84 1 138 52q50 47 89 165l217 639h563l-213 -856h148l-29 -111h-415l28 111h119l186 745h-284l-176 -512q-6 -15 -7 -18l-4 -17q-52 -168 -145 -243q-93 -74 -244 -70z" />
<glyph unicode="&#x43c;" horiz-adv-x="1335" d="M-53 0l26 111h138l186 745h-137l28 111h357l53 -738l422 738h383l-27 -111h-147l-187 -745h148l-29 -111h-416l29 111h119l182 729l-457 -781h-133l-67 781l-180 -729h129l-27 -111h-393z" />
<glyph unicode="&#x43d;" horiz-adv-x="1079" d="M-53 0l26 111h138l186 745h-137l28 111h416l-29 -111h-129l-73 -293h377l73 293h-118l26 111h416l-27 -111h-147l-187 -745h148l-29 -111h-416l29 111h119l86 346h-377l-86 -346h129l-27 -111h-415z" />
<glyph unicode="&#x43e;" horiz-adv-x="940" d="M51 346q0 66 11 127q12 65 33 127q19 55 52 118q28 53 68 101q67 81 155 124q90 44 183 44q76 0 135 -26q61 -27 105 -74q41 -43 66 -115q24 -68 24 -149q0 -57 -13 -129q-12 -64 -33 -128q-18 -53 -53 -120q-31 -60 -69 -103q-133 -163 -334 -163q-153 0 -241 99 q-89 100 -89 267zM207 332q0 -114 46 -173q47 -61 134 -61q67 0 123 35q55 34 102 113q50 79 81 185q32 110 32 204q0 111 -46 172t-132 61q-133 0 -232 -153q-47 -79 -77 -184q-31 -109 -31 -199z" />
<glyph unicode="&#x43f;" horiz-adv-x="1079" d="M-53 0l26 111h138l186 745h-137l28 111h959l-27 -111h-147l-187 -745h148l-29 -111h-416l29 111h119l186 745h-377l-186 -745h129l-27 -111h-415z" />
<glyph unicode="&#x440;" horiz-adv-x="1034" d="M-166 -403l27 110h137l289 1153h-148l27 107h287l-31 -129q59 77 125 113t145 36q66 0 117 -25q53 -26 91 -74q37 -47 58 -114q21 -66 21 -145q0 -132 -46 -261q-47 -132 -124 -225q-139 -163 -313 -163q-189 0 -244 167l-111 -440h162l-29 -110h-440zM309 319 q0 -100 47 -161q46 -60 127 -60q150 0 246 172q43 83 69 181q27 102 27 188q0 112 -46 171q-47 60 -126 60q-137 0 -231 -149q-21 -35 -43 -87q-20 -48 -36 -106q-18 -66 -25 -109q-9 -54 -9 -100z" />
<glyph unicode="&#x441;" horiz-adv-x="878" d="M51 344q0 65 14 138q15 79 38 138q24 62 62 124q39 63 79 106q131 137 309 137q167 0 211 -123l27 103h110l-80 -322h-110q2 24 3 35q1 8 1 29q0 75 -42 117t-118 42q-142 0 -236 -149q-49 -77 -79 -183q-31 -108 -31 -202q0 -114 47 -175t139 -61q172 0 246 224h137 q-111 -342 -399 -342q-154 0 -241 97t-87 267z" />
<glyph unicode="&#x442;" horiz-adv-x="827" d="M76 0l26 111h150l186 749h-180l-35 -147h-117l64 254h741l-63 -254h-117l37 147h-180l-187 -749h150l-29 -111h-446z" />
<glyph unicode="&#x443;" horiz-adv-x="952" d="M-131 -414l29 119h22q56 0 96 11q44 12 82 37q39 26 74 68q38 46 74 103l33 53l-68 883h-131l26 107h412l-26 -107h-134l13 -317q0 -1 2 -33l4 -64q4 -59 12 -185q4 -61 4 -109l40 77l52 98l60 107l61 109l180 317h-147l27 107h395l-27 -107h-119l-507 -889 q-24 -43 -64 -109q-20 -32 -53 -80q-18 -26 -46 -58q-25 -28 -42 -43q-57 -49 -125 -72q-69 -23 -160 -23h-49z" />
<glyph unicode="&#x444;" horiz-adv-x="1331" d="M51 274q0 71 12 148q12 74 36 147q23 69 56 138q30 63 72 116q128 164 291 164q71 0 110 -23t68 -79l95 379h-148l27 106h291l-121 -485q42 54 92 78q51 24 119 24q113 0 176 -74t63 -208q0 -107 -29 -223q-29 -117 -77 -220q-69 -139 -162 -210q-94 -72 -205 -72 q-63 0 -103 22t-75 80l-94 -375h149l-28 -110h-441l29 110h147l95 375q-48 -54 -98 -79q-46 -23 -111 -23q-107 0 -171 79q-65 80 -65 215zM199 274q0 -89 34 -138q35 -50 97 -50q63 0 114 48q53 50 93 153q17 45 36 107q20 66 32 123q16 77 22 119q8 61 8 97 q0 144 -107 144q-120 0 -221 -179q-49 -89 -79 -205q-29 -112 -29 -219zM698 231q0 -70 30 -107q30 -38 83 -38q71 0 133 62q64 64 113 182q36 83 58 182q22 101 22 176q0 92 -33 140q-34 49 -94 49q-74 0 -131 -66q-60 -69 -105 -211q-33 -97 -55 -203q-21 -100 -21 -166z " />
<glyph unicode="&#x445;" horiz-adv-x="978" d="M-100 0l26 111h117l369 415l-111 334h-158l27 107h248l102 -340l191 233h-136l27 107h389l-26 -107h-111l-299 -336l137 -413h168l-26 -111h-259l-129 422l-256 -311h146l-29 -111h-407z" />
<glyph unicode="&#x446;" horiz-adv-x="1079" d="M-53 0l26 113h144l186 743h-143l28 111h416l-29 -111h-124l-187 -743h379l186 743h-124l26 111h416l-27 -111h-143l-186 -743h143l-80 -320h-125l51 207h-833z" />
<glyph unicode="&#x447;" horiz-adv-x="1073" d="M109 856l26 111h430l-28 -111h-136l-51 -207q-10 -34 -12 -50q-2 -20 -2 -38q0 -123 141 -123q77 0 146 29q65 27 118 82l78 307h-121l29 111h416l-29 -111h-147l-187 -745h148l-27 -111h-416l27 111h121l69 284q-62 -43 -129 -64q-69 -22 -139 -22q-116 0 -183 59 t-67 160q0 52 15 103l55 225h-145z" />
<glyph unicode="&#x448;" horiz-adv-x="1605" d="M-53 0l26 111h144l186 745h-143l28 111h416l-29 -111h-124l-187 -745h379l186 745h-124l26 111h399l-28 -111h-125l-186 -745h378l187 745h-125l26 111h416l-26 -111h-144l-186 -745h147l-26 -111h-1491z" />
<glyph unicode="&#x449;" horiz-adv-x="1605" d="M-53 0l26 113h144l186 743h-143l28 111h416l-29 -111h-124l-187 -743h379l186 743h-143l29 111h415l-28 -111h-125l-186 -743h378l187 743h-125l26 111h416l-26 -111h-144l-186 -743h143l-80 -320h-125l52 207h-1360z" />
<glyph unicode="&#x44a;" horiz-adv-x="1030" d="M68 655l77 312h631l-26 -111h-132l-71 -283h166q136 0 206 -64t70 -187q0 -94 -40 -165q-42 -75 -113 -114q-24 -15 -48 -23q-28 -9 -51 -13q-29 -5 -66 -6q-25 -1 -96 -1h-456l28 111h136l186 745h-225l-51 -201h-125zM432 111h164q82 0 122 13q43 14 75 50q20 24 36 67 q15 40 15 85q0 71 -37 104q-38 33 -119 33h-168z" />
<glyph unicode="&#x44b;" horiz-adv-x="1353" d="M-53 0l26 111h138l186 745h-137l28 111h416l-29 -111h-129l-71 -283h164q135 0 205 -64q71 -65 71 -187q0 -94 -40 -165q-42 -75 -113 -114q-24 -15 -48 -23q-28 -9 -50 -13q-27 -4 -65 -6q-25 -1 -96 -1h-456zM260 111h164q80 0 120 13q44 14 77 50q21 25 35 67t14 85 q0 71 -37 104t-117 33h-168zM766 0l27 111h118l187 745h-119l27 111h415l-26 -111h-148l-186 -745h147l-26 -111h-416z" />
<glyph unicode="&#x44c;" horiz-adv-x="858" d="M-53 0l26 111h138l186 745h-137l28 111h416l-29 -111h-129l-71 -283h164q135 0 205 -64q71 -65 71 -187q0 -94 -40 -165q-42 -75 -113 -114q-24 -15 -48 -23q-28 -9 -50 -13q-27 -4 -65 -6q-25 -1 -96 -1h-456zM260 111h164q80 0 120 13q44 14 77 50q21 25 35 67t14 85 q0 71 -37 104t-117 33h-168z" />
<glyph unicode="&#x44d;" horiz-adv-x="905" d="M41 297v25h141v-17q0 -100 44 -153q45 -54 128 -54q100 0 183 87q81 85 122 241h-340l27 106h340q4 28 6 55q2 34 2 52q0 229 -174 229q-89 0 -155 -57t-99 -166h-110l80 322h110l-20 -86q54 59 109 82q57 24 132 24q129 0 206 -93q77 -94 77 -251q0 -76 -13 -147 q-13 -73 -38 -142q-22 -62 -60 -128q-36 -62 -77 -109q-65 -71 -141 -106q-74 -34 -167 -34q-148 0 -230 85q-83 86 -83 235z" />
<glyph unicode="&#x44e;" horiz-adv-x="1417" d="M-53 0l26 111h138l186 745h-137l28 111h416l-29 -111h-129l-73 -293h188q27 94 76 176q45 76 107 133q57 53 134 85q72 30 152 30q76 0 135 -26q61 -27 105 -74q40 -43 66 -114q24 -66 24 -148q0 -129 -45 -258q-45 -130 -123 -224q-135 -163 -332 -163q-155 0 -243 98 q-89 100 -89 272q0 21 2 53q1 16 7 54h-191l-86 -346h129l-27 -111h-415zM684 332q0 -114 46 -173q47 -61 134 -61q67 0 123 35q57 35 103 113q48 76 80 185q32 110 32 204q0 111 -46 172t-132 61q-132 0 -231 -153q-49 -82 -78 -184q-31 -109 -31 -199z" />
<glyph unicode="&#x44f;" horiz-adv-x="997" d="M-68 0l27 111h137l219 309q-129 60 -129 225q0 94 40 165q42 74 114 114q22 14 47 22q23 8 51 12q37 6 67 7q50 2 95 2h455l-27 -111h-137l-184 -745h135l-27 -111h-416l27 111h131l70 282h-164h-19l-274 -393h-238zM332 641q0 -71 37 -104q38 -33 118 -33h168l88 352 h-163q-82 0 -122 -13q-43 -14 -75 -50q-22 -26 -37 -67q-14 -38 -14 -85z" />
<glyph unicode="&#x451;" horiz-adv-x="905" d="M51 340q0 136 48 269q49 135 128 225q136 153 332 153q138 0 218 -86q79 -85 79 -237q0 -44 -5 -89q-4 -34 -22 -100l-608 -6q-9 -54 -11 -76q-3 -29 -3 -63q0 -112 48 -172t140 -60q83 0 147 47q60 44 113 150h133q-118 -315 -405 -315q-158 0 -245 95t-87 265zM250 578 l448 6q10 56 10 58q3 24 3 46q0 86 -42 133t-118 47q-102 0 -177 -74q-78 -76 -124 -216zM356 1165l41 166h168l-43 -166h-166zM696 1165l41 166h166l-41 -166h-166z" />
<glyph unicode="&#x452;" horiz-adv-x="1036" d="M-53 0l26 111h138l239 958h-147l24 98h148l24 97h-147l24 106h297l-49 -203h271l-25 -98h-270l-62 -242q67 85 133 122q68 38 152 38q106 0 168 -59q63 -60 63 -158q0 -13 -2 -41q-1 -20 -6 -46q-4 -22 -12 -61l-21 -87l-206 -828h147l-29 -110h-415l28 110h119l211 846 q18 65 23 98q6 39 6 66q0 139 -142 139q-114 0 -196 -100q-19 -26 -30 -43q-12 -19 -23 -47q-9 -22 -22 -64q-12 -39 -24 -88l-100 -403h129l-27 -111h-415z" />
<glyph unicode="&#x453;" horiz-adv-x="823" d="M-53 0l26 111h138l186 745h-137l28 111h732l-78 -312h-127l51 201h-320l-186 -745h129l-27 -111h-415zM526 1128l262 254h224l-361 -254h-125z" />
<glyph unicode="&#x454;" horiz-adv-x="878" d="M51 344q0 68 15 138q17 81 38 138q22 61 61 124t79 106q131 137 309 137q167 0 211 -123l27 103h110l-80 -322h-110q2 24 3 35q1 8 1 29q0 75 -42 117t-118 42q-106 0 -190 -88q-83 -88 -127 -248h346l-27 -106h-342q-3 -17 -5 -49q-1 -14 -1 -43q0 -114 47 -175t139 -61 q172 0 246 224h137q-111 -342 -399 -342q-154 0 -241 97t-87 267z" />
<glyph unicode="&#x455;" horiz-adv-x="849" d="M-29 0l82 326h105q-2 -8 -5 -35q-1 -8 -1 -23q0 -79 56 -125q58 -47 150 -47q88 0 144 45q55 45 55 117q0 62 -49 102l-19 15q-10 8 -21 14l-38 23l-68 39q-70 40 -108 66q-45 31 -68 60q-24 30 -34 62q-11 35 -11 74q0 57 25 109q24 50 67 87t103 58q57 20 129 20 q168 0 231 -121l25 101h104l-77 -314h-105q2 10 5 38q1 9 1 28q0 71 -46 111t-128 40t-132 -41t-50 -106q0 -25 5 -45q4 -17 24 -37q19 -19 54 -41q33 -21 97 -55q65 -38 98 -59q35 -22 58 -42q80 -68 80 -174q0 -64 -27 -116q-29 -56 -73 -93q-47 -40 -108 -60 q-63 -21 -136 -21q-195 0 -261 133l-28 -113h-105z" />
<glyph unicode="&#x456;" horiz-adv-x="544" d="M-53 0l26 111h138l186 749h-147l26 107h297l-213 -856h148l-29 -111h-432zM340 1176l43 172h186l-43 -172h-186z" />
<glyph unicode="&#x457;" horiz-adv-x="544" d="M-53 0l26 111h138l186 749h-147l26 107h297l-213 -856h148l-29 -111h-432zM195 1165l41 166h167l-43 -166h-165zM479 1165l41 166h168l-41 -166h-168z" />
<glyph unicode="&#x458;" horiz-adv-x="552" d="M-248 -410l31 121q73 5 126 24q53 20 90 64q40 48 66 121q29 82 56 193l186 747h-147l26 107h295l-213 -854l-38 -144q-17 -65 -29 -96q-19 -48 -29 -67q-18 -32 -35 -54q-60 -78 -147 -121t-197 -43h-15q-6 0 -26 2zM348 1178l43 172h187l-43 -172h-187z" />
<glyph unicode="&#x459;" horiz-adv-x="1341" d="M-78 -4l29 115q85 1 139 52q53 50 88 165l217 639h695l-29 -111h-129l-72 -283h164q136 0 206 -64t70 -187q0 -96 -39 -165q-42 -74 -114 -114q-25 -16 -47 -23q-28 -9 -50 -13q-27 -4 -66 -6q-25 -1 -95 -1h-457l27 111h137l186 745h-284l-176 -512l-5 -16q-2 -9 -6 -19 q-52 -168 -145 -243q-93 -74 -244 -70zM745 111h164q80 0 120 13q44 14 77 50q23 27 36 67q13 39 13 85q0 71 -37 104q-38 33 -117 33h-167z" />
<glyph unicode="&#x45a;" horiz-adv-x="1382" d="M-53 0l26 111h138l186 745h-137l28 111h416l-29 -111h-129l-73 -293h377l73 293h-137l29 111h415l-28 -111h-129l-74 -293h164q278 0 278 -248q0 -89 -41 -160q-42 -72 -112 -112q-25 -16 -47 -23q-28 -9 -50 -13q-27 -4 -66 -6q-25 -1 -95 -1h-457l27 111h137l86 342 h-377l-86 -342h129l-27 -111h-415zM786 111h164q80 0 120 13q43 14 75 50q22 24 36 65q13 39 13 80q0 134 -154 134h-168z" />
<glyph unicode="&#x45b;" horiz-adv-x="1079" d="M-53 0l26 111h138l239 958h-147l24 98h148l24 97h-147l24 106h297l-49 -203h271l-25 -98h-270l-62 -242q67 85 133 122q68 38 152 38q106 0 168 -59q63 -60 63 -158q0 -13 -2 -41q-1 -20 -6 -46q-4 -22 -12 -61l-21 -87l-106 -424h147l-28 -111h-416l29 111h118l111 442 q18 65 23 98q6 39 6 66q0 139 -142 139q-114 0 -196 -100q-19 -26 -30 -43q-12 -19 -23 -47q-9 -22 -22 -64q-12 -39 -24 -88l-100 -403h129l-27 -111h-415z" />
<glyph unicode="&#x45c;" horiz-adv-x="1056" d="M-53 0l26 111h138l186 749h-147l26 107h295l-113 -451l420 344h-145l26 107h422l-26 -107h-113l-315 -256l182 -493h133l-29 -111h-426l29 111h137l-141 405l-190 -149l-64 -256h137l-26 -111h-422zM573 1128l263 254h223l-361 -254h-125z" />
<glyph unicode="&#x45e;" horiz-adv-x="952" d="M-131 -414l29 119h22q56 0 96 11q44 12 82 37q39 26 74 68q38 46 74 103l33 53l-68 883h-131l26 107h412l-26 -107h-134l13 -317q0 -1 2 -33l4 -64q4 -59 12 -185q4 -61 4 -109l40 77l52 98l60 107l61 109l180 317h-147l27 107h395l-27 -107h-119l-507 -889 q-24 -43 -64 -109q-20 -32 -53 -80q-18 -26 -46 -58q-25 -28 -42 -43q-57 -49 -125 -72q-69 -23 -160 -23h-49zM412 1346v19q0 11 4 26h84q-2 -8 -2 -15q-6 -63 30 -99q38 -38 103 -38q66 0 110 33q42 32 82 119h82q-30 -130 -104 -199q-75 -70 -183 -70q-98 0 -152 60 t-54 164z" />
<glyph unicode="&#x45f;" horiz-adv-x="1079" d="M-53 0l26 111h144l186 745h-143l28 111h416l-29 -111h-124l-187 -745h379l186 745h-124l26 111h416l-27 -111h-143l-186 -745h143l-29 -111h-416l-51 -207h-127l54 207h-418z" />
<glyph unicode="&#x490;" horiz-adv-x="991" d="M-55 0l30 123h162l281 1124h-176l30 119h772l48 186h122l-75 -305h-566l-280 -1124h180l-33 -123h-495z" />
<glyph unicode="&#x491;" horiz-adv-x="813" d="M-53 0l26 111h138l186 745h-137l28 111h605l30 118h125l-57 -229h-445l-186 -745h129l-27 -111h-415z" />
<glyph unicode="&#x2000;" horiz-adv-x="878" />
<glyph unicode="&#x2001;" horiz-adv-x="1757" />
<glyph unicode="&#x2002;" horiz-adv-x="878" />
<glyph unicode="&#x2003;" horiz-adv-x="1757" />
<glyph unicode="&#x2004;" horiz-adv-x="585" />
<glyph unicode="&#x2005;" horiz-adv-x="439" />
<glyph unicode="&#x2006;" horiz-adv-x="292" />
<glyph unicode="&#x2007;" horiz-adv-x="292" />
<glyph unicode="&#x2008;" horiz-adv-x="219" />
<glyph unicode="&#x2009;" horiz-adv-x="351" />
<glyph unicode="&#x200a;" horiz-adv-x="97" />
<glyph unicode="&#x2010;" horiz-adv-x="399" d="M-4 479l24 99h400l-25 -99h-399z" />
<glyph unicode="&#x2011;" horiz-adv-x="399" d="M-4 479l24 99h400l-25 -99h-399z" />
<glyph unicode="&#x2012;" horiz-adv-x="399" d="M-4 479l24 99h400l-25 -99h-399z" />
<glyph unicode="&#x2013;" d="M154 479l24 99h709l-25 -99h-708z" />
<glyph unicode="&#x2014;" horiz-adv-x="1173" d="M-4 475l27 109h1173l-27 -109h-1173z" />
<glyph unicode="&#x2018;" horiz-adv-x="382" d="M190 942l48 193l213 241h127l-242 -241h102l-47 -193h-201z" />
<glyph unicode="&#x2019;" horiz-adv-x="382" d="M135 932l242 242h-103l50 192h198l-47 -192l-213 -242h-127z" />
<glyph unicode="&#x201a;" horiz-adv-x="382" d="M-158 -242l242 242h-102l49 193h198l-47 -193l-213 -242h-127z" />
<glyph unicode="&#x201c;" horiz-adv-x="702" d="M190 942l48 193l213 241h127l-242 -241h102l-47 -193h-201zM510 942l49 193l211 241h127l-240 -241h101l-47 -193h-201z" />
<glyph unicode="&#x201d;" horiz-adv-x="702" d="M135 932l242 242h-103l50 192h198l-47 -192l-213 -242h-127zM455 932l241 242h-102l49 192h199l-47 -192l-211 -242h-129z" />
<glyph unicode="&#x201e;" horiz-adv-x="702" d="M-158 -242l242 242h-102l49 193h198l-47 -193l-213 -242h-127zM162 -242l241 242h-102l49 193h199l-47 -193l-211 -242h-129z" />
<glyph unicode="&#x2020;" d="M236 -324l288 1155h-286l30 125h287l94 375h146l-95 -375h287l-31 -125h-286l-289 -1155h-145z" />
<glyph unicode="&#x2021;" d="M121 356l31 125h286l90 361h-286l30 125h287l92 364h146l-92 -364h286l-30 -125h-287l-90 -361h286l-30 -125h-287l-170 -680h-145l170 680h-287z" />
<glyph unicode="&#x2022;" horiz-adv-x="1366" d="M449 692q0 61 22 112q23 53 61 90q39 37 92 60q54 23 113 23q57 0 108 -23q52 -24 88 -61q37 -39 60 -90q23 -52 23 -109t-23 -111q-23 -53 -60 -90q-39 -39 -90 -61t-110 -22q-60 0 -110 22q-51 22 -91 61q-38 36 -61 89q-22 50 -22 110z" />
<glyph unicode="&#x2026;" horiz-adv-x="1220" d="M-25 0l54 209h211l-54 -209h-211zM383 0l51 209h213l-53 -209h-211zM788 0l54 209h211l-52 -209h-213z" />
<glyph unicode="&#x202f;" horiz-adv-x="351" />
<glyph unicode="&#x2030;" horiz-adv-x="1882" d="M72 0l1110 1366h112l-1112 -1366h-110zM180 958q0 86 26 164q25 74 69 132q41 54 105 89q60 33 128 33q100 0 156 -65q57 -66 57 -178q0 -85 -26 -161t-68 -130q-43 -55 -103 -88t-127 -33q-102 0 -159 63q-58 64 -58 174zM297 965q0 -66 28 -105q27 -37 81 -37 q36 0 75 25q37 23 64 66q26 40 43 98q16 54 16 116q0 70 -27 109t-79 39q-40 0 -77 -25q-38 -25 -64 -67q-28 -45 -44 -100t-16 -119zM645 229q0 84 31 172q29 83 84 146q85 98 213 98q99 0 155 -65q58 -67 58 -179q0 -84 -26 -160q-25 -73 -69 -131q-43 -57 -103 -89 q-58 -31 -126 -31q-103 0 -160 63t-57 176zM762 233q0 -67 29 -105t79 -38q37 0 76 25q37 24 64 67q26 42 43 99q16 54 16 116q0 69 -28 109q-27 39 -78 39q-40 0 -77 -26q-39 -28 -64 -68q-28 -45 -44 -100t-16 -118zM1253 229q0 84 31 172q29 83 84 146q85 98 213 98 q100 0 156 -65q57 -66 57 -179q0 -84 -26 -160q-25 -73 -69 -131q-42 -55 -103 -88q-59 -32 -126 -32q-102 0 -159 63q-58 64 -58 176zM1370 233q0 -67 29 -105t80 -38q36 0 75 25q37 24 64 67q26 42 43 99q16 54 16 116q0 70 -27 109t-79 39q-40 0 -77 -26t-63 -68 q-30 -48 -45 -100q-16 -55 -16 -118z" />
<glyph unicode="&#x2039;" horiz-adv-x="641" d="M178 498l299 469h113l-281 -480l31 -487h-102z" />
<glyph unicode="&#x203a;" horiz-adv-x="641" d="M47 0l281 479l-31 488h102l60 -498l-299 -469h-113z" />
<glyph unicode="&#x205f;" horiz-adv-x="439" />
<glyph unicode="&#x20ac;" horiz-adv-x="1028" d="M-6 498l67 104h84q5 23 14 56q0 1 7 27t12 42h-127l68 104h94q39 92 71 151q32 60 76 114q196 245 457 245q93 0 157 -30q63 -29 111 -94l25 102h119l-92 -371h-123q2 10 5 44q1 10 1 34q0 94 -55 143q-56 50 -160 50q-136 0 -244 -99q-109 -100 -182 -289h575l-67 -104 h-543q-7 -18 -15 -53q-13 -53 -16 -72h492l-68 -104h-442q-6 -52 -6 -111q0 -136 55 -206t162 -70q88 0 174 48q87 49 139 126q16 24 27 46l28 56h134q-28 -91 -80 -167q-51 -75 -119 -128q-70 -54 -150 -82q-81 -28 -170 -28q-175 0 -269 99q-95 100 -95 279q0 45 1 65 q2 31 3 73h-135z" />
<glyph unicode="&#x2116;" horiz-adv-x="1779" d="M-55 0l30 123h162l281 1124h-176l30 119h359l155 -535l57 -194l37 -134l28 -114l32 -133l33 136l27 122l29 122l34 138l119 473h-178l30 119h473l-30 -119h-162l-311 -1247h-136l-163 580l-46 159l-45 160l-21 77l-19 67l-19 71l-25 90l-66 -292q-27 -120 -65 -271 l-129 -518h179l-33 -123h-471zM1174 123l26 106h479l-26 -106h-479zM1292 559q0 79 24 148q24 70 65 121q42 53 98 83q57 31 116 31q94 0 146 -59q53 -61 53 -162q0 -71 -28 -152q-27 -77 -72 -133q-79 -98 -203 -98q-93 0 -145 59q-54 62 -54 162zM1413 565q0 -119 90 -119 q68 0 115 74q26 42 40 94q15 56 15 103q0 57 -23 86q-25 31 -67 31q-32 0 -63 -23q-33 -25 -55 -59q-23 -35 -38 -86q-14 -46 -14 -101z" />
<glyph unicode="&#x2122;" horiz-adv-x="1540" d="M166 586l20 80h99l153 622h-151l-31 -119h-82l47 197h572l-50 -197h-81l28 119h-151l-154 -622h107l-21 -80h-305zM655 586l21 80h92l156 622h-103l21 78h248l18 -315q4 -62 6 -104q1 -16 2.5 -39.5t1.5 -28.5q2 -38 3 -56t1 -63l40 69l44 78l46 77l42 69l187 313h243 l-20 -78h-94l-156 -622h105l-21 -80h-295l21 80h92l76 303q2 9 6 25.5t7.5 30t7.5 25.5q11 36 22 83l11 43l23 90q-23 -38 -49 -86q-22 -40 -33 -56l-50 -86l-52 -88l-195 -323h-92l-20 325q-9 129 -11 186l-6 126l-12 -52l-20 -86q-20 -76 -29 -118q-10 -44 -20 -86 l-64 -256h100l-20 -80h-281z" />
<glyph unicode="&#xe000;" horiz-adv-x="962" d="M0 0v963h963v-963h-963z" />
<glyph horiz-adv-x="0" />
<glyph horiz-adv-x="0" />
</font>
</defs>
</svg>
